G04 EAGLE Gerber RS-274X export*
G75*
%MOMM*%
%FSLAX34Y34*%
%LPD*%
%INTop Copper*%
%IPPOS*%
%AMOC8*
5,1,8,0,0,1.08239X$1,22.5*%
G01*
%ADD10C,0.300000*%
%ADD11C,1.108000*%
%ADD12R,0.700000X0.900000*%
%ADD13R,0.900000X0.700000*%
%ADD14R,0.198400X0.854800*%
%ADD15R,0.854800X0.198400*%
%ADD16R,7.600000X7.600000*%
%ADD17C,1.408000*%
%ADD18P,1.649562X8X22.500000*%
%ADD19C,1.524000*%
%ADD20P,1.649562X8X292.500000*%
%ADD21R,0.600000X0.600000*%
%ADD22C,0.088500*%
%ADD23C,1.000000*%
%ADD24R,1.800000X2.000000*%
%ADD25R,1.000000X1.100000*%
%ADD26C,0.254000*%
%ADD27C,0.152400*%
%ADD28C,0.304800*%
%ADD29C,0.756400*%
%ADD30C,0.508000*%

G36*
X572973Y114630D02*
X572973Y114630D01*
X573557Y114630D01*
X573577Y114634D01*
X573597Y114631D01*
X573698Y114653D01*
X573800Y114670D01*
X573818Y114679D01*
X573837Y114684D01*
X573926Y114737D01*
X574018Y114785D01*
X574031Y114800D01*
X574048Y114810D01*
X574116Y114889D01*
X574187Y114964D01*
X574195Y114982D01*
X574208Y114997D01*
X574247Y115093D01*
X574291Y115187D01*
X574293Y115206D01*
X574300Y115225D01*
X574319Y115392D01*
X574319Y144473D01*
X598948Y144155D01*
X598972Y144159D01*
X598997Y144156D01*
X599093Y144177D01*
X599191Y144192D01*
X599213Y144203D01*
X599237Y144208D01*
X599322Y144259D01*
X599410Y144304D01*
X599427Y144322D01*
X599448Y144334D01*
X599512Y144409D01*
X599581Y144480D01*
X599592Y144502D01*
X599608Y144521D01*
X599645Y144613D01*
X599688Y144702D01*
X599691Y144726D01*
X599700Y144749D01*
X599719Y144916D01*
X599719Y358826D01*
X599715Y358845D01*
X599718Y358865D01*
X599696Y358967D01*
X599679Y359069D01*
X599670Y359086D01*
X599665Y359106D01*
X599612Y359195D01*
X599564Y359286D01*
X599549Y359300D01*
X599539Y359317D01*
X599460Y359384D01*
X599385Y359455D01*
X599367Y359464D01*
X599352Y359477D01*
X599256Y359515D01*
X599162Y359559D01*
X599143Y359561D01*
X599124Y359569D01*
X598957Y359587D01*
X574090Y359587D01*
X574090Y385877D01*
X574087Y385897D01*
X574089Y385917D01*
X574067Y386018D01*
X574050Y386120D01*
X574041Y386138D01*
X574037Y386157D01*
X573984Y386246D01*
X573935Y386338D01*
X573921Y386351D01*
X573910Y386369D01*
X573832Y386436D01*
X573757Y386507D01*
X573739Y386515D01*
X573723Y386528D01*
X573628Y386567D01*
X573534Y386611D01*
X573514Y386613D01*
X573495Y386620D01*
X573329Y386639D01*
X568198Y386637D01*
X568178Y386634D01*
X568159Y386636D01*
X568057Y386614D01*
X567955Y386598D01*
X567938Y386588D01*
X567918Y386584D01*
X567829Y386531D01*
X567738Y386482D01*
X567724Y386468D01*
X567707Y386458D01*
X567640Y386379D01*
X567568Y386304D01*
X567560Y386286D01*
X567547Y386271D01*
X567508Y386175D01*
X567465Y386081D01*
X567463Y386061D01*
X567455Y386043D01*
X567437Y385876D01*
X567437Y376387D01*
X566045Y373026D01*
X563472Y370453D01*
X560111Y369061D01*
X556473Y369061D01*
X554881Y369721D01*
X554767Y369747D01*
X554654Y369776D01*
X554648Y369775D01*
X554641Y369777D01*
X554525Y369766D01*
X554409Y369757D01*
X554403Y369754D01*
X554397Y369754D01*
X554289Y369706D01*
X554182Y369661D01*
X554176Y369656D01*
X554172Y369654D01*
X554158Y369641D01*
X554051Y369556D01*
X517489Y332993D01*
X473405Y332993D01*
X473315Y332979D01*
X473224Y332971D01*
X473194Y332959D01*
X473162Y332954D01*
X473082Y332911D01*
X472998Y332875D01*
X472966Y332849D01*
X472945Y332838D01*
X472935Y332828D01*
X472934Y332828D01*
X472920Y332813D01*
X472867Y332770D01*
X443846Y303749D01*
X443793Y303675D01*
X443733Y303606D01*
X443721Y303576D01*
X443702Y303550D01*
X443675Y303463D01*
X443641Y303378D01*
X443637Y303337D01*
X443630Y303315D01*
X443631Y303282D01*
X443623Y303211D01*
X443623Y299604D01*
X443626Y299584D01*
X443624Y299565D01*
X443646Y299463D01*
X443662Y299361D01*
X443672Y299344D01*
X443676Y299324D01*
X443729Y299235D01*
X443778Y299144D01*
X443792Y299130D01*
X443802Y299113D01*
X443881Y299046D01*
X443956Y298974D01*
X443974Y298966D01*
X443989Y298953D01*
X444085Y298914D01*
X444179Y298871D01*
X444199Y298869D01*
X444217Y298861D01*
X444384Y298843D01*
X446129Y298843D01*
X446219Y298857D01*
X446310Y298865D01*
X446340Y298877D01*
X446372Y298882D01*
X446452Y298925D01*
X446536Y298961D01*
X446568Y298987D01*
X446589Y298998D01*
X446611Y299021D01*
X446667Y299066D01*
X446722Y299121D01*
X460969Y299121D01*
X461059Y299135D01*
X461150Y299143D01*
X461180Y299155D01*
X461212Y299160D01*
X461292Y299203D01*
X461376Y299239D01*
X461408Y299265D01*
X461429Y299276D01*
X461451Y299299D01*
X461507Y299344D01*
X466809Y304645D01*
X466836Y304682D01*
X466869Y304713D01*
X466907Y304782D01*
X466952Y304845D01*
X466966Y304889D01*
X466988Y304929D01*
X467002Y305005D01*
X467025Y305080D01*
X467023Y305126D01*
X467032Y305171D01*
X467020Y305248D01*
X467018Y305326D01*
X467002Y305369D01*
X466996Y305414D01*
X466961Y305484D01*
X466934Y305557D01*
X466905Y305593D01*
X466884Y305634D01*
X466829Y305688D01*
X466780Y305749D01*
X466741Y305774D01*
X466709Y305806D01*
X466589Y305872D01*
X466573Y305882D01*
X466568Y305883D01*
X466562Y305887D01*
X466478Y305921D01*
X464069Y308330D01*
X462765Y311478D01*
X462765Y314886D01*
X464069Y318034D01*
X466478Y320443D01*
X469626Y321747D01*
X473034Y321747D01*
X476182Y320443D01*
X478591Y318034D01*
X479895Y314886D01*
X479895Y311478D01*
X478591Y308330D01*
X476182Y305921D01*
X474595Y305264D01*
X474495Y305202D01*
X474395Y305142D01*
X474391Y305138D01*
X474386Y305134D01*
X474311Y305044D01*
X474235Y304955D01*
X474233Y304950D01*
X474229Y304945D01*
X474187Y304836D01*
X474143Y304727D01*
X474142Y304720D01*
X474141Y304715D01*
X474140Y304697D01*
X474125Y304561D01*
X474125Y304056D01*
X465514Y295446D01*
X465472Y295387D01*
X465423Y295335D01*
X465401Y295288D01*
X465370Y295246D01*
X465349Y295177D01*
X465319Y295112D01*
X465313Y295061D01*
X465298Y295011D01*
X465300Y294939D01*
X465292Y294868D01*
X465303Y294817D01*
X465304Y294765D01*
X465329Y294698D01*
X465344Y294628D01*
X465371Y294583D01*
X465389Y294534D01*
X465434Y294478D01*
X465471Y294416D01*
X465510Y294383D01*
X465543Y294342D01*
X465603Y294303D01*
X465657Y294257D01*
X465706Y294237D01*
X465750Y294209D01*
X465819Y294191D01*
X465886Y294165D01*
X465957Y294157D01*
X465988Y294149D01*
X466011Y294151D01*
X466052Y294146D01*
X466916Y294146D01*
X467007Y294161D01*
X467097Y294168D01*
X467127Y294181D01*
X467159Y294186D01*
X467240Y294229D01*
X467324Y294264D01*
X467356Y294290D01*
X467377Y294301D01*
X467388Y294313D01*
X467389Y294314D01*
X467401Y294326D01*
X467455Y294369D01*
X474248Y301163D01*
X476108Y303023D01*
X487774Y303023D01*
X487794Y303026D01*
X487813Y303024D01*
X487915Y303046D01*
X488017Y303062D01*
X488034Y303072D01*
X488054Y303076D01*
X488143Y303129D01*
X488234Y303178D01*
X488248Y303192D01*
X488265Y303202D01*
X488332Y303281D01*
X488404Y303356D01*
X488412Y303374D01*
X488425Y303389D01*
X488464Y303485D01*
X488507Y303579D01*
X488509Y303599D01*
X488517Y303617D01*
X488535Y303784D01*
X488535Y304561D01*
X488516Y304675D01*
X488499Y304791D01*
X488497Y304797D01*
X488496Y304803D01*
X488441Y304906D01*
X488388Y305011D01*
X488383Y305015D01*
X488380Y305021D01*
X488296Y305101D01*
X488212Y305183D01*
X488206Y305187D01*
X488202Y305190D01*
X488185Y305198D01*
X488065Y305264D01*
X486478Y305921D01*
X484069Y308330D01*
X482765Y311478D01*
X482765Y314886D01*
X484069Y318034D01*
X486478Y320443D01*
X489626Y321747D01*
X493034Y321747D01*
X496182Y320443D01*
X498591Y318034D01*
X499895Y314886D01*
X499895Y311478D01*
X498591Y308330D01*
X496182Y305921D01*
X494595Y305264D01*
X494495Y305202D01*
X494395Y305142D01*
X494391Y305138D01*
X494386Y305134D01*
X494311Y305044D01*
X494235Y304955D01*
X494233Y304950D01*
X494229Y304945D01*
X494187Y304836D01*
X494143Y304727D01*
X494142Y304720D01*
X494141Y304715D01*
X494140Y304697D01*
X494125Y304561D01*
X494125Y299070D01*
X492409Y297355D01*
X492368Y297297D01*
X492318Y297245D01*
X492296Y297198D01*
X492266Y297155D01*
X492245Y297087D01*
X492215Y297022D01*
X492209Y296970D01*
X492194Y296920D01*
X492195Y296849D01*
X492187Y296777D01*
X492199Y296726D01*
X492200Y296674D01*
X492225Y296607D01*
X492240Y296537D01*
X492266Y296492D01*
X492284Y296443D01*
X492329Y296387D01*
X492366Y296326D01*
X492405Y296292D01*
X492438Y296251D01*
X492498Y296213D01*
X492553Y296166D01*
X492601Y296146D01*
X492645Y296118D01*
X492714Y296101D01*
X492781Y296074D01*
X492852Y296066D01*
X492883Y296058D01*
X492907Y296060D01*
X492948Y296056D01*
X500076Y296056D01*
X500969Y295162D01*
X500969Y293779D01*
X500972Y293759D01*
X500970Y293740D01*
X500992Y293638D01*
X501009Y293536D01*
X501018Y293519D01*
X501022Y293499D01*
X501076Y293410D01*
X501124Y293319D01*
X501138Y293305D01*
X501149Y293288D01*
X501227Y293221D01*
X501302Y293149D01*
X501320Y293141D01*
X501336Y293128D01*
X501432Y293089D01*
X501525Y293046D01*
X501545Y293044D01*
X501564Y293036D01*
X501730Y293018D01*
X508650Y293018D01*
X510715Y290952D01*
X510789Y290899D01*
X510859Y290840D01*
X510889Y290827D01*
X510915Y290809D01*
X511002Y290782D01*
X511087Y290748D01*
X511128Y290743D01*
X511150Y290736D01*
X511182Y290737D01*
X511254Y290729D01*
X514211Y290729D01*
X517320Y287621D01*
X517320Y283224D01*
X514211Y280116D01*
X509815Y280116D01*
X506706Y283224D01*
X506706Y286667D01*
X506703Y286687D01*
X506705Y286706D01*
X506683Y286808D01*
X506667Y286910D01*
X506657Y286927D01*
X506653Y286947D01*
X506600Y287036D01*
X506552Y287127D01*
X506537Y287141D01*
X506527Y287158D01*
X506448Y287225D01*
X506373Y287297D01*
X506355Y287305D01*
X506340Y287318D01*
X506244Y287357D01*
X506150Y287400D01*
X506130Y287402D01*
X506112Y287410D01*
X505945Y287428D01*
X501730Y287428D01*
X501711Y287425D01*
X501691Y287427D01*
X501590Y287405D01*
X501488Y287389D01*
X501470Y287379D01*
X501451Y287375D01*
X501362Y287322D01*
X501270Y287273D01*
X501257Y287259D01*
X501239Y287249D01*
X501172Y287170D01*
X501101Y287095D01*
X501093Y287077D01*
X501080Y287062D01*
X501044Y286974D01*
X500076Y286006D01*
X489656Y286006D01*
X489639Y286013D01*
X489598Y286018D01*
X489576Y286024D01*
X489543Y286024D01*
X489472Y286031D01*
X479221Y286031D01*
X478456Y286796D01*
X478382Y286849D01*
X478313Y286909D01*
X478283Y286921D01*
X478256Y286940D01*
X478170Y286967D01*
X478085Y287001D01*
X478044Y287005D01*
X478021Y287012D01*
X477989Y287011D01*
X477918Y287019D01*
X477066Y287019D01*
X476976Y287005D01*
X476885Y286997D01*
X476855Y286985D01*
X476823Y286980D01*
X476743Y286937D01*
X476659Y286901D01*
X476627Y286875D01*
X476606Y286864D01*
X476584Y286841D01*
X476528Y286796D01*
X473618Y283887D01*
X455356Y283887D01*
X455240Y283868D01*
X455121Y283850D01*
X455117Y283848D01*
X455113Y283847D01*
X455009Y283792D01*
X454902Y283737D01*
X454900Y283734D01*
X454896Y283732D01*
X454814Y283646D01*
X454731Y283560D01*
X454729Y283557D01*
X454727Y283554D01*
X454676Y283445D01*
X454625Y283339D01*
X454625Y283334D01*
X454623Y283331D01*
X454610Y283211D01*
X454595Y283094D01*
X454596Y283089D01*
X454596Y283086D01*
X454599Y283073D01*
X454621Y282929D01*
X454695Y282652D01*
X454695Y282087D01*
X447880Y282087D01*
X447861Y282084D01*
X447841Y282086D01*
X447740Y282064D01*
X447638Y282048D01*
X447620Y282038D01*
X447601Y282034D01*
X447511Y281981D01*
X447420Y281933D01*
X447420Y281932D01*
X447406Y281918D01*
X447389Y281908D01*
X447389Y281907D01*
X447322Y281829D01*
X447250Y281754D01*
X447242Y281736D01*
X447229Y281721D01*
X447190Y281624D01*
X447147Y281531D01*
X447145Y281511D01*
X447137Y281492D01*
X447119Y281326D01*
X447119Y276326D01*
X447122Y276307D01*
X447120Y276287D01*
X447142Y276186D01*
X447158Y276084D01*
X447168Y276066D01*
X447172Y276047D01*
X447225Y275957D01*
X447273Y275866D01*
X447274Y275866D01*
X447288Y275852D01*
X447298Y275835D01*
X447299Y275835D01*
X447377Y275768D01*
X447452Y275696D01*
X447470Y275688D01*
X447485Y275675D01*
X447582Y275636D01*
X447675Y275593D01*
X447695Y275591D01*
X447714Y275583D01*
X447880Y275565D01*
X454695Y275565D01*
X454695Y275000D01*
X454580Y274571D01*
X454568Y274452D01*
X454555Y274335D01*
X454556Y274330D01*
X454555Y274326D01*
X454582Y274210D01*
X454607Y274094D01*
X454609Y274091D01*
X454610Y274087D01*
X454673Y273985D01*
X454733Y273883D01*
X454737Y273880D01*
X454739Y273877D01*
X454830Y273800D01*
X454920Y273723D01*
X454924Y273722D01*
X454927Y273719D01*
X455037Y273676D01*
X455148Y273631D01*
X455153Y273631D01*
X455157Y273629D01*
X455170Y273629D01*
X455315Y273613D01*
X465756Y273613D01*
X465775Y273616D01*
X465795Y273614D01*
X465896Y273636D01*
X465998Y273652D01*
X466016Y273662D01*
X466035Y273666D01*
X466124Y273719D01*
X466216Y273768D01*
X466229Y273782D01*
X466247Y273792D01*
X466314Y273871D01*
X466385Y273946D01*
X466393Y273964D01*
X466406Y273979D01*
X466445Y274075D01*
X466489Y274169D01*
X466491Y274189D01*
X466498Y274207D01*
X466505Y274268D01*
X472034Y274268D01*
X472034Y269750D01*
X471670Y269750D01*
X471599Y269738D01*
X471528Y269737D01*
X471479Y269719D01*
X471427Y269710D01*
X471364Y269677D01*
X471297Y269652D01*
X471256Y269620D01*
X471210Y269595D01*
X471161Y269543D01*
X471105Y269498D01*
X471076Y269455D01*
X471041Y269417D01*
X471010Y269352D01*
X470972Y269291D01*
X470959Y269241D01*
X470937Y269194D01*
X470929Y269122D01*
X470912Y269053D01*
X470916Y269001D01*
X470910Y268949D01*
X470925Y268879D01*
X470931Y268808D01*
X470951Y268760D01*
X470962Y268709D01*
X470999Y268647D01*
X471027Y268581D01*
X471072Y268525D01*
X471088Y268498D01*
X471106Y268483D01*
X471132Y268450D01*
X471544Y268038D01*
X471618Y267985D01*
X471687Y267926D01*
X471717Y267914D01*
X471744Y267895D01*
X471831Y267868D01*
X471915Y267834D01*
X471956Y267829D01*
X471979Y267823D01*
X472011Y267823D01*
X472082Y267816D01*
X478689Y267816D01*
X479335Y267170D01*
X479409Y267117D01*
X479478Y267058D01*
X479508Y267045D01*
X479534Y267027D01*
X479621Y267000D01*
X479706Y266966D01*
X479747Y266961D01*
X479769Y266954D01*
X479802Y266955D01*
X479873Y266947D01*
X482855Y266947D01*
X482855Y261669D01*
X482858Y261649D01*
X482856Y261629D01*
X482878Y261528D01*
X482895Y261426D01*
X482904Y261408D01*
X482908Y261389D01*
X482961Y261300D01*
X483010Y261208D01*
X483024Y261195D01*
X483034Y261178D01*
X483113Y261110D01*
X483188Y261039D01*
X483206Y261031D01*
X483221Y261018D01*
X483317Y260979D01*
X483411Y260935D01*
X483431Y260933D01*
X483449Y260926D01*
X483616Y260907D01*
X484379Y260907D01*
X484379Y260906D01*
X483616Y260906D01*
X483596Y260902D01*
X483577Y260905D01*
X483475Y260883D01*
X483373Y260866D01*
X483356Y260857D01*
X483336Y260852D01*
X483247Y260799D01*
X483156Y260751D01*
X483142Y260736D01*
X483125Y260726D01*
X483058Y260647D01*
X482987Y260572D01*
X482978Y260554D01*
X482965Y260539D01*
X482926Y260443D01*
X482883Y260349D01*
X482881Y260330D01*
X482873Y260311D01*
X482855Y260144D01*
X482855Y254775D01*
X482835Y254768D01*
X482795Y254735D01*
X482749Y254711D01*
X482699Y254659D01*
X482643Y254614D01*
X482615Y254570D01*
X482579Y254533D01*
X482549Y254467D01*
X482510Y254407D01*
X482498Y254357D01*
X482476Y254309D01*
X482468Y254238D01*
X482450Y254169D01*
X482454Y254117D01*
X482449Y254065D01*
X482464Y253995D01*
X482469Y253923D01*
X482490Y253876D01*
X482501Y253825D01*
X482538Y253763D01*
X482566Y253697D01*
X482611Y253641D01*
X482627Y253614D01*
X482645Y253598D01*
X482671Y253566D01*
X483083Y253154D01*
X483157Y253101D01*
X483226Y253042D01*
X483256Y253029D01*
X483282Y253011D01*
X483369Y252984D01*
X483454Y252950D01*
X483495Y252945D01*
X483517Y252938D01*
X483550Y252939D01*
X483621Y252931D01*
X489650Y252931D01*
X489740Y252946D01*
X489831Y252953D01*
X489839Y252957D01*
X500254Y252957D01*
X501147Y252063D01*
X501147Y251994D01*
X501158Y251923D01*
X501160Y251851D01*
X501178Y251802D01*
X501187Y251751D01*
X501220Y251688D01*
X501245Y251620D01*
X501277Y251580D01*
X501302Y251534D01*
X501354Y251484D01*
X501399Y251428D01*
X501442Y251400D01*
X501480Y251364D01*
X501545Y251334D01*
X501605Y251295D01*
X501656Y251283D01*
X501703Y251261D01*
X501774Y251253D01*
X501844Y251235D01*
X501896Y251239D01*
X501948Y251234D01*
X502018Y251249D01*
X502089Y251254D01*
X502137Y251275D01*
X502188Y251286D01*
X502250Y251323D01*
X502316Y251351D01*
X502372Y251396D01*
X502399Y251412D01*
X502414Y251430D01*
X502446Y251456D01*
X502830Y251839D01*
X507226Y251839D01*
X510335Y248731D01*
X510335Y244334D01*
X508046Y242045D01*
X507993Y241971D01*
X507933Y241902D01*
X507921Y241872D01*
X507902Y241845D01*
X507876Y241759D01*
X507841Y241674D01*
X507837Y241633D01*
X507830Y241610D01*
X507831Y241578D01*
X507823Y241507D01*
X507823Y231329D01*
X501180Y224685D01*
X501070Y224685D01*
X501050Y224682D01*
X501031Y224684D01*
X500929Y224662D01*
X500827Y224646D01*
X500810Y224636D01*
X500790Y224632D01*
X500701Y224579D01*
X500610Y224530D01*
X500596Y224516D01*
X500579Y224506D01*
X500512Y224427D01*
X500440Y224352D01*
X500432Y224334D01*
X500419Y224319D01*
X500380Y224223D01*
X500337Y224129D01*
X500335Y224109D01*
X500327Y224091D01*
X500309Y223924D01*
X500309Y223348D01*
X499416Y222455D01*
X489063Y222455D01*
X488973Y222441D01*
X488882Y222433D01*
X488852Y222421D01*
X488820Y222416D01*
X488739Y222373D01*
X488656Y222337D01*
X488623Y222311D01*
X488603Y222300D01*
X488581Y222277D01*
X488525Y222232D01*
X488494Y222201D01*
X479166Y222201D01*
X479095Y222190D01*
X479023Y222188D01*
X478974Y222170D01*
X478923Y222162D01*
X478860Y222128D01*
X478792Y222103D01*
X478752Y222071D01*
X478706Y222046D01*
X478656Y221995D01*
X478600Y221950D01*
X478572Y221906D01*
X478536Y221868D01*
X478506Y221803D01*
X478467Y221743D01*
X478454Y221692D01*
X478433Y221645D01*
X478425Y221574D01*
X478407Y221504D01*
X478411Y221452D01*
X478405Y221401D01*
X478421Y221330D01*
X478426Y221259D01*
X478447Y221211D01*
X478458Y221160D01*
X478495Y221099D01*
X478523Y221033D01*
X478567Y220977D01*
X478584Y220949D01*
X478602Y220934D01*
X478627Y220902D01*
X479039Y220490D01*
X479114Y220436D01*
X479183Y220377D01*
X479213Y220365D01*
X479239Y220346D01*
X479326Y220319D01*
X479411Y220285D01*
X479452Y220281D01*
X479474Y220274D01*
X479506Y220275D01*
X479578Y220267D01*
X481839Y220267D01*
X481839Y215749D01*
X476321Y215749D01*
X476321Y216258D01*
X476318Y216278D01*
X476320Y216297D01*
X476298Y216399D01*
X476282Y216501D01*
X476272Y216518D01*
X476268Y216538D01*
X476215Y216627D01*
X476166Y216718D01*
X476152Y216732D01*
X476142Y216749D01*
X476063Y216816D01*
X475988Y216887D01*
X475970Y216896D01*
X475955Y216909D01*
X475859Y216948D01*
X475765Y216991D01*
X475745Y216993D01*
X475727Y217001D01*
X475560Y217019D01*
X473963Y217019D01*
X473963Y221537D01*
X477057Y221537D01*
X477128Y221548D01*
X477200Y221550D01*
X477249Y221568D01*
X477300Y221576D01*
X477363Y221610D01*
X477431Y221635D01*
X477471Y221667D01*
X477517Y221692D01*
X477567Y221743D01*
X477623Y221788D01*
X477651Y221832D01*
X477687Y221870D01*
X477717Y221935D01*
X477756Y221995D01*
X477768Y222046D01*
X477790Y222093D01*
X477798Y222164D01*
X477816Y222234D01*
X477812Y222286D01*
X477817Y222337D01*
X477802Y222408D01*
X477797Y222479D01*
X477776Y222527D01*
X477765Y222578D01*
X477728Y222639D01*
X477700Y222705D01*
X477655Y222761D01*
X477639Y222789D01*
X477621Y222804D01*
X477595Y222836D01*
X477183Y223248D01*
X477109Y223302D01*
X477040Y223361D01*
X477010Y223373D01*
X476984Y223392D01*
X476897Y223419D01*
X476812Y223453D01*
X476771Y223457D01*
X476749Y223464D01*
X476716Y223463D01*
X476645Y223471D01*
X468812Y223471D01*
X468792Y223468D01*
X468772Y223470D01*
X468671Y223448D01*
X468569Y223432D01*
X468552Y223422D01*
X468532Y223418D01*
X468443Y223365D01*
X468352Y223316D01*
X468338Y223302D01*
X468321Y223292D01*
X468254Y223213D01*
X468182Y223138D01*
X468174Y223120D01*
X468161Y223105D01*
X468122Y223009D01*
X468079Y222915D01*
X468077Y222895D01*
X468069Y222877D01*
X468051Y222710D01*
X468051Y222298D01*
X468054Y222278D01*
X468052Y222259D01*
X468074Y222157D01*
X468090Y222055D01*
X468100Y222038D01*
X468104Y222018D01*
X468157Y221929D01*
X468206Y221838D01*
X468220Y221824D01*
X468230Y221807D01*
X468309Y221740D01*
X468384Y221668D01*
X468402Y221660D01*
X468417Y221647D01*
X468513Y221608D01*
X468607Y221565D01*
X468627Y221563D01*
X468645Y221555D01*
X468812Y221537D01*
X470917Y221537D01*
X470917Y216258D01*
X470920Y216238D01*
X470918Y216219D01*
X470940Y216117D01*
X470957Y216015D01*
X470966Y215998D01*
X470970Y215978D01*
X471023Y215889D01*
X471072Y215798D01*
X471086Y215784D01*
X471096Y215767D01*
X471175Y215700D01*
X471250Y215629D01*
X471268Y215620D01*
X471283Y215607D01*
X471379Y215568D01*
X471473Y215525D01*
X471493Y215523D01*
X471511Y215515D01*
X471678Y215497D01*
X472441Y215497D01*
X472441Y215495D01*
X471678Y215495D01*
X471658Y215492D01*
X471639Y215494D01*
X471537Y215472D01*
X471435Y215455D01*
X471418Y215446D01*
X471398Y215442D01*
X471309Y215389D01*
X471218Y215340D01*
X471204Y215326D01*
X471187Y215316D01*
X471120Y215237D01*
X471049Y215162D01*
X471040Y215144D01*
X471027Y215129D01*
X470988Y215033D01*
X470945Y214939D01*
X470943Y214919D01*
X470935Y214901D01*
X470917Y214734D01*
X470917Y209455D01*
X467796Y209455D01*
X467776Y209452D01*
X467757Y209454D01*
X467655Y209432D01*
X467553Y209416D01*
X467536Y209406D01*
X467516Y209402D01*
X467427Y209349D01*
X467336Y209300D01*
X467322Y209286D01*
X467305Y209276D01*
X467238Y209197D01*
X467166Y209122D01*
X467158Y209104D01*
X467145Y209089D01*
X467106Y208993D01*
X467063Y208899D01*
X467061Y208879D01*
X467053Y208861D01*
X467035Y208694D01*
X467035Y207300D01*
X466142Y206407D01*
X457903Y206407D01*
X457833Y206396D01*
X457761Y206394D01*
X457712Y206376D01*
X457661Y206368D01*
X457597Y206334D01*
X457530Y206309D01*
X457489Y206277D01*
X457443Y206252D01*
X457394Y206200D01*
X457338Y206156D01*
X457310Y206112D01*
X457274Y206074D01*
X457244Y206009D01*
X457205Y205949D01*
X457192Y205898D01*
X457170Y205851D01*
X457162Y205780D01*
X457145Y205710D01*
X457149Y205658D01*
X457143Y205607D01*
X457158Y205536D01*
X457164Y205465D01*
X457184Y205417D01*
X457195Y205366D01*
X457232Y205305D01*
X457260Y205239D01*
X457305Y205183D01*
X457322Y205155D01*
X457339Y205140D01*
X457365Y205108D01*
X495371Y167102D01*
X495445Y167049D01*
X495514Y166989D01*
X495545Y166977D01*
X495571Y166958D01*
X495658Y166931D01*
X495743Y166897D01*
X495784Y166893D01*
X495806Y166886D01*
X495838Y166887D01*
X495909Y166879D01*
X525464Y166879D01*
X558769Y133574D01*
X558843Y133521D01*
X558913Y133461D01*
X558943Y133449D01*
X558969Y133430D01*
X559056Y133403D01*
X559141Y133369D01*
X559182Y133365D01*
X559204Y133358D01*
X559236Y133359D01*
X559308Y133351D01*
X560111Y133351D01*
X563472Y131959D01*
X566045Y129386D01*
X567437Y126025D01*
X567437Y115390D01*
X567440Y115370D01*
X567438Y115350D01*
X567460Y115249D01*
X567476Y115147D01*
X567486Y115129D01*
X567490Y115110D01*
X567543Y115021D01*
X567592Y114930D01*
X567606Y114916D01*
X567616Y114899D01*
X567695Y114831D01*
X567770Y114760D01*
X567788Y114752D01*
X567803Y114739D01*
X567899Y114700D01*
X567993Y114657D01*
X568013Y114654D01*
X568032Y114647D01*
X568198Y114629D01*
X572973Y114630D01*
G37*
G36*
X182716Y288041D02*
X182716Y288041D01*
X182768Y288043D01*
X182836Y288067D01*
X182906Y288082D01*
X182951Y288109D01*
X182999Y288127D01*
X183055Y288172D01*
X183117Y288209D01*
X183151Y288248D01*
X183191Y288281D01*
X183230Y288341D01*
X183277Y288396D01*
X183296Y288444D01*
X183324Y288488D01*
X183342Y288557D01*
X183369Y288624D01*
X183377Y288695D01*
X183385Y288726D01*
X183383Y288750D01*
X183387Y288790D01*
X183387Y296396D01*
X188744Y301753D01*
X196320Y301753D01*
X196569Y301503D01*
X196586Y301491D01*
X196598Y301476D01*
X196685Y301420D01*
X196769Y301360D01*
X196788Y301354D01*
X196805Y301343D01*
X196905Y301318D01*
X197004Y301287D01*
X197024Y301288D01*
X197043Y301283D01*
X197146Y301291D01*
X197250Y301294D01*
X197269Y301300D01*
X197289Y301302D01*
X197384Y301342D01*
X197481Y301378D01*
X197497Y301391D01*
X197515Y301398D01*
X197646Y301503D01*
X200397Y304254D01*
X201186Y305043D01*
X201198Y305059D01*
X201213Y305072D01*
X201269Y305159D01*
X201330Y305243D01*
X201336Y305262D01*
X201346Y305279D01*
X201372Y305379D01*
X201402Y305478D01*
X201402Y305498D01*
X201406Y305517D01*
X201398Y305620D01*
X201396Y305724D01*
X201389Y305743D01*
X201387Y305763D01*
X201347Y305858D01*
X201311Y305955D01*
X201299Y305971D01*
X201291Y305989D01*
X201186Y306120D01*
X197920Y309386D01*
X197903Y309398D01*
X197891Y309414D01*
X197804Y309470D01*
X197720Y309530D01*
X197701Y309536D01*
X197684Y309547D01*
X197584Y309572D01*
X197485Y309602D01*
X197465Y309602D01*
X197446Y309607D01*
X197343Y309599D01*
X197239Y309596D01*
X197220Y309589D01*
X197200Y309588D01*
X197105Y309547D01*
X197008Y309512D01*
X196992Y309499D01*
X196974Y309491D01*
X196843Y309386D01*
X196320Y308863D01*
X188744Y308863D01*
X183387Y314220D01*
X183387Y321796D01*
X188744Y327153D01*
X196320Y327153D01*
X201677Y321796D01*
X201677Y314220D01*
X201154Y313697D01*
X201142Y313681D01*
X201126Y313668D01*
X201070Y313581D01*
X201010Y313497D01*
X201004Y313478D01*
X200993Y313461D01*
X200968Y313361D01*
X200938Y313262D01*
X200938Y313242D01*
X200933Y313223D01*
X200941Y313120D01*
X200942Y313111D01*
X200941Y313110D01*
X200942Y313108D01*
X200944Y313016D01*
X200951Y312997D01*
X200952Y312978D01*
X200988Y312893D01*
X200994Y312869D01*
X201004Y312851D01*
X201028Y312785D01*
X201041Y312770D01*
X201049Y312751D01*
X201109Y312676D01*
X201120Y312658D01*
X201131Y312648D01*
X201154Y312620D01*
X204178Y309596D01*
X204252Y309543D01*
X204322Y309483D01*
X204352Y309471D01*
X204378Y309452D01*
X204465Y309425D01*
X204550Y309391D01*
X204591Y309387D01*
X204613Y309380D01*
X204645Y309381D01*
X204717Y309373D01*
X211797Y309373D01*
X211868Y309384D01*
X211939Y309386D01*
X211988Y309404D01*
X212040Y309412D01*
X212103Y309446D01*
X212170Y309471D01*
X212211Y309503D01*
X212257Y309528D01*
X212306Y309580D01*
X212362Y309624D01*
X212391Y309668D01*
X212426Y309706D01*
X212457Y309771D01*
X212495Y309831D01*
X212508Y309882D01*
X212530Y309929D01*
X212538Y310000D01*
X212555Y310070D01*
X212551Y310122D01*
X212557Y310173D01*
X212542Y310244D01*
X212536Y310315D01*
X212516Y310363D01*
X212505Y310414D01*
X212468Y310475D01*
X212440Y310541D01*
X212395Y310597D01*
X212379Y310625D01*
X212361Y310640D01*
X212335Y310672D01*
X208787Y314220D01*
X208787Y321796D01*
X214144Y327153D01*
X221720Y327153D01*
X223072Y325801D01*
X223146Y325748D01*
X223215Y325688D01*
X223245Y325676D01*
X223271Y325657D01*
X223358Y325631D01*
X223443Y325596D01*
X223484Y325592D01*
X223506Y325585D01*
X223539Y325586D01*
X223610Y325578D01*
X356108Y325578D01*
X356128Y325581D01*
X356147Y325579D01*
X356249Y325601D01*
X356351Y325618D01*
X356368Y325627D01*
X356388Y325631D01*
X356477Y325684D01*
X356568Y325733D01*
X356582Y325747D01*
X356599Y325757D01*
X356666Y325836D01*
X356738Y325911D01*
X356746Y325929D01*
X356759Y325944D01*
X356798Y326041D01*
X356841Y326134D01*
X356843Y326154D01*
X356851Y326172D01*
X356869Y326339D01*
X356869Y376936D01*
X356855Y377026D01*
X356847Y377117D01*
X356835Y377147D01*
X356830Y377179D01*
X356787Y377259D01*
X356751Y377343D01*
X356725Y377375D01*
X356714Y377396D01*
X356691Y377418D01*
X356646Y377474D01*
X348544Y385577D01*
X348470Y385630D01*
X348400Y385689D01*
X348370Y385702D01*
X348344Y385720D01*
X348257Y385747D01*
X348172Y385781D01*
X348131Y385786D01*
X348109Y385793D01*
X348077Y385792D01*
X348006Y385800D01*
X335026Y385802D01*
X335006Y385799D01*
X334987Y385801D01*
X334886Y385779D01*
X334783Y385762D01*
X334766Y385753D01*
X334746Y385748D01*
X334657Y385695D01*
X334566Y385647D01*
X334552Y385632D01*
X334535Y385622D01*
X334468Y385544D01*
X334397Y385469D01*
X334388Y385451D01*
X334375Y385435D01*
X334336Y385339D01*
X334293Y385246D01*
X334291Y385226D01*
X334283Y385207D01*
X334265Y385040D01*
X334265Y376641D01*
X332873Y373280D01*
X330300Y370707D01*
X326939Y369315D01*
X323301Y369315D01*
X319940Y370707D01*
X317367Y373280D01*
X315975Y376641D01*
X315975Y385043D01*
X315972Y385063D01*
X315974Y385083D01*
X315952Y385184D01*
X315936Y385286D01*
X315926Y385304D01*
X315922Y385323D01*
X315869Y385412D01*
X315820Y385504D01*
X315806Y385517D01*
X315796Y385534D01*
X315717Y385602D01*
X315642Y385673D01*
X315624Y385681D01*
X315609Y385694D01*
X315513Y385733D01*
X315419Y385777D01*
X315399Y385779D01*
X315381Y385786D01*
X315214Y385805D01*
X309626Y385805D01*
X309606Y385802D01*
X309587Y385804D01*
X309486Y385783D01*
X309383Y385766D01*
X309366Y385756D01*
X309346Y385752D01*
X309257Y385699D01*
X309166Y385651D01*
X309152Y385636D01*
X309135Y385626D01*
X309068Y385547D01*
X308997Y385472D01*
X308988Y385454D01*
X308975Y385439D01*
X308936Y385343D01*
X308893Y385249D01*
X308891Y385230D01*
X308883Y385211D01*
X308865Y385044D01*
X308865Y376641D01*
X307473Y373280D01*
X304900Y370707D01*
X301539Y369315D01*
X297901Y369315D01*
X294540Y370707D01*
X291967Y373280D01*
X290575Y376641D01*
X290575Y385047D01*
X290572Y385067D01*
X290574Y385086D01*
X290552Y385188D01*
X290536Y385290D01*
X290526Y385307D01*
X290522Y385327D01*
X290469Y385416D01*
X290420Y385507D01*
X290406Y385521D01*
X290396Y385538D01*
X290317Y385605D01*
X290242Y385677D01*
X290224Y385685D01*
X290209Y385698D01*
X290113Y385737D01*
X290019Y385780D01*
X289999Y385782D01*
X289981Y385790D01*
X289814Y385808D01*
X284226Y385809D01*
X284206Y385806D01*
X284187Y385808D01*
X284086Y385786D01*
X283983Y385770D01*
X283966Y385760D01*
X283946Y385756D01*
X283857Y385703D01*
X283766Y385655D01*
X283752Y385640D01*
X283735Y385630D01*
X283668Y385551D01*
X283597Y385476D01*
X283588Y385458D01*
X283575Y385443D01*
X283536Y385347D01*
X283493Y385253D01*
X283491Y385233D01*
X283483Y385215D01*
X283465Y385048D01*
X283465Y376641D01*
X282073Y373280D01*
X279500Y370707D01*
X276139Y369315D01*
X272501Y369315D01*
X269140Y370707D01*
X266567Y373280D01*
X265175Y376641D01*
X265175Y385051D01*
X265172Y385071D01*
X265174Y385090D01*
X265152Y385191D01*
X265136Y385294D01*
X265126Y385311D01*
X265122Y385331D01*
X265069Y385420D01*
X265020Y385511D01*
X265006Y385525D01*
X264996Y385542D01*
X264917Y385609D01*
X264842Y385680D01*
X264824Y385689D01*
X264809Y385702D01*
X264713Y385740D01*
X264619Y385784D01*
X264599Y385786D01*
X264581Y385794D01*
X264414Y385812D01*
X258826Y385813D01*
X258806Y385810D01*
X258787Y385812D01*
X258686Y385790D01*
X258583Y385773D01*
X258566Y385764D01*
X258546Y385760D01*
X258457Y385707D01*
X258366Y385658D01*
X258352Y385644D01*
X258335Y385633D01*
X258268Y385555D01*
X258197Y385480D01*
X258188Y385462D01*
X258175Y385447D01*
X258136Y385350D01*
X258093Y385257D01*
X258091Y385237D01*
X258083Y385218D01*
X258065Y385052D01*
X258065Y376641D01*
X256673Y373280D01*
X254100Y370707D01*
X250739Y369315D01*
X247101Y369315D01*
X243740Y370707D01*
X241167Y373280D01*
X239775Y376641D01*
X239775Y385055D01*
X239772Y385074D01*
X239774Y385094D01*
X239752Y385195D01*
X239736Y385297D01*
X239726Y385315D01*
X239722Y385334D01*
X239669Y385423D01*
X239620Y385515D01*
X239606Y385528D01*
X239596Y385546D01*
X239517Y385613D01*
X239442Y385684D01*
X239424Y385692D01*
X239409Y385705D01*
X239313Y385744D01*
X239219Y385788D01*
X239199Y385790D01*
X239181Y385797D01*
X239014Y385816D01*
X233426Y385817D01*
X233406Y385813D01*
X233387Y385816D01*
X233286Y385794D01*
X233183Y385777D01*
X233166Y385768D01*
X233146Y385763D01*
X233057Y385710D01*
X232966Y385662D01*
X232952Y385647D01*
X232935Y385637D01*
X232868Y385559D01*
X232797Y385484D01*
X232788Y385466D01*
X232775Y385450D01*
X232736Y385354D01*
X232693Y385261D01*
X232691Y385241D01*
X232683Y385222D01*
X232665Y385055D01*
X232665Y376641D01*
X231273Y373280D01*
X228700Y370707D01*
X225339Y369315D01*
X221701Y369315D01*
X218340Y370707D01*
X215767Y373280D01*
X214375Y376641D01*
X214375Y385058D01*
X214372Y385078D01*
X214374Y385098D01*
X214352Y385199D01*
X214336Y385301D01*
X214326Y385319D01*
X214322Y385338D01*
X214269Y385427D01*
X214220Y385519D01*
X214206Y385532D01*
X214196Y385549D01*
X214117Y385617D01*
X214042Y385688D01*
X214024Y385696D01*
X214009Y385709D01*
X213913Y385748D01*
X213819Y385792D01*
X213799Y385794D01*
X213781Y385801D01*
X213614Y385820D01*
X208026Y385820D01*
X208006Y385817D01*
X207987Y385819D01*
X207886Y385797D01*
X207783Y385781D01*
X207766Y385771D01*
X207746Y385767D01*
X207657Y385714D01*
X207566Y385666D01*
X207552Y385651D01*
X207535Y385641D01*
X207468Y385562D01*
X207397Y385487D01*
X207388Y385469D01*
X207375Y385454D01*
X207336Y385358D01*
X207293Y385264D01*
X207291Y385245D01*
X207283Y385226D01*
X207265Y385059D01*
X207265Y376641D01*
X205873Y373280D01*
X203300Y370707D01*
X199939Y369315D01*
X196301Y369315D01*
X192940Y370707D01*
X190367Y373280D01*
X188975Y376641D01*
X188975Y385062D01*
X188972Y385082D01*
X188974Y385101D01*
X188952Y385203D01*
X188936Y385305D01*
X188926Y385322D01*
X188922Y385342D01*
X188869Y385431D01*
X188820Y385522D01*
X188806Y385536D01*
X188796Y385553D01*
X188717Y385620D01*
X188642Y385692D01*
X188624Y385700D01*
X188609Y385713D01*
X188513Y385752D01*
X188419Y385795D01*
X188399Y385797D01*
X188381Y385805D01*
X188214Y385823D01*
X172161Y385826D01*
X172142Y385823D01*
X172122Y385825D01*
X172021Y385803D01*
X171919Y385786D01*
X171901Y385777D01*
X171881Y385772D01*
X171793Y385719D01*
X171701Y385671D01*
X171687Y385657D01*
X171670Y385646D01*
X171603Y385568D01*
X171532Y385493D01*
X171523Y385475D01*
X171510Y385459D01*
X171472Y385363D01*
X171428Y385270D01*
X171426Y385250D01*
X171418Y385231D01*
X171400Y385065D01*
X171400Y373502D01*
X171411Y373437D01*
X171411Y373372D01*
X171434Y373292D01*
X171440Y373259D01*
X171449Y373242D01*
X171458Y373210D01*
X171469Y373185D01*
X171469Y369206D01*
X171458Y369181D01*
X171443Y369117D01*
X171418Y369056D01*
X171409Y368973D01*
X171402Y368941D01*
X171404Y368922D01*
X171400Y368889D01*
X171400Y361289D01*
X163835Y361289D01*
X163771Y361278D01*
X163705Y361278D01*
X163625Y361254D01*
X163593Y361249D01*
X163575Y361240D01*
X163544Y361231D01*
X163457Y361195D01*
X159479Y361195D01*
X159392Y361231D01*
X159328Y361246D01*
X159267Y361270D01*
X159184Y361280D01*
X159152Y361287D01*
X159133Y361285D01*
X159100Y361289D01*
X148274Y361289D01*
X148203Y361277D01*
X148131Y361275D01*
X148082Y361258D01*
X148031Y361249D01*
X147968Y361216D01*
X147900Y361191D01*
X147859Y361158D01*
X147813Y361134D01*
X147764Y361082D01*
X147708Y361037D01*
X147680Y360993D01*
X147644Y360956D01*
X147614Y360891D01*
X147575Y360830D01*
X147562Y360780D01*
X147540Y360733D01*
X147533Y360661D01*
X147515Y360592D01*
X147519Y360540D01*
X147513Y360488D01*
X147529Y360418D01*
X147534Y360347D01*
X147555Y360299D01*
X147566Y360248D01*
X147602Y360186D01*
X147630Y360120D01*
X147675Y360064D01*
X147692Y360037D01*
X147710Y360021D01*
X147735Y359989D01*
X149993Y357732D01*
X150681Y356071D01*
X150743Y355971D01*
X150802Y355871D01*
X150807Y355867D01*
X150810Y355862D01*
X150901Y355787D01*
X150989Y355711D01*
X150995Y355709D01*
X151000Y355705D01*
X151108Y355663D01*
X151217Y355619D01*
X151225Y355618D01*
X151229Y355617D01*
X151248Y355616D01*
X151307Y355609D01*
X157735Y349181D01*
X157735Y312921D01*
X157749Y312830D01*
X157757Y312740D01*
X157769Y312710D01*
X157774Y312678D01*
X157817Y312597D01*
X157853Y312513D01*
X157879Y312481D01*
X157890Y312460D01*
X157913Y312438D01*
X157958Y312382D01*
X182088Y288252D01*
X182146Y288210D01*
X182198Y288161D01*
X182245Y288139D01*
X182287Y288109D01*
X182356Y288088D01*
X182421Y288057D01*
X182473Y288052D01*
X182523Y288036D01*
X182594Y288038D01*
X182665Y288030D01*
X182716Y288041D01*
G37*
G36*
X370586Y114550D02*
X370586Y114550D01*
X370606Y114554D01*
X370625Y114551D01*
X370727Y114574D01*
X370829Y114590D01*
X370846Y114600D01*
X370866Y114604D01*
X370955Y114657D01*
X371046Y114705D01*
X371060Y114720D01*
X371077Y114730D01*
X371144Y114809D01*
X371216Y114884D01*
X371224Y114902D01*
X371237Y114917D01*
X371276Y115013D01*
X371319Y115107D01*
X371321Y115127D01*
X371329Y115145D01*
X371347Y115312D01*
X371347Y126025D01*
X372739Y129386D01*
X375312Y131959D01*
X378650Y133341D01*
X378749Y133403D01*
X378849Y133463D01*
X378853Y133467D01*
X378859Y133471D01*
X378933Y133561D01*
X379009Y133650D01*
X379012Y133655D01*
X379016Y133660D01*
X379057Y133769D01*
X379101Y133878D01*
X379102Y133885D01*
X379104Y133890D01*
X379105Y133908D01*
X379120Y134044D01*
X379120Y137646D01*
X379108Y137717D01*
X379106Y137789D01*
X379088Y137838D01*
X379080Y137889D01*
X379046Y137952D01*
X379022Y138020D01*
X378989Y138060D01*
X378965Y138106D01*
X378913Y138156D01*
X378868Y138212D01*
X378824Y138240D01*
X378786Y138276D01*
X378722Y138306D01*
X378661Y138345D01*
X378611Y138358D01*
X378563Y138379D01*
X378492Y138387D01*
X378423Y138405D01*
X378371Y138401D01*
X378319Y138407D01*
X378249Y138391D01*
X378177Y138386D01*
X378130Y138365D01*
X378079Y138354D01*
X378017Y138318D01*
X377951Y138289D01*
X377895Y138245D01*
X377867Y138228D01*
X377852Y138210D01*
X377820Y138185D01*
X374892Y135257D01*
X373636Y135257D01*
X373546Y135242D01*
X373455Y135235D01*
X373426Y135222D01*
X373394Y135217D01*
X373313Y135174D01*
X373229Y135139D01*
X373197Y135113D01*
X373176Y135102D01*
X373154Y135079D01*
X373098Y135034D01*
X357520Y119455D01*
X297066Y119455D01*
X295206Y121315D01*
X295206Y121316D01*
X286593Y129928D01*
X284706Y131816D01*
X284699Y131833D01*
X284694Y131865D01*
X284651Y131945D01*
X284615Y132029D01*
X284589Y132061D01*
X284578Y132082D01*
X284555Y132104D01*
X284510Y132160D01*
X284479Y132191D01*
X284479Y132748D01*
X284476Y132768D01*
X284478Y132787D01*
X284456Y132889D01*
X284440Y132991D01*
X284430Y133008D01*
X284426Y133028D01*
X284373Y133117D01*
X284324Y133208D01*
X284310Y133222D01*
X284300Y133239D01*
X284221Y133306D01*
X284146Y133378D01*
X284128Y133386D01*
X284113Y133399D01*
X284017Y133438D01*
X283923Y133481D01*
X283903Y133483D01*
X283885Y133491D01*
X283718Y133509D01*
X282396Y133509D01*
X281503Y134402D01*
X281503Y138154D01*
X281489Y138244D01*
X281481Y138335D01*
X281469Y138365D01*
X281464Y138397D01*
X281421Y138477D01*
X281385Y138561D01*
X281359Y138593D01*
X281348Y138614D01*
X281325Y138636D01*
X281280Y138692D01*
X275589Y144383D01*
X275589Y208781D01*
X277598Y210790D01*
X293850Y227042D01*
X293892Y227100D01*
X293941Y227152D01*
X293963Y227199D01*
X293994Y227241D01*
X294015Y227310D01*
X294045Y227375D01*
X294051Y227427D01*
X294066Y227477D01*
X294064Y227548D01*
X294072Y227619D01*
X294061Y227670D01*
X294060Y227722D01*
X294035Y227790D01*
X294020Y227860D01*
X293993Y227905D01*
X293975Y227953D01*
X293930Y228009D01*
X293894Y228071D01*
X293854Y228105D01*
X293822Y228145D01*
X293761Y228184D01*
X293707Y228231D01*
X293658Y228250D01*
X293615Y228278D01*
X293545Y228296D01*
X293479Y228323D01*
X293407Y228331D01*
X293376Y228339D01*
X293353Y228337D01*
X293312Y228341D01*
X284258Y228341D01*
X283105Y229494D01*
X283105Y234643D01*
X283094Y234714D01*
X283092Y234786D01*
X283074Y234835D01*
X283066Y234886D01*
X283032Y234949D01*
X283007Y235017D01*
X282975Y235057D01*
X282950Y235103D01*
X282898Y235153D01*
X282854Y235209D01*
X282810Y235237D01*
X282772Y235273D01*
X282707Y235303D01*
X282647Y235342D01*
X282596Y235354D01*
X282549Y235376D01*
X282478Y235384D01*
X282408Y235402D01*
X282356Y235398D01*
X282305Y235403D01*
X282234Y235388D01*
X282163Y235383D01*
X282115Y235362D01*
X282064Y235351D01*
X282003Y235314D01*
X281937Y235286D01*
X281881Y235241D01*
X281853Y235225D01*
X281838Y235207D01*
X281806Y235181D01*
X276646Y230021D01*
X273916Y230021D01*
X273896Y230018D01*
X273877Y230020D01*
X273775Y229998D01*
X273673Y229982D01*
X273656Y229972D01*
X273636Y229968D01*
X273547Y229915D01*
X273456Y229866D01*
X273442Y229852D01*
X273425Y229842D01*
X273358Y229763D01*
X273286Y229688D01*
X273278Y229670D01*
X273265Y229655D01*
X273231Y229570D01*
X272002Y228341D01*
X259158Y228341D01*
X258077Y229422D01*
X258061Y229434D01*
X258048Y229449D01*
X257961Y229505D01*
X257877Y229566D01*
X257858Y229571D01*
X257841Y229582D01*
X257741Y229608D01*
X257642Y229638D01*
X257622Y229637D01*
X257603Y229642D01*
X257500Y229634D01*
X257396Y229632D01*
X257377Y229625D01*
X257358Y229623D01*
X257263Y229583D01*
X257165Y229547D01*
X257150Y229535D01*
X257131Y229527D01*
X257000Y229422D01*
X256338Y228759D01*
X246074Y228759D01*
X246029Y228804D01*
X246013Y228816D01*
X246001Y228832D01*
X245913Y228888D01*
X245830Y228948D01*
X245810Y228954D01*
X245794Y228965D01*
X245693Y228990D01*
X245594Y229020D01*
X245574Y229020D01*
X245555Y229025D01*
X245452Y229017D01*
X245349Y229014D01*
X245330Y229007D01*
X245310Y229006D01*
X245215Y228965D01*
X245118Y228930D01*
X245102Y228917D01*
X245084Y228909D01*
X244953Y228804D01*
X244908Y228759D01*
X234644Y228759D01*
X233751Y229652D01*
X233751Y230568D01*
X233737Y230658D01*
X233729Y230749D01*
X233717Y230778D01*
X233712Y230810D01*
X233669Y230891D01*
X233633Y230975D01*
X233607Y231007D01*
X233596Y231028D01*
X233573Y231050D01*
X233528Y231106D01*
X217462Y247172D01*
X217388Y247225D01*
X217318Y247285D01*
X217288Y247297D01*
X217262Y247316D01*
X217175Y247343D01*
X217090Y247377D01*
X217049Y247381D01*
X217027Y247388D01*
X216995Y247387D01*
X216924Y247395D01*
X198404Y247395D01*
X198289Y247376D01*
X198173Y247359D01*
X198168Y247357D01*
X198161Y247356D01*
X198058Y247301D01*
X197954Y247248D01*
X197950Y247243D01*
X197944Y247240D01*
X197863Y247155D01*
X197782Y247072D01*
X197778Y247066D01*
X197775Y247062D01*
X197767Y247045D01*
X197719Y246958D01*
X195724Y244963D01*
X193127Y243887D01*
X179237Y243887D01*
X176640Y244963D01*
X174653Y246950D01*
X173577Y249547D01*
X173577Y252357D01*
X174653Y254954D01*
X176640Y256941D01*
X179237Y258017D01*
X193127Y258017D01*
X195724Y256941D01*
X196917Y255748D01*
X196991Y255695D01*
X197061Y255635D01*
X197091Y255623D01*
X197117Y255604D01*
X197204Y255577D01*
X197289Y255543D01*
X197330Y255539D01*
X197352Y255532D01*
X197384Y255533D01*
X197456Y255525D01*
X220606Y255525D01*
X223210Y252921D01*
X231436Y244695D01*
X231494Y244653D01*
X231546Y244604D01*
X231593Y244582D01*
X231635Y244552D01*
X231704Y244531D01*
X231769Y244500D01*
X231821Y244495D01*
X231871Y244479D01*
X231942Y244481D01*
X232013Y244473D01*
X232064Y244484D01*
X232116Y244486D01*
X232184Y244510D01*
X232254Y244526D01*
X232298Y244552D01*
X232347Y244570D01*
X232403Y244615D01*
X232465Y244652D01*
X232499Y244691D01*
X232539Y244724D01*
X232578Y244784D01*
X232625Y244839D01*
X232644Y244887D01*
X232672Y244931D01*
X232690Y245000D01*
X232717Y245067D01*
X232725Y245138D01*
X232733Y245169D01*
X232731Y245193D01*
X232735Y245233D01*
X232735Y245261D01*
X238253Y245261D01*
X238253Y240743D01*
X237225Y240743D01*
X237155Y240732D01*
X237083Y240730D01*
X237034Y240712D01*
X236983Y240704D01*
X236919Y240670D01*
X236852Y240645D01*
X236811Y240613D01*
X236765Y240588D01*
X236716Y240536D01*
X236660Y240492D01*
X236632Y240448D01*
X236596Y240410D01*
X236566Y240345D01*
X236527Y240285D01*
X236514Y240234D01*
X236492Y240187D01*
X236484Y240116D01*
X236467Y240046D01*
X236471Y239994D01*
X236465Y239943D01*
X236481Y239872D01*
X236486Y239801D01*
X236506Y239753D01*
X236518Y239702D01*
X236554Y239641D01*
X236582Y239575D01*
X236627Y239519D01*
X236644Y239491D01*
X236661Y239476D01*
X236687Y239444D01*
X237099Y239032D01*
X237173Y238979D01*
X237243Y238919D01*
X237273Y238907D01*
X237299Y238888D01*
X237386Y238861D01*
X237471Y238827D01*
X237512Y238823D01*
X237534Y238816D01*
X237566Y238817D01*
X237638Y238809D01*
X244908Y238809D01*
X244953Y238764D01*
X244969Y238752D01*
X244981Y238736D01*
X245068Y238680D01*
X245152Y238620D01*
X245171Y238614D01*
X245188Y238603D01*
X245289Y238578D01*
X245387Y238548D01*
X245407Y238548D01*
X245427Y238543D01*
X245530Y238551D01*
X245633Y238554D01*
X245652Y238561D01*
X245672Y238562D01*
X245767Y238603D01*
X245864Y238638D01*
X245880Y238651D01*
X245898Y238659D01*
X246029Y238764D01*
X246074Y238809D01*
X256228Y238809D01*
X256248Y238812D01*
X256267Y238810D01*
X256369Y238832D01*
X256471Y238848D01*
X256488Y238858D01*
X256508Y238862D01*
X256597Y238915D01*
X256688Y238964D01*
X256702Y238978D01*
X256719Y238988D01*
X256786Y239067D01*
X256858Y239142D01*
X256866Y239160D01*
X256879Y239175D01*
X256918Y239271D01*
X256961Y239365D01*
X256963Y239385D01*
X256971Y239403D01*
X256989Y239570D01*
X256989Y240005D01*
X256970Y240122D01*
X256952Y240240D01*
X256950Y240244D01*
X256950Y240248D01*
X256894Y240353D01*
X256839Y240459D01*
X256836Y240462D01*
X256834Y240466D01*
X256747Y240548D01*
X256663Y240630D01*
X256659Y240632D01*
X256656Y240635D01*
X256548Y240685D01*
X256441Y240736D01*
X256437Y240737D01*
X256433Y240739D01*
X256315Y240752D01*
X256197Y240766D01*
X256192Y240765D01*
X256189Y240766D01*
X256175Y240763D01*
X256048Y240743D01*
X252729Y240743D01*
X252729Y246022D01*
X252726Y246042D01*
X252728Y246061D01*
X252706Y246163D01*
X252689Y246265D01*
X252680Y246282D01*
X252676Y246302D01*
X252623Y246391D01*
X252574Y246482D01*
X252560Y246496D01*
X252550Y246513D01*
X252471Y246580D01*
X252396Y246651D01*
X252378Y246660D01*
X252363Y246673D01*
X252267Y246712D01*
X252173Y246755D01*
X252153Y246757D01*
X252135Y246765D01*
X251968Y246783D01*
X251205Y246783D01*
X251205Y246785D01*
X251968Y246785D01*
X251988Y246788D01*
X252007Y246786D01*
X252109Y246808D01*
X252211Y246825D01*
X252228Y246834D01*
X252248Y246838D01*
X252337Y246891D01*
X252428Y246940D01*
X252442Y246954D01*
X252459Y246964D01*
X252526Y247043D01*
X252597Y247118D01*
X252606Y247136D01*
X252619Y247151D01*
X252658Y247247D01*
X252701Y247341D01*
X252703Y247361D01*
X252711Y247379D01*
X252729Y247546D01*
X252729Y252825D01*
X256040Y252825D01*
X256687Y252652D01*
X256863Y252550D01*
X256953Y252516D01*
X257039Y252476D01*
X257067Y252473D01*
X257093Y252463D01*
X257189Y252459D01*
X257283Y252449D01*
X257311Y252455D01*
X257339Y252454D01*
X257431Y252481D01*
X257524Y252501D01*
X257548Y252515D01*
X257575Y252523D01*
X257653Y252578D01*
X257735Y252627D01*
X257753Y252648D01*
X257776Y252665D01*
X257833Y252741D01*
X257895Y252814D01*
X257905Y252840D01*
X257922Y252863D01*
X257951Y252954D01*
X257987Y253042D01*
X257991Y253077D01*
X257997Y253097D01*
X257997Y253130D01*
X258005Y253209D01*
X258005Y255138D01*
X259158Y256291D01*
X272002Y256291D01*
X273219Y255075D01*
X273261Y255003D01*
X273310Y254912D01*
X273324Y254898D01*
X273334Y254881D01*
X273413Y254814D01*
X273488Y254742D01*
X273506Y254734D01*
X273521Y254721D01*
X273617Y254682D01*
X273711Y254639D01*
X273731Y254637D01*
X273749Y254629D01*
X273916Y254611D01*
X276900Y254611D01*
X278760Y252751D01*
X281806Y249705D01*
X281864Y249663D01*
X281916Y249613D01*
X281963Y249591D01*
X282005Y249561D01*
X282074Y249540D01*
X282139Y249510D01*
X282191Y249504D01*
X282241Y249489D01*
X282312Y249491D01*
X282383Y249483D01*
X282434Y249494D01*
X282486Y249495D01*
X282554Y249520D01*
X282624Y249535D01*
X282669Y249562D01*
X282717Y249580D01*
X282773Y249624D01*
X282835Y249661D01*
X282869Y249701D01*
X282909Y249733D01*
X282948Y249794D01*
X282995Y249848D01*
X283014Y249896D01*
X283042Y249940D01*
X283060Y250010D01*
X283087Y250076D01*
X283095Y250148D01*
X283103Y250179D01*
X283101Y250202D01*
X283105Y250243D01*
X283105Y255138D01*
X284258Y256291D01*
X288948Y256291D01*
X288968Y256294D01*
X288987Y256292D01*
X289089Y256314D01*
X289191Y256330D01*
X289208Y256340D01*
X289228Y256344D01*
X289317Y256397D01*
X289408Y256446D01*
X289422Y256460D01*
X289439Y256470D01*
X289506Y256549D01*
X289578Y256624D01*
X289586Y256642D01*
X289599Y256657D01*
X289638Y256753D01*
X289681Y256847D01*
X289683Y256867D01*
X289691Y256885D01*
X289709Y257052D01*
X289709Y261692D01*
X289706Y261712D01*
X289708Y261731D01*
X289686Y261833D01*
X289670Y261935D01*
X289660Y261952D01*
X289656Y261972D01*
X289603Y262061D01*
X289554Y262152D01*
X289540Y262166D01*
X289530Y262183D01*
X289451Y262250D01*
X289376Y262322D01*
X289358Y262330D01*
X289343Y262343D01*
X289247Y262382D01*
X289153Y262425D01*
X289133Y262427D01*
X289115Y262435D01*
X288948Y262453D01*
X288626Y262453D01*
X287733Y263346D01*
X287733Y273610D01*
X288626Y274503D01*
X294156Y274503D01*
X294246Y274517D01*
X294337Y274525D01*
X294367Y274537D01*
X294399Y274542D01*
X294479Y274585D01*
X294563Y274621D01*
X294595Y274647D01*
X294616Y274658D01*
X294638Y274681D01*
X294694Y274726D01*
X300306Y280338D01*
X300318Y280354D01*
X300333Y280366D01*
X300390Y280454D01*
X300450Y280538D01*
X300456Y280556D01*
X300466Y280573D01*
X300492Y280674D01*
X300522Y280773D01*
X300522Y280793D01*
X300526Y280812D01*
X300518Y280915D01*
X300516Y281019D01*
X300509Y281037D01*
X300507Y281057D01*
X300467Y281152D01*
X300431Y281250D01*
X300419Y281265D01*
X300411Y281283D01*
X300306Y281414D01*
X295432Y286288D01*
X295358Y286341D01*
X295289Y286401D01*
X295259Y286413D01*
X295233Y286432D01*
X295146Y286459D01*
X295061Y286493D01*
X295020Y286497D01*
X294997Y286504D01*
X294965Y286503D01*
X294894Y286511D01*
X273558Y286511D01*
X273468Y286497D01*
X273377Y286489D01*
X273347Y286477D01*
X273315Y286472D01*
X273235Y286429D01*
X273151Y286393D01*
X273119Y286367D01*
X273098Y286356D01*
X273076Y286333D01*
X273020Y286288D01*
X251145Y264413D01*
X161036Y264413D01*
X160946Y264399D01*
X160855Y264391D01*
X160825Y264379D01*
X160793Y264374D01*
X160713Y264331D01*
X160629Y264295D01*
X160597Y264269D01*
X160576Y264258D01*
X160554Y264235D01*
X160498Y264190D01*
X157196Y260888D01*
X157143Y260814D01*
X157083Y260745D01*
X157071Y260715D01*
X157052Y260689D01*
X157025Y260602D01*
X156991Y260517D01*
X156987Y260476D01*
X156980Y260453D01*
X156981Y260421D01*
X156973Y260350D01*
X156973Y220472D01*
X156988Y220382D01*
X156995Y220291D01*
X157007Y220261D01*
X157013Y220229D01*
X157055Y220149D01*
X157091Y220065D01*
X157117Y220033D01*
X157128Y220012D01*
X157151Y219990D01*
X157196Y219934D01*
X161006Y216124D01*
X161080Y216071D01*
X161149Y216011D01*
X161179Y215999D01*
X161205Y215980D01*
X161292Y215953D01*
X161377Y215919D01*
X161418Y215915D01*
X161441Y215908D01*
X161473Y215909D01*
X161544Y215901D01*
X182057Y215901D01*
X190518Y207440D01*
X190592Y207387D01*
X190661Y207327D01*
X190691Y207315D01*
X190717Y207296D01*
X190804Y207269D01*
X190889Y207235D01*
X190930Y207231D01*
X190953Y207224D01*
X190985Y207225D01*
X191056Y207217D01*
X193127Y207217D01*
X195724Y206141D01*
X197711Y204154D01*
X198787Y201557D01*
X198787Y199486D01*
X198801Y199396D01*
X198809Y199305D01*
X198821Y199275D01*
X198826Y199243D01*
X198869Y199163D01*
X198905Y199079D01*
X198931Y199047D01*
X198942Y199026D01*
X198965Y199004D01*
X199010Y198948D01*
X251969Y145989D01*
X251969Y115265D01*
X251972Y115245D01*
X251970Y115225D01*
X251992Y115124D01*
X252009Y115022D01*
X252018Y115005D01*
X252022Y114985D01*
X252075Y114896D01*
X252124Y114805D01*
X252138Y114791D01*
X252148Y114774D01*
X252227Y114707D01*
X252302Y114636D01*
X252320Y114627D01*
X252335Y114614D01*
X252431Y114576D01*
X252525Y114532D01*
X252545Y114530D01*
X252564Y114522D01*
X252730Y114504D01*
X370586Y114550D01*
G37*
G36*
X472186Y114591D02*
X472186Y114591D01*
X472206Y114594D01*
X472225Y114592D01*
X472327Y114614D01*
X472429Y114630D01*
X472446Y114640D01*
X472466Y114644D01*
X472555Y114697D01*
X472646Y114746D01*
X472660Y114760D01*
X472677Y114770D01*
X472744Y114849D01*
X472816Y114924D01*
X472824Y114942D01*
X472837Y114957D01*
X472876Y115053D01*
X472919Y115147D01*
X472921Y115167D01*
X472929Y115185D01*
X472947Y115352D01*
X472947Y126025D01*
X474339Y129386D01*
X476912Y131959D01*
X478827Y132752D01*
X478926Y132813D01*
X479027Y132873D01*
X479031Y132878D01*
X479036Y132882D01*
X479111Y132971D01*
X479187Y133060D01*
X479189Y133066D01*
X479193Y133071D01*
X479235Y133179D01*
X479279Y133289D01*
X479280Y133296D01*
X479281Y133301D01*
X479282Y133319D01*
X479297Y133455D01*
X479297Y155931D01*
X479283Y156021D01*
X479275Y156112D01*
X479263Y156142D01*
X479258Y156174D01*
X479215Y156254D01*
X479179Y156338D01*
X479153Y156370D01*
X479142Y156391D01*
X479119Y156413D01*
X479074Y156469D01*
X448434Y187109D01*
X448376Y187151D01*
X448324Y187200D01*
X448277Y187222D01*
X448235Y187253D01*
X448166Y187274D01*
X448101Y187304D01*
X448049Y187310D01*
X447999Y187325D01*
X447928Y187323D01*
X447857Y187331D01*
X447806Y187320D01*
X447754Y187319D01*
X447686Y187294D01*
X447616Y187279D01*
X447571Y187252D01*
X447523Y187234D01*
X447467Y187189D01*
X447405Y187153D01*
X447371Y187113D01*
X447331Y187081D01*
X447292Y187020D01*
X447245Y186966D01*
X447226Y186917D01*
X447198Y186874D01*
X447180Y186804D01*
X447153Y186738D01*
X447145Y186666D01*
X447137Y186635D01*
X447139Y186612D01*
X447135Y186571D01*
X447135Y183895D01*
X442617Y183895D01*
X442617Y189413D01*
X444293Y189413D01*
X444364Y189424D01*
X444435Y189426D01*
X444484Y189444D01*
X444536Y189452D01*
X444599Y189486D01*
X444666Y189511D01*
X444707Y189543D01*
X444753Y189568D01*
X444802Y189619D01*
X444858Y189664D01*
X444887Y189708D01*
X444922Y189746D01*
X444953Y189811D01*
X444991Y189871D01*
X445004Y189922D01*
X445026Y189969D01*
X445034Y190040D01*
X445051Y190110D01*
X445047Y190162D01*
X445053Y190213D01*
X445038Y190284D01*
X445032Y190355D01*
X445012Y190403D01*
X445001Y190454D01*
X444964Y190515D01*
X444936Y190581D01*
X444891Y190637D01*
X444875Y190665D01*
X444857Y190680D01*
X444831Y190712D01*
X440568Y194975D01*
X440494Y195028D01*
X440425Y195088D01*
X440395Y195100D01*
X440368Y195119D01*
X440281Y195146D01*
X440197Y195180D01*
X440156Y195184D01*
X440133Y195191D01*
X440101Y195190D01*
X440030Y195198D01*
X433970Y195198D01*
X423311Y205857D01*
X423311Y206981D01*
X423292Y207097D01*
X423274Y207217D01*
X423272Y207220D01*
X423272Y207223D01*
X423217Y207327D01*
X423161Y207435D01*
X423158Y207438D01*
X423156Y207441D01*
X423071Y207522D01*
X422984Y207606D01*
X422981Y207608D01*
X422978Y207610D01*
X422870Y207660D01*
X422762Y207712D01*
X422758Y207712D01*
X422755Y207714D01*
X422637Y207727D01*
X422518Y207741D01*
X422513Y207741D01*
X422511Y207741D01*
X422498Y207738D01*
X422492Y207737D01*
X421867Y207737D01*
X421867Y214552D01*
X421864Y214571D01*
X421866Y214591D01*
X421844Y214692D01*
X421828Y214794D01*
X421818Y214812D01*
X421814Y214831D01*
X421761Y214921D01*
X421713Y215012D01*
X421698Y215025D01*
X421688Y215043D01*
X421609Y215110D01*
X421534Y215181D01*
X421516Y215190D01*
X421501Y215203D01*
X421405Y215241D01*
X421311Y215285D01*
X421291Y215287D01*
X421273Y215294D01*
X421106Y215313D01*
X421086Y215310D01*
X421067Y215312D01*
X421066Y215312D01*
X420965Y215290D01*
X420863Y215273D01*
X420846Y215264D01*
X420826Y215260D01*
X420737Y215206D01*
X420646Y215158D01*
X420632Y215144D01*
X420615Y215133D01*
X420548Y215055D01*
X420476Y214980D01*
X420468Y214962D01*
X420455Y214947D01*
X420416Y214850D01*
X420373Y214757D01*
X420371Y214737D01*
X420363Y214718D01*
X420345Y214552D01*
X420345Y207737D01*
X419916Y207737D01*
X419896Y207734D01*
X419877Y207736D01*
X419775Y207714D01*
X419673Y207698D01*
X419656Y207688D01*
X419636Y207684D01*
X419547Y207631D01*
X419456Y207582D01*
X419442Y207568D01*
X419425Y207558D01*
X419358Y207479D01*
X419286Y207404D01*
X419278Y207386D01*
X419265Y207371D01*
X419226Y207275D01*
X419183Y207181D01*
X419181Y207161D01*
X419173Y207143D01*
X419155Y206976D01*
X419155Y198986D01*
X419157Y198973D01*
X419156Y198963D01*
X419167Y198912D01*
X419169Y198896D01*
X419177Y198805D01*
X419189Y198775D01*
X419194Y198743D01*
X419237Y198663D01*
X419273Y198579D01*
X419299Y198547D01*
X419310Y198526D01*
X419333Y198504D01*
X419378Y198448D01*
X429206Y188620D01*
X429280Y188567D01*
X429349Y188507D01*
X429379Y188495D01*
X429406Y188476D01*
X429493Y188449D01*
X429577Y188415D01*
X429618Y188411D01*
X429641Y188404D01*
X429673Y188405D01*
X429744Y188397D01*
X432226Y188397D01*
X433119Y187504D01*
X433119Y166572D01*
X432229Y165683D01*
X432218Y165667D01*
X432202Y165654D01*
X432146Y165567D01*
X432086Y165483D01*
X432080Y165464D01*
X432069Y165447D01*
X432044Y165347D01*
X432013Y165248D01*
X432014Y165228D01*
X432009Y165209D01*
X432017Y165106D01*
X432020Y165002D01*
X432027Y164984D01*
X432028Y164964D01*
X432069Y164869D01*
X432104Y164771D01*
X432117Y164756D01*
X432124Y164737D01*
X432229Y164606D01*
X433322Y163514D01*
X433322Y159117D01*
X430750Y156545D01*
X430708Y156487D01*
X430659Y156435D01*
X430637Y156388D01*
X430606Y156345D01*
X430585Y156277D01*
X430555Y156212D01*
X430549Y156160D01*
X430534Y156110D01*
X430536Y156039D01*
X430528Y155967D01*
X430539Y155916D01*
X430540Y155864D01*
X430565Y155797D01*
X430580Y155727D01*
X430607Y155682D01*
X430625Y155633D01*
X430670Y155577D01*
X430706Y155516D01*
X430746Y155482D01*
X430779Y155441D01*
X430839Y155403D01*
X430893Y155356D01*
X430942Y155336D01*
X430985Y155308D01*
X431055Y155291D01*
X431121Y155264D01*
X431193Y155256D01*
X431224Y155248D01*
X431247Y155250D01*
X431288Y155246D01*
X434634Y155246D01*
X436494Y153385D01*
X456306Y133574D01*
X456380Y133521D01*
X456449Y133461D01*
X456479Y133449D01*
X456506Y133430D01*
X456593Y133403D01*
X456677Y133369D01*
X456718Y133365D01*
X456741Y133358D01*
X456773Y133359D01*
X456844Y133351D01*
X458511Y133351D01*
X461872Y131959D01*
X464445Y129386D01*
X465837Y126025D01*
X465837Y115350D01*
X465840Y115330D01*
X465838Y115310D01*
X465860Y115209D01*
X465876Y115107D01*
X465886Y115089D01*
X465890Y115070D01*
X465943Y114981D01*
X465992Y114890D01*
X466006Y114876D01*
X466016Y114858D01*
X466095Y114791D01*
X466170Y114720D01*
X466188Y114712D01*
X466203Y114699D01*
X466299Y114660D01*
X466393Y114617D01*
X466413Y114614D01*
X466432Y114607D01*
X466598Y114588D01*
X472186Y114591D01*
G37*
G36*
X243684Y278907D02*
X243684Y278907D01*
X243774Y278915D01*
X243804Y278927D01*
X243836Y278932D01*
X243917Y278975D01*
X244001Y279011D01*
X244033Y279037D01*
X244054Y279048D01*
X244076Y279071D01*
X244132Y279116D01*
X266769Y301753D01*
X348397Y301753D01*
X349959Y300190D01*
X351682Y298468D01*
X351778Y298399D01*
X351874Y298328D01*
X351878Y298327D01*
X351881Y298324D01*
X351994Y298290D01*
X352108Y298253D01*
X352112Y298253D01*
X352116Y298252D01*
X352235Y298255D01*
X352354Y298257D01*
X352358Y298258D01*
X352362Y298258D01*
X352474Y298299D01*
X352586Y298339D01*
X352589Y298341D01*
X352593Y298343D01*
X352686Y298417D01*
X352780Y298490D01*
X352783Y298494D01*
X352785Y298497D01*
X352793Y298508D01*
X352879Y298626D01*
X353025Y298878D01*
X353498Y299351D01*
X354077Y299686D01*
X354724Y299859D01*
X356108Y299859D01*
X356128Y299862D01*
X356147Y299860D01*
X356249Y299882D01*
X356351Y299898D01*
X356368Y299908D01*
X356388Y299912D01*
X356477Y299965D01*
X356568Y300014D01*
X356582Y300028D01*
X356599Y300038D01*
X356666Y300117D01*
X356738Y300192D01*
X356746Y300210D01*
X356759Y300225D01*
X356798Y300321D01*
X356841Y300415D01*
X356843Y300435D01*
X356851Y300453D01*
X356869Y300620D01*
X356869Y309169D01*
X356866Y309188D01*
X356868Y309208D01*
X356846Y309310D01*
X356830Y309412D01*
X356820Y309429D01*
X356816Y309449D01*
X356763Y309538D01*
X356714Y309629D01*
X356700Y309643D01*
X356690Y309660D01*
X356611Y309727D01*
X356536Y309798D01*
X356518Y309807D01*
X356503Y309820D01*
X356407Y309858D01*
X356313Y309902D01*
X356293Y309904D01*
X356275Y309912D01*
X356108Y309930D01*
X240835Y309930D01*
X240745Y309915D01*
X240654Y309908D01*
X240625Y309896D01*
X240593Y309890D01*
X240512Y309848D01*
X240428Y309812D01*
X240396Y309786D01*
X240375Y309775D01*
X240353Y309752D01*
X240297Y309707D01*
X227300Y296710D01*
X227247Y296636D01*
X227187Y296566D01*
X227175Y296536D01*
X227156Y296510D01*
X227129Y296423D01*
X227095Y296338D01*
X227091Y296297D01*
X227084Y296275D01*
X227085Y296243D01*
X227077Y296171D01*
X227077Y288820D01*
X221720Y283463D01*
X214144Y283463D01*
X208787Y288820D01*
X208787Y296396D01*
X212335Y299944D01*
X212377Y300002D01*
X212426Y300054D01*
X212448Y300101D01*
X212479Y300143D01*
X212500Y300212D01*
X212530Y300277D01*
X212536Y300329D01*
X212551Y300379D01*
X212549Y300450D01*
X212557Y300521D01*
X212546Y300572D01*
X212545Y300624D01*
X212520Y300692D01*
X212505Y300762D01*
X212478Y300807D01*
X212460Y300855D01*
X212415Y300911D01*
X212379Y300973D01*
X212339Y301007D01*
X212307Y301047D01*
X212246Y301086D01*
X212192Y301133D01*
X212143Y301152D01*
X212100Y301180D01*
X212030Y301198D01*
X211964Y301225D01*
X211892Y301233D01*
X211861Y301241D01*
X211838Y301239D01*
X211797Y301243D01*
X204169Y301243D01*
X204079Y301229D01*
X203988Y301221D01*
X203958Y301209D01*
X203927Y301204D01*
X203846Y301161D01*
X203762Y301125D01*
X203730Y301099D01*
X203709Y301088D01*
X203687Y301065D01*
X203631Y301020D01*
X200880Y298269D01*
X200868Y298253D01*
X200853Y298241D01*
X200797Y298154D01*
X200736Y298070D01*
X200730Y298050D01*
X200720Y298034D01*
X200694Y297933D01*
X200664Y297834D01*
X200665Y297814D01*
X200660Y297795D01*
X200668Y297692D01*
X200670Y297589D01*
X200677Y297570D01*
X200679Y297550D01*
X200719Y297455D01*
X200755Y297358D01*
X200767Y297342D01*
X200775Y297324D01*
X200880Y297193D01*
X201677Y296396D01*
X201677Y288820D01*
X196320Y283463D01*
X188714Y283463D01*
X188644Y283452D01*
X188572Y283450D01*
X188523Y283432D01*
X188472Y283424D01*
X188408Y283390D01*
X188341Y283365D01*
X188300Y283333D01*
X188254Y283308D01*
X188205Y283256D01*
X188149Y283212D01*
X188121Y283168D01*
X188085Y283130D01*
X188055Y283065D01*
X188016Y283005D01*
X188003Y282954D01*
X187981Y282907D01*
X187973Y282836D01*
X187956Y282766D01*
X187960Y282714D01*
X187954Y282663D01*
X187969Y282592D01*
X187975Y282521D01*
X187995Y282473D01*
X188006Y282422D01*
X188043Y282361D01*
X188071Y282295D01*
X188116Y282239D01*
X188133Y282211D01*
X188135Y282209D01*
X188136Y282208D01*
X188151Y282195D01*
X188176Y282164D01*
X191224Y279116D01*
X191298Y279063D01*
X191368Y279003D01*
X191398Y278991D01*
X191424Y278972D01*
X191511Y278945D01*
X191596Y278911D01*
X191637Y278907D01*
X191659Y278900D01*
X191691Y278901D01*
X191763Y278893D01*
X243593Y278893D01*
X243684Y278907D01*
G37*
%LPC*%
G36*
X253258Y157975D02*
X253258Y157975D01*
X252365Y158868D01*
X252365Y180132D01*
X253258Y181025D01*
X259080Y181025D01*
X259100Y181028D01*
X259119Y181026D01*
X259221Y181048D01*
X259323Y181064D01*
X259340Y181074D01*
X259360Y181078D01*
X259449Y181131D01*
X259540Y181180D01*
X259554Y181194D01*
X259571Y181204D01*
X259638Y181283D01*
X259710Y181358D01*
X259718Y181376D01*
X259731Y181391D01*
X259770Y181487D01*
X259813Y181581D01*
X259815Y181601D01*
X259823Y181619D01*
X259841Y181786D01*
X259841Y186103D01*
X259827Y186193D01*
X259819Y186284D01*
X259807Y186314D01*
X259802Y186346D01*
X259759Y186427D01*
X259723Y186511D01*
X259697Y186543D01*
X259686Y186563D01*
X259663Y186586D01*
X259618Y186642D01*
X253710Y192550D01*
X253694Y192562D01*
X253681Y192577D01*
X253594Y192634D01*
X253510Y192694D01*
X253491Y192700D01*
X253474Y192710D01*
X253374Y192736D01*
X253275Y192766D01*
X253255Y192766D01*
X253236Y192771D01*
X253133Y192762D01*
X253029Y192760D01*
X253010Y192753D01*
X252990Y192751D01*
X252895Y192711D01*
X252798Y192675D01*
X252782Y192663D01*
X252764Y192655D01*
X252633Y192550D01*
X250864Y190781D01*
X246468Y190781D01*
X243359Y193890D01*
X243359Y197772D01*
X243356Y197792D01*
X243358Y197811D01*
X243336Y197913D01*
X243320Y198015D01*
X243310Y198032D01*
X243306Y198052D01*
X243253Y198141D01*
X243204Y198232D01*
X243190Y198246D01*
X243180Y198263D01*
X243101Y198330D01*
X243026Y198402D01*
X243008Y198410D01*
X242993Y198423D01*
X242897Y198462D01*
X242803Y198505D01*
X242783Y198507D01*
X242765Y198515D01*
X242598Y198533D01*
X234644Y198533D01*
X233751Y199426D01*
X233751Y204956D01*
X233737Y205046D01*
X233729Y205137D01*
X233717Y205167D01*
X233712Y205199D01*
X233669Y205279D01*
X233633Y205363D01*
X233607Y205395D01*
X233596Y205416D01*
X233573Y205438D01*
X233528Y205494D01*
X219455Y219567D01*
X219455Y227639D01*
X219441Y227729D01*
X219433Y227820D01*
X219421Y227849D01*
X219416Y227881D01*
X219373Y227962D01*
X219337Y228046D01*
X219311Y228078D01*
X219300Y228099D01*
X219277Y228121D01*
X219232Y228177D01*
X217197Y230212D01*
X217197Y234608D01*
X220306Y237717D01*
X224702Y237717D01*
X227811Y234608D01*
X227811Y230212D01*
X225776Y228177D01*
X225723Y228103D01*
X225663Y228033D01*
X225651Y228003D01*
X225632Y227977D01*
X225605Y227890D01*
X225571Y227805D01*
X225567Y227764D01*
X225560Y227742D01*
X225561Y227710D01*
X225553Y227639D01*
X225553Y222408D01*
X225567Y222318D01*
X225575Y222227D01*
X225587Y222197D01*
X225592Y222165D01*
X225635Y222085D01*
X225671Y222001D01*
X225697Y221969D01*
X225708Y221948D01*
X225731Y221926D01*
X225776Y221870D01*
X232452Y215194D01*
X232510Y215152D01*
X232562Y215103D01*
X232609Y215081D01*
X232651Y215050D01*
X232720Y215029D01*
X232785Y214999D01*
X232837Y214993D01*
X232887Y214978D01*
X232958Y214980D01*
X233029Y214972D01*
X233080Y214983D01*
X233132Y214984D01*
X233200Y215009D01*
X233270Y215024D01*
X233315Y215051D01*
X233363Y215069D01*
X233419Y215114D01*
X233481Y215150D01*
X233515Y215190D01*
X233555Y215222D01*
X233594Y215283D01*
X233641Y215337D01*
X233660Y215386D01*
X233688Y215429D01*
X233706Y215499D01*
X233733Y215565D01*
X233741Y215637D01*
X233749Y215668D01*
X233747Y215691D01*
X233751Y215732D01*
X233751Y220690D01*
X234644Y221583D01*
X244908Y221583D01*
X245801Y220690D01*
X245801Y220368D01*
X245804Y220348D01*
X245802Y220329D01*
X245824Y220227D01*
X245840Y220125D01*
X245850Y220108D01*
X245854Y220088D01*
X245907Y219999D01*
X245956Y219908D01*
X245970Y219894D01*
X245980Y219877D01*
X246059Y219810D01*
X246134Y219738D01*
X246152Y219730D01*
X246167Y219717D01*
X246263Y219678D01*
X246357Y219635D01*
X246377Y219633D01*
X246395Y219625D01*
X246562Y219607D01*
X251604Y219607D01*
X251624Y219610D01*
X251643Y219608D01*
X251745Y219630D01*
X251847Y219646D01*
X251864Y219656D01*
X251884Y219660D01*
X251973Y219713D01*
X252064Y219762D01*
X252078Y219776D01*
X252095Y219786D01*
X252162Y219865D01*
X252234Y219940D01*
X252242Y219958D01*
X252255Y219973D01*
X252294Y220069D01*
X252337Y220163D01*
X252339Y220183D01*
X252347Y220201D01*
X252365Y220368D01*
X252365Y222132D01*
X253258Y223025D01*
X272522Y223025D01*
X273415Y222132D01*
X273415Y200868D01*
X272522Y199975D01*
X256746Y199975D01*
X256675Y199964D01*
X256603Y199962D01*
X256554Y199944D01*
X256503Y199936D01*
X256440Y199902D01*
X256372Y199877D01*
X256332Y199845D01*
X256285Y199820D01*
X256236Y199768D01*
X256180Y199724D01*
X256152Y199680D01*
X256116Y199642D01*
X256086Y199577D01*
X256047Y199517D01*
X256034Y199466D01*
X256012Y199419D01*
X256005Y199348D01*
X255987Y199278D01*
X255991Y199226D01*
X255985Y199175D01*
X256001Y199104D01*
X256006Y199033D01*
X256027Y198985D01*
X256038Y198934D01*
X256074Y198873D01*
X256103Y198807D01*
X256147Y198751D01*
X256164Y198723D01*
X256182Y198708D01*
X256207Y198676D01*
X263930Y190953D01*
X265939Y188944D01*
X265939Y181786D01*
X265942Y181766D01*
X265940Y181747D01*
X265962Y181645D01*
X265978Y181543D01*
X265988Y181526D01*
X265992Y181506D01*
X266045Y181417D01*
X266094Y181326D01*
X266108Y181312D01*
X266118Y181295D01*
X266197Y181228D01*
X266272Y181156D01*
X266290Y181148D01*
X266305Y181135D01*
X266401Y181096D01*
X266495Y181053D01*
X266515Y181051D01*
X266533Y181043D01*
X266700Y181025D01*
X272522Y181025D01*
X273415Y180132D01*
X273415Y158868D01*
X272522Y157975D01*
X253258Y157975D01*
G37*
%LPD*%
G36*
X421126Y302342D02*
X421126Y302342D01*
X421145Y302340D01*
X421146Y302340D01*
X421247Y302362D01*
X421349Y302379D01*
X421366Y302388D01*
X421386Y302392D01*
X421475Y302446D01*
X421566Y302494D01*
X421580Y302508D01*
X421597Y302519D01*
X421664Y302597D01*
X421736Y302672D01*
X421744Y302690D01*
X421757Y302705D01*
X421796Y302802D01*
X421839Y302895D01*
X421841Y302915D01*
X421849Y302934D01*
X421867Y303100D01*
X421867Y309915D01*
X422533Y309915D01*
X422542Y309916D01*
X422589Y309911D01*
X422593Y309912D01*
X422597Y309912D01*
X422713Y309938D01*
X422830Y309963D01*
X422833Y309965D01*
X422837Y309966D01*
X422938Y310028D01*
X423041Y310090D01*
X423043Y310092D01*
X423046Y310094D01*
X423123Y310185D01*
X423201Y310276D01*
X423202Y310280D01*
X423205Y310283D01*
X423247Y310392D01*
X423293Y310505D01*
X423293Y310509D01*
X423294Y310512D01*
X423295Y310524D01*
X423311Y310671D01*
X423311Y311694D01*
X425171Y313554D01*
X437213Y325595D01*
X437255Y325654D01*
X437302Y325703D01*
X437310Y325721D01*
X437325Y325738D01*
X437337Y325769D01*
X437356Y325795D01*
X437379Y325869D01*
X437406Y325926D01*
X437407Y325942D01*
X437417Y325967D01*
X437422Y326007D01*
X437429Y326030D01*
X437428Y326062D01*
X437436Y326133D01*
X437436Y331420D01*
X442629Y331420D01*
X442650Y331415D01*
X442702Y331419D01*
X442754Y331413D01*
X442824Y331428D01*
X442895Y331434D01*
X442943Y331454D01*
X442994Y331465D01*
X443056Y331502D01*
X443122Y331530D01*
X443178Y331575D01*
X443205Y331592D01*
X443221Y331609D01*
X443253Y331635D01*
X479074Y367457D01*
X479127Y367531D01*
X479140Y367545D01*
X479166Y367572D01*
X479169Y367579D01*
X479187Y367600D01*
X479199Y367630D01*
X479218Y367656D01*
X479244Y367740D01*
X479269Y367795D01*
X479271Y367808D01*
X479279Y367828D01*
X479283Y367869D01*
X479290Y367891D01*
X479289Y367924D01*
X479297Y367995D01*
X479297Y368957D01*
X479278Y369072D01*
X479261Y369188D01*
X479259Y369193D01*
X479258Y369200D01*
X479203Y369302D01*
X479150Y369407D01*
X479145Y369411D01*
X479142Y369417D01*
X479058Y369497D01*
X478974Y369579D01*
X478968Y369583D01*
X478964Y369586D01*
X478947Y369594D01*
X478827Y369660D01*
X476912Y370453D01*
X474339Y373026D01*
X472947Y376387D01*
X472947Y385851D01*
X472944Y385871D01*
X472946Y385891D01*
X472924Y385992D01*
X472908Y386094D01*
X472898Y386112D01*
X472894Y386131D01*
X472841Y386220D01*
X472792Y386311D01*
X472778Y386325D01*
X472768Y386342D01*
X472689Y386409D01*
X472614Y386481D01*
X472596Y386489D01*
X472581Y386502D01*
X472485Y386541D01*
X472391Y386584D01*
X472371Y386587D01*
X472353Y386594D01*
X472186Y386612D01*
X466598Y386611D01*
X466578Y386608D01*
X466559Y386610D01*
X466457Y386588D01*
X466355Y386571D01*
X466338Y386562D01*
X466318Y386558D01*
X466229Y386505D01*
X466138Y386456D01*
X466124Y386442D01*
X466107Y386432D01*
X466040Y386353D01*
X465968Y386278D01*
X465960Y386260D01*
X465947Y386245D01*
X465908Y386148D01*
X465865Y386055D01*
X465863Y386035D01*
X465855Y386016D01*
X465837Y385850D01*
X465837Y376387D01*
X464445Y373026D01*
X461872Y370453D01*
X458511Y369061D01*
X455422Y369061D01*
X455332Y369047D01*
X455241Y369039D01*
X455211Y369027D01*
X455179Y369022D01*
X455098Y368979D01*
X455014Y368943D01*
X454982Y368917D01*
X454962Y368906D01*
X454939Y368883D01*
X454883Y368838D01*
X444210Y358165D01*
X428215Y358165D01*
X428144Y358153D01*
X428072Y358151D01*
X428023Y358133D01*
X427972Y358125D01*
X427909Y358091D01*
X427841Y358067D01*
X427801Y358034D01*
X427755Y358010D01*
X427705Y357958D01*
X427649Y357913D01*
X427621Y357869D01*
X427585Y357831D01*
X427555Y357766D01*
X427516Y357706D01*
X427504Y357656D01*
X427482Y357608D01*
X427474Y357537D01*
X427456Y357468D01*
X427460Y357416D01*
X427455Y357364D01*
X427470Y357294D01*
X427475Y357222D01*
X427496Y357175D01*
X427507Y357124D01*
X427544Y357062D01*
X427572Y356996D01*
X427617Y356940D01*
X427633Y356912D01*
X427651Y356897D01*
X427677Y356865D01*
X428471Y356071D01*
X428471Y351675D01*
X427645Y350849D01*
X427633Y350832D01*
X427617Y350820D01*
X427561Y350733D01*
X427501Y350649D01*
X427495Y350630D01*
X427484Y350613D01*
X427459Y350513D01*
X427429Y350414D01*
X427429Y350394D01*
X427424Y350374D01*
X427432Y350271D01*
X427435Y350168D01*
X427442Y350149D01*
X427443Y350129D01*
X427484Y350034D01*
X427519Y349937D01*
X427532Y349921D01*
X427540Y349903D01*
X427645Y349772D01*
X428648Y348768D01*
X428648Y338846D01*
X428656Y338799D01*
X428654Y338751D01*
X428676Y338678D01*
X428688Y338603D01*
X428710Y338561D01*
X428716Y338542D01*
X428708Y338538D01*
X428608Y338458D01*
X428589Y338445D01*
X428585Y338440D01*
X428577Y338434D01*
X428160Y338017D01*
X428107Y337943D01*
X428048Y337873D01*
X428035Y337843D01*
X428017Y337817D01*
X427990Y337730D01*
X427956Y337645D01*
X427951Y337604D01*
X427944Y337582D01*
X427945Y337550D01*
X427937Y337479D01*
X427937Y327812D01*
X427044Y326918D01*
X426722Y326918D01*
X426703Y326915D01*
X426683Y326917D01*
X426582Y326895D01*
X426480Y326879D01*
X426462Y326869D01*
X426443Y326865D01*
X426354Y326812D01*
X426262Y326764D01*
X426249Y326749D01*
X426231Y326739D01*
X426164Y326660D01*
X426093Y326585D01*
X426085Y326567D01*
X426072Y326552D01*
X426033Y326456D01*
X425989Y326362D01*
X425987Y326342D01*
X425980Y326324D01*
X425963Y326171D01*
X419378Y319586D01*
X419325Y319512D01*
X419265Y319443D01*
X419253Y319413D01*
X419234Y319386D01*
X419207Y319299D01*
X419173Y319215D01*
X419169Y319174D01*
X419162Y319151D01*
X419163Y319119D01*
X419155Y319048D01*
X419155Y310676D01*
X419158Y310656D01*
X419156Y310637D01*
X419178Y310535D01*
X419194Y310433D01*
X419204Y310416D01*
X419208Y310396D01*
X419261Y310307D01*
X419310Y310216D01*
X419324Y310202D01*
X419334Y310185D01*
X419413Y310118D01*
X419488Y310046D01*
X419506Y310038D01*
X419521Y310025D01*
X419617Y309986D01*
X419711Y309943D01*
X419731Y309941D01*
X419749Y309933D01*
X419916Y309915D01*
X420345Y309915D01*
X420345Y303100D01*
X420348Y303081D01*
X420346Y303061D01*
X420368Y302960D01*
X420384Y302858D01*
X420394Y302840D01*
X420398Y302821D01*
X420451Y302731D01*
X420499Y302640D01*
X420514Y302627D01*
X420524Y302609D01*
X420603Y302542D01*
X420678Y302471D01*
X420696Y302462D01*
X420711Y302449D01*
X420807Y302411D01*
X420901Y302367D01*
X420921Y302365D01*
X420939Y302358D01*
X421106Y302339D01*
X421126Y302342D01*
G37*
G36*
X424813Y155257D02*
X424813Y155257D01*
X424885Y155259D01*
X424934Y155277D01*
X424985Y155285D01*
X425049Y155319D01*
X425116Y155343D01*
X425157Y155376D01*
X425203Y155400D01*
X425252Y155452D01*
X425308Y155497D01*
X425336Y155541D01*
X425372Y155579D01*
X425402Y155644D01*
X425441Y155704D01*
X425454Y155755D01*
X425476Y155802D01*
X425484Y155873D01*
X425501Y155943D01*
X425497Y155995D01*
X425503Y156046D01*
X425488Y156116D01*
X425482Y156188D01*
X425462Y156236D01*
X425451Y156287D01*
X425414Y156348D01*
X425386Y156414D01*
X425341Y156470D01*
X425324Y156498D01*
X425307Y156513D01*
X425281Y156545D01*
X422709Y159117D01*
X422709Y163514D01*
X423880Y164685D01*
X423892Y164701D01*
X423907Y164714D01*
X423963Y164801D01*
X424024Y164885D01*
X424030Y164904D01*
X424040Y164921D01*
X424066Y165021D01*
X424096Y165120D01*
X424096Y165140D01*
X424100Y165159D01*
X424092Y165262D01*
X424090Y165366D01*
X424083Y165385D01*
X424081Y165404D01*
X424041Y165499D01*
X424005Y165597D01*
X423993Y165612D01*
X423985Y165631D01*
X423880Y165762D01*
X423069Y166572D01*
X423069Y185818D01*
X423055Y185908D01*
X423047Y185999D01*
X423035Y186029D01*
X423030Y186061D01*
X422987Y186141D01*
X422951Y186225D01*
X422925Y186257D01*
X422914Y186278D01*
X422891Y186300D01*
X422846Y186356D01*
X413057Y196145D01*
X413057Y206976D01*
X413054Y206996D01*
X413056Y207015D01*
X413034Y207117D01*
X413018Y207219D01*
X413008Y207236D01*
X413004Y207256D01*
X412951Y207345D01*
X412902Y207436D01*
X412888Y207450D01*
X412878Y207467D01*
X412799Y207534D01*
X412724Y207606D01*
X412706Y207614D01*
X412691Y207627D01*
X412595Y207666D01*
X412501Y207709D01*
X412481Y207711D01*
X412463Y207719D01*
X412296Y207737D01*
X411867Y207737D01*
X411867Y214552D01*
X411864Y214571D01*
X411866Y214591D01*
X411844Y214692D01*
X411828Y214794D01*
X411818Y214812D01*
X411814Y214831D01*
X411761Y214921D01*
X411713Y215012D01*
X411698Y215025D01*
X411688Y215043D01*
X411609Y215110D01*
X411534Y215181D01*
X411516Y215190D01*
X411501Y215203D01*
X411405Y215241D01*
X411311Y215285D01*
X411291Y215287D01*
X411273Y215294D01*
X411106Y215313D01*
X411086Y215310D01*
X411067Y215312D01*
X411066Y215312D01*
X410965Y215290D01*
X410863Y215273D01*
X410846Y215264D01*
X410826Y215260D01*
X410737Y215206D01*
X410646Y215158D01*
X410632Y215144D01*
X410615Y215133D01*
X410548Y215055D01*
X410476Y214980D01*
X410468Y214962D01*
X410455Y214947D01*
X410416Y214850D01*
X410373Y214757D01*
X410371Y214737D01*
X410363Y214718D01*
X410345Y214552D01*
X410345Y207737D01*
X409916Y207737D01*
X409896Y207734D01*
X409877Y207736D01*
X409775Y207714D01*
X409673Y207698D01*
X409656Y207688D01*
X409636Y207684D01*
X409547Y207631D01*
X409456Y207582D01*
X409442Y207568D01*
X409425Y207558D01*
X409358Y207479D01*
X409286Y207404D01*
X409278Y207386D01*
X409265Y207371D01*
X409226Y207275D01*
X409183Y207181D01*
X409181Y207161D01*
X409173Y207143D01*
X409155Y206976D01*
X409155Y188904D01*
X409158Y188884D01*
X409156Y188865D01*
X409178Y188763D01*
X409194Y188661D01*
X409204Y188644D01*
X409208Y188624D01*
X409261Y188535D01*
X409310Y188444D01*
X409324Y188430D01*
X409334Y188413D01*
X409413Y188346D01*
X409488Y188274D01*
X409506Y188266D01*
X409521Y188253D01*
X409599Y188222D01*
X409599Y182625D01*
X405081Y182625D01*
X405081Y183278D01*
X405070Y183349D01*
X405068Y183421D01*
X405050Y183470D01*
X405042Y183521D01*
X405008Y183585D01*
X404983Y183652D01*
X404951Y183693D01*
X404926Y183739D01*
X404874Y183788D01*
X404830Y183844D01*
X404786Y183872D01*
X404748Y183908D01*
X404683Y183938D01*
X404623Y183977D01*
X404572Y183990D01*
X404525Y184012D01*
X404454Y184019D01*
X404384Y184037D01*
X404332Y184033D01*
X404281Y184039D01*
X404210Y184023D01*
X404139Y184018D01*
X404091Y183997D01*
X404040Y183986D01*
X403979Y183950D01*
X403913Y183922D01*
X403857Y183877D01*
X403829Y183860D01*
X403814Y183842D01*
X403782Y183817D01*
X403370Y183405D01*
X403317Y183331D01*
X403257Y183261D01*
X403245Y183231D01*
X403226Y183205D01*
X403199Y183118D01*
X403165Y183033D01*
X403161Y182992D01*
X403154Y182970D01*
X403155Y182938D01*
X403147Y182866D01*
X403147Y175970D01*
X402862Y175685D01*
X402809Y175611D01*
X402749Y175542D01*
X402737Y175512D01*
X402718Y175486D01*
X402691Y175399D01*
X402657Y175314D01*
X402653Y175273D01*
X402646Y175251D01*
X402647Y175218D01*
X402639Y175147D01*
X402639Y165302D01*
X401746Y164409D01*
X393482Y164409D01*
X392589Y165302D01*
X392589Y166624D01*
X392586Y166644D01*
X392588Y166663D01*
X392566Y166765D01*
X392550Y166867D01*
X392540Y166884D01*
X392536Y166904D01*
X392483Y166993D01*
X392434Y167084D01*
X392420Y167098D01*
X392410Y167115D01*
X392331Y167182D01*
X392256Y167254D01*
X392238Y167262D01*
X392223Y167275D01*
X392127Y167314D01*
X392033Y167357D01*
X392013Y167359D01*
X391995Y167367D01*
X391828Y167385D01*
X390116Y167385D01*
X390096Y167382D01*
X390077Y167384D01*
X389975Y167362D01*
X389873Y167346D01*
X389856Y167336D01*
X389836Y167332D01*
X389747Y167279D01*
X389656Y167230D01*
X389642Y167216D01*
X389625Y167206D01*
X389558Y167127D01*
X389486Y167052D01*
X389478Y167034D01*
X389465Y167019D01*
X389426Y166923D01*
X389383Y166829D01*
X389381Y166809D01*
X389373Y166791D01*
X389366Y166723D01*
X386246Y163603D01*
X385747Y163603D01*
X385676Y163592D01*
X385604Y163590D01*
X385555Y163572D01*
X385504Y163564D01*
X385441Y163530D01*
X385373Y163505D01*
X385333Y163473D01*
X385287Y163448D01*
X385237Y163396D01*
X385181Y163352D01*
X385153Y163308D01*
X385117Y163270D01*
X385087Y163205D01*
X385048Y163145D01*
X385036Y163094D01*
X385014Y163047D01*
X385006Y162976D01*
X384988Y162906D01*
X384992Y162854D01*
X384987Y162803D01*
X385002Y162732D01*
X385007Y162661D01*
X385028Y162613D01*
X385039Y162562D01*
X385076Y162501D01*
X385104Y162435D01*
X385149Y162379D01*
X385165Y162351D01*
X385183Y162336D01*
X385209Y162304D01*
X392044Y155469D01*
X392118Y155415D01*
X392187Y155356D01*
X392217Y155344D01*
X392244Y155325D01*
X392331Y155298D01*
X392415Y155264D01*
X392456Y155259D01*
X392479Y155253D01*
X392511Y155253D01*
X392582Y155246D01*
X424743Y155246D01*
X424813Y155257D01*
G37*
G36*
X411126Y302342D02*
X411126Y302342D01*
X411145Y302340D01*
X411146Y302340D01*
X411247Y302362D01*
X411349Y302379D01*
X411366Y302388D01*
X411386Y302392D01*
X411475Y302446D01*
X411566Y302494D01*
X411580Y302508D01*
X411597Y302519D01*
X411664Y302597D01*
X411736Y302672D01*
X411744Y302690D01*
X411757Y302705D01*
X411796Y302802D01*
X411839Y302895D01*
X411841Y302915D01*
X411849Y302934D01*
X411867Y303100D01*
X411867Y309915D01*
X412296Y309915D01*
X412316Y309918D01*
X412335Y309916D01*
X412437Y309938D01*
X412539Y309954D01*
X412556Y309964D01*
X412576Y309968D01*
X412665Y310021D01*
X412756Y310070D01*
X412770Y310084D01*
X412787Y310094D01*
X412854Y310173D01*
X412926Y310248D01*
X412934Y310266D01*
X412947Y310281D01*
X412986Y310377D01*
X413029Y310471D01*
X413031Y310491D01*
X413039Y310509D01*
X413057Y310676D01*
X413057Y321889D01*
X417896Y326727D01*
X417907Y326743D01*
X417923Y326756D01*
X417979Y326843D01*
X418039Y326927D01*
X418045Y326946D01*
X418056Y326963D01*
X418081Y327063D01*
X418112Y327162D01*
X418111Y327182D01*
X418116Y327201D01*
X418108Y327304D01*
X418105Y327408D01*
X418098Y327427D01*
X418097Y327447D01*
X418056Y327542D01*
X418021Y327639D01*
X418008Y327654D01*
X418000Y327673D01*
X417896Y327804D01*
X417888Y327812D01*
X417888Y338075D01*
X418376Y338563D01*
X418422Y338627D01*
X418438Y338645D01*
X418442Y338652D01*
X418488Y338706D01*
X418501Y338737D01*
X418519Y338763D01*
X418546Y338850D01*
X418580Y338935D01*
X418585Y338975D01*
X418592Y338998D01*
X418591Y339030D01*
X418599Y339101D01*
X418599Y348768D01*
X419143Y349312D01*
X419155Y349329D01*
X419170Y349341D01*
X419226Y349428D01*
X419287Y349512D01*
X419292Y349531D01*
X419303Y349548D01*
X419329Y349648D01*
X419359Y349747D01*
X419358Y349767D01*
X419363Y349786D01*
X419355Y349889D01*
X419353Y349993D01*
X419346Y350012D01*
X419344Y350032D01*
X419304Y350126D01*
X419268Y350224D01*
X419256Y350240D01*
X419248Y350258D01*
X419143Y350389D01*
X417857Y351675D01*
X417857Y356071D01*
X418651Y356865D01*
X418693Y356923D01*
X418743Y356975D01*
X418765Y357023D01*
X418795Y357065D01*
X418816Y357133D01*
X418846Y357198D01*
X418852Y357250D01*
X418867Y357300D01*
X418866Y357372D01*
X418873Y357443D01*
X418862Y357494D01*
X418861Y357546D01*
X418836Y357613D01*
X418821Y357683D01*
X418794Y357728D01*
X418777Y357777D01*
X418732Y357833D01*
X418695Y357894D01*
X418655Y357928D01*
X418623Y357969D01*
X418563Y358008D01*
X418508Y358054D01*
X418460Y358074D01*
X418416Y358102D01*
X418346Y358119D01*
X418280Y358146D01*
X418209Y358154D01*
X418177Y358162D01*
X418154Y358160D01*
X418113Y358165D01*
X396769Y358165D01*
X396679Y358150D01*
X396588Y358143D01*
X396559Y358130D01*
X396527Y358125D01*
X396446Y358082D01*
X396362Y358047D01*
X396330Y358021D01*
X396309Y358010D01*
X396287Y357986D01*
X396231Y357942D01*
X391123Y352834D01*
X389606Y351316D01*
X389564Y351258D01*
X389515Y351206D01*
X389493Y351159D01*
X389462Y351117D01*
X389441Y351048D01*
X389411Y350983D01*
X389405Y350931D01*
X389390Y350882D01*
X389392Y350810D01*
X389384Y350739D01*
X389395Y350688D01*
X389396Y350636D01*
X389421Y350568D01*
X389436Y350498D01*
X389463Y350454D01*
X389481Y350405D01*
X389526Y350349D01*
X389562Y350287D01*
X389602Y350253D01*
X389635Y350213D01*
X389695Y350174D01*
X389749Y350127D01*
X389798Y350108D01*
X389841Y350080D01*
X389911Y350062D01*
X389977Y350035D01*
X390049Y350027D01*
X390080Y350020D01*
X390103Y350021D01*
X390144Y350017D01*
X396615Y350017D01*
X397508Y349124D01*
X397508Y338746D01*
X397523Y338656D01*
X397530Y338564D01*
X397542Y338535D01*
X397548Y338503D01*
X397559Y338482D01*
X397559Y329579D01*
X397573Y329489D01*
X397581Y329398D01*
X397593Y329368D01*
X397598Y329336D01*
X397641Y329255D01*
X397677Y329171D01*
X397703Y329139D01*
X397714Y329118D01*
X397737Y329096D01*
X397782Y329040D01*
X398194Y328628D01*
X398252Y328586D01*
X398304Y328537D01*
X398326Y328527D01*
X398327Y328526D01*
X398337Y328521D01*
X398351Y328515D01*
X398393Y328485D01*
X398462Y328464D01*
X398527Y328433D01*
X398579Y328428D01*
X398629Y328412D01*
X398700Y328414D01*
X398771Y328406D01*
X398822Y328417D01*
X398874Y328419D01*
X398942Y328443D01*
X399012Y328459D01*
X399057Y328485D01*
X399105Y328503D01*
X399161Y328548D01*
X399223Y328585D01*
X399257Y328624D01*
X399297Y328657D01*
X399336Y328717D01*
X399383Y328772D01*
X399402Y328820D01*
X399430Y328864D01*
X399448Y328933D01*
X399452Y328943D01*
X399465Y328971D01*
X399466Y328977D01*
X399475Y329000D01*
X399483Y329071D01*
X399491Y329102D01*
X399489Y329126D01*
X399493Y329167D01*
X399493Y331725D01*
X404011Y331725D01*
X404011Y326207D01*
X402453Y326207D01*
X402382Y326196D01*
X402310Y326194D01*
X402261Y326176D01*
X402210Y326168D01*
X402146Y326134D01*
X402079Y326109D01*
X402038Y326077D01*
X401992Y326052D01*
X401943Y326000D01*
X401887Y325956D01*
X401859Y325912D01*
X401823Y325874D01*
X401793Y325809D01*
X401754Y325749D01*
X401741Y325698D01*
X401719Y325651D01*
X401712Y325580D01*
X401694Y325510D01*
X401698Y325458D01*
X401692Y325407D01*
X401708Y325336D01*
X401713Y325265D01*
X401733Y325217D01*
X401745Y325166D01*
X401781Y325105D01*
X401809Y325039D01*
X401854Y324983D01*
X401871Y324955D01*
X401889Y324940D01*
X401914Y324908D01*
X409155Y317667D01*
X409155Y310676D01*
X409158Y310656D01*
X409156Y310637D01*
X409178Y310535D01*
X409194Y310433D01*
X409204Y310416D01*
X409208Y310396D01*
X409261Y310307D01*
X409310Y310216D01*
X409324Y310202D01*
X409334Y310185D01*
X409413Y310118D01*
X409488Y310046D01*
X409506Y310038D01*
X409521Y310025D01*
X409617Y309986D01*
X409711Y309943D01*
X409731Y309941D01*
X409749Y309933D01*
X409916Y309915D01*
X410345Y309915D01*
X410345Y303100D01*
X410348Y303081D01*
X410346Y303061D01*
X410368Y302960D01*
X410384Y302858D01*
X410394Y302840D01*
X410398Y302821D01*
X410451Y302731D01*
X410499Y302640D01*
X410514Y302627D01*
X410524Y302609D01*
X410603Y302542D01*
X410678Y302471D01*
X410696Y302462D01*
X410711Y302449D01*
X410807Y302411D01*
X410901Y302367D01*
X410921Y302365D01*
X410939Y302358D01*
X411106Y302339D01*
X411126Y302342D01*
G37*
G36*
X331109Y134381D02*
X331109Y134381D01*
X331199Y134389D01*
X331229Y134401D01*
X331261Y134406D01*
X331342Y134449D01*
X331426Y134485D01*
X331458Y134511D01*
X331479Y134522D01*
X331501Y134545D01*
X331557Y134590D01*
X332928Y135961D01*
X332940Y135977D01*
X332955Y135990D01*
X333011Y136077D01*
X333072Y136161D01*
X333077Y136180D01*
X333088Y136197D01*
X333114Y136297D01*
X333144Y136396D01*
X333143Y136416D01*
X333148Y136435D01*
X333140Y136538D01*
X333138Y136642D01*
X333131Y136661D01*
X333129Y136680D01*
X333089Y136775D01*
X333053Y136873D01*
X333041Y136888D01*
X333033Y136907D01*
X332928Y137038D01*
X331469Y138497D01*
X331469Y144002D01*
X332928Y145461D01*
X332940Y145477D01*
X332955Y145490D01*
X333011Y145577D01*
X333072Y145661D01*
X333077Y145680D01*
X333088Y145697D01*
X333114Y145797D01*
X333144Y145896D01*
X333143Y145916D01*
X333148Y145935D01*
X333140Y146038D01*
X333138Y146142D01*
X333131Y146161D01*
X333129Y146180D01*
X333089Y146275D01*
X333053Y146373D01*
X333041Y146388D01*
X333033Y146407D01*
X332928Y146538D01*
X331469Y147997D01*
X331469Y153502D01*
X333241Y155274D01*
X340069Y155274D01*
X340160Y155289D01*
X340250Y155296D01*
X340280Y155309D01*
X340312Y155314D01*
X340393Y155357D01*
X340477Y155392D01*
X340509Y155418D01*
X340530Y155429D01*
X340552Y155452D01*
X340608Y155497D01*
X345497Y160386D01*
X345550Y160460D01*
X345609Y160530D01*
X345622Y160560D01*
X345640Y160586D01*
X345667Y160673D01*
X345701Y160758D01*
X345706Y160799D01*
X345713Y160821D01*
X345712Y160853D01*
X345720Y160925D01*
X345720Y161687D01*
X346740Y162707D01*
X346786Y162770D01*
X346810Y162796D01*
X346815Y162806D01*
X346853Y162851D01*
X346865Y162881D01*
X346884Y162907D01*
X346911Y162994D01*
X346945Y163079D01*
X346949Y163120D01*
X346956Y163142D01*
X346955Y163174D01*
X346963Y163246D01*
X346963Y167894D01*
X346952Y167965D01*
X346950Y168036D01*
X346932Y168085D01*
X346924Y168137D01*
X346890Y168200D01*
X346865Y168267D01*
X346833Y168308D01*
X346808Y168354D01*
X346757Y168403D01*
X346712Y168459D01*
X346668Y168488D01*
X346630Y168524D01*
X346565Y168554D01*
X346505Y168592D01*
X346454Y168605D01*
X346407Y168627D01*
X346336Y168635D01*
X346266Y168653D01*
X346214Y168648D01*
X346163Y168654D01*
X346092Y168639D01*
X346021Y168633D01*
X345973Y168613D01*
X345922Y168602D01*
X345861Y168565D01*
X345795Y168537D01*
X345739Y168492D01*
X345711Y168476D01*
X345696Y168458D01*
X345664Y168432D01*
X335981Y158749D01*
X324411Y158749D01*
X324321Y158735D01*
X324230Y158727D01*
X324200Y158715D01*
X324168Y158710D01*
X324087Y158667D01*
X324004Y158631D01*
X323971Y158605D01*
X323951Y158594D01*
X323929Y158571D01*
X323873Y158526D01*
X323322Y157975D01*
X304058Y157975D01*
X303305Y158728D01*
X303208Y158798D01*
X303108Y158871D01*
X303107Y158871D01*
X303106Y158872D01*
X303101Y158873D01*
X302951Y158929D01*
X296925Y160424D01*
X296925Y165690D01*
X296922Y165710D01*
X296924Y165729D01*
X296902Y165831D01*
X296886Y165933D01*
X296876Y165950D01*
X296872Y165970D01*
X296819Y166059D01*
X296770Y166150D01*
X296756Y166164D01*
X296746Y166181D01*
X296667Y166248D01*
X296592Y166320D01*
X296574Y166328D01*
X296559Y166341D01*
X296463Y166380D01*
X296369Y166423D01*
X296349Y166425D01*
X296331Y166433D01*
X296164Y166451D01*
X296089Y166451D01*
X294080Y168460D01*
X282986Y179554D01*
X282928Y179596D01*
X282876Y179645D01*
X282829Y179667D01*
X282787Y179698D01*
X282718Y179719D01*
X282653Y179749D01*
X282601Y179755D01*
X282551Y179770D01*
X282480Y179768D01*
X282409Y179776D01*
X282358Y179765D01*
X282306Y179764D01*
X282238Y179739D01*
X282168Y179724D01*
X282123Y179697D01*
X282075Y179679D01*
X282019Y179634D01*
X281957Y179598D01*
X281923Y179558D01*
X281883Y179526D01*
X281844Y179465D01*
X281797Y179411D01*
X281778Y179362D01*
X281750Y179319D01*
X281732Y179249D01*
X281705Y179183D01*
X281697Y179111D01*
X281689Y179080D01*
X281691Y179057D01*
X281687Y179016D01*
X281687Y158297D01*
X281706Y158181D01*
X281724Y158062D01*
X281726Y158058D01*
X281726Y158054D01*
X281782Y157949D01*
X281837Y157843D01*
X281840Y157841D01*
X281842Y157837D01*
X281928Y157755D01*
X282013Y157672D01*
X282017Y157670D01*
X282020Y157668D01*
X282128Y157617D01*
X282235Y157566D01*
X282239Y157566D01*
X282243Y157564D01*
X282361Y157551D01*
X282479Y157536D01*
X282484Y157537D01*
X282487Y157537D01*
X282501Y157540D01*
X282645Y157562D01*
X282694Y157575D01*
X286005Y157575D01*
X286005Y152296D01*
X286008Y152276D01*
X286006Y152257D01*
X286028Y152155D01*
X286045Y152053D01*
X286054Y152036D01*
X286058Y152016D01*
X286111Y151927D01*
X286160Y151836D01*
X286174Y151822D01*
X286184Y151805D01*
X286263Y151738D01*
X286338Y151667D01*
X286356Y151658D01*
X286371Y151645D01*
X286467Y151606D01*
X286561Y151563D01*
X286581Y151561D01*
X286599Y151553D01*
X286766Y151535D01*
X288290Y151535D01*
X288310Y151538D01*
X288329Y151536D01*
X288431Y151558D01*
X288533Y151575D01*
X288550Y151584D01*
X288570Y151588D01*
X288659Y151641D01*
X288750Y151690D01*
X288764Y151704D01*
X288781Y151714D01*
X288848Y151793D01*
X288919Y151868D01*
X288928Y151886D01*
X288941Y151901D01*
X288980Y151997D01*
X289023Y152091D01*
X289025Y152111D01*
X289033Y152129D01*
X289051Y152296D01*
X289051Y157575D01*
X292362Y157575D01*
X293009Y157402D01*
X293588Y157067D01*
X293873Y156782D01*
X293947Y156729D01*
X294017Y156669D01*
X294047Y156657D01*
X294073Y156638D01*
X294160Y156611D01*
X294245Y156577D01*
X294286Y156573D01*
X294308Y156566D01*
X294340Y156567D01*
X294412Y156559D01*
X303582Y156559D01*
X304475Y155666D01*
X304475Y154051D01*
X304478Y154032D01*
X304476Y154012D01*
X304498Y153911D01*
X304514Y153809D01*
X304524Y153791D01*
X304528Y153772D01*
X304581Y153683D01*
X304630Y153591D01*
X304644Y153578D01*
X304654Y153560D01*
X304733Y153493D01*
X304808Y153422D01*
X304826Y153414D01*
X304841Y153401D01*
X304937Y153362D01*
X305031Y153318D01*
X305051Y153316D01*
X305069Y153309D01*
X305236Y153290D01*
X306042Y153290D01*
X306132Y153305D01*
X306223Y153312D01*
X306253Y153325D01*
X306285Y153330D01*
X306365Y153373D01*
X306449Y153408D01*
X306481Y153434D01*
X306502Y153445D01*
X306524Y153468D01*
X306580Y153513D01*
X308341Y155274D01*
X320047Y155274D01*
X321819Y153502D01*
X321819Y147997D01*
X321045Y147222D01*
X320975Y147126D01*
X320905Y147030D01*
X320903Y147026D01*
X320901Y147023D01*
X320867Y146911D01*
X320830Y146796D01*
X320830Y146792D01*
X320829Y146788D01*
X320832Y146669D01*
X320834Y146550D01*
X320835Y146546D01*
X320835Y146542D01*
X320876Y146430D01*
X320915Y146318D01*
X320918Y146315D01*
X320919Y146311D01*
X320995Y146217D01*
X321067Y146124D01*
X321071Y146121D01*
X321073Y146119D01*
X321085Y146111D01*
X321202Y146025D01*
X321275Y145983D01*
X322027Y145230D01*
X322559Y144309D01*
X322835Y143281D01*
X322835Y142749D01*
X314932Y142749D01*
X314913Y142745D01*
X314893Y142748D01*
X314791Y142726D01*
X314689Y142709D01*
X314672Y142700D01*
X314652Y142695D01*
X314563Y142642D01*
X314472Y142594D01*
X314458Y142579D01*
X314441Y142569D01*
X314374Y142490D01*
X314303Y142415D01*
X314294Y142397D01*
X314281Y142382D01*
X314243Y142286D01*
X314199Y142192D01*
X314197Y142173D01*
X314189Y142154D01*
X314171Y141987D01*
X314171Y140511D01*
X314174Y140492D01*
X314172Y140472D01*
X314194Y140371D01*
X314211Y140269D01*
X314220Y140251D01*
X314224Y140232D01*
X314277Y140143D01*
X314326Y140051D01*
X314340Y140038D01*
X314350Y140020D01*
X314429Y139953D01*
X314504Y139882D01*
X314522Y139873D01*
X314537Y139861D01*
X314634Y139822D01*
X314727Y139778D01*
X314747Y139776D01*
X314765Y139769D01*
X314932Y139750D01*
X322835Y139750D01*
X322835Y139217D01*
X322559Y138190D01*
X322027Y137268D01*
X321275Y136516D01*
X321202Y136474D01*
X321166Y136445D01*
X321130Y136425D01*
X321087Y136380D01*
X321017Y136324D01*
X321015Y136321D01*
X321012Y136318D01*
X320980Y136267D01*
X320961Y136247D01*
X320942Y136208D01*
X320884Y136117D01*
X320883Y136113D01*
X320881Y136110D01*
X320864Y136039D01*
X320857Y136024D01*
X320854Y135997D01*
X320853Y135994D01*
X320824Y135879D01*
X320825Y135875D01*
X320824Y135871D01*
X320831Y135789D01*
X320830Y135779D01*
X320833Y135765D01*
X320834Y135752D01*
X320843Y135634D01*
X320845Y135630D01*
X320845Y135626D01*
X320881Y135545D01*
X320882Y135539D01*
X320887Y135531D01*
X320894Y135516D01*
X320940Y135407D01*
X320943Y135404D01*
X320944Y135400D01*
X320954Y135390D01*
X321045Y135276D01*
X321731Y134590D01*
X321805Y134537D01*
X321875Y134477D01*
X321905Y134465D01*
X321931Y134446D01*
X322018Y134419D01*
X322103Y134385D01*
X322144Y134381D01*
X322166Y134374D01*
X322198Y134375D01*
X322270Y134367D01*
X331018Y134367D01*
X331109Y134381D01*
G37*
%LPC*%
G36*
X559203Y338859D02*
X559203Y338859D01*
X559179Y338865D01*
X559156Y338876D01*
X558992Y338909D01*
X558133Y338984D01*
X558108Y338982D01*
X558083Y338987D01*
X557986Y338973D01*
X557887Y338966D01*
X557880Y338963D01*
X557703Y339010D01*
X557672Y339013D01*
X557572Y339033D01*
X557383Y339050D01*
X557359Y339070D01*
X557336Y339080D01*
X557316Y339095D01*
X557159Y339156D01*
X556327Y339379D01*
X556301Y339382D01*
X556278Y339390D01*
X556179Y339394D01*
X556082Y339403D01*
X556074Y339402D01*
X555908Y339479D01*
X555878Y339488D01*
X555783Y339525D01*
X555599Y339574D01*
X555580Y339598D01*
X555558Y339611D01*
X555541Y339630D01*
X555398Y339717D01*
X554616Y340081D01*
X554592Y340088D01*
X554570Y340101D01*
X554474Y340121D01*
X554380Y340148D01*
X554372Y340148D01*
X554221Y340253D01*
X554193Y340266D01*
X554106Y340319D01*
X553934Y340400D01*
X553919Y340427D01*
X553900Y340444D01*
X553886Y340465D01*
X553760Y340576D01*
X553054Y341070D01*
X553031Y341081D01*
X553012Y341097D01*
X552921Y341134D01*
X552832Y341177D01*
X552825Y341178D01*
X552695Y341308D01*
X552669Y341326D01*
X552593Y341393D01*
X552437Y341502D01*
X552427Y341531D01*
X552412Y341551D01*
X552402Y341575D01*
X552297Y341705D01*
X551687Y342315D01*
X551667Y342330D01*
X551651Y342349D01*
X551567Y342401D01*
X551488Y342459D01*
X551480Y342461D01*
X551375Y342611D01*
X551353Y342634D01*
X551289Y342713D01*
X551155Y342847D01*
X551150Y342878D01*
X551138Y342901D01*
X551132Y342925D01*
X551052Y343072D01*
X550557Y343779D01*
X550540Y343797D01*
X550527Y343818D01*
X550454Y343884D01*
X550386Y343955D01*
X550379Y343958D01*
X550301Y344125D01*
X550284Y344150D01*
X550235Y344239D01*
X550126Y344395D01*
X550126Y344427D01*
X550118Y344451D01*
X550117Y344476D01*
X550063Y344635D01*
X549699Y345416D01*
X549685Y345437D01*
X549676Y345460D01*
X549615Y345538D01*
X549560Y345619D01*
X549554Y345624D01*
X549506Y345801D01*
X549493Y345830D01*
X549461Y345926D01*
X549381Y346098D01*
X549387Y346129D01*
X549383Y346154D01*
X549386Y346179D01*
X549361Y346345D01*
X549138Y347178D01*
X549127Y347200D01*
X549123Y347225D01*
X549077Y347312D01*
X549036Y347402D01*
X549031Y347407D01*
X549015Y347590D01*
X549007Y347621D01*
X548992Y347721D01*
X548943Y347905D01*
X548954Y347934D01*
X548955Y347959D01*
X548962Y347983D01*
X548966Y348151D01*
X548891Y349010D01*
X548885Y349034D01*
X548885Y349059D01*
X548854Y349153D01*
X548830Y349248D01*
X548826Y349255D01*
X548842Y349438D01*
X548839Y349469D01*
X548842Y349570D01*
X548825Y349760D01*
X548841Y349787D01*
X548846Y349811D01*
X548858Y349834D01*
X548891Y349998D01*
X548966Y350857D01*
X548964Y350882D01*
X548969Y350907D01*
X548955Y351004D01*
X548948Y351102D01*
X548945Y351110D01*
X548992Y351287D01*
X548995Y351318D01*
X549015Y351418D01*
X549032Y351607D01*
X549052Y351631D01*
X549062Y351654D01*
X549077Y351674D01*
X549138Y351830D01*
X549361Y352663D01*
X549363Y352688D01*
X549372Y352712D01*
X549375Y352810D01*
X549385Y352908D01*
X549383Y352916D01*
X549461Y353082D01*
X549469Y353112D01*
X549506Y353207D01*
X549556Y353390D01*
X549580Y353410D01*
X549593Y353431D01*
X549612Y353449D01*
X549699Y353592D01*
X550063Y354373D01*
X550070Y354398D01*
X550083Y354419D01*
X550103Y354516D01*
X550130Y354610D01*
X550129Y354618D01*
X550235Y354769D01*
X550248Y354797D01*
X550301Y354883D01*
X550381Y355056D01*
X550409Y355071D01*
X550426Y355090D01*
X550447Y355103D01*
X550557Y355229D01*
X551052Y355936D01*
X551063Y355958D01*
X551079Y355977D01*
X551116Y356069D01*
X551159Y356157D01*
X551160Y356165D01*
X551289Y356295D01*
X551308Y356320D01*
X551375Y356397D01*
X551484Y356552D01*
X551513Y356563D01*
X551533Y356578D01*
X551556Y356588D01*
X551687Y356693D01*
X552297Y357303D01*
X552312Y357323D01*
X552331Y357339D01*
X552383Y357423D01*
X552440Y357502D01*
X552443Y357510D01*
X552593Y357615D01*
X552615Y357637D01*
X552695Y357700D01*
X552829Y357835D01*
X552860Y357840D01*
X552882Y357852D01*
X552907Y357857D01*
X553054Y357938D01*
X553760Y358432D01*
X553778Y358450D01*
X553800Y358462D01*
X553866Y358535D01*
X553936Y358604D01*
X553940Y358611D01*
X554106Y358689D01*
X554132Y358706D01*
X554221Y358755D01*
X554377Y358864D01*
X554408Y358864D01*
X554432Y358872D01*
X554457Y358873D01*
X554546Y358903D01*
X554559Y358905D01*
X554570Y358911D01*
X554616Y358927D01*
X555398Y359291D01*
X555418Y359305D01*
X555442Y359314D01*
X555520Y359374D01*
X555601Y359430D01*
X555606Y359436D01*
X555783Y359483D01*
X555812Y359496D01*
X555908Y359529D01*
X556080Y359609D01*
X556111Y359603D01*
X556136Y359607D01*
X556161Y359604D01*
X556326Y359629D01*
X557159Y359852D01*
X557182Y359862D01*
X557207Y359867D01*
X557294Y359913D01*
X557383Y359953D01*
X557389Y359959D01*
X557572Y359975D01*
X557602Y359982D01*
X557703Y359998D01*
X557886Y360047D01*
X557916Y360036D01*
X557941Y360035D01*
X557965Y360028D01*
X558133Y360024D01*
X558992Y360099D01*
X559016Y360105D01*
X559041Y360105D01*
X559135Y360135D01*
X559230Y360160D01*
X559237Y360164D01*
X559419Y360148D01*
X559451Y360150D01*
X559552Y360148D01*
X559742Y360165D01*
X559768Y360149D01*
X559793Y360143D01*
X559815Y360132D01*
X559980Y360099D01*
X560839Y360024D01*
X560864Y360026D01*
X560889Y360021D01*
X560986Y360035D01*
X561084Y360042D01*
X561091Y360045D01*
X561269Y359998D01*
X561300Y359995D01*
X561399Y359975D01*
X561589Y359958D01*
X561613Y359938D01*
X561636Y359928D01*
X561656Y359913D01*
X561812Y359852D01*
X562645Y359629D01*
X562670Y359626D01*
X562694Y359618D01*
X562792Y359614D01*
X562890Y359605D01*
X562898Y359606D01*
X563064Y359529D01*
X563094Y359520D01*
X563189Y359483D01*
X563372Y359434D01*
X563392Y359410D01*
X563413Y359397D01*
X563431Y359378D01*
X563574Y359291D01*
X564355Y358927D01*
X564379Y358920D01*
X564401Y358907D01*
X564464Y358894D01*
X564489Y358884D01*
X564520Y358880D01*
X564592Y358860D01*
X564600Y358860D01*
X564750Y358755D01*
X564779Y358742D01*
X564865Y358689D01*
X565038Y358608D01*
X565053Y358581D01*
X565072Y358564D01*
X565085Y358543D01*
X565211Y358432D01*
X565918Y357938D01*
X565940Y357927D01*
X565959Y357911D01*
X566051Y357874D01*
X566139Y357831D01*
X566147Y357830D01*
X566277Y357700D01*
X566302Y357682D01*
X566378Y357615D01*
X566534Y357506D01*
X566544Y357477D01*
X566560Y357457D01*
X566570Y357433D01*
X566675Y357303D01*
X567284Y356693D01*
X567305Y356678D01*
X567321Y356659D01*
X567404Y356607D01*
X567484Y356549D01*
X567492Y356547D01*
X567597Y356397D01*
X567619Y356374D01*
X567682Y356295D01*
X567817Y356161D01*
X567822Y356130D01*
X567833Y356107D01*
X567839Y356083D01*
X567920Y355936D01*
X568414Y355229D01*
X568432Y355211D01*
X568444Y355190D01*
X568517Y355124D01*
X568586Y355053D01*
X568593Y355050D01*
X568671Y354883D01*
X568688Y354858D01*
X568737Y354769D01*
X568846Y354613D01*
X568846Y354581D01*
X568853Y354557D01*
X568855Y354532D01*
X568908Y354373D01*
X569273Y353592D01*
X569287Y353571D01*
X569295Y353547D01*
X569356Y353470D01*
X569411Y353389D01*
X569418Y353384D01*
X569465Y353207D01*
X569478Y353178D01*
X569511Y353082D01*
X569591Y352910D01*
X569585Y352879D01*
X569589Y352854D01*
X569585Y352829D01*
X569611Y352663D01*
X569834Y351830D01*
X569844Y351808D01*
X569848Y351783D01*
X569895Y351696D01*
X569935Y351606D01*
X569941Y351601D01*
X569957Y351418D01*
X569964Y351387D01*
X569980Y351287D01*
X570029Y351103D01*
X570018Y351074D01*
X570017Y351049D01*
X570009Y351025D01*
X570006Y350857D01*
X570081Y349998D01*
X570087Y349974D01*
X570087Y349949D01*
X570117Y349855D01*
X570141Y349760D01*
X570146Y349753D01*
X570130Y349570D01*
X570132Y349539D01*
X570130Y349438D01*
X570146Y349248D01*
X570130Y349221D01*
X570125Y349197D01*
X570114Y349174D01*
X570081Y349010D01*
X570006Y348151D01*
X570007Y348126D01*
X570003Y348101D01*
X570017Y348004D01*
X570024Y347906D01*
X570027Y347898D01*
X569980Y347721D01*
X569976Y347690D01*
X569957Y347590D01*
X569940Y347401D01*
X569920Y347377D01*
X569910Y347354D01*
X569895Y347334D01*
X569834Y347178D01*
X569611Y346345D01*
X569608Y346320D01*
X569599Y346296D01*
X569596Y346198D01*
X569586Y346100D01*
X569588Y346092D01*
X569511Y345926D01*
X569502Y345896D01*
X569465Y345801D01*
X569416Y345618D01*
X569392Y345598D01*
X569378Y345577D01*
X569360Y345559D01*
X569273Y345416D01*
X568908Y344635D01*
X568902Y344610D01*
X568889Y344589D01*
X568868Y344492D01*
X568842Y344398D01*
X568842Y344390D01*
X568737Y344239D01*
X568723Y344211D01*
X568671Y344125D01*
X568590Y343952D01*
X568563Y343937D01*
X568546Y343918D01*
X568525Y343905D01*
X568414Y343779D01*
X567920Y343072D01*
X567909Y343050D01*
X567892Y343031D01*
X567856Y342939D01*
X567813Y342851D01*
X567812Y342843D01*
X567682Y342713D01*
X567664Y342688D01*
X567597Y342611D01*
X567488Y342456D01*
X567458Y342445D01*
X567438Y342430D01*
X567415Y342420D01*
X567284Y342315D01*
X566675Y341705D01*
X566660Y341685D01*
X566641Y341669D01*
X566588Y341585D01*
X566531Y341506D01*
X566529Y341498D01*
X566378Y341393D01*
X566356Y341371D01*
X566277Y341308D01*
X566142Y341173D01*
X566111Y341168D01*
X566089Y341156D01*
X566065Y341151D01*
X565918Y341070D01*
X565211Y340576D01*
X565193Y340558D01*
X565171Y340546D01*
X565106Y340473D01*
X565035Y340404D01*
X565032Y340397D01*
X564865Y340319D01*
X564839Y340302D01*
X564750Y340253D01*
X564595Y340144D01*
X564563Y340144D01*
X564539Y340136D01*
X564514Y340135D01*
X564355Y340081D01*
X563574Y339717D01*
X563553Y339703D01*
X563529Y339694D01*
X563452Y339634D01*
X563371Y339578D01*
X563366Y339572D01*
X563189Y339525D01*
X563160Y339512D01*
X563064Y339479D01*
X562892Y339399D01*
X562861Y339405D01*
X562836Y339401D01*
X562811Y339404D01*
X562645Y339379D01*
X561812Y339156D01*
X561789Y339146D01*
X561765Y339141D01*
X561678Y339095D01*
X561588Y339055D01*
X561582Y339049D01*
X561399Y339033D01*
X561369Y339026D01*
X561269Y339010D01*
X561085Y338961D01*
X561056Y338972D01*
X561031Y338973D01*
X561007Y338980D01*
X560839Y338984D01*
X559980Y338909D01*
X559956Y338903D01*
X559930Y338903D01*
X559837Y338873D01*
X559742Y338848D01*
X559735Y338844D01*
X559552Y338860D01*
X559521Y338858D01*
X559419Y338860D01*
X559230Y338843D01*
X559203Y338859D01*
G37*
%LPD*%
%LPC*%
G36*
X184350Y342263D02*
X184350Y342263D01*
X184325Y342268D01*
X184303Y342280D01*
X184138Y342313D01*
X183279Y342388D01*
X183254Y342386D01*
X183230Y342391D01*
X183132Y342377D01*
X183034Y342369D01*
X183027Y342366D01*
X182850Y342414D01*
X182818Y342417D01*
X182719Y342437D01*
X182530Y342453D01*
X182506Y342474D01*
X182482Y342483D01*
X182462Y342498D01*
X182306Y342559D01*
X181473Y342783D01*
X181448Y342785D01*
X181425Y342794D01*
X181326Y342797D01*
X181229Y342807D01*
X181221Y342805D01*
X181055Y342883D01*
X181024Y342891D01*
X180930Y342928D01*
X180746Y342977D01*
X180726Y343002D01*
X180705Y343015D01*
X180688Y343033D01*
X180545Y343121D01*
X179763Y343485D01*
X179739Y343492D01*
X179717Y343505D01*
X179621Y343525D01*
X179526Y343552D01*
X179518Y343551D01*
X179368Y343656D01*
X179340Y343670D01*
X179253Y343723D01*
X179081Y343803D01*
X179066Y343830D01*
X179047Y343847D01*
X179033Y343868D01*
X178907Y343979D01*
X178201Y344474D01*
X178178Y344485D01*
X178159Y344501D01*
X178068Y344538D01*
X177979Y344580D01*
X177971Y344581D01*
X177842Y344711D01*
X177816Y344729D01*
X177740Y344797D01*
X177584Y344906D01*
X177574Y344935D01*
X177558Y344955D01*
X177549Y344978D01*
X177444Y345109D01*
X176834Y345719D01*
X176814Y345733D01*
X176798Y345753D01*
X176714Y345805D01*
X176634Y345862D01*
X176627Y345865D01*
X176522Y346015D01*
X176500Y346037D01*
X176436Y346117D01*
X176302Y346251D01*
X176297Y346282D01*
X176285Y346304D01*
X176279Y346329D01*
X176199Y346476D01*
X175704Y347182D01*
X175687Y347200D01*
X175674Y347222D01*
X175601Y347288D01*
X175532Y347358D01*
X175525Y347362D01*
X175448Y347528D01*
X175430Y347554D01*
X175381Y347643D01*
X175272Y347799D01*
X175273Y347830D01*
X175265Y347854D01*
X175264Y347879D01*
X175210Y348038D01*
X174846Y348820D01*
X174832Y348840D01*
X174823Y348864D01*
X174762Y348942D01*
X174707Y349023D01*
X174701Y349028D01*
X174653Y349205D01*
X174640Y349233D01*
X174608Y349330D01*
X174527Y349502D01*
X174533Y349533D01*
X174530Y349558D01*
X174533Y349583D01*
X174508Y349748D01*
X174284Y350581D01*
X174274Y350604D01*
X174270Y350629D01*
X174224Y350716D01*
X174183Y350805D01*
X174178Y350811D01*
X174162Y350994D01*
X174154Y351024D01*
X174139Y351125D01*
X174090Y351308D01*
X174101Y351337D01*
X174102Y351363D01*
X174109Y351387D01*
X174113Y351554D01*
X174038Y352413D01*
X174031Y352438D01*
X174032Y352463D01*
X174001Y352557D01*
X173977Y352652D01*
X173973Y352658D01*
X173989Y352841D01*
X173986Y352872D01*
X173989Y352974D01*
X173972Y353163D01*
X173988Y353190D01*
X173993Y353215D01*
X174005Y353237D01*
X174038Y353402D01*
X174113Y354261D01*
X174111Y354286D01*
X174116Y354311D01*
X174102Y354408D01*
X174094Y354506D01*
X174091Y354513D01*
X174139Y354691D01*
X174142Y354722D01*
X174162Y354821D01*
X174178Y355011D01*
X174199Y355034D01*
X174208Y355058D01*
X174223Y355078D01*
X174284Y355234D01*
X174508Y356067D01*
X174510Y356092D01*
X174519Y356115D01*
X174522Y356214D01*
X174532Y356312D01*
X174530Y356319D01*
X174608Y356486D01*
X174616Y356516D01*
X174653Y356610D01*
X174702Y356794D01*
X174727Y356814D01*
X174740Y356835D01*
X174758Y356852D01*
X174846Y356996D01*
X175210Y357777D01*
X175217Y357801D01*
X175230Y357823D01*
X175250Y357919D01*
X175277Y358014D01*
X175276Y358022D01*
X175381Y358172D01*
X175395Y358200D01*
X175448Y358287D01*
X175528Y358459D01*
X175555Y358475D01*
X175572Y358493D01*
X175593Y358507D01*
X175704Y358633D01*
X176199Y359339D01*
X176210Y359362D01*
X176226Y359381D01*
X176263Y359473D01*
X176305Y359561D01*
X176306Y359569D01*
X176436Y359699D01*
X176454Y359724D01*
X176522Y359800D01*
X176631Y359956D01*
X176660Y359966D01*
X176680Y359982D01*
X176703Y359992D01*
X176834Y360096D01*
X177444Y360706D01*
X177458Y360727D01*
X177478Y360743D01*
X177530Y360826D01*
X177587Y360906D01*
X177590Y360913D01*
X177740Y361019D01*
X177762Y361040D01*
X177842Y361104D01*
X177976Y361238D01*
X178007Y361244D01*
X178029Y361255D01*
X178054Y361261D01*
X178201Y361341D01*
X178907Y361836D01*
X178925Y361854D01*
X178947Y361866D01*
X179013Y361939D01*
X179083Y362008D01*
X179087Y362015D01*
X179253Y362092D01*
X179279Y362110D01*
X179368Y362159D01*
X179524Y362268D01*
X179555Y362267D01*
X179579Y362275D01*
X179604Y362276D01*
X179763Y362330D01*
X180545Y362695D01*
X180565Y362709D01*
X180589Y362717D01*
X180653Y362767D01*
X180687Y362785D01*
X180705Y362804D01*
X180748Y362833D01*
X180753Y362839D01*
X180930Y362887D01*
X180958Y362900D01*
X181055Y362932D01*
X181227Y363013D01*
X181258Y363007D01*
X181283Y363010D01*
X181308Y363007D01*
X181473Y363033D01*
X182306Y363256D01*
X182329Y363266D01*
X182354Y363270D01*
X182441Y363317D01*
X182530Y363357D01*
X182536Y363362D01*
X182719Y363378D01*
X182749Y363386D01*
X182850Y363401D01*
X183033Y363451D01*
X183062Y363440D01*
X183088Y363439D01*
X183112Y363431D01*
X183279Y363427D01*
X184138Y363503D01*
X184163Y363509D01*
X184188Y363508D01*
X184282Y363539D01*
X184377Y363563D01*
X184383Y363568D01*
X184566Y363552D01*
X184597Y363554D01*
X184699Y363552D01*
X184888Y363568D01*
X184915Y363552D01*
X184940Y363547D01*
X184962Y363535D01*
X185127Y363503D01*
X185986Y363427D01*
X186011Y363429D01*
X186036Y363425D01*
X186133Y363438D01*
X186231Y363446D01*
X186238Y363449D01*
X186416Y363401D01*
X186447Y363398D01*
X186546Y363378D01*
X186736Y363362D01*
X186759Y363341D01*
X186783Y363332D01*
X186803Y363317D01*
X186959Y363256D01*
X187792Y363033D01*
X187817Y363030D01*
X187840Y363021D01*
X187939Y363018D01*
X188037Y363008D01*
X188044Y363010D01*
X188211Y362932D01*
X188241Y362924D01*
X188335Y362887D01*
X188519Y362838D01*
X188539Y362814D01*
X188560Y362800D01*
X188577Y362782D01*
X188640Y362744D01*
X188643Y362741D01*
X188648Y362739D01*
X188721Y362695D01*
X189502Y362330D01*
X189526Y362323D01*
X189548Y362311D01*
X189644Y362290D01*
X189739Y362264D01*
X189747Y362264D01*
X189897Y362159D01*
X189925Y362145D01*
X190012Y362092D01*
X190184Y362012D01*
X190200Y361985D01*
X190218Y361968D01*
X190232Y361947D01*
X190358Y361836D01*
X191064Y361341D01*
X191087Y361331D01*
X191106Y361314D01*
X191198Y361277D01*
X191286Y361235D01*
X191294Y361234D01*
X191424Y361104D01*
X191449Y361086D01*
X191525Y361019D01*
X191681Y360910D01*
X191691Y360880D01*
X191707Y360860D01*
X191717Y360837D01*
X191821Y360706D01*
X192431Y360096D01*
X192452Y360082D01*
X192468Y360062D01*
X192551Y360010D01*
X192631Y359953D01*
X192638Y359951D01*
X192744Y359800D01*
X192765Y359778D01*
X192829Y359699D01*
X192963Y359564D01*
X192969Y359533D01*
X192980Y359511D01*
X192986Y359486D01*
X193066Y359339D01*
X193561Y358633D01*
X193579Y358615D01*
X193591Y358593D01*
X193664Y358528D01*
X193733Y358457D01*
X193740Y358453D01*
X193817Y358287D01*
X193835Y358261D01*
X193884Y358172D01*
X193993Y358016D01*
X193992Y357985D01*
X194000Y357961D01*
X194001Y357936D01*
X194055Y357777D01*
X194420Y356996D01*
X194434Y356975D01*
X194442Y356951D01*
X194503Y356874D01*
X194558Y356792D01*
X194564Y356788D01*
X194612Y356610D01*
X194625Y356582D01*
X194657Y356486D01*
X194738Y356313D01*
X194732Y356283D01*
X194735Y356258D01*
X194732Y356233D01*
X194758Y356067D01*
X194981Y355234D01*
X194991Y355211D01*
X194995Y355186D01*
X195041Y355100D01*
X195082Y355010D01*
X195087Y355004D01*
X195103Y354821D01*
X195111Y354791D01*
X195126Y354691D01*
X195176Y354507D01*
X195165Y354478D01*
X195164Y354453D01*
X195156Y354428D01*
X195152Y354261D01*
X195228Y353402D01*
X195234Y353377D01*
X195233Y353352D01*
X195264Y353258D01*
X195288Y353163D01*
X195293Y353157D01*
X195277Y352974D01*
X195279Y352943D01*
X195277Y352841D01*
X195293Y352652D01*
X195277Y352625D01*
X195272Y352600D01*
X195260Y352578D01*
X195228Y352413D01*
X195152Y351554D01*
X195154Y351529D01*
X195150Y351505D01*
X195163Y351407D01*
X195171Y351309D01*
X195174Y351302D01*
X195126Y351125D01*
X195123Y351093D01*
X195103Y350994D01*
X195087Y350805D01*
X195066Y350781D01*
X195057Y350758D01*
X195042Y350737D01*
X194981Y350581D01*
X194758Y349748D01*
X194755Y349723D01*
X194746Y349700D01*
X194743Y349601D01*
X194733Y349504D01*
X194735Y349496D01*
X194657Y349330D01*
X194649Y349299D01*
X194612Y349205D01*
X194563Y349021D01*
X194539Y349001D01*
X194525Y348980D01*
X194507Y348963D01*
X194420Y348820D01*
X194055Y348038D01*
X194048Y348014D01*
X194036Y347992D01*
X194015Y347896D01*
X193989Y347801D01*
X193989Y347793D01*
X193884Y347643D01*
X193870Y347615D01*
X193817Y347528D01*
X193737Y347356D01*
X193710Y347341D01*
X193693Y347322D01*
X193672Y347308D01*
X193561Y347182D01*
X193066Y346476D01*
X193056Y346453D01*
X193039Y346434D01*
X193002Y346343D01*
X192960Y346254D01*
X192959Y346246D01*
X192829Y346117D01*
X192811Y346091D01*
X192744Y346015D01*
X192635Y345859D01*
X192605Y345849D01*
X192585Y345833D01*
X192562Y345824D01*
X192431Y345719D01*
X191821Y345109D01*
X191807Y345089D01*
X191787Y345073D01*
X191735Y344989D01*
X191678Y344909D01*
X191676Y344902D01*
X191525Y344797D01*
X191503Y344775D01*
X191424Y344711D01*
X191289Y344577D01*
X191258Y344572D01*
X191236Y344560D01*
X191211Y344554D01*
X191064Y344474D01*
X190358Y343979D01*
X190340Y343962D01*
X190318Y343949D01*
X190252Y343876D01*
X190182Y343807D01*
X190178Y343800D01*
X190012Y343723D01*
X189986Y343705D01*
X189897Y343656D01*
X189741Y343547D01*
X189710Y343548D01*
X189686Y343540D01*
X189661Y343539D01*
X189502Y343485D01*
X188721Y343121D01*
X188700Y343107D01*
X188676Y343098D01*
X188598Y343037D01*
X188517Y342982D01*
X188513Y342976D01*
X188335Y342928D01*
X188307Y342915D01*
X188211Y342883D01*
X188038Y342802D01*
X188008Y342808D01*
X187983Y342805D01*
X187958Y342808D01*
X187792Y342783D01*
X186959Y342559D01*
X186936Y342549D01*
X186911Y342545D01*
X186824Y342499D01*
X186735Y342458D01*
X186729Y342453D01*
X186546Y342437D01*
X186516Y342429D01*
X186416Y342414D01*
X186232Y342365D01*
X186203Y342376D01*
X186178Y342377D01*
X186153Y342384D01*
X185986Y342388D01*
X185127Y342313D01*
X185102Y342306D01*
X185077Y342307D01*
X184983Y342276D01*
X184888Y342252D01*
X184882Y342248D01*
X184699Y342264D01*
X184668Y342261D01*
X184566Y342264D01*
X184377Y342247D01*
X184350Y342263D01*
G37*
%LPD*%
%LPC*%
G36*
X558009Y147115D02*
X558009Y147115D01*
X557985Y147120D01*
X557962Y147132D01*
X557798Y147164D01*
X556939Y147240D01*
X556914Y147238D01*
X556889Y147242D01*
X556792Y147229D01*
X556694Y147221D01*
X556686Y147218D01*
X556509Y147266D01*
X556478Y147269D01*
X556378Y147289D01*
X556189Y147305D01*
X556165Y147326D01*
X556142Y147335D01*
X556122Y147350D01*
X555966Y147411D01*
X555133Y147634D01*
X555108Y147637D01*
X555084Y147646D01*
X554986Y147649D01*
X554888Y147659D01*
X554880Y147657D01*
X554714Y147735D01*
X554684Y147743D01*
X554589Y147780D01*
X554406Y147829D01*
X554386Y147853D01*
X554365Y147867D01*
X554347Y147885D01*
X554204Y147972D01*
X553423Y148337D01*
X553398Y148344D01*
X553377Y148356D01*
X553280Y148377D01*
X553186Y148403D01*
X553178Y148403D01*
X553027Y148508D01*
X552999Y148522D01*
X552913Y148575D01*
X552740Y148655D01*
X552725Y148682D01*
X552706Y148699D01*
X552693Y148720D01*
X552567Y148831D01*
X551860Y149326D01*
X551838Y149336D01*
X551819Y149353D01*
X551727Y149390D01*
X551639Y149432D01*
X551631Y149433D01*
X551501Y149563D01*
X551476Y149581D01*
X551399Y149648D01*
X551244Y149757D01*
X551233Y149787D01*
X551218Y149807D01*
X551208Y149830D01*
X551103Y149961D01*
X550493Y150571D01*
X550473Y150585D01*
X550457Y150605D01*
X550373Y150657D01*
X550294Y150714D01*
X550286Y150716D01*
X550181Y150867D01*
X550159Y150889D01*
X550096Y150968D01*
X549961Y151103D01*
X549956Y151134D01*
X549944Y151156D01*
X549939Y151180D01*
X549858Y151328D01*
X549364Y152034D01*
X549346Y152052D01*
X549334Y152074D01*
X549261Y152139D01*
X549192Y152210D01*
X549185Y152214D01*
X549107Y152380D01*
X549090Y152406D01*
X549041Y152495D01*
X548932Y152651D01*
X548932Y152682D01*
X548924Y152706D01*
X548923Y152731D01*
X548893Y152821D01*
X548887Y152846D01*
X548880Y152858D01*
X548869Y152890D01*
X548505Y153671D01*
X548491Y153692D01*
X548482Y153716D01*
X548423Y153791D01*
X548407Y153819D01*
X548401Y153824D01*
X548366Y153875D01*
X548360Y153879D01*
X548313Y154057D01*
X548300Y154085D01*
X548267Y154181D01*
X548187Y154354D01*
X548193Y154384D01*
X548189Y154409D01*
X548192Y154434D01*
X548167Y154600D01*
X547944Y155433D01*
X547934Y155456D01*
X547929Y155481D01*
X547883Y155568D01*
X547843Y155657D01*
X547837Y155663D01*
X547821Y155846D01*
X547814Y155876D01*
X547798Y155976D01*
X547749Y156160D01*
X547760Y156189D01*
X547761Y156214D01*
X547768Y156239D01*
X547772Y156406D01*
X547697Y157265D01*
X547691Y157290D01*
X547691Y157315D01*
X547661Y157409D01*
X547636Y157504D01*
X547632Y157510D01*
X547648Y157693D01*
X547646Y157724D01*
X547648Y157826D01*
X547631Y158015D01*
X547647Y158042D01*
X547653Y158067D01*
X547664Y158089D01*
X547697Y158254D01*
X547772Y159112D01*
X547770Y159138D01*
X547775Y159162D01*
X547761Y159259D01*
X547754Y159358D01*
X547751Y159365D01*
X547798Y159542D01*
X547801Y159574D01*
X547821Y159673D01*
X547838Y159862D01*
X547858Y159886D01*
X547868Y159909D01*
X547883Y159930D01*
X547944Y160086D01*
X548167Y160919D01*
X548170Y160944D01*
X548178Y160967D01*
X548182Y161066D01*
X548191Y161163D01*
X548190Y161171D01*
X548267Y161337D01*
X548276Y161368D01*
X548313Y161462D01*
X548362Y161646D01*
X548386Y161666D01*
X548399Y161687D01*
X548418Y161704D01*
X548505Y161847D01*
X548869Y162629D01*
X548876Y162653D01*
X548889Y162675D01*
X548909Y162771D01*
X548936Y162866D01*
X548936Y162874D01*
X549041Y163024D01*
X549054Y163052D01*
X549107Y163139D01*
X549188Y163311D01*
X549215Y163326D01*
X549232Y163345D01*
X549253Y163359D01*
X549364Y163485D01*
X549858Y164191D01*
X549869Y164214D01*
X549885Y164233D01*
X549922Y164324D01*
X549965Y164413D01*
X549966Y164421D01*
X550096Y164550D01*
X550114Y164576D01*
X550181Y164652D01*
X550290Y164808D01*
X550319Y164818D01*
X550339Y164834D01*
X550363Y164843D01*
X550431Y164899D01*
X550436Y164901D01*
X550442Y164907D01*
X550493Y164948D01*
X551103Y165558D01*
X551118Y165578D01*
X551137Y165594D01*
X551189Y165678D01*
X551247Y165758D01*
X551249Y165765D01*
X551399Y165870D01*
X551422Y165892D01*
X551501Y165956D01*
X551635Y166090D01*
X551666Y166095D01*
X551689Y166107D01*
X551713Y166113D01*
X551860Y166193D01*
X552567Y166688D01*
X552585Y166705D01*
X552606Y166718D01*
X552672Y166791D01*
X552743Y166860D01*
X552746Y166867D01*
X552913Y166944D01*
X552938Y166962D01*
X553027Y167010D01*
X553183Y167120D01*
X553215Y167119D01*
X553239Y167127D01*
X553264Y167128D01*
X553423Y167182D01*
X554204Y167546D01*
X554225Y167560D01*
X554248Y167569D01*
X554326Y167630D01*
X554407Y167685D01*
X554412Y167691D01*
X554589Y167739D01*
X554618Y167752D01*
X554714Y167784D01*
X554886Y167864D01*
X554917Y167859D01*
X554942Y167862D01*
X554967Y167859D01*
X555133Y167884D01*
X555965Y168107D01*
X555988Y168118D01*
X556013Y168122D01*
X556100Y168168D01*
X556190Y168209D01*
X556196Y168214D01*
X556378Y168230D01*
X556409Y168238D01*
X556509Y168253D01*
X556693Y168302D01*
X556722Y168291D01*
X556747Y168290D01*
X556771Y168283D01*
X556939Y168279D01*
X557798Y168354D01*
X557822Y168361D01*
X557847Y168360D01*
X557941Y168391D01*
X558036Y168415D01*
X558043Y168419D01*
X558226Y168403D01*
X558257Y168406D01*
X558358Y168403D01*
X558548Y168420D01*
X558575Y168404D01*
X558599Y168399D01*
X558622Y168387D01*
X558786Y168354D01*
X559645Y168279D01*
X559670Y168281D01*
X559695Y168276D01*
X559792Y168290D01*
X559890Y168298D01*
X559898Y168301D01*
X560075Y168253D01*
X560106Y168250D01*
X560206Y168230D01*
X560395Y168214D01*
X560419Y168193D01*
X560442Y168184D01*
X560462Y168168D01*
X560619Y168107D01*
X561451Y167884D01*
X561476Y167882D01*
X561500Y167873D01*
X561598Y167870D01*
X561696Y167860D01*
X561704Y167862D01*
X561870Y167784D01*
X561900Y167776D01*
X561995Y167739D01*
X562178Y167690D01*
X562198Y167665D01*
X562220Y167652D01*
X562237Y167634D01*
X562380Y167546D01*
X563161Y167182D01*
X563186Y167175D01*
X563207Y167162D01*
X563304Y167142D01*
X563398Y167115D01*
X563406Y167116D01*
X563557Y167010D01*
X563585Y166997D01*
X563671Y166944D01*
X563844Y166864D01*
X563859Y166836D01*
X563878Y166820D01*
X563891Y166799D01*
X564017Y166688D01*
X564724Y166193D01*
X564746Y166182D01*
X564765Y166166D01*
X564857Y166129D01*
X564945Y166087D01*
X564953Y166086D01*
X565083Y165956D01*
X565108Y165937D01*
X565185Y165870D01*
X565340Y165761D01*
X565351Y165732D01*
X565366Y165712D01*
X565376Y165689D01*
X565481Y165558D01*
X566091Y164948D01*
X566111Y164933D01*
X566127Y164914D01*
X566196Y164871D01*
X566213Y164857D01*
X566224Y164852D01*
X566290Y164805D01*
X566298Y164802D01*
X566403Y164652D01*
X566425Y164630D01*
X566488Y164550D01*
X566623Y164416D01*
X566628Y164385D01*
X566640Y164363D01*
X566645Y164338D01*
X566726Y164191D01*
X567220Y163485D01*
X567238Y163467D01*
X567250Y163445D01*
X567323Y163379D01*
X567392Y163309D01*
X567399Y163305D01*
X567477Y163139D01*
X567494Y163113D01*
X567543Y163024D01*
X567652Y162868D01*
X567652Y162837D01*
X567660Y162813D01*
X567661Y162788D01*
X567715Y162629D01*
X568079Y161847D01*
X568093Y161827D01*
X568102Y161803D01*
X568162Y161726D01*
X568218Y161644D01*
X568224Y161639D01*
X568271Y161462D01*
X568284Y161434D01*
X568286Y161429D01*
X568287Y161422D01*
X568290Y161418D01*
X568317Y161337D01*
X568397Y161165D01*
X568391Y161134D01*
X568395Y161109D01*
X568392Y161084D01*
X568417Y160919D01*
X568640Y160086D01*
X568650Y160063D01*
X568655Y160038D01*
X568701Y159951D01*
X568741Y159862D01*
X568747Y159856D01*
X568763Y159673D01*
X568770Y159643D01*
X568786Y159542D01*
X568835Y159359D01*
X568824Y159330D01*
X568823Y159304D01*
X568816Y159280D01*
X568812Y159113D01*
X568887Y158254D01*
X568893Y158229D01*
X568893Y158204D01*
X568923Y158110D01*
X568948Y158015D01*
X568952Y158009D01*
X568936Y157826D01*
X568938Y157794D01*
X568936Y157693D01*
X568953Y157504D01*
X568937Y157477D01*
X568931Y157452D01*
X568920Y157430D01*
X568887Y157265D01*
X568812Y156406D01*
X568814Y156381D01*
X568809Y156356D01*
X568823Y156259D01*
X568830Y156161D01*
X568833Y156154D01*
X568786Y155976D01*
X568783Y155945D01*
X568763Y155846D01*
X568746Y155656D01*
X568726Y155633D01*
X568716Y155609D01*
X568701Y155589D01*
X568640Y155433D01*
X568417Y154600D01*
X568414Y154575D01*
X568406Y154551D01*
X568402Y154453D01*
X568393Y154355D01*
X568394Y154348D01*
X568317Y154181D01*
X568308Y154151D01*
X568271Y154057D01*
X568222Y153873D01*
X568198Y153853D01*
X568185Y153832D01*
X568166Y153815D01*
X568132Y153759D01*
X568129Y153756D01*
X568125Y153747D01*
X568079Y153671D01*
X567715Y152890D01*
X567708Y152866D01*
X567695Y152844D01*
X567686Y152803D01*
X567672Y152771D01*
X567665Y152715D01*
X567648Y152653D01*
X567648Y152645D01*
X567543Y152495D01*
X567530Y152467D01*
X567477Y152380D01*
X567396Y152208D01*
X567369Y152192D01*
X567352Y152174D01*
X567331Y152160D01*
X567220Y152034D01*
X566726Y151328D01*
X566715Y151305D01*
X566699Y151286D01*
X566662Y151194D01*
X566619Y151106D01*
X566618Y151098D01*
X566488Y150968D01*
X566470Y150943D01*
X566403Y150867D01*
X566294Y150711D01*
X566264Y150701D01*
X566245Y150685D01*
X566221Y150675D01*
X566091Y150570D01*
X565481Y149961D01*
X565466Y149941D01*
X565447Y149924D01*
X565395Y149841D01*
X565337Y149761D01*
X565335Y149754D01*
X565185Y149648D01*
X565162Y149626D01*
X565083Y149563D01*
X564949Y149429D01*
X564918Y149423D01*
X564895Y149412D01*
X564871Y149406D01*
X564724Y149326D01*
X564017Y148831D01*
X563999Y148813D01*
X563978Y148801D01*
X563912Y148728D01*
X563841Y148659D01*
X563838Y148652D01*
X563671Y148575D01*
X563646Y148557D01*
X563557Y148508D01*
X563401Y148399D01*
X563369Y148400D01*
X563345Y148392D01*
X563320Y148391D01*
X563161Y148337D01*
X562380Y147972D01*
X562359Y147958D01*
X562336Y147950D01*
X562258Y147889D01*
X562177Y147834D01*
X562172Y147827D01*
X561995Y147780D01*
X561966Y147767D01*
X561870Y147735D01*
X561698Y147654D01*
X561667Y147660D01*
X561642Y147657D01*
X561617Y147660D01*
X561451Y147634D01*
X560618Y147411D01*
X560596Y147401D01*
X560571Y147397D01*
X560484Y147350D01*
X560394Y147310D01*
X560389Y147305D01*
X560206Y147289D01*
X560175Y147281D01*
X560075Y147266D01*
X559893Y147217D01*
X559887Y147219D01*
X559883Y147220D01*
X559862Y147227D01*
X559837Y147228D01*
X559813Y147236D01*
X559645Y147240D01*
X558786Y147164D01*
X558762Y147158D01*
X558737Y147158D01*
X558643Y147128D01*
X558548Y147104D01*
X558541Y147099D01*
X558358Y147115D01*
X558327Y147113D01*
X558226Y147115D01*
X558036Y147099D01*
X558009Y147115D01*
G37*
%LPD*%
G36*
X354979Y125060D02*
X354979Y125060D01*
X355070Y125067D01*
X355100Y125079D01*
X355132Y125085D01*
X355212Y125127D01*
X355296Y125163D01*
X355328Y125189D01*
X355349Y125200D01*
X355371Y125223D01*
X355427Y125268D01*
X367418Y137258D01*
X367430Y137275D01*
X367445Y137287D01*
X367501Y137374D01*
X367561Y137458D01*
X367567Y137477D01*
X367578Y137494D01*
X367603Y137594D01*
X367634Y137693D01*
X367633Y137713D01*
X367638Y137733D01*
X367630Y137836D01*
X367627Y137939D01*
X367621Y137958D01*
X367619Y137978D01*
X367579Y138073D01*
X367543Y138170D01*
X367530Y138186D01*
X367523Y138204D01*
X367418Y138335D01*
X367289Y138464D01*
X367273Y138476D01*
X367260Y138491D01*
X367173Y138547D01*
X367089Y138608D01*
X367070Y138613D01*
X367053Y138624D01*
X366953Y138650D01*
X366854Y138680D01*
X366834Y138679D01*
X366815Y138684D01*
X366712Y138676D01*
X366608Y138674D01*
X366589Y138667D01*
X366570Y138665D01*
X366475Y138625D01*
X366377Y138589D01*
X366362Y138577D01*
X366343Y138569D01*
X366212Y138464D01*
X365723Y137975D01*
X361327Y137975D01*
X358395Y140906D01*
X358321Y140959D01*
X358252Y141019D01*
X358222Y141031D01*
X358195Y141050D01*
X358108Y141077D01*
X358024Y141111D01*
X357983Y141115D01*
X357960Y141122D01*
X357928Y141121D01*
X357857Y141129D01*
X354837Y141129D01*
X354837Y146408D01*
X354834Y146427D01*
X354836Y146447D01*
X354814Y146549D01*
X354797Y146651D01*
X354788Y146668D01*
X354784Y146688D01*
X354731Y146777D01*
X354682Y146868D01*
X354668Y146882D01*
X354658Y146899D01*
X354579Y146966D01*
X354504Y147037D01*
X354486Y147046D01*
X354471Y147059D01*
X354375Y147098D01*
X354281Y147141D01*
X354261Y147143D01*
X354243Y147151D01*
X354076Y147169D01*
X352552Y147169D01*
X352532Y147166D01*
X352513Y147168D01*
X352411Y147146D01*
X352309Y147129D01*
X352292Y147120D01*
X352272Y147116D01*
X352183Y147063D01*
X352092Y147014D01*
X352078Y147000D01*
X352061Y146990D01*
X351994Y146911D01*
X351923Y146836D01*
X351914Y146818D01*
X351901Y146803D01*
X351862Y146707D01*
X351819Y146613D01*
X351817Y146593D01*
X351809Y146575D01*
X351791Y146408D01*
X351791Y141129D01*
X348480Y141129D01*
X347784Y141316D01*
X347771Y141320D01*
X347685Y141361D01*
X347657Y141364D01*
X347631Y141374D01*
X347535Y141377D01*
X347441Y141388D01*
X347413Y141382D01*
X347385Y141383D01*
X347294Y141356D01*
X347200Y141335D01*
X347176Y141321D01*
X347149Y141313D01*
X347071Y141258D01*
X346989Y141209D01*
X346971Y141188D01*
X346948Y141172D01*
X346891Y141095D01*
X346829Y141022D01*
X346819Y140996D01*
X346802Y140974D01*
X346773Y140883D01*
X346737Y140794D01*
X346733Y140759D01*
X346727Y140739D01*
X346727Y140706D01*
X346719Y140627D01*
X346719Y138497D01*
X345260Y137038D01*
X345248Y137022D01*
X345233Y137009D01*
X345177Y136922D01*
X345116Y136838D01*
X345111Y136819D01*
X345100Y136802D01*
X345074Y136702D01*
X345044Y136603D01*
X345045Y136583D01*
X345040Y136564D01*
X345048Y136461D01*
X345050Y136357D01*
X345057Y136338D01*
X345059Y136318D01*
X345099Y136224D01*
X345135Y136126D01*
X345147Y136110D01*
X345155Y136092D01*
X345260Y135961D01*
X346719Y134502D01*
X346719Y128997D01*
X344947Y127225D01*
X333241Y127225D01*
X332420Y128046D01*
X332346Y128099D01*
X332276Y128159D01*
X332246Y128171D01*
X332220Y128190D01*
X332133Y128217D01*
X332048Y128251D01*
X332007Y128255D01*
X331985Y128262D01*
X331953Y128261D01*
X331881Y128269D01*
X321407Y128269D01*
X321317Y128255D01*
X321226Y128247D01*
X321196Y128235D01*
X321164Y128230D01*
X321083Y128187D01*
X320999Y128151D01*
X320967Y128125D01*
X320947Y128114D01*
X320925Y128091D01*
X320868Y128046D01*
X320047Y127225D01*
X314296Y127225D01*
X314206Y127210D01*
X314115Y127203D01*
X314085Y127190D01*
X314053Y127185D01*
X313973Y127142D01*
X313889Y127107D01*
X313857Y127081D01*
X313836Y127070D01*
X313814Y127046D01*
X313758Y127002D01*
X313492Y126736D01*
X313468Y126702D01*
X313109Y126347D01*
X313066Y126288D01*
X313016Y126234D01*
X312995Y126189D01*
X312965Y126148D01*
X312943Y126078D01*
X312912Y126011D01*
X312907Y125961D01*
X312892Y125913D01*
X312893Y125840D01*
X312885Y125767D01*
X312896Y125718D01*
X312897Y125667D01*
X312922Y125598D01*
X312937Y125526D01*
X312963Y125483D01*
X312980Y125436D01*
X313026Y125378D01*
X313063Y125315D01*
X313102Y125282D01*
X313133Y125243D01*
X313195Y125203D01*
X313250Y125155D01*
X313297Y125137D01*
X313339Y125109D01*
X313410Y125091D01*
X313479Y125063D01*
X313547Y125056D01*
X313578Y125048D01*
X313602Y125050D01*
X313645Y125045D01*
X354889Y125045D01*
X354979Y125060D01*
G37*
G36*
X500294Y231991D02*
X500294Y231991D01*
X500397Y231994D01*
X500416Y232001D01*
X500436Y232002D01*
X500531Y232043D01*
X500628Y232079D01*
X500644Y232091D01*
X500662Y232099D01*
X500793Y232204D01*
X502010Y233421D01*
X502064Y233495D01*
X502123Y233564D01*
X502135Y233594D01*
X502154Y233621D01*
X502181Y233708D01*
X502215Y233792D01*
X502220Y233833D01*
X502226Y233856D01*
X502226Y233888D01*
X502233Y233959D01*
X502233Y241507D01*
X502219Y241597D01*
X502212Y241688D01*
X502199Y241718D01*
X502194Y241750D01*
X502151Y241830D01*
X502115Y241914D01*
X502090Y241946D01*
X502079Y241967D01*
X502055Y241989D01*
X502010Y242045D01*
X501239Y242816D01*
X501223Y242828D01*
X501211Y242843D01*
X501123Y242900D01*
X501040Y242960D01*
X501021Y242966D01*
X501004Y242976D01*
X500904Y243002D01*
X500805Y243032D01*
X500785Y243032D01*
X500765Y243036D01*
X500662Y243028D01*
X500559Y243026D01*
X500540Y243019D01*
X500520Y243017D01*
X500425Y242977D01*
X500328Y242941D01*
X500312Y242929D01*
X500294Y242921D01*
X500276Y242907D01*
X489850Y242907D01*
X489760Y242892D01*
X489669Y242885D01*
X489661Y242882D01*
X479246Y242882D01*
X478353Y243775D01*
X478353Y244449D01*
X478342Y244520D01*
X478340Y244592D01*
X478322Y244641D01*
X478314Y244692D01*
X478280Y244755D01*
X478255Y244823D01*
X478223Y244863D01*
X478198Y244909D01*
X478146Y244959D01*
X478102Y245015D01*
X478058Y245043D01*
X478020Y245079D01*
X477955Y245109D01*
X477895Y245148D01*
X477844Y245160D01*
X477797Y245182D01*
X477726Y245190D01*
X477656Y245208D01*
X477604Y245204D01*
X477553Y245209D01*
X477482Y245194D01*
X477411Y245189D01*
X477363Y245168D01*
X477312Y245157D01*
X477251Y245120D01*
X477185Y245092D01*
X477129Y245047D01*
X477101Y245031D01*
X477086Y245013D01*
X477054Y244987D01*
X474206Y242140D01*
X470969Y242140D01*
X470879Y242125D01*
X470788Y242118D01*
X470758Y242106D01*
X470726Y242100D01*
X470646Y242058D01*
X470562Y242022D01*
X470530Y241996D01*
X470509Y241985D01*
X470487Y241962D01*
X470431Y241917D01*
X470089Y241575D01*
X455456Y241575D01*
X455436Y241572D01*
X455417Y241574D01*
X455315Y241552D01*
X455213Y241536D01*
X455196Y241526D01*
X455176Y241522D01*
X455087Y241469D01*
X455065Y241457D01*
X455054Y241542D01*
X455040Y241572D01*
X455032Y241606D01*
X454986Y241683D01*
X454947Y241763D01*
X454919Y241796D01*
X454906Y241817D01*
X454882Y241837D01*
X454837Y241889D01*
X454836Y241889D01*
X454775Y241929D01*
X454719Y241977D01*
X454672Y241996D01*
X454630Y242023D01*
X454559Y242041D01*
X454491Y242069D01*
X454422Y242077D01*
X454392Y242084D01*
X454367Y242083D01*
X454324Y242087D01*
X447880Y242087D01*
X447861Y242084D01*
X447841Y242086D01*
X447740Y242064D01*
X447638Y242048D01*
X447620Y242038D01*
X447601Y242034D01*
X447511Y241981D01*
X447420Y241933D01*
X447407Y241918D01*
X447389Y241908D01*
X447322Y241829D01*
X447251Y241754D01*
X447242Y241736D01*
X447229Y241721D01*
X447191Y241625D01*
X447147Y241531D01*
X447145Y241511D01*
X447138Y241493D01*
X447119Y241326D01*
X447122Y241306D01*
X447120Y241287D01*
X447120Y241286D01*
X447142Y241185D01*
X447159Y241083D01*
X447168Y241066D01*
X447172Y241046D01*
X447226Y240957D01*
X447274Y240866D01*
X447288Y240852D01*
X447299Y240835D01*
X447377Y240768D01*
X447452Y240696D01*
X447470Y240688D01*
X447485Y240675D01*
X447582Y240636D01*
X447675Y240593D01*
X447695Y240591D01*
X447714Y240583D01*
X447880Y240565D01*
X454324Y240565D01*
X454413Y240579D01*
X454502Y240586D01*
X454534Y240599D01*
X454567Y240604D01*
X454646Y240646D01*
X454695Y240667D01*
X454695Y240000D01*
X454580Y239571D01*
X454568Y239452D01*
X454555Y239335D01*
X454556Y239330D01*
X454555Y239326D01*
X454582Y239210D01*
X454607Y239094D01*
X454609Y239091D01*
X454610Y239087D01*
X454673Y238985D01*
X454733Y238883D01*
X454737Y238880D01*
X454739Y238877D01*
X454830Y238800D01*
X454920Y238723D01*
X454924Y238722D01*
X454927Y238719D01*
X455037Y238676D01*
X455148Y238631D01*
X455153Y238631D01*
X455157Y238629D01*
X455170Y238629D01*
X455315Y238613D01*
X481471Y238613D01*
X486411Y233673D01*
X486411Y233012D01*
X486414Y232992D01*
X486412Y232973D01*
X486434Y232871D01*
X486450Y232769D01*
X486460Y232752D01*
X486464Y232732D01*
X486517Y232643D01*
X486566Y232552D01*
X486580Y232538D01*
X486590Y232521D01*
X486669Y232454D01*
X486744Y232382D01*
X486762Y232374D01*
X486777Y232361D01*
X486873Y232322D01*
X486967Y232279D01*
X486987Y232277D01*
X487005Y232269D01*
X487172Y232251D01*
X488583Y232251D01*
X488673Y232265D01*
X488764Y232273D01*
X488794Y232285D01*
X488826Y232290D01*
X488907Y232333D01*
X488990Y232369D01*
X489023Y232395D01*
X489043Y232406D01*
X489065Y232429D01*
X489121Y232474D01*
X489152Y232505D01*
X499416Y232505D01*
X499717Y232204D01*
X499733Y232192D01*
X499745Y232176D01*
X499833Y232120D01*
X499916Y232060D01*
X499935Y232054D01*
X499952Y232043D01*
X500053Y232018D01*
X500152Y231988D01*
X500171Y231988D01*
X500191Y231983D01*
X500294Y231991D01*
G37*
%LPC*%
G36*
X509292Y304291D02*
X509292Y304291D01*
X503935Y309648D01*
X503935Y317224D01*
X509292Y322581D01*
X516868Y322581D01*
X522225Y317224D01*
X522225Y309648D01*
X516868Y304291D01*
X509292Y304291D01*
G37*
%LPD*%
%LPC*%
G36*
X475081Y275029D02*
X475081Y275029D01*
X475078Y275048D01*
X475080Y275068D01*
X475058Y275169D01*
X475041Y275271D01*
X475032Y275289D01*
X475027Y275308D01*
X474974Y275398D01*
X474926Y275489D01*
X474912Y275502D01*
X474901Y275520D01*
X474823Y275587D01*
X474748Y275658D01*
X474730Y275667D01*
X474714Y275680D01*
X474618Y275718D01*
X474525Y275762D01*
X474505Y275764D01*
X474486Y275771D01*
X474320Y275790D01*
X473557Y275790D01*
X473557Y275792D01*
X474320Y275792D01*
X474339Y275795D01*
X474359Y275793D01*
X474460Y275815D01*
X474562Y275831D01*
X474580Y275841D01*
X474599Y275845D01*
X474688Y275898D01*
X474780Y275946D01*
X474793Y275961D01*
X474810Y275971D01*
X474878Y276050D01*
X474949Y276125D01*
X474957Y276143D01*
X474970Y276158D01*
X475009Y276254D01*
X475053Y276348D01*
X475055Y276368D01*
X475062Y276386D01*
X475081Y276553D01*
X475081Y281832D01*
X476712Y281832D01*
X476755Y281839D01*
X476799Y281837D01*
X476876Y281858D01*
X476955Y281871D01*
X476993Y281892D01*
X477036Y281904D01*
X477102Y281949D01*
X477172Y281986D01*
X477202Y282018D01*
X477238Y282043D01*
X477286Y282107D01*
X477341Y282165D01*
X477360Y282205D01*
X477386Y282240D01*
X477439Y282375D01*
X477445Y282388D01*
X477445Y282391D01*
X477447Y282396D01*
X477485Y282537D01*
X477820Y283116D01*
X478293Y283589D01*
X478872Y283924D01*
X479518Y284097D01*
X482829Y284097D01*
X482829Y278818D01*
X482833Y278799D01*
X482830Y278779D01*
X482852Y278678D01*
X482869Y278576D01*
X482878Y278558D01*
X482883Y278539D01*
X482936Y278449D01*
X482984Y278358D01*
X482999Y278345D01*
X483009Y278327D01*
X483088Y278260D01*
X483163Y278189D01*
X483181Y278180D01*
X483196Y278167D01*
X483292Y278129D01*
X483386Y278085D01*
X483405Y278083D01*
X483424Y278076D01*
X483591Y278057D01*
X484353Y278057D01*
X484353Y278055D01*
X483591Y278055D01*
X483571Y278052D01*
X483551Y278054D01*
X483450Y278032D01*
X483348Y278016D01*
X483330Y278006D01*
X483311Y278002D01*
X483222Y277949D01*
X483131Y277901D01*
X483117Y277886D01*
X483100Y277876D01*
X483032Y277797D01*
X482961Y277722D01*
X482953Y277704D01*
X482940Y277689D01*
X482901Y277593D01*
X482858Y277499D01*
X482855Y277479D01*
X482848Y277461D01*
X482829Y277294D01*
X482829Y272015D01*
X481198Y272015D01*
X481155Y272008D01*
X481111Y272010D01*
X481034Y271989D01*
X480956Y271976D01*
X480917Y271955D01*
X480875Y271943D01*
X480809Y271898D01*
X480738Y271861D01*
X480708Y271829D01*
X480672Y271804D01*
X480624Y271740D01*
X480569Y271682D01*
X480550Y271643D01*
X480524Y271607D01*
X480471Y271472D01*
X480465Y271459D01*
X480465Y271456D01*
X480463Y271451D01*
X480425Y271310D01*
X480091Y270731D01*
X479618Y270258D01*
X479038Y269923D01*
X478392Y269750D01*
X475081Y269750D01*
X475081Y275029D01*
G37*
%LPD*%
%LPC*%
G36*
X187681Y227051D02*
X187681Y227051D01*
X187681Y233633D01*
X192518Y233633D01*
X194079Y233322D01*
X195550Y232713D01*
X196873Y231829D01*
X197999Y230703D01*
X198883Y229380D01*
X199492Y227909D01*
X199663Y227051D01*
X187681Y227051D01*
G37*
%LPD*%
%LPC*%
G36*
X172701Y227051D02*
X172701Y227051D01*
X172872Y227909D01*
X173481Y229380D01*
X174365Y230703D01*
X175491Y231829D01*
X176814Y232713D01*
X178285Y233322D01*
X179846Y233633D01*
X184683Y233633D01*
X184683Y227051D01*
X172701Y227051D01*
G37*
%LPD*%
%LPC*%
G36*
X187681Y217471D02*
X187681Y217471D01*
X187681Y224053D01*
X199663Y224053D01*
X199492Y223195D01*
X198883Y221724D01*
X197999Y220401D01*
X196873Y219275D01*
X195550Y218391D01*
X194079Y217782D01*
X192518Y217471D01*
X187681Y217471D01*
G37*
%LPD*%
%LPC*%
G36*
X179846Y217471D02*
X179846Y217471D01*
X178285Y217782D01*
X176814Y218391D01*
X175491Y219275D01*
X174365Y220401D01*
X173481Y221724D01*
X172872Y223195D01*
X172701Y224053D01*
X184683Y224053D01*
X184683Y217471D01*
X179846Y217471D01*
G37*
%LPD*%
G36*
X274105Y235625D02*
X274105Y235625D01*
X274196Y235633D01*
X274226Y235645D01*
X274258Y235650D01*
X274338Y235693D01*
X274422Y235729D01*
X274454Y235755D01*
X274475Y235766D01*
X274497Y235789D01*
X274553Y235834D01*
X276636Y237917D01*
X276689Y237991D01*
X276749Y238060D01*
X276761Y238090D01*
X276780Y238116D01*
X276807Y238203D01*
X276841Y238288D01*
X276845Y238329D01*
X276852Y238351D01*
X276851Y238384D01*
X276859Y238455D01*
X276859Y246431D01*
X276845Y246521D01*
X276837Y246612D01*
X276825Y246642D01*
X276820Y246674D01*
X276777Y246754D01*
X276741Y246838D01*
X276715Y246870D01*
X276704Y246891D01*
X276681Y246913D01*
X276636Y246969D01*
X274807Y248798D01*
X274733Y248851D01*
X274664Y248911D01*
X274634Y248923D01*
X274608Y248942D01*
X274521Y248969D01*
X274436Y249003D01*
X274395Y249007D01*
X274373Y249014D01*
X274340Y249013D01*
X274269Y249021D01*
X273916Y249021D01*
X273896Y249018D01*
X273877Y249020D01*
X273775Y248998D01*
X273673Y248982D01*
X273656Y248972D01*
X273636Y248968D01*
X273547Y248915D01*
X273456Y248866D01*
X273442Y248852D01*
X273425Y248842D01*
X273358Y248763D01*
X273286Y248688D01*
X273278Y248670D01*
X273265Y248655D01*
X273231Y248570D01*
X272984Y248323D01*
X272972Y248307D01*
X272957Y248294D01*
X272901Y248207D01*
X272840Y248123D01*
X272834Y248104D01*
X272824Y248087D01*
X272798Y247987D01*
X272768Y247888D01*
X272768Y247868D01*
X272764Y247849D01*
X272772Y247746D01*
X272774Y247642D01*
X272781Y247623D01*
X272783Y247603D01*
X272823Y247508D01*
X272859Y247411D01*
X272871Y247395D01*
X272879Y247377D01*
X272984Y247246D01*
X273575Y246655D01*
X273967Y245975D01*
X274171Y245216D01*
X274171Y243790D01*
X266293Y243790D01*
X266274Y243787D01*
X266254Y243789D01*
X266152Y243767D01*
X266050Y243751D01*
X266033Y243741D01*
X266013Y243737D01*
X265924Y243684D01*
X265833Y243635D01*
X265819Y243621D01*
X265802Y243611D01*
X265735Y243532D01*
X265664Y243457D01*
X265655Y243439D01*
X265642Y243424D01*
X265604Y243328D01*
X265560Y243234D01*
X265558Y243214D01*
X265550Y243196D01*
X265532Y243029D01*
X265532Y241603D01*
X265533Y241595D01*
X265533Y241593D01*
X265535Y241583D01*
X265533Y241563D01*
X265555Y241462D01*
X265572Y241360D01*
X265581Y241343D01*
X265585Y241323D01*
X265638Y241234D01*
X265687Y241143D01*
X265701Y241129D01*
X265711Y241112D01*
X265790Y241045D01*
X265865Y240973D01*
X265883Y240965D01*
X265898Y240952D01*
X265995Y240913D01*
X266088Y240870D01*
X266108Y240868D01*
X266126Y240860D01*
X266293Y240842D01*
X274171Y240842D01*
X274171Y239416D01*
X273967Y238657D01*
X273575Y237977D01*
X272984Y237386D01*
X272972Y237370D01*
X272957Y237357D01*
X272901Y237270D01*
X272840Y237186D01*
X272834Y237167D01*
X272824Y237150D01*
X272798Y237050D01*
X272768Y236951D01*
X272768Y236931D01*
X272764Y236912D01*
X272772Y236809D01*
X272774Y236705D01*
X272781Y236686D01*
X272783Y236667D01*
X272823Y236572D01*
X272859Y236474D01*
X272871Y236459D01*
X272879Y236440D01*
X272984Y236309D01*
X273219Y236075D01*
X273261Y236003D01*
X273310Y235912D01*
X273324Y235898D01*
X273334Y235881D01*
X273413Y235814D01*
X273488Y235742D01*
X273506Y235734D01*
X273521Y235721D01*
X273617Y235682D01*
X273711Y235639D01*
X273731Y235637D01*
X273749Y235629D01*
X273916Y235611D01*
X274015Y235611D01*
X274105Y235625D01*
G37*
G36*
X464658Y216460D02*
X464658Y216460D01*
X464677Y216458D01*
X464779Y216480D01*
X464881Y216496D01*
X464898Y216506D01*
X464918Y216510D01*
X465007Y216563D01*
X465098Y216612D01*
X465112Y216626D01*
X465129Y216636D01*
X465196Y216715D01*
X465268Y216790D01*
X465276Y216808D01*
X465289Y216823D01*
X465328Y216919D01*
X465371Y217013D01*
X465373Y217033D01*
X465381Y217051D01*
X465399Y217218D01*
X465399Y217630D01*
X465396Y217650D01*
X465398Y217669D01*
X465376Y217771D01*
X465360Y217873D01*
X465350Y217890D01*
X465346Y217910D01*
X465293Y217999D01*
X465244Y218090D01*
X465230Y218104D01*
X465220Y218121D01*
X465141Y218188D01*
X465066Y218260D01*
X465048Y218268D01*
X465033Y218281D01*
X464937Y218320D01*
X464843Y218363D01*
X464823Y218365D01*
X464805Y218373D01*
X464638Y218391D01*
X462533Y218391D01*
X462533Y222909D01*
X466033Y222909D01*
X466104Y222920D01*
X466176Y222922D01*
X466225Y222940D01*
X466276Y222949D01*
X466339Y222982D01*
X466407Y223007D01*
X466447Y223039D01*
X466493Y223064D01*
X466543Y223116D01*
X466599Y223160D01*
X466627Y223204D01*
X466663Y223242D01*
X466693Y223307D01*
X466732Y223367D01*
X466744Y223418D01*
X466766Y223465D01*
X466774Y223536D01*
X466792Y223606D01*
X466788Y223658D01*
X466793Y223710D01*
X466778Y223780D01*
X466773Y223851D01*
X466752Y223899D01*
X466741Y223950D01*
X466704Y224011D01*
X466676Y224077D01*
X466631Y224133D01*
X466615Y224161D01*
X466597Y224176D01*
X466571Y224208D01*
X466415Y224364D01*
X466415Y225194D01*
X466412Y225214D01*
X466414Y225233D01*
X466392Y225335D01*
X466376Y225437D01*
X466366Y225454D01*
X466362Y225474D01*
X466309Y225563D01*
X466260Y225654D01*
X466246Y225668D01*
X466236Y225685D01*
X466157Y225752D01*
X466082Y225823D01*
X466064Y225832D01*
X466049Y225845D01*
X465953Y225884D01*
X465859Y225927D01*
X465839Y225929D01*
X465821Y225937D01*
X465654Y225955D01*
X462533Y225955D01*
X462533Y228278D01*
X462530Y228298D01*
X462532Y228317D01*
X462510Y228419D01*
X462493Y228521D01*
X462484Y228538D01*
X462480Y228558D01*
X462427Y228647D01*
X462378Y228738D01*
X462364Y228752D01*
X462354Y228769D01*
X462275Y228836D01*
X462200Y228908D01*
X462182Y228916D01*
X462167Y228929D01*
X462071Y228968D01*
X461977Y229011D01*
X461957Y229013D01*
X461939Y229021D01*
X461772Y229039D01*
X460248Y229039D01*
X460228Y229036D01*
X460209Y229038D01*
X460107Y229016D01*
X460005Y229000D01*
X459988Y228990D01*
X459968Y228986D01*
X459879Y228933D01*
X459788Y228884D01*
X459774Y228870D01*
X459757Y228860D01*
X459690Y228781D01*
X459619Y228706D01*
X459610Y228688D01*
X459597Y228673D01*
X459558Y228577D01*
X459515Y228483D01*
X459513Y228463D01*
X459505Y228445D01*
X459487Y228278D01*
X459487Y225194D01*
X459490Y225174D01*
X459488Y225155D01*
X459510Y225053D01*
X459527Y224951D01*
X459536Y224934D01*
X459540Y224914D01*
X459593Y224825D01*
X459642Y224734D01*
X459656Y224720D01*
X459666Y224703D01*
X459745Y224636D01*
X459820Y224565D01*
X459838Y224556D01*
X459853Y224543D01*
X459949Y224504D01*
X460043Y224461D01*
X460063Y224459D01*
X460081Y224451D01*
X460248Y224433D01*
X461011Y224433D01*
X461011Y224431D01*
X460248Y224431D01*
X460228Y224428D01*
X460209Y224430D01*
X460107Y224408D01*
X460005Y224391D01*
X459988Y224382D01*
X459968Y224378D01*
X459879Y224325D01*
X459788Y224276D01*
X459774Y224262D01*
X459757Y224252D01*
X459690Y224173D01*
X459619Y224098D01*
X459610Y224080D01*
X459597Y224065D01*
X459558Y223969D01*
X459515Y223875D01*
X459513Y223855D01*
X459505Y223837D01*
X459487Y223670D01*
X459487Y218391D01*
X459122Y218391D01*
X459052Y218380D01*
X458980Y218378D01*
X458931Y218360D01*
X458880Y218351D01*
X458816Y218318D01*
X458749Y218293D01*
X458708Y218261D01*
X458662Y218236D01*
X458613Y218184D01*
X458557Y218140D01*
X458529Y218096D01*
X458493Y218058D01*
X458463Y217993D01*
X458424Y217933D01*
X458411Y217882D01*
X458389Y217835D01*
X458381Y217764D01*
X458364Y217694D01*
X458368Y217642D01*
X458362Y217591D01*
X458378Y217520D01*
X458383Y217449D01*
X458403Y217401D01*
X458415Y217350D01*
X458451Y217289D01*
X458479Y217223D01*
X458524Y217167D01*
X458541Y217139D01*
X458558Y217124D01*
X458584Y217092D01*
X458996Y216680D01*
X459070Y216626D01*
X459140Y216567D01*
X459170Y216555D01*
X459196Y216536D01*
X459283Y216509D01*
X459368Y216475D01*
X459409Y216471D01*
X459431Y216464D01*
X459463Y216465D01*
X459535Y216457D01*
X464638Y216457D01*
X464658Y216460D01*
G37*
G36*
X299232Y138538D02*
X299232Y138538D01*
X299251Y138536D01*
X299353Y138558D01*
X299455Y138575D01*
X299472Y138584D01*
X299492Y138588D01*
X299581Y138641D01*
X299672Y138690D01*
X299686Y138704D01*
X299703Y138714D01*
X299770Y138793D01*
X299841Y138868D01*
X299850Y138886D01*
X299863Y138901D01*
X299902Y138997D01*
X299945Y139091D01*
X299947Y139111D01*
X299955Y139129D01*
X299973Y139296D01*
X299973Y144575D01*
X303284Y144575D01*
X303931Y144402D01*
X304510Y144067D01*
X304566Y144011D01*
X304644Y143955D01*
X304717Y143894D01*
X304743Y143883D01*
X304766Y143867D01*
X304857Y143839D01*
X304946Y143804D01*
X304974Y143803D01*
X305001Y143795D01*
X305097Y143797D01*
X305192Y143793D01*
X305219Y143800D01*
X305247Y143801D01*
X305337Y143834D01*
X305429Y143860D01*
X305452Y143876D01*
X305478Y143885D01*
X305553Y143945D01*
X305631Y143999D01*
X305648Y144022D01*
X305670Y144039D01*
X305722Y144119D01*
X305779Y144196D01*
X305792Y144229D01*
X305803Y144246D01*
X305811Y144278D01*
X305813Y144281D01*
X306361Y145230D01*
X307113Y145983D01*
X307186Y146025D01*
X307279Y146101D01*
X307371Y146174D01*
X307373Y146178D01*
X307376Y146181D01*
X307440Y146283D01*
X307504Y146381D01*
X307505Y146385D01*
X307507Y146389D01*
X307535Y146505D01*
X307564Y146620D01*
X307563Y146624D01*
X307564Y146628D01*
X307554Y146747D01*
X307545Y146865D01*
X307543Y146869D01*
X307543Y146873D01*
X307495Y146983D01*
X307448Y147091D01*
X307445Y147095D01*
X307444Y147098D01*
X307434Y147109D01*
X307343Y147222D01*
X306567Y147998D01*
X306546Y148096D01*
X306530Y148198D01*
X306520Y148216D01*
X306516Y148235D01*
X306463Y148324D01*
X306414Y148416D01*
X306400Y148429D01*
X306390Y148446D01*
X306311Y148514D01*
X306236Y148585D01*
X306218Y148593D01*
X306203Y148606D01*
X306107Y148645D01*
X306013Y148689D01*
X305993Y148691D01*
X305975Y148698D01*
X305808Y148717D01*
X305236Y148717D01*
X305216Y148713D01*
X305197Y148716D01*
X305095Y148694D01*
X304993Y148677D01*
X304976Y148668D01*
X304956Y148663D01*
X304867Y148610D01*
X304776Y148562D01*
X304762Y148547D01*
X304745Y148537D01*
X304678Y148458D01*
X304606Y148383D01*
X304598Y148365D01*
X304585Y148350D01*
X304546Y148254D01*
X304503Y148160D01*
X304501Y148141D01*
X304493Y148122D01*
X304475Y147955D01*
X304475Y147402D01*
X303582Y146509D01*
X294412Y146509D01*
X294322Y146495D01*
X294231Y146487D01*
X294201Y146475D01*
X294169Y146470D01*
X294088Y146427D01*
X294004Y146391D01*
X293972Y146365D01*
X293952Y146354D01*
X293929Y146331D01*
X293873Y146286D01*
X293588Y146001D01*
X293578Y145995D01*
X293541Y145965D01*
X293499Y145942D01*
X293447Y145888D01*
X293388Y145840D01*
X293362Y145799D01*
X293329Y145764D01*
X293297Y145695D01*
X293257Y145631D01*
X293246Y145585D01*
X293226Y145541D01*
X293217Y145466D01*
X293200Y145392D01*
X293204Y145344D01*
X293199Y145297D01*
X293215Y145223D01*
X293221Y145147D01*
X293241Y145103D01*
X293251Y145056D01*
X293290Y144991D01*
X293320Y144922D01*
X293352Y144886D01*
X293377Y144845D01*
X293434Y144796D01*
X293485Y144740D01*
X293527Y144716D01*
X293564Y144685D01*
X293634Y144657D01*
X293700Y144620D01*
X293747Y144611D01*
X293792Y144593D01*
X293920Y144579D01*
X293942Y144575D01*
X293949Y144576D01*
X293959Y144575D01*
X296927Y144575D01*
X296927Y139296D01*
X296930Y139276D01*
X296928Y139257D01*
X296950Y139155D01*
X296967Y139053D01*
X296976Y139036D01*
X296980Y139016D01*
X297033Y138927D01*
X297082Y138836D01*
X297096Y138822D01*
X297106Y138805D01*
X297185Y138738D01*
X297260Y138667D01*
X297278Y138658D01*
X297293Y138645D01*
X297389Y138606D01*
X297483Y138563D01*
X297503Y138561D01*
X297521Y138553D01*
X297688Y138535D01*
X299212Y138535D01*
X299232Y138538D01*
G37*
G36*
X305826Y130855D02*
X305826Y130855D01*
X305847Y130852D01*
X305947Y130874D01*
X306048Y130890D01*
X306067Y130900D01*
X306088Y130905D01*
X306175Y130957D01*
X306265Y131004D01*
X306280Y131020D01*
X306299Y131031D01*
X306365Y131108D01*
X306436Y131182D01*
X306445Y131201D01*
X306459Y131218D01*
X306497Y131312D01*
X306540Y131404D01*
X306543Y131426D01*
X306551Y131446D01*
X306569Y131612D01*
X306569Y133380D01*
X306562Y133428D01*
X306563Y133476D01*
X306542Y133548D01*
X306530Y133623D01*
X306507Y133665D01*
X306493Y133711D01*
X306450Y133774D01*
X306414Y133840D01*
X306380Y133873D01*
X306352Y133913D01*
X306291Y133958D01*
X306236Y134010D01*
X306192Y134030D01*
X306154Y134058D01*
X306082Y134082D01*
X306013Y134113D01*
X305965Y134119D01*
X305920Y134133D01*
X305844Y134132D01*
X305769Y134141D01*
X305722Y134130D01*
X305674Y134130D01*
X305602Y134104D01*
X305528Y134088D01*
X305487Y134064D01*
X305442Y134048D01*
X305382Y134001D01*
X305317Y133962D01*
X305286Y133926D01*
X305248Y133896D01*
X305172Y133792D01*
X305157Y133775D01*
X305155Y133769D01*
X305149Y133761D01*
X304983Y133474D01*
X304510Y133001D01*
X303931Y132666D01*
X303284Y132493D01*
X299973Y132493D01*
X299973Y137772D01*
X299970Y137792D01*
X299972Y137811D01*
X299950Y137913D01*
X299933Y138015D01*
X299924Y138032D01*
X299920Y138052D01*
X299867Y138141D01*
X299818Y138232D01*
X299804Y138246D01*
X299794Y138263D01*
X299715Y138330D01*
X299640Y138401D01*
X299622Y138410D01*
X299607Y138423D01*
X299511Y138462D01*
X299417Y138505D01*
X299397Y138507D01*
X299379Y138515D01*
X299212Y138533D01*
X297688Y138533D01*
X297668Y138530D01*
X297649Y138532D01*
X297547Y138510D01*
X297445Y138493D01*
X297428Y138484D01*
X297408Y138480D01*
X297319Y138427D01*
X297228Y138378D01*
X297214Y138364D01*
X297197Y138354D01*
X297130Y138275D01*
X297059Y138200D01*
X297050Y138182D01*
X297037Y138167D01*
X296998Y138071D01*
X296955Y137977D01*
X296953Y137957D01*
X296945Y137939D01*
X296927Y137772D01*
X296927Y132493D01*
X294638Y132493D01*
X294567Y132482D01*
X294496Y132480D01*
X294447Y132462D01*
X294395Y132454D01*
X294332Y132420D01*
X294265Y132395D01*
X294224Y132363D01*
X294178Y132338D01*
X294129Y132286D01*
X294073Y132242D01*
X294044Y132198D01*
X294009Y132160D01*
X293978Y132095D01*
X293940Y132035D01*
X293927Y131984D01*
X293905Y131937D01*
X293897Y131866D01*
X293880Y131796D01*
X293884Y131744D01*
X293878Y131693D01*
X293893Y131622D01*
X293899Y131551D01*
X293919Y131503D01*
X293930Y131452D01*
X293967Y131391D01*
X293995Y131325D01*
X294040Y131269D01*
X294056Y131241D01*
X294074Y131226D01*
X294100Y131194D01*
X294171Y131123D01*
X294243Y131071D01*
X294311Y131012D01*
X294343Y130999D01*
X294371Y130979D01*
X294456Y130953D01*
X294539Y130919D01*
X294582Y130914D01*
X294606Y130907D01*
X294637Y130908D01*
X294706Y130900D01*
X305805Y130851D01*
X305826Y130855D01*
G37*
G36*
X354096Y147174D02*
X354096Y147174D01*
X354115Y147172D01*
X354217Y147194D01*
X354319Y147211D01*
X354336Y147220D01*
X354356Y147224D01*
X354445Y147277D01*
X354536Y147326D01*
X354550Y147340D01*
X354567Y147350D01*
X354634Y147429D01*
X354705Y147504D01*
X354714Y147522D01*
X354727Y147537D01*
X354766Y147633D01*
X354809Y147727D01*
X354811Y147747D01*
X354819Y147765D01*
X354837Y147932D01*
X354837Y153211D01*
X356410Y153211D01*
X356481Y153222D01*
X356552Y153224D01*
X356601Y153242D01*
X356653Y153250D01*
X356716Y153284D01*
X356783Y153309D01*
X356824Y153341D01*
X356870Y153366D01*
X356919Y153417D01*
X356975Y153462D01*
X357004Y153506D01*
X357039Y153544D01*
X357070Y153609D01*
X357108Y153669D01*
X357121Y153720D01*
X357143Y153767D01*
X357151Y153838D01*
X357168Y153908D01*
X357164Y153960D01*
X357170Y154011D01*
X357155Y154082D01*
X357149Y154153D01*
X357129Y154201D01*
X357118Y154252D01*
X357081Y154313D01*
X357053Y154379D01*
X357008Y154435D01*
X356992Y154463D01*
X356974Y154478D01*
X356948Y154510D01*
X356536Y154922D01*
X356462Y154975D01*
X356393Y155035D01*
X356363Y155047D01*
X356336Y155066D01*
X356249Y155093D01*
X356165Y155127D01*
X356124Y155131D01*
X356101Y155138D01*
X356069Y155137D01*
X355998Y155145D01*
X348182Y155145D01*
X347991Y155336D01*
X347975Y155348D01*
X347963Y155364D01*
X347876Y155419D01*
X347792Y155480D01*
X347773Y155486D01*
X347756Y155497D01*
X347656Y155522D01*
X347557Y155552D01*
X347537Y155552D01*
X347517Y155557D01*
X347414Y155549D01*
X347311Y155546D01*
X347292Y155539D01*
X347272Y155537D01*
X347177Y155497D01*
X347080Y155461D01*
X347064Y155449D01*
X347046Y155441D01*
X346915Y155336D01*
X346438Y154860D01*
X346426Y154843D01*
X346411Y154831D01*
X346355Y154744D01*
X346294Y154660D01*
X346289Y154641D01*
X346278Y154624D01*
X346253Y154524D01*
X346222Y154425D01*
X346223Y154405D01*
X346218Y154385D01*
X346226Y154282D01*
X346229Y154179D01*
X346235Y154160D01*
X346237Y154140D01*
X346277Y154045D01*
X346313Y153948D01*
X346325Y153932D01*
X346333Y153914D01*
X346438Y153783D01*
X346767Y153454D01*
X346803Y153386D01*
X346841Y153298D01*
X346860Y153277D01*
X346874Y153252D01*
X346943Y153187D01*
X347007Y153116D01*
X347032Y153102D01*
X347052Y153083D01*
X347139Y153043D01*
X347222Y152996D01*
X347249Y152991D01*
X347275Y152979D01*
X347370Y152969D01*
X347464Y152952D01*
X347491Y152955D01*
X347519Y152952D01*
X347613Y152973D01*
X347707Y152986D01*
X347740Y153000D01*
X347760Y153005D01*
X347788Y153021D01*
X347811Y153032D01*
X348480Y153211D01*
X351791Y153211D01*
X351791Y147932D01*
X351794Y147912D01*
X351792Y147893D01*
X351814Y147791D01*
X351831Y147689D01*
X351840Y147672D01*
X351844Y147652D01*
X351897Y147563D01*
X351946Y147472D01*
X351960Y147458D01*
X351970Y147441D01*
X352049Y147374D01*
X352124Y147303D01*
X352142Y147294D01*
X352157Y147281D01*
X352253Y147242D01*
X352347Y147199D01*
X352367Y147197D01*
X352385Y147189D01*
X352552Y147171D01*
X354076Y147171D01*
X354096Y147174D01*
G37*
%LPC*%
G36*
X478528Y208185D02*
X478528Y208185D01*
X477881Y208358D01*
X477302Y208693D01*
X476763Y209232D01*
X476688Y209286D01*
X476619Y209345D01*
X476589Y209357D01*
X476563Y209376D01*
X476476Y209403D01*
X476391Y209437D01*
X476350Y209441D01*
X476328Y209448D01*
X476296Y209447D01*
X476224Y209455D01*
X473963Y209455D01*
X473963Y213973D01*
X479481Y213973D01*
X479481Y213464D01*
X479484Y213445D01*
X479482Y213427D01*
X479482Y213426D01*
X479482Y213425D01*
X479504Y213323D01*
X479520Y213221D01*
X479530Y213204D01*
X479534Y213184D01*
X479587Y213095D01*
X479636Y213004D01*
X479650Y212990D01*
X479660Y212973D01*
X479739Y212906D01*
X479814Y212835D01*
X479832Y212826D01*
X479847Y212813D01*
X479943Y212774D01*
X480037Y212731D01*
X480057Y212729D01*
X480075Y212721D01*
X480242Y212703D01*
X481839Y212703D01*
X481839Y208185D01*
X478528Y208185D01*
G37*
%LPD*%
%LPC*%
G36*
X241299Y248307D02*
X241299Y248307D01*
X241299Y252825D01*
X244610Y252825D01*
X245294Y252642D01*
X245408Y252630D01*
X245522Y252616D01*
X245532Y252618D01*
X245539Y252617D01*
X245560Y252622D01*
X245688Y252642D01*
X246372Y252825D01*
X249683Y252825D01*
X249683Y248307D01*
X241299Y248307D01*
G37*
%LPD*%
%LPC*%
G36*
X246372Y240743D02*
X246372Y240743D01*
X245688Y240926D01*
X245574Y240938D01*
X245460Y240952D01*
X245450Y240950D01*
X245443Y240951D01*
X245421Y240946D01*
X245294Y240926D01*
X244610Y240743D01*
X241299Y240743D01*
X241299Y245261D01*
X249683Y245261D01*
X249683Y240743D01*
X246372Y240743D01*
G37*
%LPD*%
%LPC*%
G36*
X429872Y334466D02*
X429872Y334466D01*
X429872Y337878D01*
X429870Y337890D01*
X429875Y337943D01*
X429864Y337990D01*
X429863Y338038D01*
X429837Y338109D01*
X429820Y338182D01*
X429807Y338203D01*
X429835Y338225D01*
X429900Y338264D01*
X429932Y338301D01*
X429969Y338330D01*
X430046Y338434D01*
X430060Y338451D01*
X430063Y338457D01*
X430069Y338465D01*
X430402Y339042D01*
X430413Y339058D01*
X430472Y339127D01*
X430485Y339157D01*
X430503Y339184D01*
X430530Y339270D01*
X430564Y339355D01*
X430569Y339396D01*
X430576Y339419D01*
X430575Y339451D01*
X430583Y339522D01*
X430583Y342113D01*
X435100Y342113D01*
X435100Y336593D01*
X435010Y336573D01*
X434908Y336556D01*
X434890Y336547D01*
X434871Y336543D01*
X434782Y336489D01*
X434690Y336441D01*
X434677Y336427D01*
X434660Y336416D01*
X434592Y336338D01*
X434521Y336263D01*
X434513Y336245D01*
X434500Y336230D01*
X434461Y336133D01*
X434417Y336040D01*
X434415Y336020D01*
X434408Y336001D01*
X434389Y335835D01*
X434389Y334466D01*
X429872Y334466D01*
G37*
%LPD*%
%LPC*%
G36*
X437436Y334466D02*
X437436Y334466D01*
X437436Y339987D01*
X437526Y340007D01*
X437628Y340024D01*
X437646Y340033D01*
X437665Y340037D01*
X437754Y340090D01*
X437846Y340139D01*
X437859Y340153D01*
X437876Y340163D01*
X437944Y340242D01*
X438015Y340317D01*
X438023Y340335D01*
X438036Y340350D01*
X438075Y340447D01*
X438119Y340540D01*
X438121Y340560D01*
X438128Y340578D01*
X438147Y340745D01*
X438147Y342113D01*
X442664Y342113D01*
X442664Y338802D01*
X442491Y338156D01*
X442134Y337538D01*
X442123Y337522D01*
X442064Y337453D01*
X442051Y337422D01*
X442033Y337396D01*
X442006Y337309D01*
X441972Y337224D01*
X441967Y337184D01*
X441960Y337161D01*
X441961Y337129D01*
X441953Y337058D01*
X441953Y334466D01*
X437436Y334466D01*
G37*
%LPD*%
%LPC*%
G36*
X484885Y215749D02*
X484885Y215749D01*
X484885Y220267D01*
X488196Y220267D01*
X488211Y220263D01*
X488301Y220254D01*
X488391Y220237D01*
X488423Y220242D01*
X488455Y220238D01*
X488544Y220259D01*
X488635Y220272D01*
X488672Y220288D01*
X488695Y220293D01*
X488722Y220310D01*
X488789Y220339D01*
X488803Y220348D01*
X489450Y220521D01*
X492761Y220521D01*
X492761Y216003D01*
X491164Y216003D01*
X491144Y216000D01*
X491125Y216002D01*
X491023Y215980D01*
X490921Y215963D01*
X490904Y215954D01*
X490884Y215950D01*
X490795Y215897D01*
X490704Y215848D01*
X490690Y215834D01*
X490673Y215824D01*
X490609Y215749D01*
X484885Y215749D01*
G37*
%LPD*%
%LPC*%
G36*
X484885Y212703D02*
X484885Y212703D01*
X486482Y212703D01*
X486502Y212706D01*
X486521Y212704D01*
X486623Y212726D01*
X486725Y212743D01*
X486742Y212752D01*
X486762Y212756D01*
X486851Y212809D01*
X486942Y212858D01*
X486956Y212872D01*
X486973Y212882D01*
X487037Y212957D01*
X492761Y212957D01*
X492761Y208439D01*
X489450Y208439D01*
X489435Y208443D01*
X489345Y208452D01*
X489255Y208469D01*
X489223Y208464D01*
X489191Y208468D01*
X489102Y208447D01*
X489011Y208434D01*
X488974Y208418D01*
X488951Y208413D01*
X488924Y208396D01*
X488857Y208367D01*
X488843Y208358D01*
X488196Y208185D01*
X484885Y208185D01*
X484885Y212703D01*
G37*
%LPD*%
%LPC*%
G36*
X404573Y171957D02*
X404573Y171957D01*
X404573Y175268D01*
X404617Y175432D01*
X404621Y175473D01*
X404643Y175530D01*
X404746Y175915D01*
X404979Y176318D01*
X405020Y176425D01*
X405063Y176532D01*
X405064Y176542D01*
X405066Y176548D01*
X405067Y176570D01*
X405081Y176699D01*
X405081Y179579D01*
X409599Y179579D01*
X409599Y174016D01*
X409592Y174012D01*
X409572Y174008D01*
X409483Y173955D01*
X409392Y173906D01*
X409378Y173892D01*
X409361Y173882D01*
X409294Y173803D01*
X409223Y173728D01*
X409214Y173710D01*
X409201Y173695D01*
X409162Y173599D01*
X409119Y173505D01*
X409117Y173485D01*
X409109Y173467D01*
X409091Y173300D01*
X409091Y171957D01*
X404573Y171957D01*
G37*
%LPD*%
%LPC*%
G36*
X412137Y171957D02*
X412137Y171957D01*
X412137Y177520D01*
X412144Y177524D01*
X412164Y177528D01*
X412253Y177581D01*
X412344Y177630D01*
X412358Y177644D01*
X412375Y177654D01*
X412442Y177733D01*
X412513Y177808D01*
X412522Y177826D01*
X412535Y177841D01*
X412574Y177937D01*
X412617Y178031D01*
X412619Y178051D01*
X412627Y178069D01*
X412645Y178236D01*
X412645Y179579D01*
X417163Y179579D01*
X417163Y176268D01*
X416990Y175621D01*
X416757Y175218D01*
X416716Y175111D01*
X416673Y175004D01*
X416672Y174994D01*
X416670Y174988D01*
X416669Y174966D01*
X416655Y174837D01*
X416655Y171957D01*
X412137Y171957D01*
G37*
%LPD*%
%LPC*%
G36*
X407057Y334771D02*
X407057Y334771D01*
X407057Y336190D01*
X407054Y336210D01*
X407056Y336230D01*
X407034Y336331D01*
X407017Y336433D01*
X407008Y336451D01*
X407006Y336459D01*
X407006Y342469D01*
X411524Y342469D01*
X411524Y339158D01*
X411458Y338912D01*
X411447Y338798D01*
X411433Y338684D01*
X411434Y338674D01*
X411434Y338667D01*
X411439Y338646D01*
X411458Y338518D01*
X411575Y338082D01*
X411575Y334771D01*
X407057Y334771D01*
G37*
%LPD*%
%LPC*%
G36*
X399493Y334771D02*
X399493Y334771D01*
X399493Y338083D01*
X399559Y338328D01*
X399571Y338442D01*
X399584Y338557D01*
X399583Y338566D01*
X399584Y338573D01*
X399579Y338595D01*
X399559Y338722D01*
X399442Y339158D01*
X399442Y342469D01*
X403960Y342469D01*
X403960Y341050D01*
X403963Y341030D01*
X403961Y341011D01*
X403983Y340909D01*
X404000Y340807D01*
X404009Y340790D01*
X404011Y340782D01*
X404011Y334771D01*
X399493Y334771D01*
G37*
%LPD*%
%LPC*%
G36*
X485901Y262430D02*
X485901Y262430D01*
X485901Y266947D01*
X489213Y266947D01*
X489506Y266869D01*
X489620Y266857D01*
X489734Y266843D01*
X489744Y266845D01*
X489750Y266844D01*
X489772Y266849D01*
X489900Y266869D01*
X490288Y266973D01*
X493599Y266973D01*
X493599Y262455D01*
X492180Y262455D01*
X492160Y262452D01*
X492141Y262454D01*
X492039Y262432D01*
X492025Y262430D01*
X485901Y262430D01*
G37*
%LPD*%
%LPC*%
G36*
X485901Y259383D02*
X485901Y259383D01*
X487320Y259383D01*
X487340Y259386D01*
X487360Y259384D01*
X487461Y259406D01*
X487475Y259409D01*
X493599Y259409D01*
X493599Y254891D01*
X490288Y254891D01*
X489994Y254970D01*
X489880Y254981D01*
X489766Y254995D01*
X489756Y254993D01*
X489750Y254994D01*
X489728Y254989D01*
X489600Y254970D01*
X489212Y254866D01*
X485901Y254866D01*
X485901Y259383D01*
G37*
%LPD*%
%LPC*%
G36*
X442617Y173227D02*
X442617Y173227D01*
X442617Y180849D01*
X447135Y180849D01*
X447135Y177538D01*
X447054Y177235D01*
X447042Y177121D01*
X447028Y177007D01*
X447030Y176997D01*
X447029Y176990D01*
X447034Y176969D01*
X447054Y176841D01*
X447135Y176538D01*
X447135Y173227D01*
X442617Y173227D01*
G37*
%LPD*%
%LPC*%
G36*
X435053Y173227D02*
X435053Y173227D01*
X435053Y176538D01*
X435134Y176841D01*
X435146Y176956D01*
X435160Y177069D01*
X435158Y177079D01*
X435159Y177086D01*
X435154Y177107D01*
X435134Y177235D01*
X435053Y177538D01*
X435053Y180849D01*
X439571Y180849D01*
X439571Y173227D01*
X435053Y173227D01*
G37*
%LPD*%
%LPC*%
G36*
X487326Y279554D02*
X487326Y279554D01*
X487309Y279561D01*
X487142Y279579D01*
X485876Y279579D01*
X485876Y284097D01*
X489187Y284097D01*
X489499Y284013D01*
X489614Y284002D01*
X489727Y283988D01*
X489737Y283990D01*
X489744Y283989D01*
X489765Y283994D01*
X489893Y284013D01*
X490110Y284072D01*
X493421Y284072D01*
X493421Y279554D01*
X487326Y279554D01*
G37*
%LPD*%
%LPC*%
G36*
X490110Y271990D02*
X490110Y271990D01*
X489798Y272074D01*
X489683Y272085D01*
X489570Y272099D01*
X489560Y272097D01*
X489553Y272098D01*
X489532Y272093D01*
X489404Y272074D01*
X489187Y272015D01*
X485876Y272015D01*
X485876Y276533D01*
X491971Y276533D01*
X491988Y276526D01*
X492155Y276508D01*
X493421Y276508D01*
X493421Y271990D01*
X490110Y271990D01*
G37*
%LPD*%
G36*
X291656Y143573D02*
X291656Y143573D01*
X291747Y143581D01*
X291777Y143593D01*
X291809Y143598D01*
X291890Y143641D01*
X291974Y143677D01*
X292006Y143703D01*
X292026Y143714D01*
X292049Y143737D01*
X292105Y143782D01*
X292390Y144067D01*
X292400Y144073D01*
X292437Y144103D01*
X292479Y144126D01*
X292531Y144180D01*
X292590Y144228D01*
X292616Y144269D01*
X292649Y144304D01*
X292681Y144373D01*
X292721Y144437D01*
X292732Y144483D01*
X292752Y144527D01*
X292761Y144602D01*
X292778Y144676D01*
X292774Y144724D01*
X292779Y144771D01*
X292763Y144845D01*
X292757Y144921D01*
X292737Y144965D01*
X292727Y145012D01*
X292688Y145077D01*
X292658Y145146D01*
X292626Y145182D01*
X292601Y145223D01*
X292543Y145272D01*
X292493Y145328D01*
X292451Y145352D01*
X292414Y145383D01*
X292344Y145411D01*
X292278Y145448D01*
X292231Y145457D01*
X292186Y145475D01*
X292058Y145489D01*
X292036Y145493D01*
X292029Y145492D01*
X292019Y145493D01*
X289051Y145493D01*
X289051Y150772D01*
X289048Y150792D01*
X289050Y150811D01*
X289028Y150913D01*
X289011Y151015D01*
X289002Y151032D01*
X288998Y151052D01*
X288945Y151141D01*
X288896Y151232D01*
X288882Y151246D01*
X288872Y151263D01*
X288793Y151330D01*
X288718Y151401D01*
X288700Y151410D01*
X288685Y151423D01*
X288589Y151462D01*
X288495Y151505D01*
X288475Y151507D01*
X288457Y151515D01*
X288290Y151533D01*
X286766Y151533D01*
X286746Y151530D01*
X286727Y151532D01*
X286625Y151510D01*
X286523Y151493D01*
X286506Y151484D01*
X286486Y151480D01*
X286397Y151427D01*
X286306Y151378D01*
X286292Y151364D01*
X286275Y151354D01*
X286208Y151275D01*
X286137Y151200D01*
X286128Y151182D01*
X286115Y151167D01*
X286076Y151071D01*
X286033Y150977D01*
X286031Y150957D01*
X286023Y150939D01*
X286005Y150772D01*
X286005Y145493D01*
X284940Y145493D01*
X284869Y145482D01*
X284798Y145480D01*
X284749Y145462D01*
X284697Y145454D01*
X284634Y145420D01*
X284567Y145395D01*
X284526Y145363D01*
X284480Y145338D01*
X284431Y145286D01*
X284375Y145242D01*
X284347Y145198D01*
X284311Y145160D01*
X284280Y145095D01*
X284242Y145035D01*
X284229Y144984D01*
X284207Y144937D01*
X284199Y144866D01*
X284182Y144796D01*
X284186Y144744D01*
X284180Y144693D01*
X284195Y144622D01*
X284201Y144551D01*
X284221Y144503D01*
X284232Y144452D01*
X284269Y144391D01*
X284297Y144325D01*
X284342Y144269D01*
X284358Y144241D01*
X284376Y144226D01*
X284402Y144194D01*
X284814Y143782D01*
X284888Y143729D01*
X284957Y143669D01*
X284987Y143657D01*
X285014Y143638D01*
X285101Y143611D01*
X285185Y143577D01*
X285226Y143573D01*
X285249Y143566D01*
X285281Y143567D01*
X285352Y143559D01*
X291566Y143559D01*
X291656Y143573D01*
G37*
%LPC*%
G36*
X495807Y216003D02*
X495807Y216003D01*
X495807Y220521D01*
X499118Y220521D01*
X499765Y220348D01*
X500344Y220013D01*
X500817Y219540D01*
X501152Y218961D01*
X501325Y218314D01*
X501325Y216003D01*
X495807Y216003D01*
G37*
%LPD*%
%LPC*%
G36*
X496645Y262455D02*
X496645Y262455D01*
X496645Y266973D01*
X499957Y266973D01*
X500603Y266799D01*
X501182Y266465D01*
X501655Y265992D01*
X501990Y265413D01*
X502163Y264766D01*
X502163Y262455D01*
X496645Y262455D01*
G37*
%LPD*%
%LPC*%
G36*
X496468Y279554D02*
X496468Y279554D01*
X496468Y284072D01*
X499779Y284072D01*
X500425Y283898D01*
X501004Y283564D01*
X501478Y283091D01*
X501812Y282512D01*
X501985Y281865D01*
X501985Y279554D01*
X496468Y279554D01*
G37*
%LPD*%
%LPC*%
G36*
X438147Y345160D02*
X438147Y345160D01*
X438147Y350677D01*
X440458Y350677D01*
X441104Y350504D01*
X441684Y350170D01*
X442157Y349697D01*
X442491Y349117D01*
X442664Y348471D01*
X442664Y345160D01*
X438147Y345160D01*
G37*
%LPD*%
%LPC*%
G36*
X407006Y345515D02*
X407006Y345515D01*
X407006Y351033D01*
X409318Y351033D01*
X409964Y350860D01*
X410543Y350525D01*
X411016Y350052D01*
X411351Y349473D01*
X411524Y348827D01*
X411524Y345515D01*
X407006Y345515D01*
G37*
%LPD*%
%LPC*%
G36*
X412645Y182625D02*
X412645Y182625D01*
X412645Y188143D01*
X414957Y188143D01*
X415603Y187970D01*
X416182Y187635D01*
X416655Y187162D01*
X416990Y186583D01*
X417163Y185936D01*
X417163Y182625D01*
X412645Y182625D01*
G37*
%LPD*%
%LPC*%
G36*
X281281Y270001D02*
X281281Y270001D01*
X281281Y275519D01*
X283593Y275519D01*
X284239Y275346D01*
X284818Y275011D01*
X285291Y274538D01*
X285626Y273959D01*
X285799Y273312D01*
X285799Y270001D01*
X281281Y270001D01*
G37*
%LPD*%
%LPC*%
G36*
X399442Y345515D02*
X399442Y345515D01*
X399442Y348827D01*
X399616Y349473D01*
X399950Y350052D01*
X400423Y350525D01*
X401002Y350860D01*
X401649Y351033D01*
X403960Y351033D01*
X403960Y345515D01*
X399442Y345515D01*
G37*
%LPD*%
%LPC*%
G36*
X430583Y345160D02*
X430583Y345160D01*
X430583Y348471D01*
X430756Y349117D01*
X431090Y349697D01*
X431564Y350170D01*
X432143Y350504D01*
X432789Y350677D01*
X435100Y350677D01*
X435100Y345160D01*
X430583Y345160D01*
G37*
%LPD*%
%LPC*%
G36*
X435053Y183895D02*
X435053Y183895D01*
X435053Y187206D01*
X435226Y187853D01*
X435561Y188432D01*
X436034Y188905D01*
X436613Y189240D01*
X437260Y189413D01*
X439571Y189413D01*
X439571Y183895D01*
X435053Y183895D01*
G37*
%LPD*%
%LPC*%
G36*
X273717Y270001D02*
X273717Y270001D01*
X273717Y273312D01*
X273890Y273959D01*
X274225Y274538D01*
X274698Y275011D01*
X275277Y275346D01*
X275924Y275519D01*
X278235Y275519D01*
X278235Y270001D01*
X273717Y270001D01*
G37*
%LPD*%
%LPC*%
G36*
X281281Y261437D02*
X281281Y261437D01*
X281281Y266955D01*
X285799Y266955D01*
X285799Y263644D01*
X285626Y262997D01*
X285291Y262418D01*
X284818Y261945D01*
X284239Y261610D01*
X283592Y261437D01*
X281281Y261437D01*
G37*
%LPD*%
%LPC*%
G36*
X442617Y164663D02*
X442617Y164663D01*
X442617Y170181D01*
X447135Y170181D01*
X447135Y166870D01*
X446962Y166223D01*
X446627Y165644D01*
X446154Y165171D01*
X445575Y164836D01*
X444928Y164663D01*
X442617Y164663D01*
G37*
%LPD*%
%LPC*%
G36*
X412137Y163393D02*
X412137Y163393D01*
X412137Y168911D01*
X416655Y168911D01*
X416655Y165600D01*
X416482Y164953D01*
X416147Y164374D01*
X415674Y163901D01*
X415095Y163566D01*
X414448Y163393D01*
X412137Y163393D01*
G37*
%LPD*%
%LPC*%
G36*
X466517Y277314D02*
X466517Y277314D01*
X466517Y279625D01*
X466690Y280272D01*
X467024Y280851D01*
X467498Y281324D01*
X468077Y281658D01*
X468723Y281832D01*
X472034Y281832D01*
X472034Y277314D01*
X466517Y277314D01*
G37*
%LPD*%
%LPC*%
G36*
X407057Y326207D02*
X407057Y326207D01*
X407057Y331725D01*
X411575Y331725D01*
X411575Y328414D01*
X411402Y327767D01*
X411067Y327188D01*
X410594Y326715D01*
X410015Y326380D01*
X409368Y326207D01*
X407057Y326207D01*
G37*
%LPD*%
%LPC*%
G36*
X232735Y248307D02*
X232735Y248307D01*
X232735Y250618D01*
X232908Y251265D01*
X233243Y251844D01*
X233716Y252317D01*
X234295Y252652D01*
X234942Y252825D01*
X238253Y252825D01*
X238253Y248307D01*
X232735Y248307D01*
G37*
%LPD*%
%LPC*%
G36*
X496645Y259409D02*
X496645Y259409D01*
X502163Y259409D01*
X502163Y257097D01*
X501990Y256451D01*
X501655Y255872D01*
X501182Y255399D01*
X500603Y255064D01*
X499957Y254891D01*
X496645Y254891D01*
X496645Y259409D01*
G37*
%LPD*%
%LPC*%
G36*
X496468Y276508D02*
X496468Y276508D01*
X501985Y276508D01*
X501985Y274196D01*
X501812Y273550D01*
X501478Y272971D01*
X501004Y272498D01*
X500425Y272163D01*
X499779Y271990D01*
X496468Y271990D01*
X496468Y276508D01*
G37*
%LPD*%
%LPC*%
G36*
X495807Y212957D02*
X495807Y212957D01*
X501325Y212957D01*
X501325Y210645D01*
X501152Y209999D01*
X500817Y209420D01*
X500344Y208947D01*
X499765Y208612D01*
X499118Y208439D01*
X495807Y208439D01*
X495807Y212957D01*
G37*
%LPD*%
%LPC*%
G36*
X432078Y325902D02*
X432078Y325902D01*
X431432Y326076D01*
X430852Y326410D01*
X430379Y326883D01*
X430045Y327462D01*
X429872Y328109D01*
X429872Y331420D01*
X434389Y331420D01*
X434389Y325902D01*
X432078Y325902D01*
G37*
%LPD*%
%LPC*%
G36*
X275924Y261437D02*
X275924Y261437D01*
X275277Y261610D01*
X274698Y261945D01*
X274225Y262418D01*
X273890Y262997D01*
X273717Y263644D01*
X273717Y266955D01*
X278235Y266955D01*
X278235Y261437D01*
X275924Y261437D01*
G37*
%LPD*%
%LPC*%
G36*
X437260Y164663D02*
X437260Y164663D01*
X436613Y164836D01*
X436034Y165171D01*
X435561Y165644D01*
X435226Y166223D01*
X435053Y166870D01*
X435053Y170181D01*
X439571Y170181D01*
X439571Y164663D01*
X437260Y164663D01*
G37*
%LPD*%
%LPC*%
G36*
X406780Y163393D02*
X406780Y163393D01*
X406133Y163566D01*
X405554Y163901D01*
X405081Y164374D01*
X404746Y164953D01*
X404573Y165600D01*
X404573Y168911D01*
X409091Y168911D01*
X409091Y163393D01*
X406780Y163393D01*
G37*
%LPD*%
%LPC*%
G36*
X448641Y277087D02*
X448641Y277087D01*
X448641Y280565D01*
X454695Y280565D01*
X454695Y280000D01*
X454522Y279353D01*
X454437Y279207D01*
X454413Y279143D01*
X454380Y279084D01*
X454370Y279029D01*
X454350Y278977D01*
X454347Y278909D01*
X454335Y278842D01*
X454343Y278787D01*
X454341Y278731D01*
X454360Y278666D01*
X454370Y278599D01*
X454401Y278527D01*
X454411Y278495D01*
X454423Y278478D01*
X454437Y278445D01*
X454522Y278299D01*
X454695Y277652D01*
X454695Y277087D01*
X448641Y277087D01*
G37*
%LPD*%
%LPC*%
G36*
X279757Y268477D02*
X279757Y268477D01*
X279757Y268479D01*
X279759Y268479D01*
X279759Y268477D01*
X279757Y268477D01*
G37*
%LPD*%
%LPC*%
G36*
X495121Y260931D02*
X495121Y260931D01*
X495121Y260933D01*
X495123Y260933D01*
X495123Y260931D01*
X495121Y260931D01*
G37*
%LPD*%
%LPC*%
G36*
X441093Y182371D02*
X441093Y182371D01*
X441093Y182373D01*
X441095Y182373D01*
X441095Y182371D01*
X441093Y182371D01*
G37*
%LPD*%
%LPC*%
G36*
X411121Y181101D02*
X411121Y181101D01*
X411121Y181103D01*
X411123Y181103D01*
X411123Y181101D01*
X411121Y181101D01*
G37*
%LPD*%
%LPC*%
G36*
X239775Y246783D02*
X239775Y246783D01*
X239775Y246785D01*
X239777Y246785D01*
X239777Y246783D01*
X239775Y246783D01*
G37*
%LPD*%
%LPC*%
G36*
X405482Y343991D02*
X405482Y343991D01*
X405482Y343993D01*
X405484Y343993D01*
X405484Y343991D01*
X405482Y343991D01*
G37*
%LPD*%
%LPC*%
G36*
X494944Y278030D02*
X494944Y278030D01*
X494944Y278032D01*
X494945Y278032D01*
X494945Y278030D01*
X494944Y278030D01*
G37*
%LPD*%
%LPC*%
G36*
X435912Y332942D02*
X435912Y332942D01*
X435912Y332944D01*
X435913Y332944D01*
X435913Y332942D01*
X435912Y332942D01*
G37*
%LPD*%
%LPC*%
G36*
X441093Y171703D02*
X441093Y171703D01*
X441093Y171705D01*
X441095Y171705D01*
X441095Y171703D01*
X441093Y171703D01*
G37*
%LPD*%
%LPC*%
G36*
X405533Y333247D02*
X405533Y333247D01*
X405533Y333249D01*
X405535Y333249D01*
X405535Y333247D01*
X405533Y333247D01*
G37*
%LPD*%
%LPC*%
G36*
X494283Y214479D02*
X494283Y214479D01*
X494283Y214481D01*
X494285Y214481D01*
X494285Y214479D01*
X494283Y214479D01*
G37*
%LPD*%
%LPC*%
G36*
X483361Y214225D02*
X483361Y214225D01*
X483361Y214227D01*
X483363Y214227D01*
X483363Y214225D01*
X483361Y214225D01*
G37*
%LPD*%
%LPC*%
G36*
X436623Y343636D02*
X436623Y343636D01*
X436623Y343637D01*
X436624Y343637D01*
X436624Y343636D01*
X436623Y343636D01*
G37*
%LPD*%
%LPC*%
G36*
X410613Y170433D02*
X410613Y170433D01*
X410613Y170435D01*
X410615Y170435D01*
X410615Y170433D01*
X410613Y170433D01*
G37*
%LPD*%
D10*
X318794Y149249D02*
X309594Y149249D01*
X309594Y152249D01*
X318794Y152249D01*
X318794Y149249D01*
X318794Y152099D02*
X309594Y152099D01*
X309594Y139749D02*
X318794Y139749D01*
X309594Y139749D02*
X309594Y142749D01*
X318794Y142749D01*
X318794Y139749D01*
X318794Y142599D02*
X309594Y142599D01*
X309594Y130249D02*
X318794Y130249D01*
X309594Y130249D02*
X309594Y133249D01*
X318794Y133249D01*
X318794Y130249D01*
X318794Y133099D02*
X309594Y133099D01*
X334494Y130249D02*
X343694Y130249D01*
X334494Y130249D02*
X334494Y133249D01*
X343694Y133249D01*
X343694Y130249D01*
X343694Y133099D02*
X334494Y133099D01*
X334494Y139749D02*
X343694Y139749D01*
X334494Y139749D02*
X334494Y142749D01*
X343694Y142749D01*
X343694Y139749D01*
X343694Y142599D02*
X334494Y142599D01*
X334494Y149249D02*
X343694Y149249D01*
X334494Y149249D02*
X334494Y152249D01*
X343694Y152249D01*
X343694Y149249D01*
X343694Y152099D02*
X334494Y152099D01*
D11*
X191722Y250952D02*
X180642Y250952D01*
X180642Y225552D02*
X191722Y225552D01*
X191722Y200152D02*
X180642Y200152D01*
X180642Y174752D02*
X191722Y174752D01*
D12*
X423624Y343637D03*
X436624Y343637D03*
X422912Y332943D03*
X435912Y332943D03*
X392483Y343992D03*
X405483Y343992D03*
X392534Y333248D03*
X405534Y333248D03*
D13*
X327152Y270614D03*
X327152Y283614D03*
X338074Y270868D03*
X338074Y283868D03*
D12*
X330096Y246126D03*
X317096Y246126D03*
X330096Y256794D03*
X317096Y256794D03*
D13*
X484353Y278056D03*
X484353Y291056D03*
X494944Y278031D03*
X494944Y291031D03*
X473558Y262791D03*
X473558Y275791D03*
X484378Y247906D03*
X484378Y260906D03*
X495122Y247932D03*
X495122Y260932D03*
X472440Y215496D03*
X472440Y228496D03*
X483362Y214226D03*
X483362Y227226D03*
X494284Y214480D03*
X494284Y227480D03*
X461010Y211432D03*
X461010Y224432D03*
D12*
X428094Y182372D03*
X441094Y182372D03*
X428094Y171704D03*
X441094Y171704D03*
X398122Y181102D03*
X411122Y181102D03*
X397614Y170434D03*
X410614Y170434D03*
D13*
X251206Y233784D03*
X251206Y246784D03*
D12*
X292758Y268478D03*
X279758Y268478D03*
D13*
X298450Y151534D03*
X298450Y138534D03*
X287528Y138534D03*
X287528Y151534D03*
X353314Y160170D03*
X353314Y147170D03*
D14*
X441106Y303100D03*
X436106Y303100D03*
X431106Y303100D03*
X426106Y303100D03*
X421106Y303100D03*
X416106Y303100D03*
X411106Y303100D03*
X406106Y303100D03*
X401106Y303100D03*
X396106Y303100D03*
X391106Y303100D03*
X386106Y303100D03*
X381106Y303100D03*
X376106Y303100D03*
X371106Y303100D03*
X366106Y303100D03*
D15*
X359332Y296326D03*
X359332Y291326D03*
X359332Y286326D03*
X359332Y281326D03*
X359332Y276326D03*
X359332Y271326D03*
X359332Y266326D03*
X359332Y261326D03*
X359332Y256326D03*
X359332Y251326D03*
X359332Y246326D03*
X359332Y241326D03*
X359332Y236326D03*
X359332Y231326D03*
X359332Y226326D03*
X359332Y221326D03*
D14*
X366106Y214552D03*
X371106Y214552D03*
X376106Y214552D03*
X381106Y214552D03*
X386106Y214552D03*
X391106Y214552D03*
X396106Y214552D03*
X401106Y214552D03*
X406106Y214552D03*
X411106Y214552D03*
X416106Y214552D03*
X421106Y214552D03*
X426106Y214552D03*
X431106Y214552D03*
X436106Y214552D03*
X441106Y214552D03*
D15*
X447880Y221326D03*
X447880Y226326D03*
X447880Y231326D03*
X447880Y236326D03*
X447880Y241326D03*
X447880Y246326D03*
X447880Y251326D03*
X447880Y256326D03*
X447880Y261326D03*
X447880Y266326D03*
X447880Y271326D03*
X447880Y276326D03*
X447880Y281326D03*
X447880Y286326D03*
X447880Y291326D03*
X447880Y296326D03*
D16*
X403606Y258826D03*
D17*
X471330Y313182D03*
X491330Y313182D03*
D18*
X513080Y313436D03*
D19*
X198120Y378460D02*
X198120Y393700D01*
X223520Y393700D02*
X223520Y378460D01*
X248920Y378460D02*
X248920Y393700D01*
X274320Y393700D02*
X274320Y378460D01*
X299720Y378460D02*
X299720Y393700D01*
X325120Y393700D02*
X325120Y378460D01*
X142240Y149352D02*
X127000Y149352D01*
X127000Y174752D02*
X142240Y174752D01*
X142240Y200152D02*
X127000Y200152D01*
X127000Y225552D02*
X142240Y225552D01*
X142240Y250952D02*
X127000Y250952D01*
X127000Y276352D02*
X142240Y276352D01*
X142240Y301752D02*
X127000Y301752D01*
X127000Y327152D02*
X142240Y327152D01*
X142240Y352552D02*
X127000Y352552D01*
D20*
X192532Y318008D03*
X217932Y318008D03*
X192532Y292608D03*
X217932Y292608D03*
D19*
X217932Y122936D02*
X217932Y107696D01*
X192532Y107696D02*
X192532Y122936D01*
D21*
X367094Y202438D03*
X375094Y202438D03*
D22*
X259972Y249308D02*
X259972Y254324D01*
X271188Y254324D01*
X271188Y249308D01*
X259972Y249308D01*
X259972Y250149D02*
X271188Y250149D01*
X271188Y250990D02*
X259972Y250990D01*
X259972Y251831D02*
X271188Y251831D01*
X271188Y252672D02*
X259972Y252672D01*
X259972Y253513D02*
X271188Y253513D01*
X285072Y235324D02*
X285072Y230308D01*
X285072Y235324D02*
X296288Y235324D01*
X296288Y230308D01*
X285072Y230308D01*
X285072Y231149D02*
X296288Y231149D01*
X296288Y231990D02*
X285072Y231990D01*
X285072Y232831D02*
X296288Y232831D01*
X296288Y233672D02*
X285072Y233672D01*
X285072Y234513D02*
X296288Y234513D01*
X259972Y239808D02*
X259972Y244824D01*
X271188Y244824D01*
X271188Y239808D01*
X259972Y239808D01*
X259972Y240649D02*
X271188Y240649D01*
X271188Y241490D02*
X259972Y241490D01*
X259972Y242331D02*
X271188Y242331D01*
X271188Y243172D02*
X259972Y243172D01*
X259972Y244013D02*
X271188Y244013D01*
X259972Y235324D02*
X259972Y230308D01*
X259972Y235324D02*
X271188Y235324D01*
X271188Y230308D01*
X259972Y230308D01*
X259972Y231149D02*
X271188Y231149D01*
X271188Y231990D02*
X259972Y231990D01*
X259972Y232831D02*
X271188Y232831D01*
X271188Y233672D02*
X259972Y233672D01*
X259972Y234513D02*
X271188Y234513D01*
X285072Y249308D02*
X285072Y254324D01*
X296288Y254324D01*
X296288Y249308D01*
X285072Y249308D01*
X285072Y250149D02*
X296288Y250149D01*
X296288Y250990D02*
X285072Y250990D01*
X285072Y251831D02*
X296288Y251831D01*
X296288Y252672D02*
X285072Y252672D01*
X285072Y253513D02*
X296288Y253513D01*
D13*
X239776Y246784D03*
X239776Y233784D03*
D23*
X559486Y349504D03*
X558292Y157759D03*
X184633Y352908D03*
D19*
X380492Y378206D02*
X380492Y393446D01*
X405892Y393446D02*
X405892Y378206D01*
X431292Y378206D02*
X431292Y393446D01*
X456692Y393446D02*
X456692Y378206D01*
X482092Y378206D02*
X482092Y393446D01*
X507492Y393446D02*
X507492Y378206D01*
X532892Y378206D02*
X532892Y393446D01*
X558292Y393446D02*
X558292Y378206D01*
X380492Y124206D02*
X380492Y108966D01*
X405892Y108966D02*
X405892Y124206D01*
X431292Y124206D02*
X431292Y108966D01*
X456692Y108966D02*
X456692Y124206D01*
X482092Y124206D02*
X482092Y108966D01*
X507492Y108966D02*
X507492Y124206D01*
X532892Y124206D02*
X532892Y108966D01*
X558292Y108966D02*
X558292Y124206D01*
D24*
X313690Y211500D03*
X313690Y169500D03*
X262890Y211500D03*
X262890Y169500D03*
D13*
X239776Y216558D03*
X239776Y203558D03*
D25*
X332486Y198238D03*
X332486Y181238D03*
D26*
X436106Y303100D02*
X436106Y307582D01*
X470916Y342392D02*
X498450Y342392D01*
X532892Y376834D02*
X532892Y385826D01*
X532892Y376834D02*
X498450Y342392D01*
X470916Y342392D02*
X436106Y307582D01*
D27*
X441106Y304962D02*
X441106Y303100D01*
D26*
X471932Y335788D02*
X516331Y335788D01*
X558292Y377749D02*
X558292Y385826D01*
X558292Y377749D02*
X516331Y335788D01*
X471932Y335788D02*
X441106Y304962D01*
X431106Y303100D02*
X431106Y309186D01*
X471170Y349250D02*
X480568Y349250D01*
X507492Y376174D02*
X507492Y385826D01*
X507492Y376174D02*
X480568Y349250D01*
X471170Y349250D02*
X431106Y309186D01*
X401106Y311364D02*
X401106Y303100D01*
X401106Y311364D02*
X376428Y336042D01*
X443052Y360959D02*
X456692Y374599D01*
X443052Y360959D02*
X395297Y360959D01*
X456692Y374599D02*
X456692Y385826D01*
X395297Y360959D02*
X388106Y353769D01*
X379800Y353769D01*
X376428Y350397D01*
X376428Y336042D01*
X391106Y308664D02*
X391106Y303100D01*
X391106Y308664D02*
X367792Y331978D01*
D27*
X403860Y383794D02*
X405892Y385826D01*
D26*
X403860Y383794D02*
X402754Y383794D01*
X383450Y364490D02*
X376403Y364490D01*
X383450Y364490D02*
X402754Y383794D01*
X376403Y364490D02*
X367792Y355879D01*
X367792Y331978D01*
X441106Y211047D02*
X447474Y211047D01*
X441106Y211047D02*
X441106Y214552D01*
X494436Y164084D02*
X524307Y164084D01*
X558292Y130099D01*
X558292Y116586D01*
X494436Y164084D02*
X447474Y211047D01*
X431106Y208872D02*
X431106Y214552D01*
X431106Y208872D02*
X437413Y202565D01*
X443702Y202565D01*
X507492Y138775D02*
X507492Y116586D01*
X507492Y138775D02*
X443702Y202565D01*
X401106Y196081D02*
X401106Y214552D01*
X377190Y172165D02*
X377190Y166370D01*
X377190Y172165D02*
X401106Y196081D01*
X433476Y152451D02*
X456692Y129235D01*
D28*
X456692Y116586D01*
D26*
X391109Y152451D02*
X377190Y166370D01*
X391109Y152451D02*
X433476Y152451D01*
X391106Y197812D02*
X391106Y214552D01*
X391106Y197812D02*
X368137Y174843D01*
X368137Y161712D01*
X390403Y139446D02*
X399618Y139446D01*
X406933Y132131D01*
D27*
X406933Y117627D01*
X405892Y116586D01*
D26*
X390403Y139446D02*
X368137Y161712D01*
X386106Y198654D02*
X386106Y214552D01*
X386106Y198654D02*
X363687Y176235D01*
X363687Y159055D01*
X381914Y140827D02*
X381914Y118008D01*
D27*
X380492Y116586D01*
D26*
X381914Y140827D02*
X363687Y159055D01*
X396106Y196915D02*
X396106Y214552D01*
X372364Y173173D02*
X372364Y164599D01*
X372364Y173173D02*
X396106Y196915D01*
D28*
X431292Y130708D02*
X431292Y116586D01*
D26*
X431292Y130708D02*
X415188Y146812D01*
X390151Y146812D02*
X372364Y164599D01*
X390151Y146812D02*
X415188Y146812D01*
X426106Y207014D02*
X426106Y214552D01*
X426106Y207014D02*
X435127Y197993D01*
X441503Y197993D01*
X482092Y157404D02*
X482092Y116586D01*
X482092Y157404D02*
X441503Y197993D01*
X436106Y209816D02*
X436106Y214552D01*
X436106Y209816D02*
X439039Y206883D01*
X445244Y206883D01*
X496171Y155956D02*
X511556Y155956D01*
X532892Y134620D01*
X532892Y116586D01*
X496171Y155956D02*
X445244Y206883D01*
X386106Y303100D02*
X386106Y307568D01*
X363728Y329946D01*
X363728Y357563D01*
X380390Y374225D02*
X380390Y379476D01*
X380390Y374225D02*
X363728Y357563D01*
X380492Y379578D02*
X380492Y385826D01*
D27*
X380492Y379578D02*
X380390Y379476D01*
D26*
X396106Y310014D02*
X396106Y303100D01*
X396106Y310014D02*
X371856Y334264D01*
X392840Y366116D02*
X421132Y366116D01*
X430403Y375387D01*
X430403Y384937D01*
X392840Y366116D02*
X385599Y358875D01*
D27*
X430403Y384937D02*
X431292Y385826D01*
D26*
X385599Y358875D02*
X377805Y358875D01*
X371856Y352926D01*
X371856Y334264D01*
X426106Y310536D02*
X426106Y303100D01*
X482092Y366522D02*
X482092Y385826D01*
X482092Y366522D02*
X426106Y310536D01*
D27*
X422583Y342596D02*
X423624Y343637D01*
D28*
X416106Y320626D02*
X416106Y303100D01*
D27*
X422887Y332918D02*
X422912Y332943D01*
D28*
X422912Y327432D01*
X416106Y320626D01*
D27*
X422912Y332943D02*
X423624Y333654D01*
D28*
X423624Y343637D01*
X448490Y286936D02*
X472356Y286936D01*
D27*
X448490Y286936D02*
X447880Y286326D01*
D28*
X472356Y286936D02*
X475488Y290068D01*
X483364Y290068D01*
D27*
X484353Y291056D01*
D28*
X494919Y291056D02*
X494944Y291031D01*
X494919Y291056D02*
X484353Y291056D01*
X484403Y247932D02*
X495122Y247932D01*
D27*
X484403Y247932D02*
X484378Y247906D01*
D28*
X480208Y235564D02*
X448642Y235564D01*
X447880Y236326D01*
X480208Y235564D02*
X483362Y232410D01*
X483362Y227226D01*
D27*
X483616Y227480D01*
D28*
X494284Y227480D01*
X306070Y268478D02*
X292758Y268478D01*
X293124Y127858D02*
X310228Y127783D01*
X293124Y127858D02*
X287528Y133454D01*
X287528Y138534D01*
X416106Y197408D02*
X416106Y214552D01*
D27*
X428094Y185420D02*
X428094Y182372D01*
D28*
X428094Y185420D02*
X416106Y197408D01*
X339094Y131749D02*
X338663Y131318D01*
X313763Y131318D01*
X287528Y138534D02*
X285750Y138534D01*
X278638Y145646D01*
X278638Y207518D02*
X306070Y234950D01*
X278638Y207518D02*
X278638Y145646D01*
D26*
X466039Y254663D02*
X466039Y264033D01*
X466039Y254663D02*
X477622Y254663D01*
X484378Y247906D01*
X466039Y264033D02*
X462730Y267342D01*
X448896Y267342D01*
D27*
X447880Y266326D01*
D28*
X428094Y171704D02*
X428094Y161394D01*
D27*
X428015Y161315D01*
D26*
X500022Y227480D02*
X505028Y232486D01*
X500022Y227480D02*
X494284Y227480D01*
X505028Y232486D02*
X505028Y246532D01*
D27*
X495526Y248336D02*
X495122Y247932D01*
X423624Y353413D02*
X423164Y353873D01*
D28*
X423624Y353413D02*
X423624Y343637D01*
D29*
X423164Y353873D03*
D26*
X287528Y132946D02*
X298224Y122250D01*
X287528Y132946D02*
X287528Y138534D01*
X356362Y122250D02*
X372720Y138608D01*
X372720Y140538D02*
X372694Y140564D01*
X372720Y140538D02*
X372720Y138608D01*
D29*
X372694Y140564D03*
X428015Y161315D03*
D26*
X356362Y122250D02*
X298224Y122250D01*
D29*
X505028Y246532D03*
D26*
X496522Y246532D02*
X495122Y247932D01*
X496522Y246532D02*
X505028Y246532D01*
D29*
X512013Y285422D03*
D26*
X512013Y285702D01*
X507492Y290223D01*
X495752Y290223D01*
X494944Y291031D01*
D28*
X306070Y268478D02*
X306070Y234950D01*
X428094Y182372D02*
X428094Y171704D01*
X306880Y282600D02*
X292758Y268478D01*
X306880Y282600D02*
X308026Y282600D01*
D29*
X308026Y282600D03*
D28*
X314194Y131749D02*
X310228Y127783D01*
X290680Y251816D02*
X292758Y253894D01*
X292758Y268478D01*
X314194Y131749D02*
X313763Y131318D01*
X312416Y131318D01*
D30*
X239776Y233784D02*
X236599Y233784D01*
X218923Y251460D01*
X251206Y233784D02*
X251209Y233781D01*
D28*
X251358Y233936D02*
X264460Y233936D01*
X251358Y233936D02*
X251206Y233784D01*
X264460Y233936D02*
X265580Y232816D01*
D26*
X275488Y232816D01*
X279654Y236982D02*
X279654Y247904D01*
X275742Y251816D01*
X265580Y251816D01*
X279654Y236982D02*
X275488Y232816D01*
D27*
X251206Y233784D02*
X250723Y234267D01*
D28*
X240259Y234267D01*
X239776Y233784D01*
D30*
X218923Y251460D02*
X186690Y251460D01*
X186182Y250952D01*
D28*
X406106Y303100D02*
X406106Y316404D01*
X392534Y329976D01*
D27*
X392534Y333248D01*
X392534Y343941D02*
X392483Y343992D01*
D28*
X392534Y343941D02*
X392534Y333248D01*
X339094Y150749D02*
X339094Y141249D01*
X398122Y170942D02*
X398122Y181102D01*
D27*
X398122Y170942D02*
X397614Y170434D01*
X353314Y160170D02*
X353060Y160424D01*
X348769Y160424D02*
X339094Y150749D01*
D28*
X348769Y160424D02*
X353060Y160424D01*
D27*
X398122Y181102D02*
X398122Y182469D01*
D28*
X406106Y190453D01*
X406106Y214552D01*
D27*
X353314Y160170D02*
X352223Y159079D01*
D29*
X363525Y143281D03*
X384048Y168910D03*
D28*
X385572Y170434D02*
X397614Y170434D01*
X385572Y170434D02*
X384048Y168910D01*
X363525Y145762D02*
X363525Y143281D01*
X363525Y145762D02*
X360893Y148394D01*
X360893Y154877D01*
X355600Y160170D01*
D27*
X354076Y160170D01*
X353314Y160170D01*
D28*
X383946Y343992D02*
X392483Y343992D01*
D27*
X383946Y343992D02*
X383540Y344399D01*
D29*
X383540Y344399D03*
X359664Y188239D03*
D26*
X359664Y184877D01*
X349758Y174971D01*
X349758Y164488D01*
X354076Y160170D01*
D27*
X314194Y150749D02*
X313940Y151003D01*
X298981Y151003D01*
X298450Y151534D01*
D28*
X330096Y256794D02*
X336711Y263409D01*
X354506Y261326D02*
X359332Y261326D01*
X354506Y261326D02*
X352423Y263409D01*
X336711Y263409D01*
X330096Y256794D02*
X330096Y246126D01*
D27*
X330096Y244196D01*
D28*
X325753Y239852D01*
D29*
X332740Y209550D03*
D28*
X325753Y216537D01*
X325753Y239852D01*
D29*
X472008Y247447D03*
D27*
X454353Y246326D02*
X454302Y246326D01*
D26*
X447880Y246326D01*
X468932Y244370D02*
X472008Y247447D01*
X468932Y244370D02*
X456309Y244370D01*
X454302Y246326D02*
X449302Y251326D01*
D27*
X447880Y251326D01*
D26*
X454353Y246326D02*
X456309Y244370D01*
D29*
X248666Y196088D03*
D28*
X254484Y196088D01*
X262890Y187682D01*
X262890Y169500D01*
X262890Y211500D02*
X262890Y216558D01*
X239776Y216558D01*
D26*
X353914Y221326D02*
X359332Y221326D01*
X353914Y221326D02*
X352781Y220193D01*
X352781Y208770D02*
X344932Y200921D01*
X342027Y198017D01*
X352781Y208770D02*
X352781Y220193D01*
X326952Y198238D02*
X313690Y211500D01*
X344932Y200921D02*
X344932Y200914D01*
X332486Y198238D02*
X326952Y198238D01*
X332707Y198017D02*
X342027Y198017D01*
X332707Y198017D02*
X332486Y198238D01*
D27*
X359332Y266326D02*
X358316Y267342D01*
X341600Y267342D01*
X338074Y270868D01*
X327406Y270868D01*
X327152Y270614D01*
X447880Y271326D02*
X465022Y271326D01*
X473558Y262791D01*
X469610Y231326D02*
X447880Y231326D01*
X469610Y231326D02*
X472440Y228496D01*
X451116Y221326D02*
X447880Y221326D01*
X451116Y221326D02*
X461010Y211432D01*
D26*
X462442Y296326D02*
X447880Y296326D01*
X471330Y305214D02*
X471330Y313182D01*
X471330Y305214D02*
X462442Y296326D01*
D27*
X447905Y291351D02*
X447880Y291326D01*
D26*
X447905Y291351D02*
X468389Y291351D01*
X477266Y300228D02*
X491330Y300228D01*
X491330Y313182D01*
X477266Y300228D02*
X468389Y291351D01*
D27*
X366106Y303100D02*
X366106Y306656D01*
X360545Y312217D01*
X239573Y312217D02*
X219964Y292608D01*
X217932Y292608D01*
X239573Y312217D02*
X360545Y312217D01*
X371106Y307074D02*
X371106Y303100D01*
X371106Y307074D02*
X362585Y315595D01*
X236601Y315595D02*
X224536Y303530D01*
X202907Y303530D02*
X192532Y293155D01*
X192532Y292608D01*
X202907Y303530D02*
X224536Y303530D01*
X236601Y315595D02*
X362585Y315595D01*
X376106Y306900D02*
X376106Y303100D01*
X376106Y306900D02*
X363296Y319710D01*
X234366Y319710D02*
X221742Y307086D01*
X203454Y307086D01*
X192532Y318008D01*
X234366Y319710D02*
X363296Y319710D01*
X381106Y307086D02*
X381106Y303100D01*
X381106Y307086D02*
X364901Y323291D01*
X223215Y323291D02*
X217932Y318008D01*
X223215Y323291D02*
X364901Y323291D01*
X359332Y291326D02*
X354596Y291326D01*
X354584Y291338D01*
X354584Y292332D01*
X347450Y299466D01*
X267716Y299466D01*
X244856Y276606D01*
X155448Y311658D02*
X155448Y348234D01*
X190500Y276606D02*
X244856Y276606D01*
X190500Y276606D02*
X155448Y311658D01*
X155448Y348234D02*
X150368Y353314D01*
X134620Y353314D01*
X134620Y352552D01*
X351858Y286326D02*
X359332Y286326D01*
X351858Y286326D02*
X351790Y286258D01*
X351536Y291069D02*
X346441Y296164D01*
X351536Y286512D02*
X351790Y286258D01*
X351536Y286512D02*
X351536Y291069D01*
X269755Y296164D02*
X247149Y273558D01*
X269755Y296164D02*
X346441Y296164D01*
X247149Y273558D02*
X188214Y273558D01*
X134620Y327152D01*
X351381Y281326D02*
X359332Y281326D01*
X348488Y284219D02*
X348488Y289807D01*
X345179Y293116D01*
X348488Y284219D02*
X351381Y281326D01*
X345179Y293116D02*
X271018Y293116D01*
X248281Y270379D01*
X183214Y270379D01*
X151841Y301752D01*
X134620Y301752D01*
X352070Y276326D02*
X359332Y276326D01*
X345440Y288544D02*
X343916Y290068D01*
X345440Y282956D02*
X352070Y276326D01*
X345440Y282956D02*
X345440Y288544D01*
X343916Y290068D02*
X272288Y290068D01*
X249174Y266954D01*
X178257Y266954D01*
X168859Y276352D01*
X134620Y276352D01*
X340679Y256326D02*
X359332Y256326D01*
X340679Y256326D02*
X340451Y256553D01*
D29*
X340451Y256553D03*
D27*
X350840Y251326D02*
X359332Y251326D01*
X350840Y251326D02*
X349595Y250082D01*
D29*
X349595Y250082D03*
D27*
X355062Y246326D02*
X359332Y246326D01*
X352614Y243877D02*
X342468Y243877D01*
X342468Y244284D01*
D29*
X342468Y244284D03*
D27*
X352614Y243877D02*
X355062Y246326D01*
X359276Y241382D02*
X359332Y241326D01*
X359276Y241382D02*
X354873Y241382D01*
X352355Y238864D01*
X346281Y238864D02*
X344084Y236667D01*
X337429Y236667D01*
X346281Y238864D02*
X352355Y238864D01*
D29*
X337429Y236667D03*
X333019Y228676D03*
D27*
X355776Y236326D02*
X359332Y236326D01*
X355776Y236326D02*
X354562Y235112D01*
X338203Y228676D02*
X333019Y228676D01*
X338203Y228676D02*
X339802Y230275D01*
X342987Y230275D01*
X347824Y235112D01*
X354562Y235112D01*
X359332Y231326D02*
X349619Y231326D01*
X341550Y223258D02*
X341398Y223258D01*
X341550Y223258D02*
X349619Y231326D01*
D29*
X341398Y223258D03*
D27*
X376158Y208772D02*
X376174Y208788D01*
X376174Y214484D01*
X376106Y214552D01*
X376174Y208788D02*
X376174Y203518D01*
X375094Y202438D01*
X375094Y197548D01*
X372110Y194564D02*
X357124Y194564D01*
X353568Y191008D01*
X353568Y184242D01*
X372110Y194564D02*
X375094Y197548D01*
X323342Y183464D02*
X299974Y183464D01*
X299796Y183642D01*
D29*
X299796Y183642D03*
X222504Y164592D03*
D27*
X222250Y164592D01*
X217932Y160274D01*
X217932Y115316D01*
X325200Y173521D02*
X326539Y172182D01*
X341508Y172182D01*
X325200Y181606D02*
X323342Y183464D01*
X325200Y181606D02*
X325200Y173521D01*
X341508Y172182D02*
X353568Y184242D01*
X381106Y198734D02*
X381106Y214552D01*
X356286Y173914D02*
X356286Y169367D01*
X356616Y169037D01*
X356286Y173914D02*
X381106Y198734D01*
D29*
X356616Y169037D03*
D26*
X447880Y261326D02*
X458192Y261326D01*
D27*
X458930Y260588D01*
D26*
X459311Y260588D01*
D29*
X459311Y260588D03*
D28*
X359332Y271326D02*
X350618Y271326D01*
X338076Y283868D02*
X338074Y283868D01*
X338076Y283868D02*
X350618Y271326D01*
X338074Y283868D02*
X327406Y283868D01*
D27*
X327152Y283614D01*
D28*
X317096Y256794D02*
X317096Y246126D01*
D27*
X359121Y296326D02*
X359332Y296326D01*
D28*
X359121Y296326D02*
X350241Y305206D01*
D29*
X350241Y305206D03*
X317195Y275717D03*
D28*
X317195Y276962D02*
X323848Y283614D01*
D27*
X317195Y276962D02*
X317195Y275717D01*
X323848Y283614D02*
X327152Y283614D01*
X317195Y256893D02*
X317096Y256794D01*
D28*
X317195Y256893D02*
X317195Y275717D01*
X317096Y246126D02*
X317096Y238760D01*
X298962Y220626D01*
X298962Y216404D01*
D29*
X298962Y216404D03*
D28*
X351548Y226326D02*
X359332Y226326D01*
X348412Y223190D02*
X348412Y215367D01*
X348412Y223190D02*
X351548Y226326D01*
D27*
X447880Y256326D02*
X454366Y256326D01*
D29*
X459461Y251435D03*
D27*
X459257Y251435D01*
X454366Y256326D01*
D29*
X181178Y371221D03*
X237566Y285902D03*
X339598Y370332D03*
X307670Y305562D03*
X343916Y211328D03*
D28*
X344373Y211328D02*
X348412Y215367D01*
X344373Y211328D02*
X343916Y211328D01*
X298962Y216404D02*
X284734Y202177D01*
X284734Y182118D01*
X297352Y169500D01*
X313690Y169500D01*
D29*
X343916Y183642D03*
D28*
X334890Y183642D02*
X332486Y181238D01*
X334890Y183642D02*
X343916Y183642D01*
X239776Y203558D02*
X222504Y220830D01*
X222504Y232410D01*
D29*
X222504Y232410D03*
D28*
X421106Y303100D02*
X421106Y313156D01*
X425196Y317246D01*
D27*
X425196Y317274D01*
X435887Y332918D02*
X435912Y332943D01*
D28*
X411106Y321430D02*
X411106Y303100D01*
D27*
X435912Y327962D02*
X435912Y332943D01*
D28*
X435912Y327962D02*
X425196Y317246D01*
X435912Y342925D02*
X436624Y343637D01*
X435912Y342925D02*
X435912Y332943D01*
X405534Y333248D02*
X405534Y327002D01*
X411106Y321430D01*
D27*
X405534Y343941D02*
X405483Y343992D01*
D28*
X405534Y343941D02*
X405534Y333248D01*
X494919Y278056D02*
X494944Y278031D01*
X494919Y278056D02*
X484353Y278056D01*
X480168Y282240D02*
X449556Y282240D01*
X448642Y281326D01*
D27*
X447880Y281326D01*
D28*
X480168Y282240D02*
X484353Y278056D01*
X473022Y276326D02*
X447880Y276326D01*
D27*
X473022Y276326D02*
X473558Y275791D01*
D28*
X484378Y264970D01*
X484378Y260906D01*
X484403Y260932D01*
X495122Y260932D01*
X461610Y226326D02*
X447880Y226326D01*
X461610Y226326D02*
X472440Y215496D01*
X482092Y215496D01*
D27*
X483362Y214226D01*
D28*
X494030Y214226D01*
D27*
X494284Y214480D01*
X447880Y226326D02*
X447868Y226314D01*
X439166Y240792D02*
X439700Y241326D01*
X254709Y243281D02*
X251206Y246784D01*
D28*
X314194Y141249D02*
X312924Y139979D01*
X299895Y139979D01*
D27*
X298450Y138534D01*
D28*
X441094Y171704D02*
X441094Y182372D01*
X421106Y205154D02*
X421106Y214552D01*
X421106Y205154D02*
X441094Y185166D01*
D27*
X411122Y181102D02*
X411106Y181118D01*
D28*
X411106Y214552D01*
X411122Y181102D02*
X411122Y170942D01*
X410614Y170434D01*
D26*
X251206Y246784D02*
X243078Y246784D01*
X228854Y261008D01*
D28*
X264897Y268478D02*
X279758Y268478D01*
X251206Y254787D02*
X251206Y246784D01*
X251206Y254787D02*
X264897Y268478D01*
X441094Y171704D02*
X441094Y159464D01*
D27*
X495150Y213614D02*
X494284Y214480D01*
D28*
X495150Y213614D02*
X504698Y213614D01*
X504924Y260350D02*
X504342Y260932D01*
X495122Y260932D01*
X494944Y278031D02*
X504543Y278031D01*
D26*
X414553Y343586D02*
X414147Y343992D01*
X405483Y343992D01*
D29*
X414553Y343586D03*
D26*
X448742Y343637D02*
X448970Y343408D01*
X448742Y343637D02*
X436624Y343637D01*
D29*
X448970Y343408D03*
X504924Y260350D03*
D27*
X505460Y277114D02*
X504543Y278031D01*
D29*
X505460Y277114D03*
D28*
X287528Y162585D02*
X287528Y151534D01*
D29*
X287528Y162585D03*
D28*
X298450Y138834D02*
X298450Y138534D01*
D27*
X298450Y138834D02*
X287528Y149756D01*
X287528Y151534D01*
D28*
X410614Y170030D02*
X418744Y161900D01*
X410614Y170030D02*
X410614Y170434D01*
D29*
X418744Y161900D03*
D27*
X441094Y159464D02*
X441300Y159258D01*
D29*
X441300Y159258D03*
X504698Y213614D03*
D28*
X353314Y147170D02*
X353162Y147018D01*
X353162Y137058D01*
D27*
X353314Y136906D01*
D29*
X353314Y136906D03*
X423164Y288290D03*
X373888Y289814D03*
X373634Y240538D03*
X373634Y228600D03*
X373888Y278384D03*
X386080Y228600D03*
X373888Y266192D03*
X373888Y252730D03*
X410210Y288290D03*
D27*
X441094Y185166D02*
X441094Y182372D01*
D26*
X178864Y232156D02*
X159917Y251103D01*
X165552Y261008D02*
X228854Y261008D01*
D28*
X255220Y242770D02*
X265126Y242770D01*
X255220Y242770D02*
X251206Y246784D01*
X265126Y242770D02*
X265580Y242316D01*
D29*
X398780Y289306D03*
X385826Y289560D03*
X386080Y278384D03*
X385826Y266192D03*
X385826Y252476D03*
X386080Y240284D03*
X398018Y228092D03*
X397764Y239268D03*
X397256Y252730D03*
X398272Y266446D03*
X398780Y278384D03*
X410210Y276352D03*
X409448Y265938D03*
X409448Y252222D03*
X409956Y238760D03*
X409702Y228092D03*
X422148Y227838D03*
X422148Y240030D03*
X422148Y251714D03*
X434086Y251968D03*
X434340Y240030D03*
X434340Y227838D03*
X433832Y265176D03*
X433578Y276860D03*
X422656Y276352D03*
X422402Y265684D03*
X434086Y288290D03*
X544068Y305308D03*
X577393Y244348D03*
X578917Y150622D03*
X492518Y236916D03*
D26*
X454052Y239980D02*
X452706Y241326D01*
X447880Y241326D01*
X489454Y239980D02*
X492518Y236916D01*
X489454Y239980D02*
X454052Y239980D01*
D29*
X576123Y344932D03*
D27*
X243078Y246784D02*
X239776Y246784D01*
D26*
X159917Y251103D02*
X159917Y255373D01*
X165552Y261008D01*
D28*
X463504Y224432D02*
X472440Y215496D01*
X463504Y224432D02*
X461010Y224432D01*
D27*
X185468Y225552D02*
X178864Y232156D01*
X185468Y225552D02*
X186182Y225552D01*
X366106Y214552D02*
X366106Y210996D01*
X358140Y203030D01*
X358140Y201183D01*
X350520Y193563D02*
X350520Y189710D01*
X350520Y193563D02*
X358140Y201183D01*
X292636Y189710D02*
X292151Y189225D01*
X292636Y189710D02*
X350520Y189710D01*
D29*
X292151Y189225D03*
X211074Y167640D03*
D27*
X192532Y149098D01*
X192532Y115316D01*
X371106Y207683D02*
X371106Y214552D01*
X371106Y207683D02*
X367268Y203845D01*
X367268Y202612D01*
X367094Y202438D01*
X365992Y202438D01*
M02*
