G04 EAGLE Gerber RS-274X export*
G75*
%MOMM*%
%FSLAX34Y34*%
%LPD*%
%INBottom Copper*%
%IPPOS*%
%AMOC8*
5,1,8,0,0,1.08239X$1,22.5*%
G01*
%ADD10C,1.108000*%
%ADD11C,1.408000*%
%ADD12P,1.649562X8X22.500000*%
%ADD13C,1.524000*%
%ADD14P,1.649562X8X292.500000*%
%ADD15C,0.508000*%
%ADD16C,0.756400*%
%ADD17C,0.254000*%
%ADD18C,0.304800*%
%ADD19C,0.152400*%

G36*
X370606Y114787D02*
X370606Y114787D01*
X370625Y114784D01*
X370727Y114806D01*
X370829Y114823D01*
X370846Y114832D01*
X370866Y114837D01*
X370955Y114890D01*
X371046Y114938D01*
X371060Y114953D01*
X371077Y114963D01*
X371144Y115042D01*
X371216Y115117D01*
X371224Y115135D01*
X371237Y115150D01*
X371276Y115246D01*
X371319Y115340D01*
X371321Y115359D01*
X371329Y115378D01*
X371347Y115545D01*
X371347Y126025D01*
X372739Y129386D01*
X375312Y131959D01*
X378673Y133351D01*
X382311Y133351D01*
X385672Y131959D01*
X388245Y129386D01*
X389637Y126025D01*
X389637Y115545D01*
X389640Y115525D01*
X389638Y115505D01*
X389660Y115404D01*
X389676Y115302D01*
X389686Y115284D01*
X389690Y115265D01*
X389743Y115176D01*
X389792Y115084D01*
X389806Y115071D01*
X389816Y115054D01*
X389895Y114986D01*
X389970Y114915D01*
X389988Y114907D01*
X390003Y114894D01*
X390099Y114855D01*
X390193Y114811D01*
X390213Y114809D01*
X390231Y114802D01*
X390398Y114783D01*
X395986Y114783D01*
X396006Y114787D01*
X396025Y114784D01*
X396127Y114806D01*
X396229Y114823D01*
X396246Y114832D01*
X396266Y114837D01*
X396355Y114890D01*
X396446Y114938D01*
X396460Y114953D01*
X396477Y114963D01*
X396544Y115042D01*
X396616Y115117D01*
X396624Y115135D01*
X396637Y115150D01*
X396676Y115246D01*
X396719Y115340D01*
X396721Y115359D01*
X396729Y115378D01*
X396747Y115545D01*
X396747Y126025D01*
X398139Y129386D01*
X400712Y131959D01*
X404073Y133351D01*
X407711Y133351D01*
X411072Y131959D01*
X413645Y129386D01*
X415037Y126025D01*
X415037Y115545D01*
X415040Y115525D01*
X415038Y115505D01*
X415060Y115404D01*
X415076Y115302D01*
X415086Y115284D01*
X415090Y115265D01*
X415143Y115176D01*
X415192Y115084D01*
X415206Y115071D01*
X415216Y115054D01*
X415295Y114986D01*
X415370Y114915D01*
X415388Y114907D01*
X415403Y114894D01*
X415499Y114855D01*
X415593Y114811D01*
X415613Y114809D01*
X415631Y114802D01*
X415798Y114783D01*
X421386Y114783D01*
X421406Y114787D01*
X421425Y114784D01*
X421527Y114806D01*
X421629Y114823D01*
X421646Y114832D01*
X421666Y114837D01*
X421755Y114890D01*
X421846Y114938D01*
X421860Y114953D01*
X421877Y114963D01*
X421944Y115042D01*
X422016Y115117D01*
X422024Y115135D01*
X422037Y115150D01*
X422076Y115246D01*
X422119Y115340D01*
X422121Y115359D01*
X422129Y115378D01*
X422147Y115545D01*
X422147Y126025D01*
X423539Y129386D01*
X426112Y131959D01*
X429473Y133351D01*
X433111Y133351D01*
X436472Y131959D01*
X439045Y129386D01*
X440437Y126025D01*
X440437Y115545D01*
X440440Y115525D01*
X440438Y115505D01*
X440460Y115404D01*
X440476Y115302D01*
X440486Y115284D01*
X440490Y115265D01*
X440543Y115176D01*
X440592Y115084D01*
X440606Y115071D01*
X440616Y115054D01*
X440695Y114986D01*
X440770Y114915D01*
X440788Y114907D01*
X440803Y114894D01*
X440899Y114855D01*
X440993Y114811D01*
X441013Y114809D01*
X441031Y114802D01*
X441198Y114783D01*
X446786Y114783D01*
X446806Y114787D01*
X446825Y114784D01*
X446927Y114806D01*
X447029Y114823D01*
X447046Y114832D01*
X447066Y114837D01*
X447155Y114890D01*
X447246Y114938D01*
X447260Y114953D01*
X447277Y114963D01*
X447344Y115042D01*
X447416Y115117D01*
X447424Y115135D01*
X447437Y115150D01*
X447476Y115246D01*
X447519Y115340D01*
X447521Y115359D01*
X447529Y115378D01*
X447547Y115545D01*
X447547Y126025D01*
X448939Y129386D01*
X451512Y131959D01*
X454873Y133351D01*
X458511Y133351D01*
X461872Y131959D01*
X464445Y129386D01*
X465837Y126025D01*
X465837Y115545D01*
X465840Y115525D01*
X465838Y115505D01*
X465860Y115404D01*
X465876Y115302D01*
X465886Y115284D01*
X465890Y115265D01*
X465943Y115176D01*
X465992Y115084D01*
X466006Y115071D01*
X466016Y115054D01*
X466095Y114986D01*
X466170Y114915D01*
X466188Y114907D01*
X466203Y114894D01*
X466299Y114855D01*
X466393Y114811D01*
X466413Y114809D01*
X466431Y114802D01*
X466598Y114783D01*
X472186Y114783D01*
X472206Y114787D01*
X472225Y114784D01*
X472327Y114806D01*
X472429Y114823D01*
X472446Y114832D01*
X472466Y114837D01*
X472555Y114890D01*
X472646Y114938D01*
X472660Y114953D01*
X472677Y114963D01*
X472744Y115042D01*
X472816Y115117D01*
X472824Y115135D01*
X472837Y115150D01*
X472876Y115246D01*
X472919Y115340D01*
X472921Y115359D01*
X472929Y115378D01*
X472947Y115545D01*
X472947Y126025D01*
X474339Y129386D01*
X476912Y131959D01*
X480273Y133351D01*
X483911Y133351D01*
X487272Y131959D01*
X489845Y129386D01*
X491237Y126025D01*
X491237Y115545D01*
X491240Y115525D01*
X491238Y115505D01*
X491260Y115404D01*
X491276Y115302D01*
X491286Y115284D01*
X491290Y115265D01*
X491343Y115176D01*
X491392Y115084D01*
X491406Y115071D01*
X491416Y115054D01*
X491495Y114986D01*
X491570Y114915D01*
X491588Y114907D01*
X491603Y114894D01*
X491699Y114855D01*
X491793Y114811D01*
X491813Y114809D01*
X491831Y114802D01*
X491998Y114783D01*
X497586Y114783D01*
X497606Y114787D01*
X497625Y114784D01*
X497727Y114806D01*
X497829Y114823D01*
X497846Y114832D01*
X497866Y114837D01*
X497955Y114890D01*
X498046Y114938D01*
X498060Y114953D01*
X498077Y114963D01*
X498144Y115042D01*
X498216Y115117D01*
X498224Y115135D01*
X498237Y115150D01*
X498276Y115246D01*
X498319Y115340D01*
X498321Y115359D01*
X498329Y115378D01*
X498347Y115545D01*
X498347Y126025D01*
X499739Y129386D01*
X502312Y131959D01*
X505673Y133351D01*
X509311Y133351D01*
X512672Y131959D01*
X515245Y129386D01*
X516637Y126025D01*
X516637Y115545D01*
X516640Y115525D01*
X516638Y115505D01*
X516660Y115404D01*
X516676Y115302D01*
X516686Y115284D01*
X516690Y115265D01*
X516743Y115176D01*
X516792Y115084D01*
X516806Y115071D01*
X516816Y115054D01*
X516895Y114986D01*
X516970Y114915D01*
X516988Y114907D01*
X517003Y114894D01*
X517099Y114855D01*
X517193Y114811D01*
X517213Y114809D01*
X517231Y114802D01*
X517398Y114783D01*
X522986Y114783D01*
X523006Y114787D01*
X523025Y114784D01*
X523127Y114806D01*
X523229Y114823D01*
X523246Y114832D01*
X523266Y114837D01*
X523355Y114890D01*
X523446Y114938D01*
X523460Y114953D01*
X523477Y114963D01*
X523544Y115042D01*
X523616Y115117D01*
X523624Y115135D01*
X523637Y115150D01*
X523676Y115246D01*
X523719Y115340D01*
X523721Y115359D01*
X523729Y115378D01*
X523747Y115545D01*
X523747Y126025D01*
X525139Y129386D01*
X527712Y131959D01*
X531073Y133351D01*
X534711Y133351D01*
X538072Y131959D01*
X540645Y129386D01*
X542037Y126025D01*
X542037Y115545D01*
X542040Y115525D01*
X542038Y115505D01*
X542060Y115404D01*
X542076Y115302D01*
X542086Y115284D01*
X542090Y115265D01*
X542143Y115176D01*
X542192Y115084D01*
X542206Y115071D01*
X542216Y115054D01*
X542295Y114986D01*
X542370Y114915D01*
X542388Y114907D01*
X542403Y114894D01*
X542499Y114855D01*
X542593Y114811D01*
X542613Y114809D01*
X542631Y114802D01*
X542798Y114783D01*
X548386Y114783D01*
X548406Y114787D01*
X548425Y114784D01*
X548527Y114806D01*
X548629Y114823D01*
X548646Y114832D01*
X548666Y114837D01*
X548755Y114890D01*
X548846Y114938D01*
X548860Y114953D01*
X548877Y114963D01*
X548944Y115042D01*
X549016Y115117D01*
X549024Y115135D01*
X549037Y115150D01*
X549076Y115246D01*
X549119Y115340D01*
X549121Y115359D01*
X549129Y115378D01*
X549147Y115545D01*
X549147Y126025D01*
X550539Y129386D01*
X553112Y131959D01*
X556473Y133351D01*
X560111Y133351D01*
X563472Y131959D01*
X566045Y129386D01*
X567437Y126025D01*
X567437Y115545D01*
X567440Y115525D01*
X567438Y115505D01*
X567460Y115404D01*
X567476Y115302D01*
X567486Y115284D01*
X567490Y115265D01*
X567543Y115176D01*
X567592Y115084D01*
X567606Y115071D01*
X567616Y115054D01*
X567695Y114986D01*
X567770Y114915D01*
X567788Y114907D01*
X567803Y114894D01*
X567899Y114855D01*
X567993Y114811D01*
X568013Y114809D01*
X568031Y114802D01*
X568198Y114783D01*
X573770Y114783D01*
X573790Y114787D01*
X573810Y114784D01*
X573911Y114806D01*
X574013Y114823D01*
X574031Y114832D01*
X574050Y114837D01*
X574139Y114890D01*
X574230Y114938D01*
X574244Y114953D01*
X574261Y114963D01*
X574329Y115042D01*
X574400Y115117D01*
X574408Y115135D01*
X574421Y115150D01*
X574460Y115246D01*
X574503Y115340D01*
X574506Y115359D01*
X574513Y115378D01*
X574532Y115545D01*
X574532Y122082D01*
X574531Y122084D01*
X574532Y122087D01*
X574399Y144578D01*
X598475Y144578D01*
X598494Y144581D01*
X598514Y144579D01*
X598615Y144601D01*
X598717Y144617D01*
X598735Y144627D01*
X598754Y144631D01*
X598843Y144684D01*
X598935Y144732D01*
X598948Y144747D01*
X598966Y144757D01*
X599033Y144836D01*
X599104Y144911D01*
X599113Y144929D01*
X599125Y144944D01*
X599164Y145040D01*
X599208Y145134D01*
X599210Y145154D01*
X599217Y145172D01*
X599236Y145339D01*
X599262Y358876D01*
X599258Y358896D01*
X599261Y358916D01*
X599239Y359017D01*
X599222Y359119D01*
X599213Y359137D01*
X599208Y359156D01*
X599155Y359245D01*
X599107Y359337D01*
X599092Y359350D01*
X599082Y359368D01*
X599004Y359435D01*
X598929Y359506D01*
X598910Y359514D01*
X598895Y359527D01*
X598799Y359566D01*
X598705Y359610D01*
X598686Y359612D01*
X598667Y359619D01*
X598500Y359638D01*
X574039Y359638D01*
X574039Y386055D01*
X574036Y386075D01*
X574038Y386094D01*
X574016Y386195D01*
X574000Y386298D01*
X573990Y386315D01*
X573986Y386335D01*
X573933Y386424D01*
X573884Y386515D01*
X573870Y386529D01*
X573860Y386546D01*
X573781Y386613D01*
X573706Y386684D01*
X573688Y386693D01*
X573673Y386706D01*
X573577Y386744D01*
X573483Y386788D01*
X573463Y386790D01*
X573445Y386798D01*
X573278Y386816D01*
X568198Y386815D01*
X568178Y386812D01*
X568159Y386814D01*
X568057Y386792D01*
X567955Y386776D01*
X567938Y386766D01*
X567918Y386762D01*
X567829Y386709D01*
X567738Y386661D01*
X567724Y386646D01*
X567707Y386636D01*
X567640Y386557D01*
X567568Y386482D01*
X567560Y386464D01*
X567547Y386449D01*
X567508Y386353D01*
X567465Y386259D01*
X567463Y386239D01*
X567455Y386221D01*
X567437Y386054D01*
X567437Y376387D01*
X566045Y373026D01*
X563472Y370453D01*
X560111Y369061D01*
X556473Y369061D01*
X553112Y370453D01*
X550539Y373026D01*
X549147Y376387D01*
X549147Y386052D01*
X549144Y386071D01*
X549146Y386091D01*
X549124Y386192D01*
X549108Y386294D01*
X549098Y386312D01*
X549094Y386332D01*
X549041Y386421D01*
X548992Y386512D01*
X548978Y386525D01*
X548968Y386543D01*
X548889Y386610D01*
X548814Y386681D01*
X548796Y386690D01*
X548781Y386702D01*
X548685Y386741D01*
X548591Y386785D01*
X548571Y386787D01*
X548553Y386794D01*
X548386Y386813D01*
X542798Y386812D01*
X542778Y386809D01*
X542759Y386811D01*
X542657Y386789D01*
X542555Y386772D01*
X542538Y386763D01*
X542518Y386759D01*
X542429Y386706D01*
X542338Y386657D01*
X542324Y386643D01*
X542307Y386633D01*
X542240Y386554D01*
X542168Y386479D01*
X542160Y386461D01*
X542147Y386446D01*
X542108Y386349D01*
X542065Y386256D01*
X542063Y386236D01*
X542055Y386218D01*
X542037Y386051D01*
X542037Y376387D01*
X540645Y373026D01*
X538072Y370453D01*
X534711Y369061D01*
X531073Y369061D01*
X527712Y370453D01*
X525139Y373026D01*
X523747Y376387D01*
X523747Y386048D01*
X523744Y386068D01*
X523746Y386088D01*
X523724Y386189D01*
X523708Y386291D01*
X523698Y386309D01*
X523694Y386328D01*
X523641Y386417D01*
X523592Y386508D01*
X523578Y386522D01*
X523568Y386539D01*
X523489Y386607D01*
X523414Y386678D01*
X523396Y386686D01*
X523381Y386699D01*
X523285Y386738D01*
X523191Y386781D01*
X523171Y386784D01*
X523153Y386791D01*
X522986Y386810D01*
X517398Y386809D01*
X517378Y386806D01*
X517359Y386808D01*
X517257Y386786D01*
X517155Y386769D01*
X517138Y386760D01*
X517118Y386756D01*
X517029Y386702D01*
X516938Y386654D01*
X516924Y386640D01*
X516907Y386629D01*
X516840Y386551D01*
X516768Y386476D01*
X516760Y386458D01*
X516747Y386442D01*
X516708Y386346D01*
X516665Y386253D01*
X516663Y386233D01*
X516655Y386214D01*
X516637Y386048D01*
X516637Y376387D01*
X515245Y373026D01*
X512672Y370453D01*
X509311Y369061D01*
X505673Y369061D01*
X502312Y370453D01*
X499739Y373026D01*
X498347Y376387D01*
X498347Y386045D01*
X498344Y386065D01*
X498346Y386085D01*
X498324Y386186D01*
X498308Y386288D01*
X498298Y386305D01*
X498294Y386325D01*
X498241Y386414D01*
X498192Y386505D01*
X498178Y386519D01*
X498168Y386536D01*
X498089Y386603D01*
X498014Y386675D01*
X497996Y386683D01*
X497981Y386696D01*
X497885Y386735D01*
X497791Y386778D01*
X497771Y386780D01*
X497753Y386788D01*
X497586Y386806D01*
X491998Y386806D01*
X491978Y386802D01*
X491959Y386805D01*
X491857Y386783D01*
X491755Y386766D01*
X491738Y386757D01*
X491718Y386752D01*
X491629Y386699D01*
X491538Y386651D01*
X491524Y386636D01*
X491507Y386626D01*
X491440Y386547D01*
X491368Y386472D01*
X491360Y386454D01*
X491347Y386439D01*
X491308Y386343D01*
X491265Y386249D01*
X491263Y386230D01*
X491255Y386211D01*
X491237Y386044D01*
X491237Y376387D01*
X489845Y373026D01*
X487272Y370453D01*
X483911Y369061D01*
X480273Y369061D01*
X476912Y370453D01*
X474339Y373026D01*
X472947Y376387D01*
X472947Y386042D01*
X472944Y386061D01*
X472946Y386081D01*
X472924Y386183D01*
X472908Y386285D01*
X472898Y386302D01*
X472894Y386322D01*
X472841Y386411D01*
X472792Y386502D01*
X472778Y386516D01*
X472768Y386533D01*
X472689Y386600D01*
X472614Y386671D01*
X472596Y386680D01*
X472581Y386693D01*
X472485Y386731D01*
X472391Y386775D01*
X472371Y386777D01*
X472353Y386785D01*
X472186Y386803D01*
X466598Y386802D01*
X466578Y386799D01*
X466559Y386801D01*
X466457Y386779D01*
X466355Y386763D01*
X466338Y386753D01*
X466318Y386749D01*
X466229Y386696D01*
X466138Y386647D01*
X466124Y386633D01*
X466107Y386623D01*
X466040Y386544D01*
X465968Y386469D01*
X465960Y386451D01*
X465947Y386436D01*
X465908Y386340D01*
X465865Y386246D01*
X465863Y386226D01*
X465855Y386208D01*
X465837Y386041D01*
X465837Y376387D01*
X464445Y373026D01*
X461872Y370453D01*
X458511Y369061D01*
X454873Y369061D01*
X451512Y370453D01*
X448939Y373026D01*
X447547Y376387D01*
X447547Y386038D01*
X447544Y386058D01*
X447546Y386078D01*
X447524Y386179D01*
X447508Y386281D01*
X447498Y386299D01*
X447494Y386318D01*
X447441Y386408D01*
X447392Y386499D01*
X447378Y386512D01*
X447368Y386530D01*
X447289Y386597D01*
X447214Y386668D01*
X447196Y386676D01*
X447181Y386689D01*
X447085Y386728D01*
X446991Y386772D01*
X446971Y386774D01*
X446953Y386781D01*
X446786Y386800D01*
X441198Y386799D01*
X441178Y386796D01*
X441159Y386798D01*
X441057Y386776D01*
X440955Y386759D01*
X440938Y386750D01*
X440918Y386746D01*
X440829Y386693D01*
X440738Y386644D01*
X440724Y386630D01*
X440707Y386620D01*
X440640Y386541D01*
X440568Y386466D01*
X440560Y386448D01*
X440547Y386433D01*
X440508Y386336D01*
X440465Y386243D01*
X440463Y386223D01*
X440455Y386204D01*
X440437Y386038D01*
X440437Y376387D01*
X439045Y373026D01*
X436472Y370453D01*
X433111Y369061D01*
X429473Y369061D01*
X426112Y370453D01*
X423539Y373026D01*
X422147Y376387D01*
X422147Y386035D01*
X422144Y386055D01*
X422146Y386075D01*
X422124Y386176D01*
X422108Y386278D01*
X422098Y386296D01*
X422094Y386315D01*
X422041Y386404D01*
X421992Y386495D01*
X421978Y386509D01*
X421968Y386526D01*
X421889Y386594D01*
X421814Y386665D01*
X421796Y386673D01*
X421781Y386686D01*
X421685Y386725D01*
X421591Y386768D01*
X421571Y386771D01*
X421553Y386778D01*
X421386Y386796D01*
X415798Y386796D01*
X415778Y386793D01*
X415759Y386795D01*
X415657Y386773D01*
X415555Y386756D01*
X415538Y386747D01*
X415518Y386742D01*
X415429Y386689D01*
X415338Y386641D01*
X415324Y386626D01*
X415307Y386616D01*
X415240Y386538D01*
X415168Y386462D01*
X415160Y386445D01*
X415147Y386429D01*
X415108Y386333D01*
X415065Y386239D01*
X415063Y386220D01*
X415055Y386201D01*
X415037Y386034D01*
X415037Y376387D01*
X413645Y373026D01*
X411072Y370453D01*
X407711Y369061D01*
X404073Y369061D01*
X400712Y370453D01*
X398139Y373026D01*
X396747Y376387D01*
X396747Y386032D01*
X396744Y386052D01*
X396746Y386071D01*
X396724Y386173D01*
X396708Y386275D01*
X396698Y386292D01*
X396694Y386312D01*
X396641Y386401D01*
X396592Y386492D01*
X396578Y386506D01*
X396568Y386523D01*
X396489Y386590D01*
X396414Y386661D01*
X396396Y386670D01*
X396381Y386683D01*
X396285Y386721D01*
X396191Y386765D01*
X396171Y386767D01*
X396153Y386775D01*
X395986Y386793D01*
X390398Y386792D01*
X390378Y386789D01*
X390359Y386791D01*
X390257Y386769D01*
X390155Y386753D01*
X390138Y386743D01*
X390118Y386739D01*
X390029Y386686D01*
X389938Y386638D01*
X389924Y386623D01*
X389907Y386613D01*
X389840Y386534D01*
X389768Y386459D01*
X389760Y386441D01*
X389747Y386426D01*
X389708Y386330D01*
X389665Y386236D01*
X389663Y386216D01*
X389655Y386198D01*
X389637Y386031D01*
X389637Y376387D01*
X388245Y373026D01*
X385672Y370453D01*
X382311Y369061D01*
X378673Y369061D01*
X375312Y370453D01*
X372739Y373026D01*
X371347Y376387D01*
X371347Y381711D01*
X371336Y381782D01*
X371334Y381854D01*
X371316Y381903D01*
X371308Y381954D01*
X371274Y382017D01*
X371249Y382085D01*
X371217Y382125D01*
X371192Y382171D01*
X371141Y382221D01*
X371096Y382277D01*
X371052Y382305D01*
X371014Y382341D01*
X370949Y382371D01*
X370889Y382410D01*
X370838Y382422D01*
X370791Y382444D01*
X370720Y382452D01*
X370650Y382470D01*
X370598Y382466D01*
X370547Y382471D01*
X370476Y382456D01*
X370405Y382451D01*
X370357Y382430D01*
X370306Y382419D01*
X370245Y382382D01*
X370179Y382354D01*
X370123Y382310D01*
X370095Y382293D01*
X370080Y382275D01*
X370048Y382250D01*
X360650Y372852D01*
X360597Y372778D01*
X360537Y372708D01*
X360525Y372678D01*
X360506Y372652D01*
X360479Y372565D01*
X360445Y372480D01*
X360441Y372439D01*
X360434Y372417D01*
X360435Y372385D01*
X360427Y372313D01*
X360427Y357616D01*
X360430Y357599D01*
X360428Y357583D01*
X360428Y357581D01*
X360428Y357577D01*
X360450Y357475D01*
X360467Y357373D01*
X360476Y357356D01*
X360480Y357336D01*
X360533Y357247D01*
X360582Y357156D01*
X360596Y357142D01*
X360606Y357125D01*
X360685Y357058D01*
X360760Y356986D01*
X360778Y356978D01*
X360793Y356965D01*
X360889Y356926D01*
X360983Y356883D01*
X361003Y356881D01*
X361021Y356873D01*
X361188Y356855D01*
X418326Y356855D01*
X418416Y356869D01*
X418507Y356877D01*
X418537Y356889D01*
X418568Y356894D01*
X418649Y356937D01*
X418733Y356973D01*
X418765Y356999D01*
X418786Y357010D01*
X418791Y357015D01*
X418792Y357016D01*
X418809Y357034D01*
X418864Y357078D01*
X420966Y359180D01*
X425362Y359180D01*
X428448Y356094D01*
X428522Y356041D01*
X428591Y355981D01*
X428622Y355969D01*
X428648Y355950D01*
X428735Y355923D01*
X428820Y355889D01*
X428860Y355885D01*
X428883Y355878D01*
X428915Y355879D01*
X428986Y355871D01*
X502897Y355871D01*
X504906Y353862D01*
X533170Y325598D01*
X535179Y323589D01*
X535179Y301200D01*
X518361Y284383D01*
X517543Y283565D01*
X517490Y283491D01*
X517465Y283462D01*
X517452Y283448D01*
X517450Y283444D01*
X517430Y283421D01*
X517418Y283391D01*
X517399Y283365D01*
X517373Y283278D01*
X517372Y283276D01*
X515107Y281011D01*
X515054Y280937D01*
X514995Y280868D01*
X514982Y280838D01*
X514964Y280812D01*
X514937Y280725D01*
X514903Y280640D01*
X514898Y280599D01*
X514891Y280577D01*
X514892Y280544D01*
X514884Y280473D01*
X514884Y252436D01*
X510558Y248110D01*
X510505Y248036D01*
X510445Y247966D01*
X510433Y247936D01*
X510414Y247910D01*
X510388Y247823D01*
X510353Y247738D01*
X510349Y247697D01*
X510342Y247675D01*
X510343Y247643D01*
X510335Y247571D01*
X510335Y244334D01*
X507226Y241226D01*
X502830Y241226D01*
X499721Y244334D01*
X499721Y248731D01*
X502830Y251839D01*
X506067Y251839D01*
X506157Y251854D01*
X506248Y251861D01*
X506278Y251874D01*
X506310Y251879D01*
X506391Y251922D01*
X506475Y251957D01*
X506507Y251983D01*
X506527Y251994D01*
X506550Y252017D01*
X506606Y252062D01*
X509072Y254528D01*
X509125Y254602D01*
X509184Y254672D01*
X509196Y254702D01*
X509215Y254728D01*
X509242Y254815D01*
X509276Y254900D01*
X509281Y254941D01*
X509288Y254963D01*
X509287Y254995D01*
X509295Y255067D01*
X509295Y280321D01*
X509280Y280411D01*
X509273Y280502D01*
X509260Y280532D01*
X509255Y280564D01*
X509212Y280644D01*
X509176Y280728D01*
X509151Y280760D01*
X509140Y280781D01*
X509116Y280803D01*
X509072Y280859D01*
X506706Y283224D01*
X506706Y287621D01*
X509815Y290729D01*
X514211Y290729D01*
X514610Y290331D01*
X514626Y290319D01*
X514638Y290304D01*
X514726Y290248D01*
X514809Y290187D01*
X514828Y290182D01*
X514845Y290171D01*
X514946Y290145D01*
X515044Y290115D01*
X515064Y290116D01*
X515084Y290111D01*
X515187Y290119D01*
X515290Y290121D01*
X515309Y290128D01*
X515329Y290130D01*
X515424Y290170D01*
X515521Y290206D01*
X515537Y290218D01*
X515555Y290226D01*
X515686Y290331D01*
X528858Y303503D01*
X528911Y303577D01*
X528971Y303646D01*
X528983Y303677D01*
X529002Y303703D01*
X529029Y303790D01*
X529063Y303875D01*
X529067Y303916D01*
X529074Y303938D01*
X529073Y303970D01*
X529081Y304041D01*
X529081Y320748D01*
X529067Y320838D01*
X529059Y320929D01*
X529047Y320959D01*
X529042Y320991D01*
X528999Y321071D01*
X528963Y321155D01*
X528937Y321187D01*
X528926Y321208D01*
X528903Y321230D01*
X528858Y321286D01*
X500594Y349550D01*
X500520Y349603D01*
X500451Y349663D01*
X500421Y349675D01*
X500394Y349694D01*
X500307Y349721D01*
X500223Y349755D01*
X500182Y349759D01*
X500159Y349766D01*
X500127Y349765D01*
X500056Y349773D01*
X426885Y349773D01*
X426795Y349759D01*
X426704Y349751D01*
X426674Y349739D01*
X426642Y349734D01*
X426561Y349691D01*
X426477Y349655D01*
X426445Y349629D01*
X426425Y349618D01*
X426402Y349595D01*
X426346Y349550D01*
X425362Y348566D01*
X420966Y348566D01*
X418998Y350534D01*
X418924Y350587D01*
X418854Y350647D01*
X418824Y350659D01*
X418798Y350678D01*
X418711Y350705D01*
X418626Y350739D01*
X418585Y350743D01*
X418563Y350750D01*
X418531Y350749D01*
X418459Y350757D01*
X386524Y350757D01*
X386453Y350746D01*
X386382Y350744D01*
X386333Y350726D01*
X386281Y350718D01*
X386218Y350684D01*
X386151Y350659D01*
X386110Y350627D01*
X386064Y350602D01*
X386015Y350550D01*
X385959Y350506D01*
X385930Y350462D01*
X385894Y350424D01*
X385864Y350359D01*
X385826Y350299D01*
X385813Y350248D01*
X385791Y350201D01*
X385783Y350130D01*
X385765Y350060D01*
X385770Y350008D01*
X385764Y349957D01*
X385779Y349886D01*
X385785Y349815D01*
X385805Y349767D01*
X385816Y349716D01*
X385853Y349655D01*
X385881Y349589D01*
X385926Y349533D01*
X385942Y349505D01*
X385960Y349490D01*
X385986Y349458D01*
X388847Y346597D01*
X388847Y342200D01*
X385738Y339092D01*
X381342Y339092D01*
X380384Y340049D01*
X380368Y340061D01*
X380356Y340077D01*
X380268Y340133D01*
X380185Y340193D01*
X380166Y340199D01*
X380149Y340210D01*
X380048Y340235D01*
X379950Y340265D01*
X379930Y340265D01*
X379910Y340270D01*
X379807Y340262D01*
X379704Y340259D01*
X379685Y340252D01*
X379665Y340251D01*
X379570Y340210D01*
X379473Y340175D01*
X379457Y340162D01*
X379439Y340154D01*
X379308Y340049D01*
X371064Y331805D01*
X371011Y331731D01*
X370951Y331662D01*
X370939Y331632D01*
X370920Y331606D01*
X370893Y331519D01*
X370859Y331434D01*
X370855Y331393D01*
X370848Y331371D01*
X370849Y331338D01*
X370841Y331267D01*
X370841Y311458D01*
X370855Y311368D01*
X370863Y311277D01*
X370875Y311247D01*
X370880Y311215D01*
X370923Y311135D01*
X370959Y311051D01*
X370985Y311019D01*
X370996Y310998D01*
X371019Y310976D01*
X371064Y310920D01*
X371095Y310889D01*
X371095Y308363D01*
X360650Y297918D01*
X360597Y297844D01*
X360537Y297775D01*
X360525Y297745D01*
X360506Y297718D01*
X360479Y297631D01*
X360445Y297547D01*
X360441Y297506D01*
X360434Y297483D01*
X360435Y297451D01*
X360427Y297380D01*
X360427Y258372D01*
X360442Y258282D01*
X360449Y258191D01*
X360461Y258161D01*
X360467Y258129D01*
X360509Y258049D01*
X360545Y257965D01*
X360571Y257933D01*
X360582Y257912D01*
X360605Y257890D01*
X360650Y257834D01*
X361341Y257142D01*
X361341Y254617D01*
X361310Y254586D01*
X361257Y254512D01*
X361198Y254442D01*
X361185Y254412D01*
X361167Y254386D01*
X361140Y254299D01*
X361106Y254214D01*
X361101Y254173D01*
X361094Y254151D01*
X361095Y254119D01*
X361087Y254047D01*
X361087Y194307D01*
X361090Y194288D01*
X361088Y194268D01*
X361110Y194167D01*
X361127Y194065D01*
X361136Y194047D01*
X361140Y194028D01*
X361194Y193939D01*
X361242Y193847D01*
X361256Y193834D01*
X361267Y193816D01*
X361345Y193749D01*
X361420Y193678D01*
X361438Y193670D01*
X361454Y193657D01*
X361550Y193618D01*
X361643Y193574D01*
X361663Y193572D01*
X361682Y193565D01*
X361848Y193546D01*
X361862Y193546D01*
X364971Y190438D01*
X364971Y186041D01*
X364634Y185704D01*
X364592Y185646D01*
X364542Y185594D01*
X364521Y185547D01*
X364490Y185505D01*
X364469Y185436D01*
X364439Y185371D01*
X364433Y185319D01*
X364418Y185269D01*
X364420Y185198D01*
X364412Y185127D01*
X364423Y185076D01*
X364424Y185024D01*
X364449Y184956D01*
X364464Y184886D01*
X364491Y184841D01*
X364509Y184793D01*
X364553Y184737D01*
X364590Y184675D01*
X364630Y184641D01*
X364662Y184601D01*
X364722Y184562D01*
X364777Y184515D01*
X364826Y184496D01*
X364869Y184468D01*
X364939Y184450D01*
X365005Y184423D01*
X365077Y184415D01*
X365108Y184407D01*
X365131Y184409D01*
X365172Y184405D01*
X430984Y184405D01*
X431074Y184419D01*
X431165Y184427D01*
X431195Y184439D01*
X431227Y184444D01*
X431307Y184487D01*
X431391Y184523D01*
X431423Y184549D01*
X431444Y184560D01*
X431466Y184583D01*
X431522Y184628D01*
X454182Y207288D01*
X454235Y207362D01*
X454295Y207431D01*
X454307Y207461D01*
X454326Y207488D01*
X454353Y207575D01*
X454387Y207659D01*
X454391Y207700D01*
X454398Y207723D01*
X454397Y207755D01*
X454405Y207826D01*
X454405Y248670D01*
X454391Y248760D01*
X454383Y248851D01*
X454371Y248881D01*
X454366Y248912D01*
X454323Y248993D01*
X454287Y249077D01*
X454261Y249109D01*
X454250Y249130D01*
X454227Y249152D01*
X454182Y249208D01*
X454154Y249236D01*
X454154Y253633D01*
X455919Y255398D01*
X455931Y255414D01*
X455947Y255427D01*
X456003Y255514D01*
X456063Y255598D01*
X456069Y255617D01*
X456080Y255634D01*
X456105Y255734D01*
X456135Y255833D01*
X456135Y255853D01*
X456140Y255872D01*
X456132Y255975D01*
X456129Y256079D01*
X456122Y256098D01*
X456120Y256117D01*
X456080Y256212D01*
X456044Y256310D01*
X456032Y256326D01*
X456024Y256344D01*
X455919Y256475D01*
X454004Y258390D01*
X454004Y262786D01*
X457113Y265895D01*
X459334Y265895D01*
X459424Y265910D01*
X459515Y265917D01*
X459545Y265929D01*
X459577Y265935D01*
X459657Y265977D01*
X459741Y266013D01*
X459773Y266039D01*
X459794Y266050D01*
X459816Y266073D01*
X459872Y266118D01*
X461322Y267568D01*
X461375Y267642D01*
X461435Y267711D01*
X461447Y267742D01*
X461466Y267768D01*
X461493Y267855D01*
X461527Y267940D01*
X461531Y267981D01*
X461538Y268003D01*
X461537Y268035D01*
X461545Y268106D01*
X461545Y288206D01*
X472044Y298705D01*
X506781Y298705D01*
X506871Y298719D01*
X506962Y298727D01*
X506992Y298739D01*
X507024Y298744D01*
X507104Y298787D01*
X507188Y298823D01*
X507220Y298849D01*
X507241Y298860D01*
X507263Y298883D01*
X507319Y298928D01*
X510062Y301671D01*
X510115Y301745D01*
X510175Y301814D01*
X510187Y301844D01*
X510206Y301870D01*
X510233Y301957D01*
X510267Y302042D01*
X510271Y302083D01*
X510278Y302105D01*
X510277Y302138D01*
X510285Y302209D01*
X510285Y303530D01*
X510282Y303550D01*
X510284Y303569D01*
X510262Y303671D01*
X510246Y303773D01*
X510236Y303790D01*
X510232Y303810D01*
X510179Y303899D01*
X510130Y303990D01*
X510116Y304004D01*
X510106Y304021D01*
X510027Y304088D01*
X509952Y304160D01*
X509934Y304168D01*
X509919Y304181D01*
X509823Y304220D01*
X509729Y304263D01*
X509709Y304265D01*
X509691Y304273D01*
X509524Y304291D01*
X509292Y304291D01*
X503935Y309648D01*
X503935Y317224D01*
X509292Y322581D01*
X516868Y322581D01*
X522225Y317224D01*
X522225Y309648D01*
X516868Y304291D01*
X516636Y304291D01*
X516616Y304288D01*
X516597Y304290D01*
X516495Y304268D01*
X516393Y304252D01*
X516376Y304242D01*
X516356Y304238D01*
X516267Y304185D01*
X516176Y304136D01*
X516162Y304122D01*
X516145Y304112D01*
X516078Y304033D01*
X516006Y303958D01*
X515998Y303940D01*
X515985Y303925D01*
X515946Y303829D01*
X515903Y303735D01*
X515901Y303715D01*
X515893Y303697D01*
X515875Y303530D01*
X515875Y299578D01*
X509412Y293115D01*
X474675Y293115D01*
X474585Y293101D01*
X474494Y293093D01*
X474464Y293081D01*
X474432Y293076D01*
X474352Y293033D01*
X474268Y292997D01*
X474236Y292971D01*
X474215Y292960D01*
X474193Y292937D01*
X474137Y292892D01*
X467358Y286113D01*
X467305Y286039D01*
X467245Y285970D01*
X467233Y285940D01*
X467214Y285914D01*
X467187Y285827D01*
X467153Y285742D01*
X467149Y285701D01*
X467142Y285679D01*
X467143Y285646D01*
X467135Y285575D01*
X467135Y265476D01*
X464840Y263182D01*
X464787Y263108D01*
X464728Y263038D01*
X464716Y263008D01*
X464697Y262982D01*
X464670Y262895D01*
X464636Y262810D01*
X464631Y262769D01*
X464625Y262747D01*
X464625Y262715D01*
X464618Y262643D01*
X464618Y258390D01*
X462852Y256625D01*
X462840Y256608D01*
X462825Y256596D01*
X462769Y256509D01*
X462708Y256425D01*
X462703Y256406D01*
X462692Y256389D01*
X462667Y256288D01*
X462636Y256190D01*
X462637Y256170D01*
X462632Y256150D01*
X462640Y256048D01*
X462642Y255944D01*
X462649Y255925D01*
X462651Y255905D01*
X462691Y255810D01*
X462727Y255713D01*
X462739Y255697D01*
X462747Y255679D01*
X462852Y255548D01*
X464767Y253633D01*
X464767Y249236D01*
X461659Y246128D01*
X461264Y246128D01*
X461244Y246125D01*
X461225Y246127D01*
X461123Y246105D01*
X461021Y246088D01*
X461004Y246079D01*
X460984Y246075D01*
X460895Y246021D01*
X460804Y245973D01*
X460790Y245959D01*
X460773Y245948D01*
X460706Y245870D01*
X460634Y245795D01*
X460626Y245777D01*
X460613Y245761D01*
X460574Y245665D01*
X460531Y245572D01*
X460529Y245552D01*
X460521Y245533D01*
X460503Y245367D01*
X460503Y207826D01*
X460514Y207755D01*
X460516Y207684D01*
X460534Y207635D01*
X460542Y207583D01*
X460576Y207520D01*
X460601Y207453D01*
X460633Y207412D01*
X460658Y207366D01*
X460710Y207317D01*
X460754Y207261D01*
X460798Y207232D01*
X460836Y207197D01*
X460901Y207166D01*
X460961Y207128D01*
X461012Y207115D01*
X461059Y207093D01*
X461130Y207085D01*
X461200Y207068D01*
X461252Y207072D01*
X461303Y207066D01*
X461374Y207081D01*
X461445Y207087D01*
X461493Y207107D01*
X461544Y207118D01*
X461605Y207155D01*
X461671Y207183D01*
X461727Y207228D01*
X461755Y207244D01*
X461770Y207262D01*
X461802Y207288D01*
X468736Y214222D01*
X468790Y214296D01*
X468849Y214365D01*
X468861Y214396D01*
X468880Y214422D01*
X468907Y214509D01*
X468941Y214594D01*
X468946Y214635D01*
X468952Y214657D01*
X468952Y214689D01*
X468959Y214760D01*
X468959Y242675D01*
X468956Y242694D01*
X468958Y242713D01*
X468943Y242782D01*
X468938Y242856D01*
X468925Y242886D01*
X468920Y242918D01*
X468910Y242937D01*
X468906Y242953D01*
X468872Y243010D01*
X468841Y243083D01*
X468816Y243115D01*
X468805Y243135D01*
X468787Y243152D01*
X468780Y243164D01*
X468767Y243175D01*
X468736Y243214D01*
X466701Y245249D01*
X466701Y249645D01*
X469810Y252754D01*
X474206Y252754D01*
X477315Y249645D01*
X477315Y245249D01*
X475280Y243214D01*
X475232Y243147D01*
X475189Y243101D01*
X475182Y243088D01*
X475167Y243070D01*
X475155Y243040D01*
X475136Y243014D01*
X475113Y242939D01*
X475085Y242878D01*
X475083Y242861D01*
X475075Y242842D01*
X475071Y242801D01*
X475064Y242779D01*
X475065Y242747D01*
X475057Y242675D01*
X475057Y211919D01*
X436111Y172973D01*
X389327Y172973D01*
X389257Y172962D01*
X389185Y172960D01*
X389136Y172942D01*
X389085Y172934D01*
X389021Y172900D01*
X388954Y172875D01*
X388913Y172843D01*
X388867Y172818D01*
X388818Y172766D01*
X388762Y172722D01*
X388734Y172678D01*
X388698Y172640D01*
X388668Y172575D01*
X388629Y172515D01*
X388616Y172464D01*
X388594Y172417D01*
X388586Y172346D01*
X388569Y172276D01*
X388573Y172224D01*
X388567Y172173D01*
X388582Y172102D01*
X388588Y172031D01*
X388608Y171983D01*
X388619Y171932D01*
X388656Y171871D01*
X388684Y171805D01*
X388729Y171749D01*
X388746Y171721D01*
X388763Y171706D01*
X388789Y171674D01*
X389355Y171108D01*
X389355Y166712D01*
X386246Y163603D01*
X383622Y163603D01*
X383532Y163589D01*
X383441Y163581D01*
X383411Y163569D01*
X383379Y163564D01*
X383299Y163521D01*
X383215Y163485D01*
X383183Y163459D01*
X383162Y163448D01*
X383140Y163425D01*
X383084Y163380D01*
X367546Y147842D01*
X367534Y147826D01*
X367518Y147813D01*
X367462Y147726D01*
X367402Y147642D01*
X367396Y147623D01*
X367385Y147606D01*
X367360Y147506D01*
X367330Y147407D01*
X367330Y147387D01*
X367325Y147368D01*
X367333Y147265D01*
X367336Y147161D01*
X367343Y147143D01*
X367344Y147123D01*
X367385Y147028D01*
X367421Y146930D01*
X367433Y146915D01*
X367441Y146896D01*
X367546Y146765D01*
X368930Y145381D01*
X368946Y145369D01*
X368959Y145354D01*
X369046Y145298D01*
X369130Y145237D01*
X369149Y145232D01*
X369166Y145221D01*
X369266Y145195D01*
X369365Y145165D01*
X369385Y145166D01*
X369404Y145161D01*
X369507Y145169D01*
X369611Y145171D01*
X369630Y145178D01*
X369649Y145180D01*
X369744Y145220D01*
X369842Y145256D01*
X369858Y145268D01*
X369876Y145276D01*
X370007Y145381D01*
X370496Y145870D01*
X373403Y145870D01*
X373493Y145885D01*
X373584Y145892D01*
X373614Y145905D01*
X373646Y145910D01*
X373726Y145953D01*
X373810Y145988D01*
X373842Y146014D01*
X373863Y146025D01*
X373885Y146049D01*
X373941Y146093D01*
X385278Y157430D01*
X422558Y157430D01*
X422629Y157441D01*
X422701Y157443D01*
X422750Y157461D01*
X422801Y157470D01*
X422864Y157503D01*
X422932Y157528D01*
X422972Y157560D01*
X423018Y157585D01*
X423068Y157637D01*
X423124Y157682D01*
X423152Y157725D01*
X423188Y157763D01*
X423218Y157828D01*
X423257Y157888D01*
X423269Y157939D01*
X423291Y157986D01*
X423299Y158057D01*
X423317Y158127D01*
X423313Y158179D01*
X423318Y158231D01*
X423303Y158301D01*
X423298Y158372D01*
X423277Y158420D01*
X423266Y158471D01*
X423229Y158533D01*
X423201Y158599D01*
X423156Y158655D01*
X423140Y158682D01*
X423122Y158697D01*
X423097Y158729D01*
X422709Y159117D01*
X422709Y163514D01*
X425817Y166622D01*
X430214Y166622D01*
X433322Y163514D01*
X433322Y159117D01*
X431033Y156828D01*
X430980Y156754D01*
X430921Y156685D01*
X430908Y156655D01*
X430890Y156628D01*
X430863Y156542D01*
X430829Y156457D01*
X430824Y156416D01*
X430817Y156393D01*
X430818Y156361D01*
X430810Y156290D01*
X430810Y153478D01*
X429173Y151840D01*
X387909Y151840D01*
X387818Y151826D01*
X387728Y151819D01*
X387698Y151806D01*
X387666Y151801D01*
X387585Y151758D01*
X387501Y151722D01*
X387469Y151697D01*
X387448Y151686D01*
X387426Y151662D01*
X387370Y151617D01*
X378224Y142471D01*
X378171Y142397D01*
X378111Y142328D01*
X378099Y142298D01*
X378080Y142271D01*
X378054Y142184D01*
X378019Y142100D01*
X378015Y142059D01*
X378008Y142036D01*
X378009Y142004D01*
X378001Y141933D01*
X378001Y138365D01*
X374892Y135257D01*
X370496Y135257D01*
X367289Y138464D01*
X367273Y138476D01*
X367260Y138491D01*
X367173Y138547D01*
X367089Y138608D01*
X367070Y138613D01*
X367053Y138624D01*
X366953Y138650D01*
X366854Y138680D01*
X366834Y138679D01*
X366815Y138684D01*
X366712Y138676D01*
X366608Y138674D01*
X366589Y138667D01*
X366570Y138665D01*
X366475Y138625D01*
X366377Y138589D01*
X366362Y138577D01*
X366343Y138569D01*
X366212Y138464D01*
X365723Y137975D01*
X361327Y137975D01*
X358218Y141083D01*
X358218Y145480D01*
X360253Y147515D01*
X360306Y147589D01*
X360366Y147658D01*
X360378Y147688D01*
X360397Y147714D01*
X360423Y147801D01*
X360458Y147886D01*
X360462Y147927D01*
X360469Y147949D01*
X360468Y147982D01*
X360476Y148053D01*
X360476Y149396D01*
X378518Y167438D01*
X378571Y167512D01*
X378631Y167581D01*
X378643Y167611D01*
X378662Y167638D01*
X378689Y167725D01*
X378723Y167809D01*
X378727Y167850D01*
X378734Y167873D01*
X378733Y167905D01*
X378741Y167976D01*
X378741Y171108D01*
X379307Y171674D01*
X379349Y171732D01*
X379398Y171784D01*
X379420Y171831D01*
X379450Y171873D01*
X379472Y171942D01*
X379502Y172007D01*
X379507Y172059D01*
X379523Y172109D01*
X379521Y172180D01*
X379529Y172251D01*
X379518Y172302D01*
X379516Y172354D01*
X379492Y172422D01*
X379477Y172492D01*
X379450Y172537D01*
X379432Y172585D01*
X379387Y172641D01*
X379350Y172703D01*
X379311Y172737D01*
X379278Y172777D01*
X379218Y172816D01*
X379163Y172863D01*
X379115Y172882D01*
X379071Y172910D01*
X379002Y172928D01*
X378935Y172955D01*
X378864Y172963D01*
X378833Y172971D01*
X378810Y172969D01*
X378769Y172973D01*
X362022Y172973D01*
X361952Y172962D01*
X361880Y172960D01*
X361831Y172942D01*
X361780Y172934D01*
X361716Y172900D01*
X361649Y172875D01*
X361608Y172843D01*
X361562Y172818D01*
X361513Y172767D01*
X361457Y172722D01*
X361429Y172678D01*
X361393Y172640D01*
X361363Y172575D01*
X361324Y172515D01*
X361311Y172464D01*
X361289Y172417D01*
X361281Y172346D01*
X361264Y172276D01*
X361268Y172224D01*
X361262Y172173D01*
X361277Y172102D01*
X361283Y172031D01*
X361303Y171983D01*
X361314Y171932D01*
X361351Y171871D01*
X361379Y171805D01*
X361424Y171749D01*
X361441Y171721D01*
X361458Y171706D01*
X361484Y171674D01*
X361923Y171235D01*
X361923Y166839D01*
X358814Y163730D01*
X354418Y163730D01*
X351799Y166350D01*
X351725Y166403D01*
X351655Y166462D01*
X351625Y166474D01*
X351599Y166493D01*
X351512Y166520D01*
X351427Y166554D01*
X351386Y166559D01*
X351364Y166565D01*
X351332Y166565D01*
X351260Y166572D01*
X332689Y166572D01*
X332599Y166558D01*
X332508Y166551D01*
X332478Y166538D01*
X332446Y166533D01*
X332366Y166490D01*
X332282Y166454D01*
X332250Y166429D01*
X332229Y166418D01*
X332207Y166395D01*
X332205Y166394D01*
X332202Y166390D01*
X332151Y166350D01*
X322773Y156971D01*
X304607Y156971D01*
X295229Y166350D01*
X295155Y166403D01*
X295086Y166462D01*
X295055Y166474D01*
X295029Y166493D01*
X294942Y166520D01*
X294857Y166554D01*
X294817Y166559D01*
X294794Y166565D01*
X294762Y166565D01*
X294691Y166572D01*
X276809Y166572D01*
X276719Y166558D01*
X276628Y166551D01*
X276598Y166538D01*
X276566Y166533D01*
X276486Y166490D01*
X276402Y166454D01*
X276370Y166429D01*
X276349Y166418D01*
X276327Y166395D01*
X276325Y166394D01*
X276322Y166390D01*
X276271Y166350D01*
X253970Y144048D01*
X253917Y143974D01*
X253857Y143905D01*
X253845Y143875D01*
X253826Y143849D01*
X253799Y143762D01*
X253765Y143677D01*
X253761Y143636D01*
X253754Y143613D01*
X253755Y143581D01*
X253747Y143510D01*
X253747Y115545D01*
X253750Y115525D01*
X253748Y115505D01*
X253770Y115404D01*
X253787Y115302D01*
X253796Y115284D01*
X253800Y115265D01*
X253853Y115176D01*
X253902Y115084D01*
X253916Y115071D01*
X253926Y115054D01*
X254005Y114986D01*
X254080Y114915D01*
X254098Y114907D01*
X254113Y114894D01*
X254209Y114855D01*
X254303Y114811D01*
X254323Y114809D01*
X254341Y114802D01*
X254508Y114783D01*
X370586Y114783D01*
X370606Y114787D01*
G37*
G36*
X355620Y179074D02*
X355620Y179074D01*
X355639Y179072D01*
X355741Y179094D01*
X355843Y179110D01*
X355860Y179120D01*
X355880Y179124D01*
X355969Y179177D01*
X356060Y179226D01*
X356074Y179240D01*
X356091Y179250D01*
X356158Y179329D01*
X356230Y179404D01*
X356238Y179422D01*
X356251Y179437D01*
X356290Y179533D01*
X356333Y179627D01*
X356335Y179647D01*
X356343Y179665D01*
X356361Y179832D01*
X356361Y183722D01*
X356347Y183812D01*
X356339Y183903D01*
X356327Y183933D01*
X356322Y183965D01*
X356279Y184045D01*
X356243Y184129D01*
X356217Y184161D01*
X356206Y184182D01*
X356183Y184204D01*
X356138Y184260D01*
X354357Y186041D01*
X354357Y190438D01*
X355275Y191355D01*
X355328Y191429D01*
X355387Y191498D01*
X355399Y191529D01*
X355418Y191555D01*
X355445Y191642D01*
X355479Y191727D01*
X355484Y191767D01*
X355491Y191790D01*
X355490Y191822D01*
X355498Y191893D01*
X355498Y246641D01*
X355486Y246712D01*
X355484Y246784D01*
X355466Y246833D01*
X355458Y246884D01*
X355424Y246947D01*
X355400Y247015D01*
X355367Y247055D01*
X355343Y247101D01*
X355291Y247151D01*
X355246Y247207D01*
X355202Y247235D01*
X355164Y247271D01*
X355100Y247301D01*
X355039Y247340D01*
X354989Y247352D01*
X354941Y247374D01*
X354870Y247382D01*
X354801Y247400D01*
X354749Y247396D01*
X354697Y247401D01*
X354627Y247386D01*
X354555Y247381D01*
X354508Y247360D01*
X354457Y247349D01*
X354395Y247312D01*
X354329Y247284D01*
X354273Y247239D01*
X354245Y247223D01*
X354230Y247205D01*
X354198Y247179D01*
X351794Y244775D01*
X348536Y244775D01*
X348517Y244772D01*
X348497Y244774D01*
X348395Y244752D01*
X348293Y244735D01*
X348276Y244726D01*
X348256Y244722D01*
X348167Y244668D01*
X348076Y244620D01*
X348062Y244606D01*
X348045Y244595D01*
X347978Y244517D01*
X347907Y244442D01*
X347898Y244424D01*
X347885Y244408D01*
X347847Y244312D01*
X347803Y244219D01*
X347801Y244199D01*
X347793Y244180D01*
X347775Y244014D01*
X347775Y242085D01*
X344666Y238977D01*
X343497Y238977D01*
X343477Y238974D01*
X343458Y238976D01*
X343356Y238954D01*
X343254Y238937D01*
X343237Y238928D01*
X343217Y238924D01*
X343128Y238870D01*
X343037Y238822D01*
X343023Y238808D01*
X343006Y238797D01*
X342939Y238719D01*
X342868Y238644D01*
X342859Y238626D01*
X342846Y238611D01*
X342807Y238514D01*
X342764Y238421D01*
X342762Y238401D01*
X342754Y238382D01*
X342736Y238216D01*
X342736Y234469D01*
X339627Y231361D01*
X339087Y231361D01*
X339068Y231357D01*
X339048Y231360D01*
X338947Y231338D01*
X338845Y231321D01*
X338827Y231312D01*
X338808Y231307D01*
X338719Y231254D01*
X338627Y231206D01*
X338614Y231191D01*
X338596Y231181D01*
X338529Y231102D01*
X338458Y231027D01*
X338449Y231009D01*
X338437Y230994D01*
X338398Y230898D01*
X338354Y230804D01*
X338352Y230785D01*
X338345Y230766D01*
X338326Y230599D01*
X338326Y229326D01*
X338329Y229306D01*
X338327Y229286D01*
X338349Y229185D01*
X338366Y229083D01*
X338375Y229065D01*
X338379Y229046D01*
X338433Y228957D01*
X338481Y228865D01*
X338495Y228852D01*
X338506Y228835D01*
X338584Y228767D01*
X338659Y228696D01*
X338677Y228688D01*
X338692Y228675D01*
X338789Y228636D01*
X338882Y228592D01*
X338902Y228590D01*
X338921Y228583D01*
X339087Y228564D01*
X343596Y228564D01*
X346705Y225456D01*
X346705Y221059D01*
X343596Y217951D01*
X339200Y217951D01*
X337140Y220010D01*
X337066Y220063D01*
X336997Y220123D01*
X336967Y220135D01*
X336941Y220154D01*
X336854Y220181D01*
X336769Y220215D01*
X336728Y220219D01*
X336705Y220226D01*
X336673Y220225D01*
X336602Y220233D01*
X313235Y220233D01*
X244957Y288511D01*
X244957Y327312D01*
X244942Y327402D01*
X244935Y327493D01*
X244922Y327523D01*
X244917Y327555D01*
X244874Y327635D01*
X244839Y327719D01*
X244813Y327751D01*
X244802Y327772D01*
X244779Y327794D01*
X244734Y327850D01*
X202653Y369931D01*
X202569Y369991D01*
X202519Y370034D01*
X202502Y370041D01*
X202465Y370069D01*
X202458Y370071D01*
X202453Y370074D01*
X202343Y370109D01*
X202299Y370123D01*
X202291Y370126D01*
X202288Y370126D01*
X202231Y370145D01*
X202224Y370145D01*
X202218Y370147D01*
X202125Y370144D01*
X202124Y370144D01*
X202092Y370144D01*
X202087Y370144D01*
X201985Y370143D01*
X201977Y370141D01*
X201973Y370140D01*
X201955Y370134D01*
X201860Y370106D01*
X201850Y370105D01*
X201844Y370102D01*
X201824Y370096D01*
X199939Y369315D01*
X196301Y369315D01*
X192940Y370707D01*
X190367Y373280D01*
X188975Y376641D01*
X188975Y384681D01*
X188972Y384701D01*
X188974Y384720D01*
X188952Y384822D01*
X188936Y384924D01*
X188926Y384941D01*
X188922Y384961D01*
X188869Y385050D01*
X188820Y385141D01*
X188806Y385155D01*
X188796Y385172D01*
X188717Y385239D01*
X188642Y385311D01*
X188624Y385319D01*
X188609Y385332D01*
X188513Y385371D01*
X188419Y385414D01*
X188399Y385416D01*
X188381Y385424D01*
X188214Y385442D01*
X172136Y385445D01*
X172116Y385441D01*
X172096Y385444D01*
X171995Y385422D01*
X171893Y385405D01*
X171875Y385396D01*
X171856Y385391D01*
X171767Y385338D01*
X171676Y385290D01*
X171662Y385275D01*
X171645Y385265D01*
X171578Y385187D01*
X171506Y385112D01*
X171498Y385093D01*
X171485Y385078D01*
X171446Y384982D01*
X171403Y384889D01*
X171401Y384869D01*
X171393Y384850D01*
X171375Y384683D01*
X171375Y373563D01*
X171385Y373498D01*
X171386Y373433D01*
X171409Y373353D01*
X171414Y373320D01*
X171423Y373303D01*
X171433Y373272D01*
X171469Y373185D01*
X171469Y369206D01*
X171433Y369119D01*
X171418Y369056D01*
X171393Y368995D01*
X171384Y368912D01*
X171376Y368880D01*
X171378Y368861D01*
X171375Y368828D01*
X171375Y361619D01*
X164633Y361619D01*
X164568Y361608D01*
X164502Y361608D01*
X164422Y361585D01*
X164390Y361579D01*
X164373Y361570D01*
X164341Y361561D01*
X163457Y361195D01*
X159478Y361195D01*
X158594Y361561D01*
X158531Y361576D01*
X158470Y361601D01*
X158387Y361610D01*
X158355Y361617D01*
X158336Y361615D01*
X158303Y361619D01*
X147943Y361619D01*
X147873Y361608D01*
X147801Y361606D01*
X147752Y361588D01*
X147701Y361579D01*
X147637Y361546D01*
X147570Y361521D01*
X147529Y361489D01*
X147483Y361464D01*
X147434Y361412D01*
X147378Y361367D01*
X147350Y361324D01*
X147314Y361286D01*
X147284Y361221D01*
X147245Y361161D01*
X147232Y361110D01*
X147210Y361063D01*
X147202Y360992D01*
X147185Y360922D01*
X147189Y360870D01*
X147183Y360818D01*
X147198Y360748D01*
X147204Y360677D01*
X147224Y360629D01*
X147235Y360578D01*
X147272Y360516D01*
X147300Y360451D01*
X147345Y360395D01*
X147362Y360367D01*
X147379Y360352D01*
X147405Y360320D01*
X149993Y357732D01*
X151385Y354371D01*
X151385Y350733D01*
X149993Y347372D01*
X147420Y344799D01*
X144059Y343407D01*
X134620Y343407D01*
X134600Y343404D01*
X134581Y343406D01*
X134479Y343384D01*
X134377Y343368D01*
X134360Y343358D01*
X134340Y343354D01*
X134251Y343301D01*
X134160Y343252D01*
X134146Y343238D01*
X134129Y343228D01*
X134062Y343149D01*
X133991Y343074D01*
X133982Y343056D01*
X133969Y343041D01*
X133930Y342945D01*
X133887Y342851D01*
X133885Y342831D01*
X133877Y342813D01*
X133859Y342646D01*
X133859Y337058D01*
X133862Y337038D01*
X133860Y337019D01*
X133882Y336917D01*
X133899Y336815D01*
X133908Y336798D01*
X133912Y336778D01*
X133965Y336689D01*
X134014Y336598D01*
X134028Y336584D01*
X134038Y336567D01*
X134117Y336500D01*
X134192Y336428D01*
X134210Y336420D01*
X134225Y336407D01*
X134321Y336368D01*
X134415Y336325D01*
X134435Y336323D01*
X134453Y336315D01*
X134620Y336297D01*
X144059Y336297D01*
X147420Y334905D01*
X149993Y332332D01*
X151385Y328971D01*
X151385Y325333D01*
X149993Y321972D01*
X147420Y319399D01*
X144059Y318007D01*
X134620Y318007D01*
X134600Y318004D01*
X134581Y318006D01*
X134479Y317984D01*
X134377Y317968D01*
X134360Y317958D01*
X134340Y317954D01*
X134251Y317901D01*
X134160Y317852D01*
X134146Y317838D01*
X134129Y317828D01*
X134062Y317749D01*
X133991Y317674D01*
X133982Y317656D01*
X133969Y317641D01*
X133930Y317545D01*
X133887Y317451D01*
X133885Y317431D01*
X133877Y317413D01*
X133859Y317246D01*
X133859Y311658D01*
X133862Y311638D01*
X133860Y311619D01*
X133882Y311517D01*
X133899Y311415D01*
X133908Y311398D01*
X133912Y311378D01*
X133965Y311289D01*
X134014Y311198D01*
X134028Y311184D01*
X134038Y311167D01*
X134117Y311100D01*
X134192Y311028D01*
X134210Y311020D01*
X134225Y311007D01*
X134321Y310968D01*
X134415Y310925D01*
X134435Y310923D01*
X134453Y310915D01*
X134620Y310897D01*
X144059Y310897D01*
X147420Y309505D01*
X149993Y306932D01*
X151385Y303571D01*
X151385Y299933D01*
X149993Y296572D01*
X147420Y293999D01*
X144059Y292607D01*
X134620Y292607D01*
X134600Y292604D01*
X134581Y292606D01*
X134479Y292584D01*
X134377Y292568D01*
X134360Y292558D01*
X134340Y292554D01*
X134251Y292501D01*
X134160Y292452D01*
X134146Y292438D01*
X134129Y292428D01*
X134062Y292349D01*
X133991Y292274D01*
X133982Y292256D01*
X133969Y292241D01*
X133930Y292145D01*
X133887Y292051D01*
X133885Y292031D01*
X133877Y292013D01*
X133859Y291846D01*
X133859Y286258D01*
X133862Y286238D01*
X133860Y286219D01*
X133882Y286117D01*
X133899Y286015D01*
X133908Y285998D01*
X133912Y285978D01*
X133965Y285889D01*
X134014Y285798D01*
X134028Y285784D01*
X134038Y285767D01*
X134117Y285700D01*
X134192Y285628D01*
X134210Y285620D01*
X134225Y285607D01*
X134321Y285568D01*
X134415Y285525D01*
X134435Y285523D01*
X134453Y285515D01*
X134620Y285497D01*
X144059Y285497D01*
X147420Y284105D01*
X149993Y281532D01*
X151385Y278171D01*
X151385Y274533D01*
X149993Y271172D01*
X147420Y268599D01*
X144059Y267207D01*
X134620Y267207D01*
X134600Y267204D01*
X134581Y267206D01*
X134479Y267184D01*
X134377Y267168D01*
X134360Y267158D01*
X134340Y267154D01*
X134251Y267101D01*
X134160Y267052D01*
X134146Y267038D01*
X134129Y267028D01*
X134062Y266949D01*
X133991Y266874D01*
X133982Y266856D01*
X133969Y266841D01*
X133930Y266745D01*
X133887Y266651D01*
X133885Y266631D01*
X133877Y266613D01*
X133859Y266446D01*
X133859Y251714D01*
X133862Y251694D01*
X133860Y251675D01*
X133882Y251573D01*
X133899Y251471D01*
X133908Y251454D01*
X133912Y251434D01*
X133965Y251345D01*
X134014Y251254D01*
X134028Y251240D01*
X134038Y251223D01*
X134117Y251156D01*
X134192Y251085D01*
X134210Y251076D01*
X134225Y251063D01*
X134321Y251025D01*
X134415Y250981D01*
X134435Y250979D01*
X134453Y250971D01*
X134620Y250953D01*
X134621Y250953D01*
X134621Y250951D01*
X134620Y250951D01*
X134600Y250948D01*
X134581Y250950D01*
X134479Y250928D01*
X134377Y250911D01*
X134360Y250902D01*
X134340Y250898D01*
X134251Y250845D01*
X134160Y250796D01*
X134146Y250782D01*
X134129Y250772D01*
X134062Y250693D01*
X133991Y250618D01*
X133982Y250600D01*
X133969Y250585D01*
X133930Y250489D01*
X133887Y250395D01*
X133885Y250375D01*
X133877Y250357D01*
X133859Y250190D01*
X133859Y235458D01*
X133862Y235438D01*
X133860Y235419D01*
X133882Y235317D01*
X133899Y235215D01*
X133908Y235198D01*
X133912Y235178D01*
X133965Y235089D01*
X134014Y234998D01*
X134028Y234984D01*
X134038Y234967D01*
X134117Y234900D01*
X134192Y234828D01*
X134210Y234820D01*
X134225Y234807D01*
X134321Y234768D01*
X134415Y234725D01*
X134435Y234723D01*
X134453Y234715D01*
X134620Y234697D01*
X144059Y234697D01*
X147420Y233305D01*
X149993Y230732D01*
X150681Y229071D01*
X150742Y228971D01*
X150802Y228871D01*
X150807Y228867D01*
X150810Y228862D01*
X150900Y228787D01*
X150989Y228711D01*
X150995Y228709D01*
X151000Y228705D01*
X151108Y228663D01*
X151217Y228619D01*
X151225Y228618D01*
X151229Y228617D01*
X151248Y228616D01*
X151384Y228601D01*
X161490Y228601D01*
X161580Y228615D01*
X161671Y228623D01*
X161701Y228635D01*
X161733Y228640D01*
X161813Y228683D01*
X161897Y228719D01*
X161929Y228745D01*
X161950Y228756D01*
X161972Y228779D01*
X162028Y228824D01*
X171457Y238253D01*
X210813Y238253D01*
X247448Y201618D01*
X247522Y201565D01*
X247591Y201505D01*
X247621Y201493D01*
X247648Y201474D01*
X247735Y201447D01*
X247819Y201413D01*
X247860Y201409D01*
X247883Y201402D01*
X247915Y201403D01*
X247986Y201395D01*
X250864Y201395D01*
X252899Y199360D01*
X252973Y199307D01*
X253043Y199247D01*
X253073Y199235D01*
X253099Y199216D01*
X253186Y199189D01*
X253271Y199155D01*
X253312Y199151D01*
X253334Y199144D01*
X253366Y199145D01*
X253437Y199137D01*
X268678Y199137D01*
X268768Y199151D01*
X268859Y199159D01*
X268889Y199171D01*
X268921Y199176D01*
X269001Y199219D01*
X269085Y199255D01*
X269117Y199281D01*
X269138Y199292D01*
X269160Y199315D01*
X269216Y199360D01*
X280192Y210336D01*
X282201Y212345D01*
X327715Y212345D01*
X327805Y212359D01*
X327896Y212367D01*
X327925Y212379D01*
X327957Y212384D01*
X328038Y212427D01*
X328122Y212463D01*
X328154Y212489D01*
X328175Y212500D01*
X328197Y212523D01*
X328253Y212568D01*
X330542Y214857D01*
X334938Y214857D01*
X338047Y211748D01*
X338047Y207352D01*
X334938Y204243D01*
X330542Y204243D01*
X328761Y206024D01*
X328687Y206077D01*
X328617Y206137D01*
X328587Y206149D01*
X328561Y206168D01*
X328474Y206195D01*
X328389Y206229D01*
X328348Y206233D01*
X328326Y206240D01*
X328294Y206239D01*
X328223Y206247D01*
X285042Y206247D01*
X284952Y206233D01*
X284861Y206225D01*
X284831Y206213D01*
X284799Y206208D01*
X284719Y206165D01*
X284635Y206129D01*
X284603Y206103D01*
X284582Y206092D01*
X284560Y206069D01*
X284504Y206024D01*
X278916Y200436D01*
X278874Y200378D01*
X278825Y200326D01*
X278803Y200279D01*
X278772Y200237D01*
X278751Y200168D01*
X278721Y200103D01*
X278715Y200051D01*
X278700Y200001D01*
X278702Y199930D01*
X278694Y199859D01*
X278705Y199808D01*
X278706Y199756D01*
X278731Y199688D01*
X278746Y199618D01*
X278773Y199573D01*
X278791Y199525D01*
X278836Y199469D01*
X278872Y199407D01*
X278912Y199373D01*
X278944Y199333D01*
X279005Y199294D01*
X279059Y199247D01*
X279108Y199228D01*
X279151Y199200D01*
X279221Y199182D01*
X279287Y199155D01*
X279359Y199147D01*
X279390Y199139D01*
X279413Y199141D01*
X279454Y199137D01*
X299967Y199137D01*
X319810Y179294D01*
X319884Y179241D01*
X319953Y179181D01*
X319983Y179169D01*
X320010Y179150D01*
X320097Y179123D01*
X320181Y179089D01*
X320222Y179085D01*
X320245Y179078D01*
X320277Y179079D01*
X320348Y179071D01*
X355600Y179071D01*
X355620Y179074D01*
G37*
G36*
X354827Y252773D02*
X354827Y252773D01*
X354879Y252774D01*
X354946Y252799D01*
X355016Y252814D01*
X355061Y252841D01*
X355110Y252859D01*
X355166Y252903D01*
X355227Y252940D01*
X355261Y252980D01*
X355302Y253012D01*
X355341Y253073D01*
X355387Y253127D01*
X355407Y253175D01*
X355435Y253219D01*
X355452Y253289D01*
X355479Y253355D01*
X355487Y253427D01*
X355495Y253458D01*
X355493Y253481D01*
X355498Y253522D01*
X355498Y254047D01*
X355483Y254138D01*
X355476Y254228D01*
X355463Y254258D01*
X355458Y254290D01*
X355415Y254371D01*
X355380Y254455D01*
X355354Y254487D01*
X355343Y254508D01*
X355319Y254530D01*
X355275Y254586D01*
X343915Y265945D01*
X343915Y289807D01*
X345924Y291816D01*
X356138Y302030D01*
X356191Y302104D01*
X356251Y302173D01*
X356263Y302203D01*
X356282Y302230D01*
X356309Y302317D01*
X356343Y302401D01*
X356347Y302442D01*
X356354Y302465D01*
X356353Y302497D01*
X356361Y302568D01*
X356361Y311147D01*
X356350Y311217D01*
X356348Y311289D01*
X356330Y311338D01*
X356322Y311389D01*
X356288Y311453D01*
X356263Y311520D01*
X356231Y311561D01*
X356206Y311607D01*
X356155Y311656D01*
X356110Y311712D01*
X356066Y311740D01*
X356028Y311776D01*
X355963Y311806D01*
X355903Y311845D01*
X355852Y311858D01*
X355805Y311880D01*
X355734Y311888D01*
X355664Y311905D01*
X355612Y311901D01*
X355561Y311907D01*
X355490Y311892D01*
X355419Y311886D01*
X355371Y311866D01*
X355320Y311855D01*
X355259Y311818D01*
X355193Y311790D01*
X355137Y311745D01*
X355109Y311728D01*
X355094Y311711D01*
X355062Y311685D01*
X354323Y310946D01*
X342751Y310946D01*
X342661Y310931D01*
X342570Y310924D01*
X342540Y310912D01*
X342508Y310906D01*
X342428Y310864D01*
X342344Y310828D01*
X342312Y310802D01*
X342291Y310791D01*
X342269Y310768D01*
X342213Y310723D01*
X313556Y282066D01*
X313502Y281992D01*
X313443Y281923D01*
X313431Y281892D01*
X313412Y281866D01*
X313385Y281779D01*
X313351Y281694D01*
X313346Y281653D01*
X313340Y281631D01*
X313340Y281599D01*
X313333Y281528D01*
X313333Y280402D01*
X310224Y277294D01*
X305828Y277294D01*
X302719Y280402D01*
X302719Y284799D01*
X305828Y287907D01*
X310458Y287907D01*
X310548Y287922D01*
X310639Y287929D01*
X310669Y287942D01*
X310701Y287947D01*
X310782Y287990D01*
X310866Y288025D01*
X310898Y288051D01*
X310918Y288062D01*
X310938Y288083D01*
X310941Y288084D01*
X310945Y288089D01*
X310997Y288130D01*
X337901Y315035D01*
X339910Y317044D01*
X349250Y317044D01*
X349270Y317047D01*
X349289Y317045D01*
X349391Y317067D01*
X349493Y317083D01*
X349510Y317093D01*
X349530Y317097D01*
X349619Y317150D01*
X349710Y317198D01*
X349724Y317213D01*
X349741Y317223D01*
X349808Y317302D01*
X349880Y317377D01*
X349888Y317395D01*
X349901Y317410D01*
X349940Y317506D01*
X349983Y317600D01*
X349985Y317620D01*
X349993Y317638D01*
X350011Y317805D01*
X350011Y352037D01*
X354829Y356855D01*
X355600Y356855D01*
X355620Y356858D01*
X355639Y356856D01*
X355741Y356878D01*
X355843Y356894D01*
X355860Y356904D01*
X355880Y356908D01*
X355969Y356961D01*
X356060Y357010D01*
X356074Y357024D01*
X356091Y357034D01*
X356158Y357113D01*
X356230Y357188D01*
X356238Y357206D01*
X356251Y357221D01*
X356290Y357317D01*
X356333Y357411D01*
X356335Y357431D01*
X356343Y357449D01*
X356361Y357616D01*
X356361Y377444D01*
X356347Y377534D01*
X356339Y377625D01*
X356327Y377655D01*
X356322Y377687D01*
X356279Y377767D01*
X356243Y377851D01*
X356217Y377883D01*
X356206Y377904D01*
X356183Y377926D01*
X356138Y377982D01*
X348925Y385196D01*
X348851Y385249D01*
X348781Y385308D01*
X348751Y385321D01*
X348725Y385339D01*
X348638Y385366D01*
X348553Y385400D01*
X348512Y385405D01*
X348490Y385412D01*
X348458Y385411D01*
X348387Y385419D01*
X335026Y385421D01*
X335006Y385418D01*
X334987Y385420D01*
X334886Y385398D01*
X334783Y385381D01*
X334766Y385372D01*
X334746Y385368D01*
X334657Y385315D01*
X334566Y385266D01*
X334552Y385252D01*
X334535Y385241D01*
X334468Y385163D01*
X334397Y385088D01*
X334388Y385070D01*
X334375Y385054D01*
X334336Y384958D01*
X334293Y384865D01*
X334291Y384845D01*
X334283Y384826D01*
X334265Y384660D01*
X334265Y376641D01*
X332873Y373280D01*
X330300Y370707D01*
X326939Y369315D01*
X323301Y369315D01*
X319940Y370707D01*
X318396Y372251D01*
X318380Y372263D01*
X318367Y372279D01*
X318280Y372335D01*
X318196Y372395D01*
X318177Y372401D01*
X318160Y372412D01*
X318060Y372437D01*
X317961Y372467D01*
X317941Y372467D01*
X317922Y372472D01*
X317819Y372464D01*
X317715Y372461D01*
X317696Y372454D01*
X317677Y372453D01*
X317582Y372412D01*
X317484Y372377D01*
X317469Y372364D01*
X317450Y372356D01*
X317319Y372251D01*
X267533Y322465D01*
X267480Y322391D01*
X267421Y322322D01*
X267409Y322292D01*
X267390Y322266D01*
X267363Y322179D01*
X267329Y322094D01*
X267324Y322053D01*
X267317Y322031D01*
X267318Y321998D01*
X267310Y321927D01*
X267310Y303421D01*
X267325Y303331D01*
X267332Y303240D01*
X267345Y303210D01*
X267350Y303178D01*
X267393Y303097D01*
X267429Y303014D01*
X267454Y302981D01*
X267465Y302961D01*
X267489Y302939D01*
X267533Y302883D01*
X310350Y260066D01*
X310424Y260013D01*
X310494Y259953D01*
X310524Y259941D01*
X310550Y259922D01*
X310637Y259895D01*
X310722Y259861D01*
X310763Y259857D01*
X310785Y259850D01*
X310817Y259851D01*
X310889Y259843D01*
X335921Y259843D01*
X336011Y259857D01*
X336102Y259865D01*
X336131Y259877D01*
X336163Y259882D01*
X336244Y259925D01*
X336328Y259961D01*
X336360Y259987D01*
X336381Y259998D01*
X336403Y260021D01*
X336459Y260066D01*
X338253Y261860D01*
X342650Y261860D01*
X345758Y258752D01*
X345758Y255587D01*
X345770Y255516D01*
X345772Y255445D01*
X345790Y255396D01*
X345798Y255344D01*
X345831Y255281D01*
X345856Y255214D01*
X345889Y255173D01*
X345913Y255127D01*
X345965Y255077D01*
X346010Y255022D01*
X346054Y254993D01*
X346091Y254958D01*
X346156Y254927D01*
X346217Y254889D01*
X346267Y254876D01*
X346314Y254854D01*
X346386Y254846D01*
X346455Y254828D01*
X346507Y254833D01*
X346559Y254827D01*
X346629Y254842D01*
X346700Y254848D01*
X346748Y254868D01*
X346799Y254879D01*
X346861Y254916D01*
X346927Y254944D01*
X346983Y254989D01*
X347010Y255005D01*
X347026Y255023D01*
X347058Y255049D01*
X347397Y255388D01*
X351794Y255388D01*
X354198Y252984D01*
X354256Y252942D01*
X354308Y252892D01*
X354356Y252871D01*
X354398Y252840D01*
X354466Y252819D01*
X354531Y252789D01*
X354583Y252783D01*
X354633Y252768D01*
X354705Y252770D01*
X354776Y252762D01*
X354827Y252773D01*
G37*
%LPC*%
G36*
X179237Y243887D02*
X179237Y243887D01*
X176640Y244963D01*
X174653Y246950D01*
X173577Y249547D01*
X173577Y252357D01*
X174653Y254954D01*
X176640Y256941D01*
X179237Y258017D01*
X193127Y258017D01*
X195724Y256941D01*
X197711Y254954D01*
X198787Y252357D01*
X198787Y249547D01*
X197711Y246950D01*
X195724Y244963D01*
X193127Y243887D01*
X179237Y243887D01*
G37*
%LPD*%
%LPC*%
G36*
X188744Y308863D02*
X188744Y308863D01*
X183387Y314220D01*
X183387Y321796D01*
X188744Y327153D01*
X196320Y327153D01*
X201677Y321796D01*
X201677Y314220D01*
X196320Y308863D01*
X188744Y308863D01*
G37*
%LPD*%
%LPC*%
G36*
X214144Y308863D02*
X214144Y308863D01*
X208787Y314220D01*
X208787Y321796D01*
X214144Y327153D01*
X221720Y327153D01*
X227077Y321796D01*
X227077Y314220D01*
X221720Y308863D01*
X214144Y308863D01*
G37*
%LPD*%
%LPC*%
G36*
X188744Y283463D02*
X188744Y283463D01*
X183387Y288820D01*
X183387Y296396D01*
X188744Y301753D01*
X196320Y301753D01*
X201677Y296396D01*
X201677Y288820D01*
X196320Y283463D01*
X188744Y283463D01*
G37*
%LPD*%
%LPC*%
G36*
X214144Y283463D02*
X214144Y283463D01*
X208787Y288820D01*
X208787Y296396D01*
X214144Y301753D01*
X221720Y301753D01*
X227077Y296396D01*
X227077Y288820D01*
X221720Y283463D01*
X214144Y283463D01*
G37*
%LPD*%
%LPC*%
G36*
X489626Y304617D02*
X489626Y304617D01*
X486478Y305921D01*
X484069Y308330D01*
X482765Y311478D01*
X482765Y314886D01*
X484069Y318034D01*
X486478Y320443D01*
X489626Y321747D01*
X493034Y321747D01*
X496182Y320443D01*
X498591Y318034D01*
X499895Y314886D01*
X499895Y311478D01*
X498591Y308330D01*
X496182Y305921D01*
X493034Y304617D01*
X489626Y304617D01*
G37*
%LPD*%
%LPC*%
G36*
X469626Y304617D02*
X469626Y304617D01*
X466478Y305921D01*
X464069Y308330D01*
X462765Y311478D01*
X462765Y314886D01*
X464069Y318034D01*
X466478Y320443D01*
X469626Y321747D01*
X473034Y321747D01*
X476182Y320443D01*
X478591Y318034D01*
X479895Y314886D01*
X479895Y311478D01*
X478591Y308330D01*
X476182Y305921D01*
X473034Y304617D01*
X469626Y304617D01*
G37*
%LPD*%
%LPC*%
G36*
X136143Y252475D02*
X136143Y252475D01*
X136143Y261113D01*
X143040Y261113D01*
X144619Y260863D01*
X146140Y260368D01*
X147565Y259642D01*
X148859Y258702D01*
X149990Y257571D01*
X150930Y256277D01*
X151656Y254852D01*
X152151Y253331D01*
X152286Y252475D01*
X136143Y252475D01*
G37*
%LPD*%
%LPC*%
G36*
X136143Y240791D02*
X136143Y240791D01*
X136143Y249429D01*
X152286Y249429D01*
X152151Y248573D01*
X151656Y247052D01*
X150930Y245627D01*
X149990Y244333D01*
X148859Y243202D01*
X147565Y242262D01*
X146140Y241536D01*
X144619Y241041D01*
X143040Y240791D01*
X136143Y240791D01*
G37*
%LPD*%
D10*
X191722Y250952D02*
X180642Y250952D01*
X180642Y225552D02*
X191722Y225552D01*
X191722Y200152D02*
X180642Y200152D01*
X180642Y174752D02*
X191722Y174752D01*
D11*
X471330Y313182D03*
X491330Y313182D03*
D12*
X513080Y313436D03*
D13*
X198120Y378460D02*
X198120Y393700D01*
X223520Y393700D02*
X223520Y378460D01*
X248920Y378460D02*
X248920Y393700D01*
X274320Y393700D02*
X274320Y378460D01*
X299720Y378460D02*
X299720Y393700D01*
X325120Y393700D02*
X325120Y378460D01*
X142240Y149352D02*
X127000Y149352D01*
X127000Y174752D02*
X142240Y174752D01*
X142240Y200152D02*
X127000Y200152D01*
X127000Y225552D02*
X142240Y225552D01*
X142240Y250952D02*
X127000Y250952D01*
X127000Y276352D02*
X142240Y276352D01*
X142240Y301752D02*
X127000Y301752D01*
X127000Y327152D02*
X142240Y327152D01*
X142240Y352552D02*
X127000Y352552D01*
D14*
X192532Y318008D03*
X217932Y318008D03*
X192532Y292608D03*
X217932Y292608D03*
D13*
X217932Y122936D02*
X217932Y107696D01*
X192532Y107696D02*
X192532Y122936D01*
X380492Y378206D02*
X380492Y393446D01*
X405892Y393446D02*
X405892Y378206D01*
X431292Y378206D02*
X431292Y393446D01*
X456692Y393446D02*
X456692Y378206D01*
X482092Y378206D02*
X482092Y393446D01*
X507492Y393446D02*
X507492Y378206D01*
X532892Y378206D02*
X532892Y393446D01*
X558292Y393446D02*
X558292Y378206D01*
X380492Y124206D02*
X380492Y108966D01*
X405892Y108966D02*
X405892Y124206D01*
X431292Y124206D02*
X431292Y108966D01*
X456692Y108966D02*
X456692Y124206D01*
X482092Y124206D02*
X482092Y108966D01*
X507492Y108966D02*
X507492Y124206D01*
X532892Y124206D02*
X532892Y108966D01*
X558292Y108966D02*
X558292Y124206D01*
D15*
X182880Y201930D02*
X136398Y201930D01*
X134620Y200152D01*
X184658Y200152D02*
X186182Y200152D01*
X184658Y200152D02*
X182880Y201930D01*
D16*
X423164Y353873D03*
X372694Y140564D03*
D17*
X428015Y154635D02*
X428015Y161315D01*
X428015Y154635D02*
X386436Y154635D01*
X372529Y140729D02*
X372694Y140564D01*
X372529Y140729D02*
X386436Y154635D01*
D16*
X428015Y161315D03*
X505028Y246532D03*
D17*
X512089Y285346D02*
X512013Y285422D01*
X512089Y285346D02*
X512089Y253594D01*
X505028Y246532D01*
D16*
X512013Y285422D03*
X308026Y282600D03*
D18*
X423164Y353806D02*
X423164Y353873D01*
X356092Y353806D02*
X353060Y350774D01*
X353060Y313995D01*
X341173Y313995D01*
X309778Y282600D01*
X308026Y282600D01*
X356092Y353806D02*
X423164Y353806D01*
X501634Y352822D02*
X532130Y322326D01*
X532130Y302463D01*
X515089Y285422D01*
X512013Y285422D01*
X501634Y352822D02*
X423396Y352822D01*
D16*
X363525Y143281D03*
D19*
X384048Y168656D02*
X384048Y168910D01*
D18*
X384048Y168656D02*
X363525Y148133D01*
X363525Y143281D01*
D16*
X384048Y168910D03*
X383540Y344399D03*
D17*
X379705Y344399D01*
X368046Y332740D01*
D16*
X359664Y188239D03*
D17*
X368046Y309626D02*
X368046Y332740D01*
X358292Y255880D02*
X358292Y189611D01*
X359664Y188239D01*
D18*
X358292Y255880D02*
X346964Y267208D01*
X346964Y288544D02*
X368046Y309626D01*
X346964Y288544D02*
X346964Y267208D01*
X248666Y196088D02*
X209550Y235204D01*
X172720Y235204D01*
X163068Y225552D01*
X134620Y225552D01*
D16*
X332740Y209550D03*
D18*
X270256Y196088D02*
X248666Y196088D01*
X270256Y196088D02*
X298704Y196088D01*
X318770Y176022D02*
X434848Y176022D01*
X472008Y213182D02*
X472008Y247447D01*
D16*
X472008Y247447D03*
D18*
X472008Y213182D02*
X434848Y176022D01*
X318770Y176022D02*
X298704Y196088D01*
X332486Y209296D02*
X332740Y209550D01*
X332486Y209296D02*
X285496Y209296D01*
D16*
X248666Y196088D03*
D18*
X270256Y196088D02*
X283464Y209296D01*
X285496Y209296D01*
D16*
X340451Y256553D03*
D19*
X339449Y257556D01*
X309626Y257556D01*
X265024Y302158D01*
X325120Y383286D02*
X325120Y386080D01*
X325120Y383286D02*
X265024Y323190D01*
X265024Y302158D01*
D16*
X349595Y250082D03*
D19*
X349284Y250393D01*
X310693Y250393D01*
X299720Y378714D02*
X299720Y386080D01*
X299720Y378714D02*
X261468Y340462D01*
X261468Y299618D01*
X310693Y250393D01*
D16*
X342468Y244284D03*
D19*
X342392Y244207D01*
X311806Y244207D01*
X258013Y298000D01*
X274320Y372796D02*
X274320Y386080D01*
X274320Y372796D02*
X258013Y356489D01*
X258013Y298000D01*
D16*
X337429Y236667D03*
D19*
X336819Y237277D01*
X312379Y237277D01*
X254330Y295326D01*
X254330Y366446D02*
X248920Y371856D01*
X248920Y386080D01*
X254330Y366446D02*
X254330Y295326D01*
D16*
X333019Y228676D03*
D19*
X314884Y228676D01*
X250850Y343027D02*
X223520Y370357D01*
X223520Y386080D01*
X250850Y343027D02*
X250850Y292710D01*
X314884Y228676D01*
D16*
X341398Y223258D03*
D19*
X341398Y223057D01*
X340861Y222520D01*
X314182Y222520D01*
X247244Y328574D02*
X198120Y377698D01*
X198120Y386080D01*
X247244Y328574D02*
X247244Y289458D01*
X314182Y222520D01*
D16*
X299796Y183642D03*
D19*
X299288Y183134D01*
X241046Y183134D01*
X222504Y164592D01*
D16*
X222504Y164592D03*
X356616Y169037D03*
D17*
X356286Y169367D01*
X268173Y169367D01*
X248158Y149352D01*
X134620Y149352D01*
D16*
X459311Y260588D03*
D17*
X513080Y300736D02*
X513080Y313436D01*
X473202Y295910D02*
X464340Y287048D01*
X464340Y266633D01*
X459311Y261604D01*
D19*
X459311Y260588D01*
D17*
X473202Y295910D02*
X508254Y295910D01*
X513080Y300736D01*
D16*
X350241Y305206D03*
D18*
X339979Y305206D01*
X317195Y282423D01*
X317195Y275717D01*
D16*
X317195Y275717D03*
X298962Y216404D03*
D15*
X236732Y216404D01*
X211763Y241373D01*
D16*
X459461Y251435D03*
D18*
X459461Y251435D01*
X457454Y249428D02*
X457454Y206248D01*
X432562Y181356D01*
X352552Y181356D02*
X352552Y202946D01*
X339094Y216404D01*
X298962Y216404D01*
X457454Y249428D02*
X459461Y251435D01*
X432562Y181356D02*
X352552Y181356D01*
D15*
X159922Y241373D02*
X150343Y250952D01*
X134620Y250952D01*
X159922Y241373D02*
X211763Y241373D01*
D16*
X181178Y371221D03*
X237566Y285902D03*
X339598Y370332D03*
X307670Y305562D03*
X343916Y211328D03*
X343916Y183642D03*
X222504Y232410D03*
X414553Y343586D03*
X448970Y343408D03*
X504924Y260350D03*
X505460Y277114D03*
X287528Y162585D03*
X418744Y161900D03*
X441300Y159258D03*
X504698Y213614D03*
X353314Y136906D03*
X423164Y288290D03*
X373888Y289814D03*
X373634Y240538D03*
X373634Y228600D03*
X373888Y278384D03*
X386080Y228600D03*
X373888Y266192D03*
X373888Y252730D03*
X410210Y288290D03*
X398780Y289306D03*
X385826Y289560D03*
X386080Y278384D03*
X385826Y266192D03*
X385826Y252476D03*
X386080Y240284D03*
X398018Y228092D03*
X397764Y239268D03*
X397256Y252730D03*
X398272Y266446D03*
X398780Y278384D03*
X410210Y276352D03*
X409448Y265938D03*
X409448Y252222D03*
X409956Y238760D03*
X409702Y228092D03*
X422148Y227838D03*
X422148Y240030D03*
X422148Y251714D03*
X434086Y251968D03*
X434340Y240030D03*
X434340Y227838D03*
X433832Y265176D03*
X433578Y276860D03*
X422656Y276352D03*
X422402Y265684D03*
X434086Y288290D03*
X544068Y305308D03*
X577393Y244348D03*
X578917Y150622D03*
X492518Y236916D03*
X576123Y344932D03*
D15*
X135128Y175260D02*
X134620Y174752D01*
X186182Y174752D01*
D16*
X292151Y189225D03*
D19*
X291440Y189936D01*
X232862Y189936D01*
X211074Y168148D01*
X211074Y167640D01*
D16*
X211074Y167640D03*
M02*
