G04 EAGLE Gerber RS-274X export*
G75*
%MOMM*%
%FSLAX34Y34*%
%LPD*%
%IN*%
%IPPOS*%
%AMOC8*
5,1,8,0,0,1.08239X$1,22.5*%
G01*
%ADD10C,0.254000*%


D10*
X109220Y109728D02*
X109195Y108153D01*
X109306Y106582D01*
X109555Y105027D01*
X109938Y103499D01*
X110452Y102011D01*
X111095Y100573D01*
X111860Y99196D01*
X112742Y97892D01*
X113735Y96669D01*
X114831Y95537D01*
X116020Y94505D01*
X117296Y93581D01*
X118647Y92772D01*
X120063Y92083D01*
X121534Y91521D01*
X123049Y91088D01*
X124595Y90790D01*
X126162Y90627D01*
X614401Y90881D01*
X615415Y91037D01*
X616412Y91282D01*
X617384Y91612D01*
X618324Y92025D01*
X619224Y92519D01*
X620077Y93090D01*
X620878Y93732D01*
X621619Y94442D01*
X622296Y95214D01*
X622903Y96042D01*
X623435Y96920D01*
X623889Y97840D01*
X624261Y98797D01*
X624548Y99783D01*
X624748Y100790D01*
X624860Y101810D01*
X624882Y102836D01*
X624815Y103861D01*
X624815Y396469D01*
X624889Y397656D01*
X624860Y398846D01*
X624727Y400028D01*
X624492Y401195D01*
X624156Y402336D01*
X623721Y403444D01*
X623192Y404510D01*
X622572Y405526D01*
X621866Y406484D01*
X621079Y407376D01*
X620217Y408197D01*
X619287Y408939D01*
X618295Y409597D01*
X617250Y410167D01*
X616160Y410643D01*
X615032Y411023D01*
X613875Y411302D01*
X612699Y411480D01*
X129540Y411226D01*
X127610Y410975D01*
X125710Y410558D01*
X123853Y409976D01*
X122054Y409234D01*
X120326Y408339D01*
X118683Y407296D01*
X117137Y406114D01*
X115700Y404802D01*
X114383Y403369D01*
X113195Y401828D01*
X112147Y400188D01*
X111245Y398464D01*
X110497Y396667D01*
X109909Y394812D01*
X109484Y392913D01*
X109227Y390984D01*
X109139Y389040D01*
X109220Y387096D01*
X109220Y109728D01*
X594860Y133142D02*
X594784Y132272D01*
X594633Y131412D01*
X594407Y130569D01*
X594108Y129748D01*
X593739Y128957D01*
X593302Y128200D01*
X592802Y127485D01*
X592240Y126816D01*
X591623Y126199D01*
X590954Y125638D01*
X590239Y125137D01*
X589482Y124700D01*
X588691Y124331D01*
X587870Y124032D01*
X587027Y123806D01*
X586167Y123655D01*
X585297Y123579D01*
X584424Y123579D01*
X583554Y123655D01*
X582694Y123806D01*
X581850Y124032D01*
X581030Y124331D01*
X580239Y124700D01*
X579482Y125137D01*
X578767Y125638D01*
X578098Y126199D01*
X577481Y126816D01*
X576919Y127485D01*
X576418Y128200D01*
X575982Y128957D01*
X575613Y129748D01*
X575314Y130569D01*
X575088Y131412D01*
X574937Y132272D01*
X574860Y133142D01*
X574860Y134015D01*
X574937Y134885D01*
X575088Y135745D01*
X575314Y136589D01*
X575613Y137409D01*
X575982Y138200D01*
X576418Y138957D01*
X576919Y139672D01*
X577481Y140341D01*
X578098Y140958D01*
X578767Y141520D01*
X579482Y142021D01*
X580239Y142457D01*
X581030Y142826D01*
X581850Y143125D01*
X582694Y143351D01*
X583554Y143503D01*
X584424Y143579D01*
X585297Y143579D01*
X586167Y143503D01*
X587027Y143351D01*
X587870Y143125D01*
X588691Y142826D01*
X589482Y142457D01*
X590239Y142021D01*
X590954Y141520D01*
X591623Y140958D01*
X592240Y140341D01*
X592802Y139672D01*
X593302Y138957D01*
X593739Y138200D01*
X594108Y137409D01*
X594407Y136589D01*
X594633Y135745D01*
X594784Y134885D01*
X594860Y134015D01*
X594860Y133142D01*
X594581Y370962D02*
X594505Y370092D01*
X594353Y369232D01*
X594127Y368389D01*
X593829Y367568D01*
X593460Y366777D01*
X593023Y366021D01*
X592522Y365305D01*
X591961Y364636D01*
X591343Y364019D01*
X590674Y363458D01*
X589959Y362957D01*
X589203Y362520D01*
X588411Y362151D01*
X587591Y361853D01*
X586747Y361627D01*
X585888Y361475D01*
X585018Y361399D01*
X584144Y361399D01*
X583275Y361475D01*
X582415Y361627D01*
X581571Y361853D01*
X580751Y362151D01*
X579959Y362520D01*
X579203Y362957D01*
X578488Y363458D01*
X577819Y364019D01*
X577201Y364636D01*
X576640Y365305D01*
X576139Y366021D01*
X575702Y366777D01*
X575333Y367568D01*
X575035Y368389D01*
X574809Y369232D01*
X574657Y370092D01*
X574581Y370962D01*
X574581Y371835D01*
X574657Y372705D01*
X574809Y373565D01*
X575035Y374409D01*
X575333Y375229D01*
X575702Y376021D01*
X576139Y376777D01*
X576640Y377492D01*
X577201Y378161D01*
X577819Y378779D01*
X578488Y379340D01*
X579203Y379841D01*
X579959Y380277D01*
X580751Y380646D01*
X581571Y380945D01*
X582415Y381171D01*
X583275Y381323D01*
X584144Y381399D01*
X585018Y381399D01*
X585888Y381323D01*
X586747Y381171D01*
X587591Y380945D01*
X588411Y380646D01*
X589203Y380277D01*
X589959Y379841D01*
X590674Y379340D01*
X591343Y378779D01*
X591961Y378161D01*
X592522Y377492D01*
X593023Y376777D01*
X593460Y376021D01*
X593829Y375229D01*
X594127Y374409D01*
X594353Y373565D01*
X594505Y372705D01*
X594581Y371835D01*
X594581Y370962D01*
X171468Y370759D02*
X171392Y369889D01*
X171240Y369029D01*
X171014Y368186D01*
X170715Y367365D01*
X170346Y366574D01*
X169910Y365817D01*
X169409Y365102D01*
X168848Y364433D01*
X168230Y363816D01*
X167561Y363255D01*
X166846Y362754D01*
X166090Y362317D01*
X165298Y361948D01*
X164478Y361649D01*
X163634Y361423D01*
X162774Y361272D01*
X161904Y361196D01*
X161031Y361196D01*
X160161Y361272D01*
X159301Y361423D01*
X158458Y361649D01*
X157637Y361948D01*
X156846Y362317D01*
X156090Y362754D01*
X155374Y363255D01*
X154705Y363816D01*
X154088Y364433D01*
X153527Y365102D01*
X153026Y365817D01*
X152589Y366574D01*
X152220Y367365D01*
X151922Y368186D01*
X151696Y369029D01*
X151544Y369889D01*
X151468Y370759D01*
X151468Y371632D01*
X151544Y372502D01*
X151696Y373362D01*
X151922Y374206D01*
X152220Y375026D01*
X152589Y375817D01*
X153026Y376574D01*
X153527Y377289D01*
X154088Y377958D01*
X154705Y378575D01*
X155374Y379137D01*
X156090Y379638D01*
X156846Y380074D01*
X157637Y380443D01*
X158458Y380742D01*
X159301Y380968D01*
X160161Y381120D01*
X161031Y381196D01*
X161904Y381196D01*
X162774Y381120D01*
X163634Y380968D01*
X164478Y380742D01*
X165298Y380443D01*
X166090Y380074D01*
X166846Y379638D01*
X167561Y379137D01*
X168230Y378575D01*
X168848Y377958D01*
X169409Y377289D01*
X169910Y376574D01*
X170346Y375817D01*
X170715Y375026D01*
X171014Y374206D01*
X171240Y373362D01*
X171392Y372502D01*
X171468Y371632D01*
X171468Y370759D01*
X171620Y132761D02*
X171544Y131891D01*
X171392Y131031D01*
X171166Y130188D01*
X170868Y129367D01*
X170499Y128576D01*
X170062Y127819D01*
X169561Y127104D01*
X169000Y126435D01*
X168383Y125818D01*
X167714Y125257D01*
X166998Y124756D01*
X166242Y124319D01*
X165451Y123950D01*
X164630Y123651D01*
X163787Y123425D01*
X162927Y123274D01*
X162057Y123198D01*
X161184Y123198D01*
X160314Y123274D01*
X159454Y123425D01*
X158610Y123651D01*
X157790Y123950D01*
X156998Y124319D01*
X156242Y124756D01*
X155527Y125257D01*
X154858Y125818D01*
X154240Y126435D01*
X153679Y127104D01*
X153178Y127819D01*
X152742Y128576D01*
X152373Y129367D01*
X152074Y130188D01*
X151848Y131031D01*
X151696Y131891D01*
X151620Y132761D01*
X151620Y133634D01*
X151696Y134504D01*
X151848Y135364D01*
X152074Y136208D01*
X152373Y137028D01*
X152742Y137819D01*
X153178Y138576D01*
X153679Y139291D01*
X154240Y139960D01*
X154858Y140577D01*
X155527Y141139D01*
X156242Y141640D01*
X156998Y142076D01*
X157790Y142445D01*
X158610Y142744D01*
X159454Y142970D01*
X160314Y143122D01*
X161184Y143198D01*
X162057Y143198D01*
X162927Y143122D01*
X163787Y142970D01*
X164630Y142744D01*
X165451Y142445D01*
X166242Y142076D01*
X166998Y141640D01*
X167714Y141139D01*
X168383Y140577D01*
X169000Y139960D01*
X169561Y139291D01*
X170062Y138576D01*
X170499Y137819D01*
X170868Y137028D01*
X171166Y136208D01*
X171392Y135364D01*
X171544Y134504D01*
X171620Y133634D01*
X171620Y132761D01*
M02*
