G04 EAGLE Gerber RS-274X export*
G75*
%MOMM*%
%FSLAX34Y34*%
%LPD*%
%INSilkscreen Bottom*%
%IPPOS*%
%AMOC8*
5,1,8,0,0,1.08239X$1,22.5*%
G01*
%ADD10C,0.152400*%
%ADD11C,0.101600*%


D10*
X583946Y244856D02*
X578527Y261112D01*
X573109Y244856D01*
X574463Y248920D02*
X582591Y248920D01*
X566891Y244856D02*
X566891Y261112D01*
X562375Y261112D01*
X562244Y261110D01*
X562112Y261104D01*
X561981Y261095D01*
X561851Y261081D01*
X561720Y261064D01*
X561591Y261043D01*
X561462Y261019D01*
X561334Y260990D01*
X561206Y260958D01*
X561080Y260922D01*
X560955Y260883D01*
X560830Y260840D01*
X560708Y260793D01*
X560586Y260743D01*
X560466Y260689D01*
X560348Y260632D01*
X560232Y260571D01*
X560117Y260507D01*
X560004Y260440D01*
X559893Y260369D01*
X559785Y260295D01*
X559678Y260218D01*
X559574Y260138D01*
X559472Y260055D01*
X559373Y259970D01*
X559276Y259881D01*
X559182Y259789D01*
X559090Y259695D01*
X559001Y259598D01*
X558916Y259499D01*
X558833Y259397D01*
X558753Y259293D01*
X558676Y259186D01*
X558602Y259078D01*
X558531Y258967D01*
X558464Y258854D01*
X558400Y258739D01*
X558339Y258623D01*
X558282Y258505D01*
X558228Y258385D01*
X558178Y258263D01*
X558131Y258141D01*
X558088Y258016D01*
X558049Y257891D01*
X558013Y257765D01*
X557981Y257637D01*
X557952Y257509D01*
X557928Y257380D01*
X557907Y257251D01*
X557890Y257120D01*
X557876Y256990D01*
X557867Y256859D01*
X557861Y256727D01*
X557859Y256596D01*
X557860Y256596D02*
X557860Y249372D01*
X557859Y249372D02*
X557861Y249241D01*
X557867Y249109D01*
X557876Y248978D01*
X557890Y248848D01*
X557907Y248717D01*
X557928Y248588D01*
X557952Y248459D01*
X557981Y248331D01*
X558013Y248203D01*
X558049Y248077D01*
X558088Y247952D01*
X558131Y247827D01*
X558178Y247705D01*
X558228Y247583D01*
X558282Y247463D01*
X558339Y247345D01*
X558400Y247229D01*
X558464Y247114D01*
X558531Y247001D01*
X558602Y246890D01*
X558676Y246782D01*
X558753Y246675D01*
X558833Y246571D01*
X558916Y246469D01*
X559001Y246370D01*
X559090Y246273D01*
X559182Y246179D01*
X559276Y246087D01*
X559373Y245998D01*
X559472Y245913D01*
X559574Y245830D01*
X559678Y245750D01*
X559785Y245673D01*
X559893Y245599D01*
X560004Y245528D01*
X560117Y245461D01*
X560232Y245397D01*
X560348Y245336D01*
X560466Y245279D01*
X560586Y245225D01*
X560708Y245175D01*
X560830Y245128D01*
X560955Y245085D01*
X561080Y245046D01*
X561206Y245010D01*
X561334Y244978D01*
X561462Y244949D01*
X561591Y244925D01*
X561720Y244904D01*
X561851Y244887D01*
X561981Y244873D01*
X562112Y244864D01*
X562244Y244858D01*
X562375Y244856D01*
X566891Y244856D01*
X550738Y259306D02*
X550738Y261112D01*
X541707Y261112D01*
X546223Y244856D01*
X535107Y259306D02*
X535107Y261112D01*
X526076Y261112D01*
X530592Y244856D01*
X519476Y259306D02*
X519476Y261112D01*
X510445Y261112D01*
X514960Y244856D01*
X503845Y257500D02*
X499329Y261112D01*
X499329Y244856D01*
X494814Y244856D02*
X503845Y244856D01*
X479145Y253887D02*
X474629Y253887D01*
X474629Y253888D02*
X474496Y253886D01*
X474364Y253880D01*
X474232Y253870D01*
X474100Y253857D01*
X473968Y253839D01*
X473838Y253818D01*
X473707Y253793D01*
X473578Y253764D01*
X473450Y253731D01*
X473322Y253695D01*
X473196Y253655D01*
X473071Y253611D01*
X472947Y253563D01*
X472825Y253512D01*
X472704Y253457D01*
X472585Y253399D01*
X472467Y253337D01*
X472352Y253272D01*
X472238Y253203D01*
X472127Y253132D01*
X472018Y253056D01*
X471911Y252978D01*
X471806Y252897D01*
X471704Y252812D01*
X471604Y252725D01*
X471507Y252635D01*
X471412Y252542D01*
X471321Y252446D01*
X471232Y252348D01*
X471146Y252247D01*
X471063Y252143D01*
X470983Y252037D01*
X470907Y251929D01*
X470833Y251819D01*
X470763Y251706D01*
X470696Y251592D01*
X470633Y251475D01*
X470573Y251357D01*
X470516Y251237D01*
X470463Y251115D01*
X470414Y250992D01*
X470368Y250868D01*
X470326Y250742D01*
X470288Y250615D01*
X470253Y250487D01*
X470222Y250358D01*
X470195Y250229D01*
X470172Y250098D01*
X470152Y249967D01*
X470137Y249835D01*
X470125Y249703D01*
X470117Y249571D01*
X470113Y249438D01*
X470113Y249306D01*
X470117Y249173D01*
X470125Y249041D01*
X470137Y248909D01*
X470152Y248777D01*
X470172Y248646D01*
X470195Y248515D01*
X470222Y248386D01*
X470253Y248257D01*
X470288Y248129D01*
X470326Y248002D01*
X470368Y247876D01*
X470414Y247752D01*
X470463Y247629D01*
X470516Y247507D01*
X470573Y247387D01*
X470633Y247269D01*
X470696Y247152D01*
X470763Y247038D01*
X470833Y246925D01*
X470907Y246815D01*
X470983Y246707D01*
X471063Y246601D01*
X471146Y246497D01*
X471232Y246396D01*
X471321Y246298D01*
X471412Y246202D01*
X471507Y246109D01*
X471604Y246019D01*
X471704Y245932D01*
X471806Y245847D01*
X471911Y245766D01*
X472018Y245688D01*
X472127Y245612D01*
X472238Y245541D01*
X472352Y245472D01*
X472467Y245407D01*
X472585Y245345D01*
X472704Y245287D01*
X472825Y245232D01*
X472947Y245181D01*
X473071Y245133D01*
X473196Y245089D01*
X473322Y245049D01*
X473450Y245013D01*
X473578Y244980D01*
X473707Y244951D01*
X473838Y244926D01*
X473968Y244905D01*
X474100Y244887D01*
X474232Y244874D01*
X474364Y244864D01*
X474496Y244858D01*
X474629Y244856D01*
X479145Y244856D01*
X479145Y261112D01*
X474629Y261112D01*
X474510Y261110D01*
X474390Y261104D01*
X474271Y261094D01*
X474153Y261080D01*
X474034Y261063D01*
X473917Y261041D01*
X473800Y261016D01*
X473685Y260986D01*
X473570Y260953D01*
X473456Y260916D01*
X473344Y260876D01*
X473233Y260831D01*
X473124Y260783D01*
X473016Y260732D01*
X472910Y260677D01*
X472806Y260618D01*
X472704Y260556D01*
X472604Y260491D01*
X472506Y260422D01*
X472410Y260350D01*
X472317Y260275D01*
X472227Y260198D01*
X472139Y260117D01*
X472054Y260033D01*
X471972Y259946D01*
X471892Y259857D01*
X471816Y259765D01*
X471742Y259671D01*
X471672Y259574D01*
X471605Y259476D01*
X471541Y259375D01*
X471481Y259271D01*
X471424Y259166D01*
X471371Y259059D01*
X471321Y258951D01*
X471275Y258841D01*
X471233Y258729D01*
X471194Y258616D01*
X471159Y258502D01*
X471128Y258387D01*
X471100Y258270D01*
X471077Y258153D01*
X471057Y258036D01*
X471041Y257917D01*
X471029Y257798D01*
X471021Y257679D01*
X471017Y257560D01*
X471017Y257440D01*
X471021Y257321D01*
X471029Y257202D01*
X471041Y257083D01*
X471057Y256964D01*
X471077Y256847D01*
X471100Y256730D01*
X471128Y256613D01*
X471159Y256498D01*
X471194Y256384D01*
X471233Y256271D01*
X471275Y256159D01*
X471321Y256049D01*
X471371Y255941D01*
X471424Y255834D01*
X471481Y255729D01*
X471541Y255625D01*
X471605Y255524D01*
X471672Y255426D01*
X471742Y255329D01*
X471816Y255235D01*
X471892Y255143D01*
X471972Y255054D01*
X472054Y254967D01*
X472139Y254883D01*
X472227Y254802D01*
X472317Y254725D01*
X472410Y254650D01*
X472506Y254578D01*
X472604Y254509D01*
X472704Y254444D01*
X472806Y254382D01*
X472910Y254323D01*
X473016Y254268D01*
X473124Y254217D01*
X473233Y254169D01*
X473344Y254124D01*
X473456Y254084D01*
X473570Y254047D01*
X473685Y254014D01*
X473800Y253984D01*
X473917Y253959D01*
X474034Y253937D01*
X474153Y253920D01*
X474271Y253906D01*
X474390Y253896D01*
X474510Y253890D01*
X474629Y253888D01*
X463779Y255693D02*
X463779Y244856D01*
X463779Y255693D02*
X458360Y255693D01*
X458360Y253887D01*
X450733Y244856D02*
X446218Y244856D01*
X450733Y244856D02*
X450834Y244858D01*
X450935Y244864D01*
X451036Y244873D01*
X451137Y244886D01*
X451237Y244903D01*
X451336Y244924D01*
X451434Y244948D01*
X451531Y244976D01*
X451628Y245008D01*
X451723Y245043D01*
X451816Y245082D01*
X451908Y245124D01*
X451999Y245170D01*
X452088Y245219D01*
X452174Y245271D01*
X452259Y245327D01*
X452342Y245385D01*
X452422Y245447D01*
X452500Y245512D01*
X452576Y245579D01*
X452649Y245649D01*
X452719Y245722D01*
X452786Y245798D01*
X452851Y245876D01*
X452913Y245956D01*
X452971Y246039D01*
X453027Y246124D01*
X453079Y246210D01*
X453128Y246299D01*
X453174Y246390D01*
X453216Y246482D01*
X453255Y246575D01*
X453290Y246670D01*
X453322Y246767D01*
X453350Y246864D01*
X453374Y246962D01*
X453395Y247061D01*
X453412Y247161D01*
X453425Y247262D01*
X453434Y247363D01*
X453440Y247464D01*
X453442Y247565D01*
X453443Y247565D02*
X453443Y252081D01*
X453442Y252081D02*
X453440Y252200D01*
X453434Y252320D01*
X453424Y252439D01*
X453410Y252557D01*
X453393Y252676D01*
X453371Y252793D01*
X453346Y252910D01*
X453316Y253025D01*
X453283Y253140D01*
X453246Y253254D01*
X453206Y253366D01*
X453161Y253477D01*
X453113Y253586D01*
X453062Y253694D01*
X453007Y253800D01*
X452948Y253904D01*
X452886Y254006D01*
X452821Y254106D01*
X452752Y254204D01*
X452680Y254300D01*
X452605Y254393D01*
X452528Y254483D01*
X452447Y254571D01*
X452363Y254656D01*
X452276Y254738D01*
X452187Y254818D01*
X452095Y254894D01*
X452001Y254968D01*
X451904Y255038D01*
X451806Y255105D01*
X451705Y255169D01*
X451601Y255229D01*
X451496Y255286D01*
X451389Y255339D01*
X451281Y255389D01*
X451171Y255435D01*
X451059Y255477D01*
X450946Y255516D01*
X450832Y255551D01*
X450717Y255582D01*
X450600Y255610D01*
X450483Y255633D01*
X450366Y255653D01*
X450247Y255669D01*
X450128Y255681D01*
X450009Y255689D01*
X449890Y255693D01*
X449770Y255693D01*
X449651Y255689D01*
X449532Y255681D01*
X449413Y255669D01*
X449294Y255653D01*
X449177Y255633D01*
X449060Y255610D01*
X448943Y255582D01*
X448828Y255551D01*
X448714Y255516D01*
X448601Y255477D01*
X448489Y255435D01*
X448379Y255389D01*
X448271Y255339D01*
X448164Y255286D01*
X448059Y255229D01*
X447955Y255169D01*
X447854Y255105D01*
X447756Y255038D01*
X447659Y254968D01*
X447565Y254894D01*
X447473Y254818D01*
X447384Y254738D01*
X447297Y254656D01*
X447213Y254571D01*
X447132Y254483D01*
X447055Y254393D01*
X446980Y254300D01*
X446908Y254204D01*
X446839Y254106D01*
X446774Y254006D01*
X446712Y253904D01*
X446653Y253800D01*
X446598Y253694D01*
X446547Y253586D01*
X446499Y253477D01*
X446454Y253366D01*
X446414Y253254D01*
X446377Y253140D01*
X446344Y253025D01*
X446314Y252910D01*
X446289Y252793D01*
X446267Y252676D01*
X446250Y252557D01*
X446236Y252439D01*
X446226Y252320D01*
X446220Y252200D01*
X446218Y252081D01*
X446218Y250275D01*
X453443Y250275D01*
X436808Y251178D02*
X432744Y251178D01*
X436808Y251178D02*
X436920Y251176D01*
X437031Y251170D01*
X437142Y251160D01*
X437253Y251147D01*
X437363Y251129D01*
X437472Y251107D01*
X437581Y251082D01*
X437689Y251053D01*
X437795Y251020D01*
X437901Y250983D01*
X438005Y250943D01*
X438107Y250899D01*
X438208Y250851D01*
X438307Y250800D01*
X438405Y250745D01*
X438500Y250687D01*
X438593Y250626D01*
X438684Y250561D01*
X438773Y250493D01*
X438859Y250422D01*
X438942Y250349D01*
X439023Y250272D01*
X439102Y250192D01*
X439177Y250110D01*
X439249Y250025D01*
X439319Y249938D01*
X439385Y249848D01*
X439448Y249756D01*
X439508Y249661D01*
X439564Y249565D01*
X439617Y249467D01*
X439666Y249367D01*
X439712Y249265D01*
X439754Y249162D01*
X439793Y249057D01*
X439828Y248951D01*
X439859Y248844D01*
X439886Y248736D01*
X439910Y248627D01*
X439929Y248517D01*
X439945Y248407D01*
X439957Y248296D01*
X439965Y248184D01*
X439969Y248073D01*
X439969Y247961D01*
X439965Y247850D01*
X439957Y247738D01*
X439945Y247627D01*
X439929Y247517D01*
X439910Y247407D01*
X439886Y247298D01*
X439859Y247190D01*
X439828Y247083D01*
X439793Y246977D01*
X439754Y246872D01*
X439712Y246769D01*
X439666Y246667D01*
X439617Y246567D01*
X439564Y246469D01*
X439508Y246373D01*
X439448Y246278D01*
X439385Y246186D01*
X439319Y246096D01*
X439249Y246009D01*
X439177Y245924D01*
X439102Y245842D01*
X439023Y245762D01*
X438942Y245685D01*
X438859Y245612D01*
X438773Y245541D01*
X438684Y245473D01*
X438593Y245408D01*
X438500Y245347D01*
X438405Y245289D01*
X438307Y245234D01*
X438208Y245183D01*
X438107Y245135D01*
X438005Y245091D01*
X437901Y245051D01*
X437795Y245014D01*
X437689Y244981D01*
X437581Y244952D01*
X437472Y244927D01*
X437363Y244905D01*
X437253Y244887D01*
X437142Y244874D01*
X437031Y244864D01*
X436920Y244858D01*
X436808Y244856D01*
X432744Y244856D01*
X432744Y252984D01*
X432746Y253085D01*
X432752Y253186D01*
X432761Y253287D01*
X432774Y253388D01*
X432791Y253488D01*
X432812Y253587D01*
X432836Y253685D01*
X432864Y253782D01*
X432896Y253879D01*
X432931Y253974D01*
X432970Y254067D01*
X433012Y254159D01*
X433058Y254250D01*
X433107Y254339D01*
X433159Y254425D01*
X433215Y254510D01*
X433273Y254593D01*
X433335Y254673D01*
X433400Y254751D01*
X433467Y254827D01*
X433537Y254900D01*
X433610Y254970D01*
X433686Y255037D01*
X433764Y255102D01*
X433844Y255164D01*
X433927Y255222D01*
X434012Y255278D01*
X434099Y255330D01*
X434187Y255379D01*
X434278Y255425D01*
X434370Y255467D01*
X434463Y255506D01*
X434558Y255541D01*
X434655Y255573D01*
X434752Y255601D01*
X434850Y255625D01*
X434949Y255646D01*
X435049Y255663D01*
X435150Y255676D01*
X435251Y255685D01*
X435352Y255691D01*
X435453Y255693D01*
X439066Y255693D01*
X425138Y261112D02*
X425138Y244856D01*
X425138Y250275D02*
X417913Y255693D01*
X421977Y252532D02*
X417913Y244856D01*
X412280Y248468D02*
X412280Y252081D01*
X412278Y252200D01*
X412272Y252320D01*
X412262Y252439D01*
X412248Y252557D01*
X412231Y252676D01*
X412209Y252793D01*
X412184Y252910D01*
X412154Y253025D01*
X412121Y253140D01*
X412084Y253254D01*
X412044Y253366D01*
X411999Y253477D01*
X411951Y253586D01*
X411900Y253694D01*
X411845Y253800D01*
X411786Y253904D01*
X411724Y254006D01*
X411659Y254106D01*
X411590Y254204D01*
X411518Y254300D01*
X411443Y254393D01*
X411366Y254483D01*
X411285Y254571D01*
X411201Y254656D01*
X411114Y254738D01*
X411025Y254818D01*
X410933Y254894D01*
X410839Y254968D01*
X410742Y255038D01*
X410644Y255105D01*
X410543Y255169D01*
X410439Y255229D01*
X410334Y255286D01*
X410227Y255339D01*
X410119Y255389D01*
X410009Y255435D01*
X409897Y255477D01*
X409784Y255516D01*
X409670Y255551D01*
X409555Y255582D01*
X409438Y255610D01*
X409321Y255633D01*
X409204Y255653D01*
X409085Y255669D01*
X408966Y255681D01*
X408847Y255689D01*
X408728Y255693D01*
X408608Y255693D01*
X408489Y255689D01*
X408370Y255681D01*
X408251Y255669D01*
X408132Y255653D01*
X408015Y255633D01*
X407898Y255610D01*
X407781Y255582D01*
X407666Y255551D01*
X407552Y255516D01*
X407439Y255477D01*
X407327Y255435D01*
X407217Y255389D01*
X407109Y255339D01*
X407002Y255286D01*
X406897Y255229D01*
X406793Y255169D01*
X406692Y255105D01*
X406594Y255038D01*
X406497Y254968D01*
X406403Y254894D01*
X406311Y254818D01*
X406222Y254738D01*
X406135Y254656D01*
X406051Y254571D01*
X405970Y254483D01*
X405893Y254393D01*
X405818Y254300D01*
X405746Y254204D01*
X405677Y254106D01*
X405612Y254006D01*
X405550Y253904D01*
X405491Y253800D01*
X405436Y253694D01*
X405385Y253586D01*
X405337Y253477D01*
X405292Y253366D01*
X405252Y253254D01*
X405215Y253140D01*
X405182Y253025D01*
X405152Y252910D01*
X405127Y252793D01*
X405105Y252676D01*
X405088Y252557D01*
X405074Y252439D01*
X405064Y252320D01*
X405058Y252200D01*
X405056Y252081D01*
X405056Y248468D01*
X405058Y248349D01*
X405064Y248229D01*
X405074Y248110D01*
X405088Y247992D01*
X405105Y247873D01*
X405127Y247756D01*
X405152Y247639D01*
X405182Y247524D01*
X405215Y247409D01*
X405252Y247295D01*
X405292Y247183D01*
X405337Y247072D01*
X405385Y246963D01*
X405436Y246855D01*
X405491Y246749D01*
X405550Y246645D01*
X405612Y246543D01*
X405677Y246443D01*
X405746Y246345D01*
X405818Y246249D01*
X405893Y246156D01*
X405970Y246066D01*
X406051Y245978D01*
X406135Y245893D01*
X406222Y245811D01*
X406311Y245731D01*
X406403Y245655D01*
X406497Y245581D01*
X406594Y245511D01*
X406692Y245444D01*
X406793Y245380D01*
X406897Y245320D01*
X407002Y245263D01*
X407109Y245210D01*
X407217Y245160D01*
X407327Y245114D01*
X407439Y245072D01*
X407552Y245033D01*
X407666Y244998D01*
X407781Y244967D01*
X407898Y244939D01*
X408015Y244916D01*
X408132Y244896D01*
X408251Y244880D01*
X408370Y244868D01*
X408489Y244860D01*
X408608Y244856D01*
X408728Y244856D01*
X408847Y244860D01*
X408966Y244868D01*
X409085Y244880D01*
X409204Y244896D01*
X409321Y244916D01*
X409438Y244939D01*
X409555Y244967D01*
X409670Y244998D01*
X409784Y245033D01*
X409897Y245072D01*
X410009Y245114D01*
X410119Y245160D01*
X410227Y245210D01*
X410334Y245263D01*
X410439Y245320D01*
X410543Y245380D01*
X410644Y245444D01*
X410742Y245511D01*
X410839Y245581D01*
X410933Y245655D01*
X411025Y245731D01*
X411114Y245811D01*
X411201Y245893D01*
X411285Y245978D01*
X411366Y246066D01*
X411443Y246156D01*
X411518Y246249D01*
X411590Y246345D01*
X411659Y246443D01*
X411724Y246543D01*
X411786Y246645D01*
X411845Y246749D01*
X411900Y246855D01*
X411951Y246963D01*
X411999Y247072D01*
X412044Y247183D01*
X412084Y247295D01*
X412121Y247409D01*
X412154Y247524D01*
X412184Y247639D01*
X412209Y247756D01*
X412231Y247873D01*
X412248Y247992D01*
X412262Y248110D01*
X412272Y248229D01*
X412278Y248349D01*
X412280Y248468D01*
X398212Y247565D02*
X398212Y255693D01*
X398212Y247565D02*
X398210Y247464D01*
X398204Y247363D01*
X398195Y247262D01*
X398182Y247161D01*
X398165Y247061D01*
X398144Y246962D01*
X398120Y246864D01*
X398092Y246767D01*
X398060Y246670D01*
X398025Y246575D01*
X397986Y246482D01*
X397944Y246390D01*
X397898Y246299D01*
X397849Y246210D01*
X397797Y246124D01*
X397741Y246039D01*
X397683Y245956D01*
X397621Y245876D01*
X397556Y245798D01*
X397489Y245722D01*
X397419Y245649D01*
X397346Y245579D01*
X397270Y245512D01*
X397192Y245447D01*
X397112Y245385D01*
X397029Y245327D01*
X396944Y245271D01*
X396858Y245219D01*
X396769Y245170D01*
X396678Y245124D01*
X396586Y245082D01*
X396493Y245043D01*
X396398Y245008D01*
X396301Y244976D01*
X396204Y244948D01*
X396106Y244924D01*
X396007Y244903D01*
X395907Y244886D01*
X395806Y244873D01*
X395705Y244864D01*
X395604Y244858D01*
X395503Y244856D01*
X390988Y244856D01*
X390988Y255693D01*
X385442Y255693D02*
X380023Y255693D01*
X383635Y261112D02*
X383635Y247565D01*
X383633Y247464D01*
X383627Y247363D01*
X383618Y247262D01*
X383605Y247161D01*
X383588Y247061D01*
X383567Y246962D01*
X383543Y246864D01*
X383515Y246767D01*
X383483Y246670D01*
X383448Y246575D01*
X383409Y246482D01*
X383367Y246390D01*
X383321Y246299D01*
X383272Y246210D01*
X383220Y246124D01*
X383164Y246039D01*
X383106Y245956D01*
X383044Y245876D01*
X382979Y245798D01*
X382912Y245722D01*
X382842Y245649D01*
X382769Y245579D01*
X382693Y245512D01*
X382615Y245447D01*
X382535Y245385D01*
X382452Y245327D01*
X382367Y245271D01*
X382281Y245219D01*
X382192Y245170D01*
X382101Y245124D01*
X382009Y245082D01*
X381916Y245043D01*
X381821Y245008D01*
X381724Y244976D01*
X381627Y244948D01*
X381529Y244924D01*
X381430Y244903D01*
X381330Y244886D01*
X381229Y244873D01*
X381128Y244864D01*
X381027Y244858D01*
X380926Y244856D01*
X380023Y244856D01*
X365037Y253887D02*
X360521Y253887D01*
X360521Y253888D02*
X360388Y253886D01*
X360256Y253880D01*
X360124Y253870D01*
X359992Y253857D01*
X359860Y253839D01*
X359730Y253818D01*
X359599Y253793D01*
X359470Y253764D01*
X359342Y253731D01*
X359214Y253695D01*
X359088Y253655D01*
X358963Y253611D01*
X358839Y253563D01*
X358717Y253512D01*
X358596Y253457D01*
X358477Y253399D01*
X358359Y253337D01*
X358244Y253272D01*
X358130Y253203D01*
X358019Y253132D01*
X357910Y253056D01*
X357803Y252978D01*
X357698Y252897D01*
X357596Y252812D01*
X357496Y252725D01*
X357399Y252635D01*
X357304Y252542D01*
X357213Y252446D01*
X357124Y252348D01*
X357038Y252247D01*
X356955Y252143D01*
X356875Y252037D01*
X356799Y251929D01*
X356725Y251819D01*
X356655Y251706D01*
X356588Y251592D01*
X356525Y251475D01*
X356465Y251357D01*
X356408Y251237D01*
X356355Y251115D01*
X356306Y250992D01*
X356260Y250868D01*
X356218Y250742D01*
X356180Y250615D01*
X356145Y250487D01*
X356114Y250358D01*
X356087Y250229D01*
X356064Y250098D01*
X356044Y249967D01*
X356029Y249835D01*
X356017Y249703D01*
X356009Y249571D01*
X356005Y249438D01*
X356005Y249306D01*
X356009Y249173D01*
X356017Y249041D01*
X356029Y248909D01*
X356044Y248777D01*
X356064Y248646D01*
X356087Y248515D01*
X356114Y248386D01*
X356145Y248257D01*
X356180Y248129D01*
X356218Y248002D01*
X356260Y247876D01*
X356306Y247752D01*
X356355Y247629D01*
X356408Y247507D01*
X356465Y247387D01*
X356525Y247269D01*
X356588Y247152D01*
X356655Y247038D01*
X356725Y246925D01*
X356799Y246815D01*
X356875Y246707D01*
X356955Y246601D01*
X357038Y246497D01*
X357124Y246396D01*
X357213Y246298D01*
X357304Y246202D01*
X357399Y246109D01*
X357496Y246019D01*
X357596Y245932D01*
X357698Y245847D01*
X357803Y245766D01*
X357910Y245688D01*
X358019Y245612D01*
X358130Y245541D01*
X358244Y245472D01*
X358359Y245407D01*
X358477Y245345D01*
X358596Y245287D01*
X358717Y245232D01*
X358839Y245181D01*
X358963Y245133D01*
X359088Y245089D01*
X359214Y245049D01*
X359342Y245013D01*
X359470Y244980D01*
X359599Y244951D01*
X359730Y244926D01*
X359860Y244905D01*
X359992Y244887D01*
X360124Y244874D01*
X360256Y244864D01*
X360388Y244858D01*
X360521Y244856D01*
X365037Y244856D01*
X365037Y261112D01*
X360521Y261112D01*
X360402Y261110D01*
X360282Y261104D01*
X360163Y261094D01*
X360045Y261080D01*
X359926Y261063D01*
X359809Y261041D01*
X359692Y261016D01*
X359577Y260986D01*
X359462Y260953D01*
X359348Y260916D01*
X359236Y260876D01*
X359125Y260831D01*
X359016Y260783D01*
X358908Y260732D01*
X358802Y260677D01*
X358698Y260618D01*
X358596Y260556D01*
X358496Y260491D01*
X358398Y260422D01*
X358302Y260350D01*
X358209Y260275D01*
X358119Y260198D01*
X358031Y260117D01*
X357946Y260033D01*
X357864Y259946D01*
X357784Y259857D01*
X357708Y259765D01*
X357634Y259671D01*
X357564Y259574D01*
X357497Y259476D01*
X357433Y259375D01*
X357373Y259271D01*
X357316Y259166D01*
X357263Y259059D01*
X357213Y258951D01*
X357167Y258841D01*
X357125Y258729D01*
X357086Y258616D01*
X357051Y258502D01*
X357020Y258387D01*
X356992Y258270D01*
X356969Y258153D01*
X356949Y258036D01*
X356933Y257917D01*
X356921Y257798D01*
X356913Y257679D01*
X356909Y257560D01*
X356909Y257440D01*
X356913Y257321D01*
X356921Y257202D01*
X356933Y257083D01*
X356949Y256964D01*
X356969Y256847D01*
X356992Y256730D01*
X357020Y256613D01*
X357051Y256498D01*
X357086Y256384D01*
X357125Y256271D01*
X357167Y256159D01*
X357213Y256049D01*
X357263Y255941D01*
X357316Y255834D01*
X357373Y255729D01*
X357433Y255625D01*
X357497Y255524D01*
X357564Y255426D01*
X357634Y255329D01*
X357708Y255235D01*
X357784Y255143D01*
X357864Y255054D01*
X357946Y254967D01*
X358031Y254883D01*
X358119Y254802D01*
X358209Y254725D01*
X358302Y254650D01*
X358398Y254578D01*
X358496Y254509D01*
X358596Y254444D01*
X358698Y254382D01*
X358802Y254323D01*
X358908Y254268D01*
X359016Y254217D01*
X359125Y254169D01*
X359236Y254124D01*
X359348Y254084D01*
X359462Y254047D01*
X359577Y254014D01*
X359692Y253984D01*
X359809Y253959D01*
X359926Y253937D01*
X360045Y253920D01*
X360163Y253906D01*
X360282Y253896D01*
X360402Y253890D01*
X360521Y253888D01*
X350277Y252081D02*
X350277Y248468D01*
X350276Y252081D02*
X350274Y252200D01*
X350268Y252320D01*
X350258Y252439D01*
X350244Y252557D01*
X350227Y252676D01*
X350205Y252793D01*
X350180Y252910D01*
X350150Y253025D01*
X350117Y253140D01*
X350080Y253254D01*
X350040Y253366D01*
X349995Y253477D01*
X349947Y253586D01*
X349896Y253694D01*
X349841Y253800D01*
X349782Y253904D01*
X349720Y254006D01*
X349655Y254106D01*
X349586Y254204D01*
X349514Y254300D01*
X349439Y254393D01*
X349362Y254483D01*
X349281Y254571D01*
X349197Y254656D01*
X349110Y254738D01*
X349021Y254818D01*
X348929Y254894D01*
X348835Y254968D01*
X348738Y255038D01*
X348640Y255105D01*
X348539Y255169D01*
X348435Y255229D01*
X348330Y255286D01*
X348223Y255339D01*
X348115Y255389D01*
X348005Y255435D01*
X347893Y255477D01*
X347780Y255516D01*
X347666Y255551D01*
X347551Y255582D01*
X347434Y255610D01*
X347317Y255633D01*
X347200Y255653D01*
X347081Y255669D01*
X346962Y255681D01*
X346843Y255689D01*
X346724Y255693D01*
X346604Y255693D01*
X346485Y255689D01*
X346366Y255681D01*
X346247Y255669D01*
X346128Y255653D01*
X346011Y255633D01*
X345894Y255610D01*
X345777Y255582D01*
X345662Y255551D01*
X345548Y255516D01*
X345435Y255477D01*
X345323Y255435D01*
X345213Y255389D01*
X345105Y255339D01*
X344998Y255286D01*
X344893Y255229D01*
X344789Y255169D01*
X344688Y255105D01*
X344590Y255038D01*
X344493Y254968D01*
X344399Y254894D01*
X344307Y254818D01*
X344218Y254738D01*
X344131Y254656D01*
X344047Y254571D01*
X343966Y254483D01*
X343889Y254393D01*
X343814Y254300D01*
X343742Y254204D01*
X343673Y254106D01*
X343608Y254006D01*
X343546Y253904D01*
X343487Y253800D01*
X343432Y253694D01*
X343381Y253586D01*
X343333Y253477D01*
X343288Y253366D01*
X343248Y253254D01*
X343211Y253140D01*
X343178Y253025D01*
X343148Y252910D01*
X343123Y252793D01*
X343101Y252676D01*
X343084Y252557D01*
X343070Y252439D01*
X343060Y252320D01*
X343054Y252200D01*
X343052Y252081D01*
X343052Y248468D01*
X343054Y248349D01*
X343060Y248229D01*
X343070Y248110D01*
X343084Y247992D01*
X343101Y247873D01*
X343123Y247756D01*
X343148Y247639D01*
X343178Y247524D01*
X343211Y247409D01*
X343248Y247295D01*
X343288Y247183D01*
X343333Y247072D01*
X343381Y246963D01*
X343432Y246855D01*
X343487Y246749D01*
X343546Y246645D01*
X343608Y246543D01*
X343673Y246443D01*
X343742Y246345D01*
X343814Y246249D01*
X343889Y246156D01*
X343966Y246066D01*
X344047Y245978D01*
X344131Y245893D01*
X344218Y245811D01*
X344307Y245731D01*
X344399Y245655D01*
X344493Y245581D01*
X344590Y245511D01*
X344688Y245444D01*
X344789Y245380D01*
X344893Y245320D01*
X344998Y245263D01*
X345105Y245210D01*
X345213Y245160D01*
X345323Y245114D01*
X345435Y245072D01*
X345548Y245033D01*
X345662Y244998D01*
X345777Y244967D01*
X345894Y244939D01*
X346011Y244916D01*
X346128Y244896D01*
X346247Y244880D01*
X346366Y244868D01*
X346485Y244860D01*
X346604Y244856D01*
X346724Y244856D01*
X346843Y244860D01*
X346962Y244868D01*
X347081Y244880D01*
X347200Y244896D01*
X347317Y244916D01*
X347434Y244939D01*
X347551Y244967D01*
X347666Y244998D01*
X347780Y245033D01*
X347893Y245072D01*
X348005Y245114D01*
X348115Y245160D01*
X348223Y245210D01*
X348330Y245263D01*
X348435Y245320D01*
X348539Y245380D01*
X348640Y245444D01*
X348738Y245511D01*
X348835Y245581D01*
X348929Y245655D01*
X349021Y245731D01*
X349110Y245811D01*
X349197Y245893D01*
X349281Y245978D01*
X349362Y246066D01*
X349439Y246156D01*
X349514Y246249D01*
X349586Y246345D01*
X349655Y246443D01*
X349720Y246543D01*
X349782Y246645D01*
X349841Y246749D01*
X349896Y246855D01*
X349947Y246963D01*
X349995Y247072D01*
X350040Y247183D01*
X350080Y247295D01*
X350117Y247409D01*
X350150Y247524D01*
X350180Y247639D01*
X350205Y247756D01*
X350227Y247873D01*
X350244Y247992D01*
X350258Y248110D01*
X350268Y248229D01*
X350274Y248349D01*
X350276Y248468D01*
X333642Y251178D02*
X329578Y251178D01*
X333642Y251178D02*
X333754Y251176D01*
X333865Y251170D01*
X333976Y251160D01*
X334087Y251147D01*
X334197Y251129D01*
X334306Y251107D01*
X334415Y251082D01*
X334523Y251053D01*
X334629Y251020D01*
X334735Y250983D01*
X334839Y250943D01*
X334941Y250899D01*
X335042Y250851D01*
X335141Y250800D01*
X335239Y250745D01*
X335334Y250687D01*
X335427Y250626D01*
X335518Y250561D01*
X335607Y250493D01*
X335693Y250422D01*
X335776Y250349D01*
X335857Y250272D01*
X335936Y250192D01*
X336011Y250110D01*
X336083Y250025D01*
X336153Y249938D01*
X336219Y249848D01*
X336282Y249756D01*
X336342Y249661D01*
X336398Y249565D01*
X336451Y249467D01*
X336500Y249367D01*
X336546Y249265D01*
X336588Y249162D01*
X336627Y249057D01*
X336662Y248951D01*
X336693Y248844D01*
X336720Y248736D01*
X336744Y248627D01*
X336763Y248517D01*
X336779Y248407D01*
X336791Y248296D01*
X336799Y248184D01*
X336803Y248073D01*
X336803Y247961D01*
X336799Y247850D01*
X336791Y247738D01*
X336779Y247627D01*
X336763Y247517D01*
X336744Y247407D01*
X336720Y247298D01*
X336693Y247190D01*
X336662Y247083D01*
X336627Y246977D01*
X336588Y246872D01*
X336546Y246769D01*
X336500Y246667D01*
X336451Y246567D01*
X336398Y246469D01*
X336342Y246373D01*
X336282Y246278D01*
X336219Y246186D01*
X336153Y246096D01*
X336083Y246009D01*
X336011Y245924D01*
X335936Y245842D01*
X335857Y245762D01*
X335776Y245685D01*
X335693Y245612D01*
X335607Y245541D01*
X335518Y245473D01*
X335427Y245408D01*
X335334Y245347D01*
X335239Y245289D01*
X335141Y245234D01*
X335042Y245183D01*
X334941Y245135D01*
X334839Y245091D01*
X334735Y245051D01*
X334629Y245014D01*
X334523Y244981D01*
X334415Y244952D01*
X334306Y244927D01*
X334197Y244905D01*
X334087Y244887D01*
X333976Y244874D01*
X333865Y244864D01*
X333754Y244858D01*
X333642Y244856D01*
X329578Y244856D01*
X329578Y252984D01*
X329580Y253085D01*
X329586Y253186D01*
X329595Y253287D01*
X329608Y253388D01*
X329625Y253488D01*
X329646Y253587D01*
X329670Y253685D01*
X329698Y253782D01*
X329730Y253879D01*
X329765Y253974D01*
X329804Y254067D01*
X329846Y254159D01*
X329892Y254250D01*
X329941Y254339D01*
X329993Y254425D01*
X330049Y254510D01*
X330107Y254593D01*
X330169Y254673D01*
X330234Y254751D01*
X330301Y254827D01*
X330371Y254900D01*
X330444Y254970D01*
X330520Y255037D01*
X330598Y255102D01*
X330678Y255164D01*
X330761Y255222D01*
X330846Y255278D01*
X330933Y255330D01*
X331021Y255379D01*
X331112Y255425D01*
X331204Y255467D01*
X331297Y255506D01*
X331392Y255541D01*
X331489Y255573D01*
X331586Y255601D01*
X331684Y255625D01*
X331783Y255646D01*
X331883Y255663D01*
X331984Y255676D01*
X332085Y255685D01*
X332186Y255691D01*
X332287Y255693D01*
X335900Y255693D01*
X322056Y255693D02*
X322056Y244856D01*
X322056Y255693D02*
X316637Y255693D01*
X316637Y253887D01*
X304568Y261112D02*
X304568Y244856D01*
X309084Y244856D01*
X309185Y244858D01*
X309286Y244864D01*
X309387Y244873D01*
X309488Y244886D01*
X309588Y244903D01*
X309687Y244924D01*
X309785Y244948D01*
X309882Y244976D01*
X309979Y245008D01*
X310074Y245043D01*
X310167Y245082D01*
X310259Y245124D01*
X310350Y245170D01*
X310439Y245219D01*
X310525Y245271D01*
X310610Y245327D01*
X310693Y245385D01*
X310773Y245447D01*
X310851Y245512D01*
X310927Y245579D01*
X311000Y245649D01*
X311070Y245722D01*
X311137Y245798D01*
X311202Y245876D01*
X311264Y245956D01*
X311322Y246039D01*
X311378Y246124D01*
X311430Y246210D01*
X311479Y246299D01*
X311525Y246390D01*
X311567Y246482D01*
X311606Y246575D01*
X311641Y246670D01*
X311673Y246767D01*
X311701Y246864D01*
X311725Y246962D01*
X311746Y247061D01*
X311763Y247161D01*
X311776Y247262D01*
X311785Y247363D01*
X311791Y247464D01*
X311793Y247565D01*
X311793Y252984D01*
X311791Y253085D01*
X311785Y253186D01*
X311776Y253287D01*
X311763Y253388D01*
X311746Y253488D01*
X311725Y253587D01*
X311701Y253685D01*
X311673Y253782D01*
X311641Y253879D01*
X311606Y253974D01*
X311567Y254067D01*
X311525Y254159D01*
X311479Y254250D01*
X311430Y254339D01*
X311378Y254425D01*
X311322Y254510D01*
X311264Y254593D01*
X311202Y254673D01*
X311137Y254751D01*
X311070Y254827D01*
X311000Y254900D01*
X310927Y254970D01*
X310851Y255037D01*
X310773Y255102D01*
X310693Y255164D01*
X310610Y255222D01*
X310525Y255278D01*
X310439Y255330D01*
X310350Y255379D01*
X310259Y255425D01*
X310167Y255467D01*
X310074Y255506D01*
X309979Y255541D01*
X309882Y255573D01*
X309785Y255601D01*
X309687Y255625D01*
X309588Y255646D01*
X309488Y255663D01*
X309387Y255676D01*
X309286Y255685D01*
X309185Y255691D01*
X309084Y255693D01*
X304568Y255693D01*
X578527Y234442D02*
X578527Y221798D01*
X578528Y221798D02*
X578530Y221680D01*
X578536Y221562D01*
X578545Y221444D01*
X578559Y221327D01*
X578576Y221210D01*
X578597Y221093D01*
X578622Y220978D01*
X578651Y220863D01*
X578684Y220749D01*
X578720Y220637D01*
X578760Y220526D01*
X578803Y220416D01*
X578850Y220307D01*
X578900Y220200D01*
X578955Y220095D01*
X579012Y219992D01*
X579073Y219891D01*
X579137Y219791D01*
X579204Y219694D01*
X579274Y219599D01*
X579348Y219507D01*
X579424Y219416D01*
X579504Y219329D01*
X579586Y219244D01*
X579671Y219162D01*
X579758Y219082D01*
X579849Y219006D01*
X579941Y218932D01*
X580036Y218862D01*
X580133Y218795D01*
X580233Y218731D01*
X580334Y218670D01*
X580437Y218613D01*
X580542Y218558D01*
X580649Y218508D01*
X580758Y218461D01*
X580868Y218418D01*
X580979Y218378D01*
X581091Y218342D01*
X581205Y218309D01*
X581320Y218280D01*
X581435Y218255D01*
X581552Y218234D01*
X581669Y218217D01*
X581786Y218203D01*
X581904Y218194D01*
X582022Y218188D01*
X582140Y218186D01*
X583946Y218186D01*
X571599Y221798D02*
X571599Y225411D01*
X571597Y225530D01*
X571591Y225650D01*
X571581Y225769D01*
X571567Y225887D01*
X571550Y226006D01*
X571528Y226123D01*
X571503Y226240D01*
X571473Y226355D01*
X571440Y226470D01*
X571403Y226584D01*
X571363Y226696D01*
X571318Y226807D01*
X571270Y226916D01*
X571219Y227024D01*
X571164Y227130D01*
X571105Y227234D01*
X571043Y227336D01*
X570978Y227436D01*
X570909Y227534D01*
X570837Y227630D01*
X570762Y227723D01*
X570685Y227813D01*
X570604Y227901D01*
X570520Y227986D01*
X570433Y228068D01*
X570344Y228148D01*
X570252Y228224D01*
X570158Y228298D01*
X570061Y228368D01*
X569963Y228435D01*
X569862Y228499D01*
X569758Y228559D01*
X569653Y228616D01*
X569546Y228669D01*
X569438Y228719D01*
X569328Y228765D01*
X569216Y228807D01*
X569103Y228846D01*
X568989Y228881D01*
X568874Y228912D01*
X568757Y228940D01*
X568640Y228963D01*
X568523Y228983D01*
X568404Y228999D01*
X568285Y229011D01*
X568166Y229019D01*
X568047Y229023D01*
X567927Y229023D01*
X567808Y229019D01*
X567689Y229011D01*
X567570Y228999D01*
X567451Y228983D01*
X567334Y228963D01*
X567217Y228940D01*
X567100Y228912D01*
X566985Y228881D01*
X566871Y228846D01*
X566758Y228807D01*
X566646Y228765D01*
X566536Y228719D01*
X566428Y228669D01*
X566321Y228616D01*
X566216Y228559D01*
X566112Y228499D01*
X566011Y228435D01*
X565913Y228368D01*
X565816Y228298D01*
X565722Y228224D01*
X565630Y228148D01*
X565541Y228068D01*
X565454Y227986D01*
X565370Y227901D01*
X565289Y227813D01*
X565212Y227723D01*
X565137Y227630D01*
X565065Y227534D01*
X564996Y227436D01*
X564931Y227336D01*
X564869Y227234D01*
X564810Y227130D01*
X564755Y227024D01*
X564704Y226916D01*
X564656Y226807D01*
X564611Y226696D01*
X564571Y226584D01*
X564534Y226470D01*
X564501Y226355D01*
X564471Y226240D01*
X564446Y226123D01*
X564424Y226006D01*
X564407Y225887D01*
X564393Y225769D01*
X564383Y225650D01*
X564377Y225530D01*
X564375Y225411D01*
X564374Y225411D02*
X564374Y221798D01*
X564375Y221798D02*
X564377Y221679D01*
X564383Y221559D01*
X564393Y221440D01*
X564407Y221322D01*
X564424Y221203D01*
X564446Y221086D01*
X564471Y220969D01*
X564501Y220854D01*
X564534Y220739D01*
X564571Y220625D01*
X564611Y220513D01*
X564656Y220402D01*
X564704Y220293D01*
X564755Y220185D01*
X564810Y220079D01*
X564869Y219975D01*
X564931Y219873D01*
X564996Y219773D01*
X565065Y219675D01*
X565137Y219579D01*
X565212Y219486D01*
X565289Y219396D01*
X565370Y219308D01*
X565454Y219223D01*
X565541Y219141D01*
X565630Y219061D01*
X565722Y218985D01*
X565816Y218911D01*
X565913Y218841D01*
X566011Y218774D01*
X566112Y218710D01*
X566216Y218650D01*
X566321Y218593D01*
X566428Y218540D01*
X566536Y218490D01*
X566646Y218444D01*
X566758Y218402D01*
X566871Y218363D01*
X566985Y218328D01*
X567100Y218297D01*
X567217Y218269D01*
X567334Y218246D01*
X567451Y218226D01*
X567570Y218210D01*
X567689Y218198D01*
X567808Y218190D01*
X567927Y218186D01*
X568047Y218186D01*
X568166Y218190D01*
X568285Y218198D01*
X568404Y218210D01*
X568523Y218226D01*
X568640Y218246D01*
X568757Y218269D01*
X568874Y218297D01*
X568989Y218328D01*
X569103Y218363D01*
X569216Y218402D01*
X569328Y218444D01*
X569438Y218490D01*
X569546Y218540D01*
X569653Y218593D01*
X569758Y218650D01*
X569862Y218710D01*
X569963Y218774D01*
X570061Y218841D01*
X570158Y218911D01*
X570252Y218985D01*
X570344Y219061D01*
X570433Y219141D01*
X570520Y219223D01*
X570604Y219308D01*
X570685Y219396D01*
X570762Y219486D01*
X570837Y219579D01*
X570909Y219675D01*
X570978Y219773D01*
X571043Y219873D01*
X571105Y219975D01*
X571164Y220079D01*
X571219Y220185D01*
X571270Y220293D01*
X571318Y220402D01*
X571363Y220513D01*
X571403Y220625D01*
X571440Y220739D01*
X571473Y220854D01*
X571503Y220969D01*
X571528Y221086D01*
X571550Y221203D01*
X571567Y221322D01*
X571581Y221440D01*
X571591Y221559D01*
X571597Y221679D01*
X571599Y221798D01*
X556698Y224508D02*
X552182Y222702D01*
X556698Y224508D02*
X556786Y224545D01*
X556872Y224586D01*
X556957Y224630D01*
X557040Y224678D01*
X557120Y224729D01*
X557199Y224783D01*
X557275Y224841D01*
X557349Y224901D01*
X557421Y224965D01*
X557489Y225031D01*
X557555Y225101D01*
X557618Y225172D01*
X557679Y225247D01*
X557736Y225323D01*
X557789Y225402D01*
X557840Y225483D01*
X557887Y225566D01*
X557931Y225651D01*
X557971Y225738D01*
X558008Y225826D01*
X558041Y225916D01*
X558071Y226007D01*
X558096Y226099D01*
X558118Y226192D01*
X558136Y226286D01*
X558151Y226380D01*
X558161Y226475D01*
X558167Y226571D01*
X558170Y226666D01*
X558169Y226762D01*
X558163Y226857D01*
X558154Y226953D01*
X558141Y227047D01*
X558125Y227141D01*
X558104Y227235D01*
X558079Y227327D01*
X558051Y227418D01*
X558019Y227508D01*
X557984Y227597D01*
X557945Y227684D01*
X557902Y227770D01*
X557856Y227854D01*
X557806Y227935D01*
X557754Y228015D01*
X557698Y228093D01*
X557638Y228168D01*
X557576Y228240D01*
X557511Y228310D01*
X557443Y228378D01*
X557373Y228442D01*
X557300Y228504D01*
X557224Y228562D01*
X557146Y228618D01*
X557066Y228670D01*
X556984Y228719D01*
X556900Y228764D01*
X556814Y228806D01*
X556727Y228845D01*
X556638Y228880D01*
X556547Y228911D01*
X556456Y228938D01*
X556363Y228962D01*
X556270Y228982D01*
X556176Y228998D01*
X556081Y229010D01*
X555986Y229019D01*
X555890Y229023D01*
X555795Y229024D01*
X555548Y229017D01*
X555302Y229005D01*
X555056Y228987D01*
X554810Y228962D01*
X554566Y228932D01*
X554322Y228896D01*
X554079Y228855D01*
X553837Y228807D01*
X553596Y228753D01*
X553357Y228694D01*
X553119Y228629D01*
X552883Y228558D01*
X552648Y228482D01*
X552415Y228400D01*
X552185Y228312D01*
X551957Y228219D01*
X551730Y228121D01*
X552182Y222701D02*
X552094Y222664D01*
X552008Y222623D01*
X551923Y222579D01*
X551840Y222531D01*
X551760Y222480D01*
X551681Y222426D01*
X551605Y222368D01*
X551531Y222308D01*
X551459Y222244D01*
X551391Y222178D01*
X551325Y222108D01*
X551262Y222037D01*
X551201Y221962D01*
X551144Y221886D01*
X551091Y221807D01*
X551040Y221726D01*
X550993Y221643D01*
X550949Y221558D01*
X550909Y221471D01*
X550872Y221383D01*
X550839Y221293D01*
X550809Y221202D01*
X550784Y221110D01*
X550762Y221017D01*
X550744Y220923D01*
X550729Y220829D01*
X550719Y220734D01*
X550713Y220638D01*
X550710Y220543D01*
X550711Y220447D01*
X550717Y220352D01*
X550726Y220256D01*
X550739Y220162D01*
X550755Y220068D01*
X550776Y219974D01*
X550801Y219882D01*
X550829Y219791D01*
X550861Y219701D01*
X550896Y219612D01*
X550935Y219525D01*
X550978Y219439D01*
X551024Y219355D01*
X551074Y219274D01*
X551126Y219194D01*
X551182Y219116D01*
X551242Y219041D01*
X551304Y218969D01*
X551369Y218899D01*
X551437Y218831D01*
X551507Y218767D01*
X551580Y218705D01*
X551656Y218647D01*
X551734Y218591D01*
X551814Y218539D01*
X551896Y218490D01*
X551980Y218445D01*
X552066Y218403D01*
X552153Y218364D01*
X552242Y218329D01*
X552333Y218298D01*
X552424Y218271D01*
X552517Y218247D01*
X552610Y218227D01*
X552704Y218211D01*
X552799Y218199D01*
X552894Y218190D01*
X552990Y218186D01*
X553085Y218185D01*
X553085Y218186D02*
X553447Y218195D01*
X553809Y218213D01*
X554170Y218240D01*
X554530Y218275D01*
X554890Y218318D01*
X555249Y218370D01*
X555606Y218431D01*
X555961Y218500D01*
X556315Y218577D01*
X556667Y218663D01*
X557017Y218757D01*
X557365Y218860D01*
X557710Y218970D01*
X558052Y219089D01*
X543984Y218186D02*
X543984Y234442D01*
X543984Y229023D02*
X539469Y229023D01*
X539365Y229021D01*
X539262Y229015D01*
X539158Y229005D01*
X539055Y228991D01*
X538953Y228973D01*
X538852Y228952D01*
X538751Y228926D01*
X538652Y228897D01*
X538553Y228864D01*
X538456Y228827D01*
X538361Y228786D01*
X538267Y228742D01*
X538175Y228694D01*
X538085Y228643D01*
X537996Y228588D01*
X537910Y228530D01*
X537827Y228468D01*
X537745Y228404D01*
X537667Y228336D01*
X537591Y228266D01*
X537517Y228193D01*
X537447Y228116D01*
X537379Y228038D01*
X537315Y227956D01*
X537253Y227873D01*
X537195Y227787D01*
X537140Y227698D01*
X537089Y227608D01*
X537041Y227516D01*
X536997Y227422D01*
X536956Y227327D01*
X536919Y227230D01*
X536886Y227131D01*
X536857Y227032D01*
X536831Y226931D01*
X536810Y226830D01*
X536792Y226728D01*
X536778Y226625D01*
X536768Y226521D01*
X536762Y226418D01*
X536760Y226314D01*
X536759Y226314D02*
X536759Y218186D01*
X529395Y220895D02*
X529395Y229023D01*
X529395Y220895D02*
X529393Y220794D01*
X529387Y220693D01*
X529378Y220592D01*
X529365Y220491D01*
X529348Y220391D01*
X529327Y220292D01*
X529303Y220194D01*
X529275Y220097D01*
X529243Y220000D01*
X529208Y219905D01*
X529169Y219812D01*
X529127Y219720D01*
X529081Y219629D01*
X529032Y219540D01*
X528980Y219454D01*
X528924Y219369D01*
X528866Y219286D01*
X528804Y219206D01*
X528739Y219128D01*
X528672Y219052D01*
X528602Y218979D01*
X528529Y218909D01*
X528453Y218842D01*
X528375Y218777D01*
X528295Y218715D01*
X528212Y218657D01*
X528127Y218601D01*
X528041Y218549D01*
X527952Y218500D01*
X527861Y218454D01*
X527769Y218412D01*
X527676Y218373D01*
X527581Y218338D01*
X527484Y218306D01*
X527387Y218278D01*
X527289Y218254D01*
X527190Y218233D01*
X527090Y218216D01*
X526989Y218203D01*
X526888Y218194D01*
X526787Y218188D01*
X526686Y218186D01*
X522170Y218186D01*
X522170Y229023D01*
X512239Y224508D02*
X508175Y224508D01*
X512239Y224508D02*
X512351Y224506D01*
X512462Y224500D01*
X512573Y224490D01*
X512684Y224477D01*
X512794Y224459D01*
X512903Y224437D01*
X513012Y224412D01*
X513120Y224383D01*
X513226Y224350D01*
X513332Y224313D01*
X513436Y224273D01*
X513538Y224229D01*
X513639Y224181D01*
X513738Y224130D01*
X513836Y224075D01*
X513931Y224017D01*
X514024Y223956D01*
X514115Y223891D01*
X514204Y223823D01*
X514290Y223752D01*
X514373Y223679D01*
X514454Y223602D01*
X514533Y223522D01*
X514608Y223440D01*
X514680Y223355D01*
X514750Y223268D01*
X514816Y223178D01*
X514879Y223086D01*
X514939Y222991D01*
X514995Y222895D01*
X515048Y222797D01*
X515097Y222697D01*
X515143Y222595D01*
X515185Y222492D01*
X515224Y222387D01*
X515259Y222281D01*
X515290Y222174D01*
X515317Y222066D01*
X515341Y221957D01*
X515360Y221847D01*
X515376Y221737D01*
X515388Y221626D01*
X515396Y221514D01*
X515400Y221403D01*
X515400Y221291D01*
X515396Y221180D01*
X515388Y221068D01*
X515376Y220957D01*
X515360Y220847D01*
X515341Y220737D01*
X515317Y220628D01*
X515290Y220520D01*
X515259Y220413D01*
X515224Y220307D01*
X515185Y220202D01*
X515143Y220099D01*
X515097Y219997D01*
X515048Y219897D01*
X514995Y219799D01*
X514939Y219703D01*
X514879Y219608D01*
X514816Y219516D01*
X514750Y219426D01*
X514680Y219339D01*
X514608Y219254D01*
X514533Y219172D01*
X514454Y219092D01*
X514373Y219015D01*
X514290Y218942D01*
X514204Y218871D01*
X514115Y218803D01*
X514024Y218738D01*
X513931Y218677D01*
X513836Y218619D01*
X513738Y218564D01*
X513639Y218513D01*
X513538Y218465D01*
X513436Y218421D01*
X513332Y218381D01*
X513226Y218344D01*
X513120Y218311D01*
X513012Y218282D01*
X512903Y218257D01*
X512794Y218235D01*
X512684Y218217D01*
X512573Y218204D01*
X512462Y218194D01*
X512351Y218188D01*
X512239Y218186D01*
X508175Y218186D01*
X508175Y226314D01*
X508176Y226314D02*
X508178Y226415D01*
X508184Y226516D01*
X508193Y226617D01*
X508206Y226718D01*
X508223Y226818D01*
X508244Y226917D01*
X508268Y227015D01*
X508296Y227112D01*
X508328Y227209D01*
X508363Y227304D01*
X508402Y227397D01*
X508444Y227489D01*
X508490Y227580D01*
X508539Y227669D01*
X508591Y227755D01*
X508647Y227840D01*
X508705Y227923D01*
X508767Y228003D01*
X508832Y228081D01*
X508899Y228157D01*
X508969Y228230D01*
X509042Y228300D01*
X509118Y228367D01*
X509196Y228432D01*
X509276Y228494D01*
X509359Y228552D01*
X509444Y228608D01*
X509531Y228660D01*
X509619Y228709D01*
X509710Y228755D01*
X509802Y228797D01*
X509895Y228836D01*
X509990Y228871D01*
X510087Y228903D01*
X510184Y228931D01*
X510282Y228955D01*
X510381Y228976D01*
X510481Y228993D01*
X510582Y229006D01*
X510683Y229015D01*
X510784Y229021D01*
X510885Y229023D01*
X514497Y229023D01*
X492051Y227217D02*
X487536Y227217D01*
X487536Y227218D02*
X487403Y227216D01*
X487271Y227210D01*
X487139Y227200D01*
X487007Y227187D01*
X486875Y227169D01*
X486745Y227148D01*
X486614Y227123D01*
X486485Y227094D01*
X486357Y227061D01*
X486229Y227025D01*
X486103Y226985D01*
X485978Y226941D01*
X485854Y226893D01*
X485732Y226842D01*
X485611Y226787D01*
X485492Y226729D01*
X485374Y226667D01*
X485259Y226602D01*
X485145Y226533D01*
X485034Y226462D01*
X484925Y226386D01*
X484818Y226308D01*
X484713Y226227D01*
X484611Y226142D01*
X484511Y226055D01*
X484414Y225965D01*
X484319Y225872D01*
X484228Y225776D01*
X484139Y225678D01*
X484053Y225577D01*
X483970Y225473D01*
X483890Y225367D01*
X483814Y225259D01*
X483740Y225149D01*
X483670Y225036D01*
X483603Y224922D01*
X483540Y224805D01*
X483480Y224687D01*
X483423Y224567D01*
X483370Y224445D01*
X483321Y224322D01*
X483275Y224198D01*
X483233Y224072D01*
X483195Y223945D01*
X483160Y223817D01*
X483129Y223688D01*
X483102Y223559D01*
X483079Y223428D01*
X483059Y223297D01*
X483044Y223165D01*
X483032Y223033D01*
X483024Y222901D01*
X483020Y222768D01*
X483020Y222636D01*
X483024Y222503D01*
X483032Y222371D01*
X483044Y222239D01*
X483059Y222107D01*
X483079Y221976D01*
X483102Y221845D01*
X483129Y221716D01*
X483160Y221587D01*
X483195Y221459D01*
X483233Y221332D01*
X483275Y221206D01*
X483321Y221082D01*
X483370Y220959D01*
X483423Y220837D01*
X483480Y220717D01*
X483540Y220599D01*
X483603Y220482D01*
X483670Y220368D01*
X483740Y220255D01*
X483814Y220145D01*
X483890Y220037D01*
X483970Y219931D01*
X484053Y219827D01*
X484139Y219726D01*
X484228Y219628D01*
X484319Y219532D01*
X484414Y219439D01*
X484511Y219349D01*
X484611Y219262D01*
X484713Y219177D01*
X484818Y219096D01*
X484925Y219018D01*
X485034Y218942D01*
X485145Y218871D01*
X485259Y218802D01*
X485374Y218737D01*
X485492Y218675D01*
X485611Y218617D01*
X485732Y218562D01*
X485854Y218511D01*
X485978Y218463D01*
X486103Y218419D01*
X486229Y218379D01*
X486357Y218343D01*
X486485Y218310D01*
X486614Y218281D01*
X486745Y218256D01*
X486875Y218235D01*
X487007Y218217D01*
X487139Y218204D01*
X487271Y218194D01*
X487403Y218188D01*
X487536Y218186D01*
X492051Y218186D01*
X492051Y234442D01*
X487536Y234442D01*
X487417Y234440D01*
X487297Y234434D01*
X487178Y234424D01*
X487060Y234410D01*
X486941Y234393D01*
X486824Y234371D01*
X486707Y234346D01*
X486592Y234316D01*
X486477Y234283D01*
X486363Y234246D01*
X486251Y234206D01*
X486140Y234161D01*
X486031Y234113D01*
X485923Y234062D01*
X485817Y234007D01*
X485713Y233948D01*
X485611Y233886D01*
X485511Y233821D01*
X485413Y233752D01*
X485317Y233680D01*
X485224Y233605D01*
X485134Y233528D01*
X485046Y233447D01*
X484961Y233363D01*
X484879Y233276D01*
X484799Y233187D01*
X484723Y233095D01*
X484649Y233001D01*
X484579Y232904D01*
X484512Y232806D01*
X484448Y232705D01*
X484388Y232601D01*
X484331Y232496D01*
X484278Y232389D01*
X484228Y232281D01*
X484182Y232171D01*
X484140Y232059D01*
X484101Y231946D01*
X484066Y231832D01*
X484035Y231717D01*
X484007Y231600D01*
X483984Y231483D01*
X483964Y231366D01*
X483948Y231247D01*
X483936Y231128D01*
X483928Y231009D01*
X483924Y230890D01*
X483924Y230770D01*
X483928Y230651D01*
X483936Y230532D01*
X483948Y230413D01*
X483964Y230294D01*
X483984Y230177D01*
X484007Y230060D01*
X484035Y229943D01*
X484066Y229828D01*
X484101Y229714D01*
X484140Y229601D01*
X484182Y229489D01*
X484228Y229379D01*
X484278Y229271D01*
X484331Y229164D01*
X484388Y229059D01*
X484448Y228955D01*
X484512Y228854D01*
X484579Y228756D01*
X484649Y228659D01*
X484723Y228565D01*
X484799Y228473D01*
X484879Y228384D01*
X484961Y228297D01*
X485046Y228213D01*
X485134Y228132D01*
X485224Y228055D01*
X485317Y227980D01*
X485413Y227908D01*
X485511Y227839D01*
X485611Y227774D01*
X485713Y227712D01*
X485817Y227653D01*
X485923Y227598D01*
X486031Y227547D01*
X486140Y227499D01*
X486251Y227454D01*
X486363Y227414D01*
X486477Y227377D01*
X486592Y227344D01*
X486707Y227314D01*
X486824Y227289D01*
X486941Y227267D01*
X487060Y227250D01*
X487178Y227236D01*
X487297Y227226D01*
X487417Y227220D01*
X487536Y227218D01*
X476685Y229023D02*
X476685Y218186D01*
X476685Y229023D02*
X471266Y229023D01*
X471266Y227217D01*
X463640Y218186D02*
X459124Y218186D01*
X463640Y218186D02*
X463741Y218188D01*
X463842Y218194D01*
X463943Y218203D01*
X464044Y218216D01*
X464144Y218233D01*
X464243Y218254D01*
X464341Y218278D01*
X464438Y218306D01*
X464535Y218338D01*
X464630Y218373D01*
X464723Y218412D01*
X464815Y218454D01*
X464906Y218500D01*
X464995Y218549D01*
X465081Y218601D01*
X465166Y218657D01*
X465249Y218715D01*
X465329Y218777D01*
X465407Y218842D01*
X465483Y218909D01*
X465556Y218979D01*
X465626Y219052D01*
X465693Y219128D01*
X465758Y219206D01*
X465820Y219286D01*
X465878Y219369D01*
X465934Y219454D01*
X465986Y219540D01*
X466035Y219629D01*
X466081Y219720D01*
X466123Y219812D01*
X466162Y219905D01*
X466197Y220000D01*
X466229Y220097D01*
X466257Y220194D01*
X466281Y220292D01*
X466302Y220391D01*
X466319Y220491D01*
X466332Y220592D01*
X466341Y220693D01*
X466347Y220794D01*
X466349Y220895D01*
X466349Y225411D01*
X466347Y225530D01*
X466341Y225650D01*
X466331Y225769D01*
X466317Y225887D01*
X466300Y226006D01*
X466278Y226123D01*
X466253Y226240D01*
X466223Y226355D01*
X466190Y226470D01*
X466153Y226584D01*
X466113Y226696D01*
X466068Y226807D01*
X466020Y226916D01*
X465969Y227024D01*
X465914Y227130D01*
X465855Y227234D01*
X465793Y227336D01*
X465728Y227436D01*
X465659Y227534D01*
X465587Y227630D01*
X465512Y227723D01*
X465435Y227813D01*
X465354Y227901D01*
X465270Y227986D01*
X465183Y228068D01*
X465094Y228148D01*
X465002Y228224D01*
X464908Y228298D01*
X464811Y228368D01*
X464713Y228435D01*
X464612Y228499D01*
X464508Y228559D01*
X464403Y228616D01*
X464296Y228669D01*
X464188Y228719D01*
X464078Y228765D01*
X463966Y228807D01*
X463853Y228846D01*
X463739Y228881D01*
X463624Y228912D01*
X463507Y228940D01*
X463390Y228963D01*
X463273Y228983D01*
X463154Y228999D01*
X463035Y229011D01*
X462916Y229019D01*
X462797Y229023D01*
X462677Y229023D01*
X462558Y229019D01*
X462439Y229011D01*
X462320Y228999D01*
X462201Y228983D01*
X462084Y228963D01*
X461967Y228940D01*
X461850Y228912D01*
X461735Y228881D01*
X461621Y228846D01*
X461508Y228807D01*
X461396Y228765D01*
X461286Y228719D01*
X461178Y228669D01*
X461071Y228616D01*
X460966Y228559D01*
X460862Y228499D01*
X460761Y228435D01*
X460663Y228368D01*
X460566Y228298D01*
X460472Y228224D01*
X460380Y228148D01*
X460291Y228068D01*
X460204Y227986D01*
X460120Y227901D01*
X460039Y227813D01*
X459962Y227723D01*
X459887Y227630D01*
X459815Y227534D01*
X459746Y227436D01*
X459681Y227336D01*
X459619Y227234D01*
X459560Y227130D01*
X459505Y227024D01*
X459454Y226916D01*
X459406Y226807D01*
X459361Y226696D01*
X459321Y226584D01*
X459284Y226470D01*
X459251Y226355D01*
X459221Y226240D01*
X459196Y226123D01*
X459174Y226006D01*
X459157Y225887D01*
X459143Y225769D01*
X459133Y225650D01*
X459127Y225530D01*
X459125Y225411D01*
X459124Y225411D02*
X459124Y223605D01*
X466349Y223605D01*
X453045Y229023D02*
X450336Y218186D01*
X447626Y225411D01*
X444917Y218186D01*
X442208Y229023D01*
X434774Y224508D02*
X430259Y222702D01*
X434774Y224508D02*
X434862Y224545D01*
X434948Y224586D01*
X435033Y224630D01*
X435116Y224678D01*
X435196Y224729D01*
X435275Y224783D01*
X435351Y224841D01*
X435425Y224901D01*
X435497Y224965D01*
X435565Y225031D01*
X435631Y225101D01*
X435694Y225172D01*
X435755Y225247D01*
X435812Y225323D01*
X435865Y225402D01*
X435916Y225483D01*
X435963Y225566D01*
X436007Y225651D01*
X436047Y225738D01*
X436084Y225826D01*
X436117Y225916D01*
X436147Y226007D01*
X436172Y226099D01*
X436194Y226192D01*
X436212Y226286D01*
X436227Y226380D01*
X436237Y226475D01*
X436243Y226571D01*
X436246Y226666D01*
X436245Y226762D01*
X436239Y226857D01*
X436230Y226953D01*
X436217Y227047D01*
X436201Y227141D01*
X436180Y227235D01*
X436155Y227327D01*
X436127Y227418D01*
X436095Y227508D01*
X436060Y227597D01*
X436021Y227684D01*
X435978Y227770D01*
X435932Y227854D01*
X435882Y227935D01*
X435830Y228015D01*
X435774Y228093D01*
X435714Y228168D01*
X435652Y228240D01*
X435587Y228310D01*
X435519Y228378D01*
X435449Y228442D01*
X435376Y228504D01*
X435300Y228562D01*
X435222Y228618D01*
X435142Y228670D01*
X435060Y228719D01*
X434976Y228764D01*
X434890Y228806D01*
X434803Y228845D01*
X434714Y228880D01*
X434623Y228911D01*
X434532Y228938D01*
X434439Y228962D01*
X434346Y228982D01*
X434252Y228998D01*
X434157Y229010D01*
X434062Y229019D01*
X433966Y229023D01*
X433871Y229024D01*
X433624Y229017D01*
X433378Y229005D01*
X433132Y228987D01*
X432886Y228962D01*
X432642Y228932D01*
X432398Y228896D01*
X432155Y228855D01*
X431913Y228807D01*
X431672Y228753D01*
X431433Y228694D01*
X431195Y228629D01*
X430959Y228558D01*
X430724Y228482D01*
X430491Y228400D01*
X430261Y228312D01*
X430033Y228219D01*
X429806Y228121D01*
X430258Y222701D02*
X430170Y222664D01*
X430084Y222623D01*
X429999Y222579D01*
X429916Y222531D01*
X429836Y222480D01*
X429757Y222426D01*
X429681Y222368D01*
X429607Y222308D01*
X429535Y222244D01*
X429467Y222178D01*
X429401Y222108D01*
X429338Y222037D01*
X429277Y221962D01*
X429220Y221886D01*
X429167Y221807D01*
X429116Y221726D01*
X429069Y221643D01*
X429025Y221558D01*
X428985Y221471D01*
X428948Y221383D01*
X428915Y221293D01*
X428885Y221202D01*
X428860Y221110D01*
X428838Y221017D01*
X428820Y220923D01*
X428805Y220829D01*
X428795Y220734D01*
X428789Y220638D01*
X428786Y220543D01*
X428787Y220447D01*
X428793Y220352D01*
X428802Y220256D01*
X428815Y220162D01*
X428831Y220068D01*
X428852Y219974D01*
X428877Y219882D01*
X428905Y219791D01*
X428937Y219701D01*
X428972Y219612D01*
X429011Y219525D01*
X429054Y219439D01*
X429100Y219355D01*
X429150Y219274D01*
X429202Y219194D01*
X429258Y219116D01*
X429318Y219041D01*
X429380Y218969D01*
X429445Y218899D01*
X429513Y218831D01*
X429583Y218767D01*
X429656Y218705D01*
X429732Y218647D01*
X429810Y218591D01*
X429890Y218539D01*
X429972Y218490D01*
X430056Y218445D01*
X430142Y218403D01*
X430229Y218364D01*
X430318Y218329D01*
X430409Y218298D01*
X430500Y218271D01*
X430593Y218247D01*
X430686Y218227D01*
X430780Y218211D01*
X430875Y218199D01*
X430970Y218190D01*
X431066Y218186D01*
X431161Y218185D01*
X431162Y218186D02*
X431524Y218195D01*
X431886Y218213D01*
X432247Y218240D01*
X432607Y218275D01*
X432967Y218318D01*
X433326Y218370D01*
X433683Y218431D01*
X434038Y218500D01*
X434392Y218577D01*
X434744Y218663D01*
X435094Y218757D01*
X435442Y218860D01*
X435787Y218970D01*
X436129Y219089D01*
X423879Y229023D02*
X418460Y229023D01*
X422073Y234442D02*
X422073Y220895D01*
X422072Y220895D02*
X422070Y220794D01*
X422064Y220693D01*
X422055Y220592D01*
X422042Y220491D01*
X422025Y220391D01*
X422004Y220292D01*
X421980Y220194D01*
X421952Y220097D01*
X421920Y220000D01*
X421885Y219905D01*
X421846Y219812D01*
X421804Y219720D01*
X421758Y219629D01*
X421709Y219540D01*
X421657Y219454D01*
X421601Y219369D01*
X421543Y219286D01*
X421481Y219206D01*
X421416Y219128D01*
X421349Y219052D01*
X421279Y218979D01*
X421206Y218909D01*
X421130Y218842D01*
X421052Y218777D01*
X420972Y218715D01*
X420889Y218657D01*
X420804Y218601D01*
X420718Y218549D01*
X420629Y218500D01*
X420538Y218454D01*
X420446Y218412D01*
X420353Y218373D01*
X420258Y218338D01*
X420161Y218306D01*
X420064Y218278D01*
X419966Y218254D01*
X419867Y218233D01*
X419767Y218216D01*
X419666Y218203D01*
X419565Y218194D01*
X419464Y218188D01*
X419363Y218186D01*
X418460Y218186D01*
X409973Y218186D02*
X405457Y218186D01*
X409973Y218186D02*
X410074Y218188D01*
X410175Y218194D01*
X410276Y218203D01*
X410377Y218216D01*
X410477Y218233D01*
X410576Y218254D01*
X410674Y218278D01*
X410771Y218306D01*
X410868Y218338D01*
X410963Y218373D01*
X411056Y218412D01*
X411148Y218454D01*
X411239Y218500D01*
X411328Y218549D01*
X411414Y218601D01*
X411499Y218657D01*
X411582Y218715D01*
X411662Y218777D01*
X411740Y218842D01*
X411816Y218909D01*
X411889Y218979D01*
X411959Y219052D01*
X412026Y219128D01*
X412091Y219206D01*
X412153Y219286D01*
X412211Y219369D01*
X412267Y219454D01*
X412319Y219540D01*
X412368Y219629D01*
X412414Y219720D01*
X412456Y219812D01*
X412495Y219905D01*
X412530Y220000D01*
X412562Y220097D01*
X412590Y220194D01*
X412614Y220292D01*
X412635Y220391D01*
X412652Y220491D01*
X412665Y220592D01*
X412674Y220693D01*
X412680Y220794D01*
X412682Y220895D01*
X412682Y225411D01*
X412681Y225411D02*
X412679Y225530D01*
X412673Y225650D01*
X412663Y225769D01*
X412649Y225887D01*
X412632Y226006D01*
X412610Y226123D01*
X412585Y226240D01*
X412555Y226355D01*
X412522Y226470D01*
X412485Y226584D01*
X412445Y226696D01*
X412400Y226807D01*
X412352Y226916D01*
X412301Y227024D01*
X412246Y227130D01*
X412187Y227234D01*
X412125Y227336D01*
X412060Y227436D01*
X411991Y227534D01*
X411919Y227630D01*
X411844Y227723D01*
X411767Y227813D01*
X411686Y227901D01*
X411602Y227986D01*
X411515Y228068D01*
X411426Y228148D01*
X411334Y228224D01*
X411240Y228298D01*
X411143Y228368D01*
X411045Y228435D01*
X410944Y228499D01*
X410840Y228559D01*
X410735Y228616D01*
X410628Y228669D01*
X410520Y228719D01*
X410410Y228765D01*
X410298Y228807D01*
X410185Y228846D01*
X410071Y228881D01*
X409956Y228912D01*
X409839Y228940D01*
X409722Y228963D01*
X409605Y228983D01*
X409486Y228999D01*
X409367Y229011D01*
X409248Y229019D01*
X409129Y229023D01*
X409009Y229023D01*
X408890Y229019D01*
X408771Y229011D01*
X408652Y228999D01*
X408533Y228983D01*
X408416Y228963D01*
X408299Y228940D01*
X408182Y228912D01*
X408067Y228881D01*
X407953Y228846D01*
X407840Y228807D01*
X407728Y228765D01*
X407618Y228719D01*
X407510Y228669D01*
X407403Y228616D01*
X407298Y228559D01*
X407194Y228499D01*
X407093Y228435D01*
X406995Y228368D01*
X406898Y228298D01*
X406804Y228224D01*
X406712Y228148D01*
X406623Y228068D01*
X406536Y227986D01*
X406452Y227901D01*
X406371Y227813D01*
X406294Y227723D01*
X406219Y227630D01*
X406147Y227534D01*
X406078Y227436D01*
X406013Y227336D01*
X405951Y227234D01*
X405892Y227130D01*
X405837Y227024D01*
X405786Y226916D01*
X405738Y226807D01*
X405693Y226696D01*
X405653Y226584D01*
X405616Y226470D01*
X405583Y226355D01*
X405553Y226240D01*
X405528Y226123D01*
X405506Y226006D01*
X405489Y225887D01*
X405475Y225769D01*
X405465Y225650D01*
X405459Y225530D01*
X405457Y225411D01*
X405457Y223605D01*
X412682Y223605D01*
X398529Y218186D02*
X398529Y229023D01*
X393110Y229023D01*
X393110Y227217D01*
X583946Y207772D02*
X583946Y191516D01*
X578527Y198741D02*
X583946Y207772D01*
X578527Y198741D02*
X573109Y207772D01*
X573109Y191516D01*
X564459Y191516D02*
X564459Y207772D01*
X566265Y191516D02*
X562653Y191516D01*
X562653Y207772D02*
X566265Y207772D01*
X552996Y207772D02*
X552996Y191516D01*
X557512Y207772D02*
X548481Y207772D01*
X534035Y207772D02*
X534035Y191516D01*
X526810Y191516D01*
X521213Y191516D02*
X521213Y202353D01*
X521664Y206869D02*
X521664Y207772D01*
X520761Y207772D01*
X520761Y206869D01*
X521664Y206869D01*
X512199Y191516D02*
X508586Y191516D01*
X512199Y191516D02*
X512300Y191518D01*
X512401Y191524D01*
X512502Y191533D01*
X512603Y191546D01*
X512703Y191563D01*
X512802Y191584D01*
X512900Y191608D01*
X512997Y191636D01*
X513094Y191668D01*
X513189Y191703D01*
X513282Y191742D01*
X513374Y191784D01*
X513465Y191830D01*
X513554Y191879D01*
X513640Y191931D01*
X513725Y191987D01*
X513808Y192045D01*
X513888Y192107D01*
X513966Y192172D01*
X514042Y192239D01*
X514115Y192309D01*
X514185Y192382D01*
X514252Y192458D01*
X514317Y192536D01*
X514379Y192616D01*
X514437Y192699D01*
X514493Y192784D01*
X514545Y192870D01*
X514594Y192959D01*
X514640Y193050D01*
X514682Y193142D01*
X514721Y193235D01*
X514756Y193330D01*
X514788Y193427D01*
X514816Y193524D01*
X514840Y193622D01*
X514861Y193721D01*
X514878Y193821D01*
X514891Y193922D01*
X514900Y194023D01*
X514906Y194124D01*
X514908Y194225D01*
X514908Y199644D01*
X514906Y199745D01*
X514900Y199846D01*
X514891Y199947D01*
X514878Y200048D01*
X514861Y200148D01*
X514840Y200247D01*
X514816Y200345D01*
X514788Y200442D01*
X514756Y200539D01*
X514721Y200634D01*
X514682Y200727D01*
X514640Y200819D01*
X514594Y200910D01*
X514545Y200999D01*
X514493Y201085D01*
X514437Y201170D01*
X514379Y201253D01*
X514317Y201333D01*
X514252Y201411D01*
X514185Y201487D01*
X514115Y201560D01*
X514042Y201630D01*
X513966Y201697D01*
X513888Y201762D01*
X513808Y201824D01*
X513725Y201882D01*
X513640Y201938D01*
X513554Y201990D01*
X513465Y202039D01*
X513374Y202085D01*
X513282Y202127D01*
X513189Y202166D01*
X513094Y202201D01*
X512997Y202233D01*
X512900Y202261D01*
X512802Y202285D01*
X512703Y202306D01*
X512603Y202323D01*
X512502Y202336D01*
X512401Y202345D01*
X512300Y202351D01*
X512199Y202353D01*
X508586Y202353D01*
X500232Y191516D02*
X495717Y191516D01*
X500232Y191516D02*
X500333Y191518D01*
X500434Y191524D01*
X500535Y191533D01*
X500636Y191546D01*
X500736Y191563D01*
X500835Y191584D01*
X500933Y191608D01*
X501030Y191636D01*
X501127Y191668D01*
X501222Y191703D01*
X501315Y191742D01*
X501407Y191784D01*
X501498Y191830D01*
X501587Y191879D01*
X501673Y191931D01*
X501758Y191987D01*
X501841Y192045D01*
X501921Y192107D01*
X501999Y192172D01*
X502075Y192239D01*
X502148Y192309D01*
X502218Y192382D01*
X502285Y192458D01*
X502350Y192536D01*
X502412Y192616D01*
X502470Y192699D01*
X502526Y192784D01*
X502578Y192870D01*
X502627Y192959D01*
X502673Y193050D01*
X502715Y193142D01*
X502754Y193235D01*
X502789Y193330D01*
X502821Y193427D01*
X502849Y193524D01*
X502873Y193622D01*
X502894Y193721D01*
X502911Y193821D01*
X502924Y193922D01*
X502933Y194023D01*
X502939Y194124D01*
X502941Y194225D01*
X502942Y194225D02*
X502942Y198741D01*
X502941Y198741D02*
X502939Y198860D01*
X502933Y198980D01*
X502923Y199099D01*
X502909Y199217D01*
X502892Y199336D01*
X502870Y199453D01*
X502845Y199570D01*
X502815Y199685D01*
X502782Y199800D01*
X502745Y199914D01*
X502705Y200026D01*
X502660Y200137D01*
X502612Y200246D01*
X502561Y200354D01*
X502506Y200460D01*
X502447Y200564D01*
X502385Y200666D01*
X502320Y200766D01*
X502251Y200864D01*
X502179Y200960D01*
X502104Y201053D01*
X502027Y201143D01*
X501946Y201231D01*
X501862Y201316D01*
X501775Y201398D01*
X501686Y201478D01*
X501594Y201554D01*
X501500Y201628D01*
X501403Y201698D01*
X501305Y201765D01*
X501204Y201829D01*
X501100Y201889D01*
X500995Y201946D01*
X500888Y201999D01*
X500780Y202049D01*
X500670Y202095D01*
X500558Y202137D01*
X500445Y202176D01*
X500331Y202211D01*
X500216Y202242D01*
X500099Y202270D01*
X499982Y202293D01*
X499865Y202313D01*
X499746Y202329D01*
X499627Y202341D01*
X499508Y202349D01*
X499389Y202353D01*
X499269Y202353D01*
X499150Y202349D01*
X499031Y202341D01*
X498912Y202329D01*
X498793Y202313D01*
X498676Y202293D01*
X498559Y202270D01*
X498442Y202242D01*
X498327Y202211D01*
X498213Y202176D01*
X498100Y202137D01*
X497988Y202095D01*
X497878Y202049D01*
X497770Y201999D01*
X497663Y201946D01*
X497558Y201889D01*
X497454Y201829D01*
X497353Y201765D01*
X497255Y201698D01*
X497158Y201628D01*
X497064Y201554D01*
X496972Y201478D01*
X496883Y201398D01*
X496796Y201316D01*
X496712Y201231D01*
X496631Y201143D01*
X496554Y201053D01*
X496479Y200960D01*
X496407Y200864D01*
X496338Y200766D01*
X496273Y200666D01*
X496211Y200564D01*
X496152Y200460D01*
X496097Y200354D01*
X496046Y200246D01*
X495998Y200137D01*
X495953Y200026D01*
X495913Y199914D01*
X495876Y199800D01*
X495843Y199685D01*
X495813Y199570D01*
X495788Y199453D01*
X495766Y199336D01*
X495749Y199217D01*
X495735Y199099D01*
X495725Y198980D01*
X495719Y198860D01*
X495717Y198741D01*
X495717Y196935D01*
X502942Y196935D01*
X488874Y191516D02*
X488874Y202353D01*
X484358Y202353D01*
X484254Y202351D01*
X484151Y202345D01*
X484047Y202335D01*
X483944Y202321D01*
X483842Y202303D01*
X483741Y202282D01*
X483640Y202256D01*
X483541Y202227D01*
X483442Y202194D01*
X483345Y202157D01*
X483250Y202116D01*
X483156Y202072D01*
X483064Y202024D01*
X482974Y201973D01*
X482885Y201918D01*
X482799Y201860D01*
X482716Y201798D01*
X482634Y201734D01*
X482556Y201666D01*
X482480Y201596D01*
X482406Y201523D01*
X482336Y201446D01*
X482268Y201368D01*
X482204Y201286D01*
X482142Y201203D01*
X482084Y201117D01*
X482029Y201028D01*
X481978Y200938D01*
X481930Y200846D01*
X481886Y200752D01*
X481845Y200657D01*
X481808Y200560D01*
X481775Y200461D01*
X481746Y200362D01*
X481720Y200261D01*
X481699Y200160D01*
X481681Y200058D01*
X481667Y199955D01*
X481657Y199851D01*
X481651Y199748D01*
X481649Y199644D01*
X481649Y191516D01*
X473451Y197838D02*
X468935Y196032D01*
X473451Y197838D02*
X473539Y197875D01*
X473625Y197916D01*
X473710Y197960D01*
X473793Y198008D01*
X473873Y198059D01*
X473952Y198113D01*
X474028Y198171D01*
X474102Y198231D01*
X474174Y198295D01*
X474242Y198361D01*
X474308Y198431D01*
X474371Y198502D01*
X474432Y198577D01*
X474489Y198653D01*
X474542Y198732D01*
X474593Y198813D01*
X474640Y198896D01*
X474684Y198981D01*
X474724Y199068D01*
X474761Y199156D01*
X474794Y199246D01*
X474824Y199337D01*
X474849Y199429D01*
X474871Y199522D01*
X474889Y199616D01*
X474904Y199710D01*
X474914Y199805D01*
X474920Y199901D01*
X474923Y199996D01*
X474922Y200092D01*
X474916Y200187D01*
X474907Y200283D01*
X474894Y200377D01*
X474878Y200471D01*
X474857Y200565D01*
X474832Y200657D01*
X474804Y200748D01*
X474772Y200838D01*
X474737Y200927D01*
X474698Y201014D01*
X474655Y201100D01*
X474609Y201184D01*
X474559Y201265D01*
X474507Y201345D01*
X474451Y201423D01*
X474391Y201498D01*
X474329Y201570D01*
X474264Y201640D01*
X474196Y201708D01*
X474126Y201772D01*
X474053Y201834D01*
X473977Y201892D01*
X473899Y201948D01*
X473819Y202000D01*
X473737Y202049D01*
X473653Y202094D01*
X473567Y202136D01*
X473480Y202175D01*
X473391Y202210D01*
X473300Y202241D01*
X473209Y202268D01*
X473116Y202292D01*
X473023Y202312D01*
X472929Y202328D01*
X472834Y202340D01*
X472739Y202349D01*
X472643Y202353D01*
X472548Y202354D01*
X472301Y202347D01*
X472055Y202335D01*
X471809Y202317D01*
X471563Y202292D01*
X471319Y202262D01*
X471075Y202226D01*
X470832Y202185D01*
X470590Y202137D01*
X470349Y202083D01*
X470110Y202024D01*
X469872Y201959D01*
X469636Y201888D01*
X469401Y201812D01*
X469168Y201730D01*
X468938Y201642D01*
X468710Y201549D01*
X468483Y201451D01*
X468935Y196031D02*
X468847Y195994D01*
X468761Y195953D01*
X468676Y195909D01*
X468593Y195861D01*
X468513Y195810D01*
X468434Y195756D01*
X468358Y195698D01*
X468284Y195638D01*
X468212Y195574D01*
X468144Y195508D01*
X468078Y195438D01*
X468015Y195367D01*
X467954Y195292D01*
X467897Y195216D01*
X467844Y195137D01*
X467793Y195056D01*
X467746Y194973D01*
X467702Y194888D01*
X467662Y194801D01*
X467625Y194713D01*
X467592Y194623D01*
X467562Y194532D01*
X467537Y194440D01*
X467515Y194347D01*
X467497Y194253D01*
X467482Y194159D01*
X467472Y194064D01*
X467466Y193968D01*
X467463Y193873D01*
X467464Y193777D01*
X467470Y193682D01*
X467479Y193586D01*
X467492Y193492D01*
X467508Y193398D01*
X467529Y193304D01*
X467554Y193212D01*
X467582Y193121D01*
X467614Y193031D01*
X467649Y192942D01*
X467688Y192855D01*
X467731Y192769D01*
X467777Y192685D01*
X467827Y192604D01*
X467879Y192524D01*
X467935Y192446D01*
X467995Y192371D01*
X468057Y192299D01*
X468122Y192229D01*
X468190Y192161D01*
X468260Y192097D01*
X468333Y192035D01*
X468409Y191977D01*
X468487Y191921D01*
X468567Y191869D01*
X468649Y191820D01*
X468733Y191775D01*
X468819Y191733D01*
X468906Y191694D01*
X468995Y191659D01*
X469086Y191628D01*
X469177Y191601D01*
X469270Y191577D01*
X469363Y191557D01*
X469457Y191541D01*
X469552Y191529D01*
X469647Y191520D01*
X469743Y191516D01*
X469838Y191515D01*
X469839Y191516D02*
X470201Y191525D01*
X470563Y191543D01*
X470924Y191570D01*
X471284Y191605D01*
X471644Y191648D01*
X472003Y191700D01*
X472360Y191761D01*
X472715Y191830D01*
X473069Y191907D01*
X473421Y191993D01*
X473771Y192087D01*
X474119Y192190D01*
X474464Y192300D01*
X474806Y192419D01*
X458549Y191516D02*
X454033Y191516D01*
X458549Y191516D02*
X458650Y191518D01*
X458751Y191524D01*
X458852Y191533D01*
X458953Y191546D01*
X459053Y191563D01*
X459152Y191584D01*
X459250Y191608D01*
X459347Y191636D01*
X459444Y191668D01*
X459539Y191703D01*
X459632Y191742D01*
X459724Y191784D01*
X459815Y191830D01*
X459904Y191879D01*
X459990Y191931D01*
X460075Y191987D01*
X460158Y192045D01*
X460238Y192107D01*
X460316Y192172D01*
X460392Y192239D01*
X460465Y192309D01*
X460535Y192382D01*
X460602Y192458D01*
X460667Y192536D01*
X460729Y192616D01*
X460787Y192699D01*
X460843Y192784D01*
X460895Y192870D01*
X460944Y192959D01*
X460990Y193050D01*
X461032Y193142D01*
X461071Y193235D01*
X461106Y193330D01*
X461138Y193427D01*
X461166Y193524D01*
X461190Y193622D01*
X461211Y193721D01*
X461228Y193821D01*
X461241Y193922D01*
X461250Y194023D01*
X461256Y194124D01*
X461258Y194225D01*
X461258Y198741D01*
X461256Y198860D01*
X461250Y198980D01*
X461240Y199099D01*
X461226Y199217D01*
X461209Y199336D01*
X461187Y199453D01*
X461162Y199570D01*
X461132Y199685D01*
X461099Y199800D01*
X461062Y199914D01*
X461022Y200026D01*
X460977Y200137D01*
X460929Y200246D01*
X460878Y200354D01*
X460823Y200460D01*
X460764Y200564D01*
X460702Y200666D01*
X460637Y200766D01*
X460568Y200864D01*
X460496Y200960D01*
X460421Y201053D01*
X460344Y201143D01*
X460263Y201231D01*
X460179Y201316D01*
X460092Y201398D01*
X460003Y201478D01*
X459911Y201554D01*
X459817Y201628D01*
X459720Y201698D01*
X459622Y201765D01*
X459521Y201829D01*
X459417Y201889D01*
X459312Y201946D01*
X459205Y201999D01*
X459097Y202049D01*
X458987Y202095D01*
X458875Y202137D01*
X458762Y202176D01*
X458648Y202211D01*
X458533Y202242D01*
X458416Y202270D01*
X458299Y202293D01*
X458182Y202313D01*
X458063Y202329D01*
X457944Y202341D01*
X457825Y202349D01*
X457706Y202353D01*
X457586Y202353D01*
X457467Y202349D01*
X457348Y202341D01*
X457229Y202329D01*
X457110Y202313D01*
X456993Y202293D01*
X456876Y202270D01*
X456759Y202242D01*
X456644Y202211D01*
X456530Y202176D01*
X456417Y202137D01*
X456305Y202095D01*
X456195Y202049D01*
X456087Y201999D01*
X455980Y201946D01*
X455875Y201889D01*
X455771Y201829D01*
X455670Y201765D01*
X455572Y201698D01*
X455475Y201628D01*
X455381Y201554D01*
X455289Y201478D01*
X455200Y201398D01*
X455113Y201316D01*
X455029Y201231D01*
X454948Y201143D01*
X454871Y201053D01*
X454796Y200960D01*
X454724Y200864D01*
X454655Y200766D01*
X454590Y200666D01*
X454528Y200564D01*
X454469Y200460D01*
X454414Y200354D01*
X454363Y200246D01*
X454315Y200137D01*
X454270Y200026D01*
X454230Y199914D01*
X454193Y199800D01*
X454160Y199685D01*
X454130Y199570D01*
X454105Y199453D01*
X454083Y199336D01*
X454066Y199217D01*
X454052Y199099D01*
X454042Y198980D01*
X454036Y198860D01*
X454034Y198741D01*
X454033Y198741D02*
X454033Y196935D01*
X461258Y196935D01*
X159426Y221742D02*
X159442Y223010D01*
X159488Y224276D01*
X159566Y225541D01*
X159675Y226804D01*
X159814Y228064D01*
X159985Y229320D01*
X160186Y230572D01*
X160418Y231818D01*
X160681Y233058D01*
X160974Y234291D01*
X161297Y235517D01*
X161650Y236735D01*
X162033Y237943D01*
X162445Y239142D01*
X162887Y240330D01*
X163357Y241507D01*
X163857Y242672D01*
X164385Y243824D01*
X164941Y244964D01*
X165525Y246089D01*
X166136Y247199D01*
X166774Y248294D01*
X167439Y249374D01*
X168130Y250436D01*
X168847Y251481D01*
X169590Y252509D01*
X170357Y253517D01*
X171150Y254507D01*
X171966Y255477D01*
X172805Y256427D01*
X173668Y257355D01*
X174553Y258263D01*
X175461Y259148D01*
X176389Y260011D01*
X177339Y260850D01*
X178309Y261666D01*
X179299Y262459D01*
X180307Y263226D01*
X181335Y263969D01*
X182380Y264686D01*
X183442Y265377D01*
X184522Y266042D01*
X185617Y266680D01*
X186727Y267291D01*
X187852Y267875D01*
X188992Y268431D01*
X190144Y268959D01*
X191309Y269459D01*
X192486Y269929D01*
X193674Y270371D01*
X194873Y270783D01*
X196081Y271166D01*
X197299Y271519D01*
X198525Y271842D01*
X199758Y272135D01*
X200998Y272398D01*
X202244Y272630D01*
X203496Y272831D01*
X204752Y273002D01*
X206012Y273141D01*
X207275Y273250D01*
X208540Y273328D01*
X209806Y273374D01*
X211074Y273390D01*
X212342Y273374D01*
X213608Y273328D01*
X214873Y273250D01*
X216136Y273141D01*
X217396Y273002D01*
X218652Y272831D01*
X219904Y272630D01*
X221150Y272398D01*
X222390Y272135D01*
X223623Y271842D01*
X224849Y271519D01*
X226067Y271166D01*
X227275Y270783D01*
X228474Y270371D01*
X229662Y269929D01*
X230839Y269459D01*
X232004Y268959D01*
X233156Y268431D01*
X234296Y267875D01*
X235421Y267291D01*
X236531Y266680D01*
X237626Y266042D01*
X238706Y265377D01*
X239768Y264686D01*
X240813Y263969D01*
X241841Y263226D01*
X242849Y262459D01*
X243839Y261666D01*
X244809Y260850D01*
X245759Y260011D01*
X246687Y259148D01*
X247595Y258263D01*
X248480Y257355D01*
X249343Y256427D01*
X250182Y255477D01*
X250998Y254507D01*
X251791Y253517D01*
X252558Y252509D01*
X253301Y251481D01*
X254018Y250436D01*
X254709Y249374D01*
X255374Y248294D01*
X256012Y247199D01*
X256623Y246089D01*
X257207Y244964D01*
X257763Y243824D01*
X258291Y242672D01*
X258791Y241507D01*
X259261Y240330D01*
X259703Y239142D01*
X260115Y237943D01*
X260498Y236735D01*
X260851Y235517D01*
X261174Y234291D01*
X261467Y233058D01*
X261730Y231818D01*
X261962Y230572D01*
X262163Y229320D01*
X262334Y228064D01*
X262473Y226804D01*
X262582Y225541D01*
X262660Y224276D01*
X262706Y223010D01*
X262722Y221742D01*
X262706Y220474D01*
X262660Y219208D01*
X262582Y217943D01*
X262473Y216680D01*
X262334Y215420D01*
X262163Y214164D01*
X261962Y212912D01*
X261730Y211666D01*
X261467Y210426D01*
X261174Y209193D01*
X260851Y207967D01*
X260498Y206749D01*
X260115Y205541D01*
X259703Y204342D01*
X259261Y203154D01*
X258791Y201977D01*
X258291Y200812D01*
X257763Y199660D01*
X257207Y198520D01*
X256623Y197395D01*
X256012Y196285D01*
X255374Y195190D01*
X254709Y194110D01*
X254018Y193048D01*
X253301Y192003D01*
X252558Y190975D01*
X251791Y189967D01*
X250998Y188977D01*
X250182Y188007D01*
X249343Y187057D01*
X248480Y186129D01*
X247595Y185221D01*
X246687Y184336D01*
X245759Y183473D01*
X244809Y182634D01*
X243839Y181818D01*
X242849Y181025D01*
X241841Y180258D01*
X240813Y179515D01*
X239768Y178798D01*
X238706Y178107D01*
X237626Y177442D01*
X236531Y176804D01*
X235421Y176193D01*
X234296Y175609D01*
X233156Y175053D01*
X232004Y174525D01*
X230839Y174025D01*
X229662Y173555D01*
X228474Y173113D01*
X227275Y172701D01*
X226067Y172318D01*
X224849Y171965D01*
X223623Y171642D01*
X222390Y171349D01*
X221150Y171086D01*
X219904Y170854D01*
X218652Y170653D01*
X217396Y170482D01*
X216136Y170343D01*
X214873Y170234D01*
X213608Y170156D01*
X212342Y170110D01*
X211074Y170094D01*
X209806Y170110D01*
X208540Y170156D01*
X207275Y170234D01*
X206012Y170343D01*
X204752Y170482D01*
X203496Y170653D01*
X202244Y170854D01*
X200998Y171086D01*
X199758Y171349D01*
X198525Y171642D01*
X197299Y171965D01*
X196081Y172318D01*
X194873Y172701D01*
X193674Y173113D01*
X192486Y173555D01*
X191309Y174025D01*
X190144Y174525D01*
X188992Y175053D01*
X187852Y175609D01*
X186727Y176193D01*
X185617Y176804D01*
X184522Y177442D01*
X183442Y178107D01*
X182380Y178798D01*
X181335Y179515D01*
X180307Y180258D01*
X179299Y181025D01*
X178309Y181818D01*
X177339Y182634D01*
X176389Y183473D01*
X175461Y184336D01*
X174553Y185221D01*
X173668Y186129D01*
X172805Y187057D01*
X171966Y188007D01*
X171150Y188977D01*
X170357Y189967D01*
X169590Y190975D01*
X168847Y192003D01*
X168130Y193048D01*
X167439Y194110D01*
X166774Y195190D01*
X166136Y196285D01*
X165525Y197395D01*
X164941Y198520D01*
X164385Y199660D01*
X163857Y200812D01*
X163357Y201977D01*
X162887Y203154D01*
X162445Y204342D01*
X162033Y205541D01*
X161650Y206749D01*
X161297Y207967D01*
X160974Y209193D01*
X160681Y210426D01*
X160418Y211666D01*
X160186Y212912D01*
X159985Y214164D01*
X159814Y215420D01*
X159675Y216680D01*
X159566Y217943D01*
X159488Y219208D01*
X159442Y220474D01*
X159426Y221742D01*
X220726Y178308D02*
X233934Y178308D01*
X243078Y187960D02*
X224790Y187960D01*
X226314Y202438D02*
X256540Y202438D01*
X259842Y220218D02*
X224536Y220218D01*
X225552Y211328D02*
X259080Y211328D01*
X257556Y207010D02*
X227076Y207010D01*
X224790Y215646D02*
X260350Y215646D01*
X253492Y198120D02*
X225552Y198120D01*
X227076Y194818D02*
X250698Y194818D01*
X231394Y181610D02*
X220472Y181610D01*
X220726Y175006D02*
X226822Y175006D01*
X227076Y191262D02*
X249174Y191262D01*
X241554Y184404D02*
X223266Y184404D01*
X229108Y224282D02*
X260096Y224282D01*
X258318Y227838D02*
X224282Y227838D01*
X227838Y232156D02*
X258826Y232156D01*
X257810Y235712D02*
X221742Y235712D01*
X224028Y240284D02*
X256286Y240284D01*
X254254Y243840D02*
X219456Y243840D01*
X218948Y248158D02*
X252222Y248158D01*
X249682Y252222D02*
X218694Y252222D01*
X217678Y256540D02*
X245364Y256540D01*
X239522Y260604D02*
X216916Y260604D01*
X215900Y264668D02*
X233426Y264668D01*
X226060Y267970D02*
X210312Y267970D01*
X208280Y271018D02*
X215138Y271018D01*
X218440Y172466D02*
X211582Y172466D01*
X215392Y175006D02*
X220472Y175006D01*
X262636Y222758D02*
X276860Y222758D01*
X276860Y237744D01*
X298958Y237744D01*
X298958Y211074D01*
X285750Y211074D01*
X285750Y197866D01*
X317246Y197866D01*
X317246Y221234D01*
X331724Y221234D01*
X159512Y221996D02*
X152654Y221996D01*
X150114Y221996D01*
X150114Y233680D01*
X140208Y233680D01*
X140208Y213360D01*
X129540Y213360D01*
X152654Y221996D02*
X152654Y201422D01*
X145796Y201422D01*
X145796Y183388D01*
X163068Y183388D01*
X163068Y167640D01*
X122936Y167640D01*
X122936Y167386D01*
X286258Y237998D02*
X286766Y237998D01*
X286258Y237998D02*
X286258Y258826D01*
X271780Y258826D01*
X271780Y276606D01*
X305562Y276606D01*
X286004Y198120D02*
X275082Y198120D01*
X275082Y177292D01*
X279908Y177292D01*
X279908Y162052D01*
X210058Y273304D02*
X210058Y282194D01*
X205740Y282194D01*
X205740Y303276D01*
X239776Y303276D01*
X239776Y308610D01*
X239776Y335026D01*
X203962Y335026D01*
X203962Y306324D01*
X172974Y306324D01*
X172974Y334264D01*
X160274Y334264D01*
X160274Y289306D01*
X143002Y289306D01*
X239776Y308610D02*
X256794Y308610D01*
X256794Y343408D01*
X282956Y343408D01*
X282956Y331978D01*
X263144Y331978D01*
X263144Y300482D01*
X274574Y300482D01*
X274574Y319024D01*
X303276Y319024D01*
X203962Y335026D02*
X196850Y335026D01*
X196850Y348996D01*
X212344Y348996D01*
X212344Y353060D01*
X175006Y353060D01*
X175006Y362712D01*
X211836Y170180D02*
X211836Y159258D01*
X226822Y159258D01*
X226822Y152908D01*
X192532Y152908D01*
X192532Y147066D01*
X245618Y147066D01*
X245618Y133096D01*
X222758Y133096D01*
X222758Y139700D01*
X175514Y139700D01*
X175514Y116586D01*
X192532Y152654D02*
X192532Y162306D01*
X155702Y162306D01*
X155702Y158242D01*
X148082Y158242D01*
X149860Y233426D02*
X149860Y240030D01*
X157480Y240030D01*
X157480Y264160D01*
X125222Y264160D01*
X154686Y264414D02*
X154686Y276606D01*
X163068Y276606D01*
X163068Y282702D01*
X156464Y282702D01*
X156464Y286766D01*
X173182Y272152D02*
X233182Y272152D01*
X171382Y271952D02*
X171382Y155152D01*
X234182Y154752D02*
X234182Y271552D01*
X233182Y155152D02*
X173182Y155152D01*
D11*
X207254Y206246D02*
X215692Y206246D01*
X207254Y206245D02*
X207141Y206247D01*
X207028Y206253D01*
X206915Y206263D01*
X206802Y206277D01*
X206690Y206294D01*
X206579Y206316D01*
X206469Y206341D01*
X206359Y206371D01*
X206251Y206404D01*
X206144Y206441D01*
X206038Y206481D01*
X205934Y206526D01*
X205831Y206574D01*
X205730Y206625D01*
X205631Y206680D01*
X205534Y206738D01*
X205439Y206800D01*
X205346Y206865D01*
X205256Y206933D01*
X205168Y207004D01*
X205082Y207079D01*
X204999Y207156D01*
X204919Y207236D01*
X204842Y207319D01*
X204767Y207405D01*
X204696Y207493D01*
X204628Y207583D01*
X204563Y207676D01*
X204501Y207771D01*
X204443Y207868D01*
X204388Y207967D01*
X204337Y208068D01*
X204289Y208171D01*
X204244Y208275D01*
X204204Y208381D01*
X204167Y208488D01*
X204134Y208596D01*
X204104Y208706D01*
X204079Y208816D01*
X204057Y208927D01*
X204040Y209039D01*
X204026Y209152D01*
X204016Y209265D01*
X204010Y209378D01*
X204008Y209491D01*
X204010Y209604D01*
X204016Y209717D01*
X204026Y209830D01*
X204040Y209943D01*
X204057Y210055D01*
X204079Y210166D01*
X204104Y210276D01*
X204134Y210386D01*
X204167Y210494D01*
X204204Y210601D01*
X204244Y210707D01*
X204289Y210811D01*
X204337Y210914D01*
X204388Y211015D01*
X204443Y211114D01*
X204501Y211211D01*
X204563Y211306D01*
X204628Y211399D01*
X204696Y211489D01*
X204767Y211577D01*
X204842Y211663D01*
X204919Y211746D01*
X204999Y211826D01*
X205082Y211903D01*
X205168Y211978D01*
X205256Y212049D01*
X205346Y212117D01*
X205439Y212182D01*
X205534Y212244D01*
X205631Y212302D01*
X205730Y212357D01*
X205831Y212408D01*
X205934Y212456D01*
X206038Y212501D01*
X206144Y212541D01*
X206251Y212578D01*
X206359Y212611D01*
X206469Y212641D01*
X206579Y212666D01*
X206690Y212688D01*
X206802Y212705D01*
X206915Y212719D01*
X207028Y212729D01*
X207141Y212735D01*
X207254Y212737D01*
X215692Y212737D01*
X215692Y220653D02*
X206604Y218057D01*
X206604Y224548D01*
X209201Y222601D02*
X204008Y222601D01*
M02*
