M48
;GenerationSoftware,Autodesk,EAGLE,9.6.2*%
;CreationDate,2021-06-29T20:22:09Z*%
FMAT,2
ICI,OFF
METRIC,TZ,000.000
T5C0.350
T4C0.600
T3C0.900
T2C1.016
T1C2.000
%
G90
M71
T1
X16162Y13320
X58486Y13358
X58458Y37140
X16147Y37120
T2
X19253Y11532
X43129Y11659
X19812Y38608
X45669Y11659
X48209Y11659
X50749Y11659
X53289Y11659
X51308Y31344
X55829Y11659
X22352Y38608
X24892Y38608
X27432Y38608
X29972Y38608
X32512Y38608
X13462Y14935
X13462Y17475
X13462Y20015
X13462Y22555
X13462Y25095
X13462Y27635
X13462Y30175
X13462Y32715
X13462Y35255
X19253Y31801
X21793Y31801
X19253Y29261
X21793Y29261
X21793Y11532
X38049Y38583
X40589Y38583
X43129Y38583
X45669Y38583
X48209Y38583
X50749Y38583
X53289Y38583
X55829Y38583
X38049Y11659
X40589Y11659
T3
X47133Y31318
X49133Y31318
T4
X18618Y25095
X18618Y20015
X18618Y17475
X18618Y22555
T5
X38608Y22860
X37389Y26619
X37389Y25273
X41021Y28829
X39878Y28931
X38583Y28956
X38608Y27838
X38583Y26619
X38583Y25248
X38608Y24028
X39802Y22809
X39776Y23927
X39726Y25273
X39827Y26645
X39878Y27838
X41021Y27635
X40945Y26594
X40945Y25222
X40996Y23876
X33743Y23667
X42215Y22784
X42215Y24003
X42215Y25171
X43409Y25197
X43434Y24003
X43434Y22784
X43383Y26518
X43358Y27686
X42266Y27635
X42240Y26568
X43409Y28829
X54407Y30531
X57739Y24435
X57892Y15062
X49252Y23692
X57612Y34493
X29215Y18922
X21107Y16764
X42316Y35387
X37269Y14056
X42802Y16132
X50503Y24653
X51201Y28542
X30803Y28260
X36352Y14328
X38405Y16891
X38354Y34440
X35966Y18824
X33274Y20955
X47201Y24745
X24867Y19609
X34045Y25655
X34960Y25008
X34247Y24428
X33302Y22868
X34140Y22326
X29980Y18364
X22250Y16459
X35662Y16904
X45931Y26059
X35024Y30521
X31720Y27572
X29896Y21640
X45946Y25143
X18118Y37122
X23757Y28590
X33960Y37033
X30767Y30556
X34392Y21133
X40970Y22809
X34392Y18364
X22250Y23241
X41455Y34359
X44897Y34341
X50492Y26035
X50546Y27711
X28753Y16259
X41874Y16190
X44130Y15926
X50470Y21361
X35331Y13691
X42316Y28829
X37389Y28981
X37363Y24054
X37363Y22860
X37389Y27838
M30